<?xml version="1.0" encoding="UTF-8"?>
<svg xmlns="http://www.w3.org/2000/svg" width="313" height="120" viewBox="0 0 313 120" fill="none">
  <rect width="313" height="120" fill="white"></rect>
  <path fill-rule="evenodd" clip-rule="evenodd" d="M47.4279 42.9805C43.823 47.4748 41.6665 53.1808 41.6665 59.3904C41.6665 65.6 43.823 71.306 47.4279 75.8003V42.9805ZM51.0944 39.2399V79.5409C52.809 80.9735 54.7093 82.1914 56.7539 83.1532V35.6276C54.7093 36.5893 52.809 37.8072 51.0944 39.2399ZM60.4204 34.229V84.5517C62.2325 85.0905 64.1266 85.4389 66.0795 85.5737V33.2071C64.1266 33.3419 62.2325 33.6902 60.4204 34.229ZM69.746 33.2071V38.9519H84.3806C80.3224 35.6781 75.2693 33.5882 69.746 33.2071ZM88.1021 42.6185H69.746V48.2815H91.6992C90.7424 46.2364 89.5296 44.3349 88.1021 42.6185ZM93.089 51.948H69.746V57.6074H94.0995C93.9686 55.6547 93.624 53.7605 93.089 51.948ZM94.0926 61.2739H69.746V85.5737C71.794 85.4324 73.7773 85.0561 75.6692 84.4717V67.1614H92.9897C93.5719 65.2806 93.9483 63.3093 94.0926 61.2739ZM91.5426 70.8279H79.3358V74.2093H83.0024V77.8759H79.3358V83.0272C84.6507 80.454 88.9662 76.141 91.5426 70.8279ZM38 59.3904C38 42.87 51.3924 29.4775 67.9128 29.4775C84.4333 29.4775 97.8257 42.87 97.8257 59.3904C97.8257 75.9108 84.4333 89.3032 67.9128 89.3032C51.3924 89.3032 38 75.9108 38 59.3904Z" fill="#00020C"></path>
  <path d="M122.389 77.7248V41.7028H144.645V46.9775H128.152V57.3466H136.249V62.4926H128.152V77.7248H122.389Z" fill="#00020C"></path>
  <path d="M147.891 77.7248V52.2521H153.552V77.7248H147.891ZM150.722 47.6979C149.71 47.6979 148.835 47.372 148.097 46.7202C147.36 46.0683 146.991 45.2107 146.991 44.1472C146.991 43.1008 147.36 42.2517 148.097 41.5999C148.835 40.9309 149.71 40.5964 150.722 40.5964C151.734 40.5964 152.609 40.9309 153.346 41.5999C154.084 42.2517 154.452 43.1008 154.452 44.1472C154.452 45.2107 154.084 46.0683 153.346 46.7202C152.609 47.372 151.734 47.6979 150.722 47.6979Z" fill="#00020C"></path>
  <path d="M157.807 77.7248V40.6736H163.468V77.7248H157.807Z" fill="#00020C"></path>
  <path d="M167.724 77.7248V52.2521H173.384V77.7248H167.724ZM170.554 47.6979C169.542 47.6979 168.667 47.372 167.929 46.7202C167.192 46.0683 166.823 45.2107 166.823 44.1472C166.823 43.1008 167.192 42.2517 167.929 41.5999C168.667 40.9309 169.542 40.5964 170.554 40.5964C171.566 40.5964 172.441 40.9309 173.178 41.5999C173.916 42.2517 174.285 43.1008 174.285 44.1472C174.285 45.2107 173.916 46.0683 173.178 46.7202C172.441 47.372 171.566 47.6979 170.554 47.6979Z" fill="#00020C"></path>
  <path d="M188.755 89.3033C187.057 89.3033 185.376 89.1403 183.712 88.8144C182.065 88.4885 180.496 87.9396 179.003 87.1677L180.418 82.4848C181.722 83.1195 183.051 83.5826 184.407 83.8743C185.779 84.1659 187.134 84.3117 188.472 84.3117C191.422 84.3117 193.669 83.6084 195.213 82.2018C196.757 80.8124 197.529 78.9513 197.529 76.6184V71.0607L198.301 72.27C197.46 73.9511 196.2 75.3148 194.518 76.3611C192.855 77.3903 190.77 77.9049 188.266 77.9049C185.693 77.9049 183.437 77.3303 181.499 76.181C179.578 75.0146 178.077 73.4365 176.996 71.4467C175.933 69.4397 175.401 67.1927 175.401 64.7054C175.401 62.8357 175.71 61.1032 176.327 59.508C176.945 57.8956 177.82 56.489 178.952 55.2883C180.084 54.0875 181.439 53.1527 183.017 52.4837C184.595 51.8147 186.345 51.4802 188.266 51.4802C190.77 51.4802 192.855 52.0034 194.518 53.0497C196.2 54.0789 197.46 55.4341 198.301 57.1151L197.529 58.3244V52.2264H202.804V75.3576C202.804 79.766 201.62 83.1881 199.253 85.6239C196.886 88.0768 193.386 89.3033 188.755 89.3033ZM189.115 72.9905C190.676 72.9905 192.066 72.6474 193.283 71.9613C194.501 71.2751 195.453 70.3146 196.139 69.0795C196.826 67.8445 197.169 66.3864 197.169 64.7054C197.169 63.0244 196.826 61.5578 196.139 60.3056C195.453 59.0534 194.501 58.0928 193.283 57.4238C192.066 56.7377 190.676 56.3946 189.115 56.3946C187.537 56.3946 186.139 56.7377 184.921 57.4238C183.72 58.0928 182.777 59.0534 182.091 60.3056C181.405 61.5578 181.062 63.0244 181.062 64.7054C181.062 66.3864 181.405 67.8445 182.091 69.0795C182.777 70.3146 183.72 71.2751 184.921 71.9613C186.139 72.6474 187.537 72.9905 189.115 72.9905Z" fill="#00020C"></path>
  <path d="M207.054 77.7248V52.2521H212.715V55.7771C213.675 54.1819 214.842 53.0669 216.214 52.4322C217.586 51.7804 219.062 51.4545 220.64 51.4545C221.154 51.4545 221.643 51.4802 222.106 51.5317C222.569 51.5831 223.015 51.6603 223.444 51.7632L222.698 57.604C222.183 57.4496 221.66 57.3295 221.128 57.2437C220.597 57.158 220.065 57.1151 219.533 57.1151C217.561 57.1151 215.931 57.724 214.645 58.9419C213.358 60.1426 212.715 61.7808 212.715 63.8563V77.7248H207.054Z" fill="#00020C"></path>
  <path d="M234.837 78.4967C232.298 78.4967 230.051 77.9135 228.096 76.7471C226.157 75.5635 224.631 73.9596 223.516 71.9355C222.418 69.8943 221.869 67.5786 221.869 64.9885C221.869 63.0501 222.186 61.2576 222.821 59.6109C223.456 57.9642 224.348 56.5319 225.497 55.314C226.646 54.0961 228.019 53.1527 229.614 52.4837C231.209 51.8147 232.95 51.4802 234.837 51.4802C237.341 51.4802 239.434 52.012 241.115 53.0755C242.813 54.139 244.108 55.5112 245 57.1923L244.203 58.4016V52.2521H249.246V77.7248H244.203V71.5753L245 72.7846C244.108 74.4657 242.813 75.8379 241.115 76.9014C239.434 77.9649 237.341 78.4967 234.837 78.4967ZM235.583 73.4793C237.127 73.4793 238.508 73.1363 239.726 72.4501C240.944 71.7469 241.896 70.7605 242.582 69.4912C243.285 68.2219 243.637 66.7209 243.637 64.9885C243.637 63.256 243.285 61.7551 242.582 60.4857C241.896 59.1992 240.944 58.2129 239.726 57.5268C238.508 56.8406 237.127 56.4976 235.583 56.4976C234.022 56.4976 232.633 56.8406 231.415 57.5268C230.214 58.2129 229.262 59.1992 228.559 60.4857C227.856 61.7551 227.504 63.256 227.504 64.9885C227.504 66.7209 227.856 68.2219 228.559 69.4912C229.262 70.7605 230.214 71.7469 231.415 72.4501C232.633 73.1363 234.022 73.4793 235.583 73.4793Z" fill="#00020C"></path>
  <path d="M253.521 77.7248V52.2521H259.182V55.4941C260.245 54.0704 261.48 53.0497 262.887 52.4322C264.293 51.7976 265.751 51.4802 267.261 51.4802C269.594 51.4802 271.523 51.9434 273.05 52.8696C274.577 53.7959 275.709 54.9881 276.446 56.4461C277.201 57.9041 277.578 59.405 277.578 60.9488V77.7248H271.918V62.6985C271.918 60.8802 271.369 59.4222 270.271 58.3244C269.19 57.2266 267.681 56.6777 265.743 56.6777C264.473 56.6777 263.341 56.9607 262.346 57.5268C261.369 58.0928 260.597 58.8819 260.031 59.8939C259.465 60.8888 259.182 62.0552 259.182 63.3932V77.7248H253.521Z" fill="#00020C"></path>
</svg>
