<?xml version="1.0" encoding="UTF-8"?>
<svg xmlns="http://www.w3.org/2000/svg" width="226" height="71" viewBox="0 0 226 71" fill="none">
  <path d="M0.221586 16L5.96172 1.22759H8.52579L14.4137 16H11.7441L10.3829 12.4757H4.12572L2.81731 16H0.221586ZM4.73772 10.4392H9.74979L7.19628 4.00269L4.73772 10.4392ZM20.5648 16.3166C19.5237 16.3166 18.6022 16.0774 17.8003 15.599C17.0054 15.1137 16.3793 14.4559 15.9221 13.6259C15.4718 12.7888 15.2467 11.8391 15.2467 10.7769C15.2467 9.982 15.3769 9.2469 15.6372 8.57159C15.8974 7.89628 16.2632 7.3089 16.7345 6.80945C17.2058 6.31 17.7686 5.9231 18.4228 5.64876C19.077 5.37441 19.791 5.23724 20.5648 5.23724C21.5918 5.23724 22.4501 5.45531 23.1394 5.89145C23.8358 6.32759 24.367 6.89035 24.7327 7.57972L24.4056 8.07566V5.55379H26.4738V16H24.4056V13.4781L24.7327 13.9741C24.367 14.6634 23.8358 15.2262 23.1394 15.6623C22.4501 16.0985 21.5918 16.3166 20.5648 16.3166ZM20.8708 14.259C21.5039 14.259 22.0702 14.1183 22.5696 13.8369C23.0691 13.5485 23.4595 13.144 23.7409 12.6234C24.0293 12.1029 24.1735 11.4874 24.1735 10.7769C24.1735 10.0664 24.0293 9.4509 23.7409 8.93035C23.4595 8.40276 23.0691 7.99828 22.5696 7.7169C22.0702 7.43552 21.5039 7.29483 20.8708 7.29483C20.2307 7.29483 19.6609 7.43552 19.1614 7.7169C18.669 7.99828 18.2786 8.40276 17.9902 8.93035C17.7018 9.4509 17.5576 10.0664 17.5576 10.7769C17.5576 11.4874 17.7018 12.1029 17.9902 12.6234C18.2786 13.144 18.669 13.5485 19.1614 13.8369C19.6609 14.1183 20.2307 14.259 20.8708 14.259ZM30.0103 16V1.22759H35.0856C36.4996 1.22759 37.6427 1.54414 38.5149 2.17724C39.3872 2.80331 39.8234 3.72834 39.8234 4.95234C39.8234 5.42366 39.7108 5.87035 39.4857 6.29241C39.2676 6.70745 38.9827 7.07324 38.631 7.38979C38.2793 7.70634 37.9135 7.93848 37.5336 8.08621C38.3356 8.33241 39.0038 8.78262 39.5385 9.43683C40.0801 10.091 40.3509 10.8965 40.3509 11.8532C40.3509 12.6621 40.1469 13.3797 39.7389 14.0057C39.3309 14.6248 38.7506 15.1137 37.9979 15.4724C37.2452 15.8241 36.3518 16 35.3178 16H30.0103ZM32.3738 14.1429H34.9168C35.9298 14.1429 36.6825 13.9459 37.1749 13.552C37.6673 13.151 37.9135 12.5496 37.9135 11.7477C37.9135 10.9528 37.6638 10.3478 37.1643 9.93276C36.6719 9.51772 35.9087 9.31021 34.8746 9.31021H32.3738V14.1429ZM32.3738 7.53752H34.7163C35.2861 7.53752 35.7785 7.44607 36.1936 7.26317C36.6086 7.08028 36.9322 6.81648 37.1643 6.47179C37.3965 6.1271 37.5125 5.71207 37.5125 5.22669C37.5125 4.53731 37.2663 4.00972 36.7739 3.64393C36.2885 3.2711 35.5921 3.08469 34.6847 3.08469H32.3738V7.53752ZM49.1572 16.3166C48.4608 16.3166 47.8312 16.2146 47.2684 16.0106C46.7127 15.8066 46.2308 15.5252 45.8228 15.1664C45.4148 14.8006 45.0842 14.3821 44.831 13.9108L45.1686 13.3937V16H43.0794V0.805518H45.3902V7.95959L44.9154 7.44255C45.3797 6.76724 45.96 6.23262 46.6564 5.83869C47.3528 5.43772 48.1759 5.23724 49.1255 5.23724C50.1666 5.23724 51.0811 5.48697 51.869 5.98641C52.6639 6.47883 53.2829 7.14359 53.7261 7.98069C54.1692 8.81779 54.3908 9.74986 54.3908 10.7769C54.3908 11.5718 54.2607 12.3069 54.0004 12.9822C53.7472 13.6575 53.3884 14.2449 52.9241 14.7443C52.4599 15.2368 51.9077 15.6237 51.2675 15.905C50.6274 16.1794 49.9239 16.3166 49.1572 16.3166ZM48.7351 14.259C49.3752 14.259 49.945 14.1183 50.4445 13.8369C50.951 13.5485 51.3484 13.144 51.6368 12.6234C51.9252 12.1029 52.0695 11.4874 52.0695 10.7769C52.0695 10.0664 51.9252 9.4509 51.6368 8.93035C51.3555 8.40276 50.9615 7.99828 50.455 7.7169C49.9556 7.43552 49.3823 7.29483 48.7351 7.29483C48.0879 7.29483 47.5111 7.43552 47.0046 7.7169C46.5052 7.99828 46.1112 8.40276 45.8228 8.93035C45.5344 9.4509 45.3902 10.0664 45.3902 10.7769C45.3902 11.4874 45.5344 12.1029 45.8228 12.6234C46.1112 13.144 46.5052 13.5485 47.0046 13.8369C47.5111 14.1183 48.0879 14.259 48.7351 14.259ZM63.7604 16.3166C62.2269 16.3166 60.8869 16 59.7402 15.3669C58.5936 14.7338 57.7002 13.8404 57.0601 12.6868C56.427 11.5261 56.1104 10.1719 56.1104 8.62434C56.1104 7.49883 56.2969 6.46828 56.6697 5.53269C57.0495 4.59007 57.5806 3.77407 58.263 3.08469C58.9524 2.39531 59.7649 1.86069 60.7004 1.48083C61.636 1.10097 62.6631 0.911035 63.7815 0.911035C64.9071 0.911035 65.8778 1.05172 66.6938 1.3331C67.5169 1.61448 68.2344 2.01545 68.8464 2.536L67.6224 4.46697C67.1581 4.03786 66.6164 3.71779 65.9974 3.50676C65.3784 3.29572 64.696 3.19021 63.9504 3.19021C63.1273 3.19021 62.3852 3.31683 61.724 3.57007C61.0627 3.82331 60.4964 4.18559 60.0251 4.6569C59.5609 5.12117 59.2021 5.68745 58.9489 6.35572C58.7026 7.01697 58.5795 7.76614 58.5795 8.60324C58.5795 9.74283 58.8011 10.7171 59.2443 11.5261C59.6945 12.335 60.3276 12.9541 61.1436 13.3832C61.9666 13.8052 62.9374 14.0163 64.0559 14.0163C64.8015 14.0163 65.5191 13.9072 66.2084 13.6892C66.9049 13.4641 67.5555 13.1018 68.1605 12.6023L69.2579 14.5966C68.5474 15.1523 67.7349 15.5779 66.8204 15.8734C65.913 16.1688 64.893 16.3166 63.7604 16.3166ZM76.2276 16.3166C75.1302 16.3166 74.1525 16.0774 73.2942 15.599C72.436 15.1137 71.7607 14.4559 71.2683 13.6259C70.7829 12.7888 70.5402 11.8391 70.5402 10.7769C70.5402 9.97497 70.6845 9.23986 70.9729 8.57159C71.2613 7.89628 71.6693 7.3089 72.1969 6.80945C72.7245 6.31 73.3435 5.9231 74.054 5.64876C74.7715 5.37441 75.5488 5.23724 76.3859 5.23724C77.0894 5.23724 77.74 5.33221 78.338 5.52214C78.9429 5.70503 79.4987 5.98993 80.0051 6.37683L78.8867 8.14952C78.5631 7.8611 78.1902 7.64655 77.7682 7.50586C77.3531 7.36517 76.91 7.29483 76.4387 7.29483C75.7071 7.29483 75.0775 7.432 74.5499 7.70635C74.0223 7.98069 73.6108 8.37814 73.3154 8.89869C73.0269 9.41221 72.8827 10.0348 72.8827 10.7663C72.8827 11.8567 73.1993 12.7114 73.8324 13.3304C74.4725 13.9494 75.3413 14.259 76.4387 14.259C76.9592 14.259 77.4516 14.164 77.9159 13.9741C78.3802 13.7771 78.7671 13.5203 79.0766 13.2038L80.1845 14.9659C79.6288 15.388 79.0098 15.7186 78.3274 15.9578C77.6451 16.197 76.9451 16.3166 76.2276 16.3166ZM82.6246 16V1.22759H87.2463C88.7165 1.22759 90.0143 1.54414 91.1398 2.17724C92.2654 2.80331 93.1447 3.67207 93.7778 4.78352C94.4179 5.89497 94.738 7.17524 94.738 8.62434C94.738 9.70062 94.5551 10.6925 94.1893 11.5999C93.8305 12.5003 93.317 13.2777 92.6487 13.9319C91.9805 14.5861 91.1891 15.0961 90.2746 15.4619C89.3601 15.8206 88.3507 16 87.2463 16H82.6246ZM84.9882 13.7947H86.9614C87.7563 13.7947 88.4773 13.6786 89.1245 13.4465C89.7787 13.2073 90.3379 12.8626 90.8022 12.4124C91.2735 11.9622 91.6358 11.4206 91.889 10.7874C92.1423 10.1473 92.2689 9.42628 92.2689 8.62434C92.2689 7.54807 92.0473 6.62303 91.6041 5.84924C91.168 5.06841 90.5525 4.47048 89.7576 4.05545C88.9627 3.63338 88.0306 3.42235 86.9614 3.42235H84.9882V13.7947ZM101.7 16.3166C100.68 16.3166 99.7759 16.0774 98.988 15.599C98.2002 15.1137 97.5811 14.4559 97.1309 13.6259C96.6878 12.7888 96.4662 11.8391 96.4662 10.7769C96.4662 10.0101 96.5928 9.29262 96.846 8.62434C97.0993 7.94903 97.458 7.35814 97.9223 6.85166C98.3936 6.34517 98.9493 5.95124 99.5895 5.66986C100.237 5.38145 100.951 5.23724 101.731 5.23724C102.681 5.23724 103.504 5.42717 104.201 5.80703C104.897 6.1869 105.477 6.71448 105.942 7.38979L105.456 7.90683V0.805518H107.778V16H105.688V13.4887L106.026 14.0163C105.646 14.6775 105.101 15.2262 104.391 15.6623C103.687 16.0985 102.79 16.3166 101.7 16.3166ZM102.122 14.259C102.769 14.259 103.342 14.1183 103.842 13.8369C104.348 13.5485 104.746 13.144 105.034 12.6234C105.323 12.1029 105.467 11.4874 105.467 10.7769C105.467 10.0664 105.323 9.4509 105.034 8.93035C104.746 8.40276 104.348 7.99828 103.842 7.7169C103.342 7.43552 102.769 7.29483 102.122 7.29483C101.475 7.29483 100.901 7.43552 100.402 7.7169C99.9025 7.99828 99.5086 8.40276 99.2202 8.93035C98.9318 9.4509 98.7875 10.0664 98.7875 10.7769C98.7875 11.4874 98.9318 12.1029 99.2202 12.6234C99.5086 13.144 99.9025 13.5485 100.402 13.8369C100.908 14.1183 101.482 14.259 102.122 14.259ZM111.312 16V1.22759H120.861V3.31683H113.676V7.30538H119.88V9.27855H113.676V13.8897H120.925V16H111.312ZM128.697 16.3166C127.572 16.3166 126.583 16.0879 125.732 15.6307C124.881 15.1664 124.216 14.5192 123.738 13.6892C123.267 12.8591 123.031 11.8954 123.031 10.798C123.031 9.99607 123.168 9.25745 123.442 8.58214C123.717 7.89979 124.104 7.3089 124.603 6.80945C125.103 6.31 125.686 5.9231 126.355 5.64876C127.03 5.37441 127.765 5.23724 128.56 5.23724C129.425 5.23724 130.196 5.392 130.871 5.70152C131.546 6.004 132.105 6.42959 132.549 6.97828C132.999 7.52697 133.315 8.17062 133.498 8.90924C133.688 9.64083 133.72 10.4357 133.593 11.2939H125.257C125.243 11.92 125.38 12.4687 125.669 12.94C125.957 13.4043 126.369 13.7666 126.903 14.0268C127.445 14.2871 128.082 14.4172 128.813 14.4172C129.404 14.4172 129.974 14.3293 130.523 14.1534C131.078 13.9706 131.581 13.7032 132.032 13.3515L132.928 15.0187C132.591 15.293 132.183 15.5287 131.704 15.7257C131.226 15.9156 130.727 16.0598 130.206 16.1583C129.686 16.2638 129.183 16.3166 128.697 16.3166ZM125.395 9.58455H131.314C131.293 8.79669 131.04 8.17766 130.554 7.72745C130.076 7.27724 129.394 7.05214 128.507 7.05214C127.649 7.05214 126.935 7.27724 126.365 7.72745C125.803 8.17766 125.479 8.79669 125.395 9.58455ZM136.311 16V1.22759H145.438V3.39069H138.674V7.64303H144.805V9.75338H138.674V16H136.311ZM149.27 16V3.84441C149.27 2.80331 149.569 1.98379 150.167 1.38586C150.772 0.787931 151.605 0.488966 152.667 0.488966C153.054 0.488966 153.406 0.531173 153.723 0.615586C154.046 0.692966 154.345 0.805518 154.62 0.953241L154.187 2.78924C153.983 2.67669 153.786 2.59931 153.596 2.5571C153.406 2.5149 153.22 2.49379 153.037 2.49379C152.608 2.49379 152.256 2.60283 151.982 2.8209C151.714 3.03897 151.581 3.41179 151.581 3.93938V5.55379H154.324V7.47421H151.581V16H149.27ZM147.17 7.47421V5.55379H149.576V7.47421H147.17ZM164.067 16.3166C162.893 16.3166 161.806 16.1372 160.807 15.7784C159.808 15.4197 158.932 14.9061 158.18 14.2379C157.434 13.5626 156.854 12.7536 156.439 11.811C156.023 10.8683 155.816 9.80966 155.816 8.6349C155.816 7.46717 156.016 6.412 156.417 5.46938C156.818 4.51972 157.378 3.70724 158.095 3.03193C158.82 2.34959 159.667 1.82552 160.638 1.45972C161.616 1.09393 162.682 0.911035 163.835 0.911035C164.37 0.911035 164.912 0.953241 165.46 1.03766C166.009 1.12207 166.547 1.26276 167.075 1.45972C167.609 1.64966 168.116 1.90993 168.594 2.24055L167.56 4.09766C167.025 3.76 166.445 3.50676 165.819 3.33793C165.2 3.1691 164.56 3.08469 163.899 3.08469C163.04 3.08469 162.263 3.21483 161.567 3.4751C160.87 3.72835 160.276 4.09766 159.783 4.58304C159.291 5.06138 158.911 5.64172 158.644 6.32407C158.384 7.00641 158.253 7.77317 158.253 8.62434C158.253 9.82021 158.507 10.8367 159.013 11.6738C159.52 12.5109 160.216 13.1475 161.102 13.5837C161.996 14.0128 163.023 14.2273 164.183 14.2273C164.753 14.2273 165.267 14.1746 165.724 14.069C166.181 13.9565 166.551 13.8299 166.832 13.6892V10.1227H163.477V8.16007H168.953V15.0609C168.566 15.3212 168.081 15.5463 167.497 15.7362C166.92 15.9261 166.322 16.0703 165.703 16.1688C165.091 16.2673 164.546 16.3166 164.067 16.3166ZM176.835 20.7483C176.138 20.7483 175.449 20.6814 174.766 20.5478C174.091 20.4141 173.447 20.189 172.835 19.8725L173.416 17.9521C173.95 18.2123 174.496 18.4023 175.051 18.5219C175.614 18.6414 176.17 18.7012 176.718 18.7012C177.928 18.7012 178.85 18.4128 179.483 17.836C180.116 17.2662 180.433 16.503 180.433 15.5463V13.2671L180.749 13.763C180.405 14.4524 179.887 15.0117 179.198 15.4408C178.516 15.8628 177.661 16.0739 176.634 16.0739C175.579 16.0739 174.654 15.8382 173.859 15.3669C173.071 14.8886 172.456 14.2414 172.012 13.4254C171.576 12.6023 171.358 11.6808 171.358 10.6608C171.358 9.89407 171.485 9.18359 171.738 8.52938C171.991 7.86814 172.35 7.29131 172.814 6.7989C173.279 6.30648 173.834 5.9231 174.481 5.64876C175.129 5.37441 175.846 5.23724 176.634 5.23724C177.661 5.23724 178.516 5.45179 179.198 5.8809C179.887 6.30297 180.405 6.85869 180.749 7.54807L180.433 8.044V5.54324H182.596V15.0292C182.596 16.8371 182.11 18.2405 181.14 19.2394C180.169 20.2453 178.734 20.7483 176.835 20.7483ZM176.982 14.0585C177.622 14.0585 178.192 13.9178 178.692 13.6364C179.191 13.355 179.581 12.9611 179.863 12.4546C180.144 11.9481 180.285 11.3502 180.285 10.6608C180.285 9.97145 180.144 9.37 179.863 8.85648C179.581 8.34297 179.191 7.94903 178.692 7.67469C178.192 7.39331 177.622 7.25262 176.982 7.25262C176.335 7.25262 175.762 7.39331 175.262 7.67469C174.77 7.94903 174.383 8.34297 174.102 8.85648C173.82 9.37 173.68 9.97145 173.68 10.6608C173.68 11.3502 173.82 11.9481 174.102 12.4546C174.383 12.9611 174.77 13.355 175.262 13.6364C175.762 13.9178 176.335 14.0585 176.982 14.0585ZM186.122 16V1.22759H188.486V7.09434H195.64V1.22759H198.003V16H195.64V9.268H188.486V16H186.122ZM201.541 16V0.805518H203.862V7.68524L203.387 7.16821C203.852 6.52103 204.411 6.03917 205.065 5.72262C205.719 5.39903 206.409 5.23724 207.133 5.23724C208.083 5.23724 208.874 5.43069 209.507 5.81759C210.14 6.19745 210.615 6.68986 210.932 7.29483C211.248 7.89979 211.407 8.52938 211.407 9.18359V16H209.085V9.84835C209.085 9.11676 208.857 8.52234 208.399 8.0651C207.942 7.60786 207.32 7.37572 206.532 7.36869C206.011 7.36869 205.55 7.48476 205.149 7.7169C204.748 7.942 204.432 8.26207 204.2 8.6771C203.975 9.09214 203.862 9.574 203.862 10.1227V16H201.541ZM214.83 16V1.22759H217.194V16H214.83ZM220.748 16V5.55379H223.07V16H220.748ZM221.909 3.68614C221.494 3.68614 221.135 3.55248 220.833 3.28517C220.53 3.01786 220.379 2.66614 220.379 2.23C220.379 1.8009 220.53 1.45269 220.833 1.18538C221.135 0.911035 221.494 0.773862 221.909 0.773862C222.324 0.773862 222.683 0.911035 222.985 1.18538C223.288 1.45269 223.439 1.8009 223.439 2.23C223.439 2.66614 223.288 3.01786 222.985 3.28517C222.683 3.55248 222.324 3.68614 221.909 3.68614ZM3.88303 41.3166C3.22179 41.3166 2.59221 41.2286 1.99428 41.0528C1.40338 40.8839 0.847655 40.6448 0.327103 40.3352L1.09738 38.3937C1.51241 38.6329 1.92393 38.8193 2.33193 38.953C2.74697 39.0796 3.16552 39.1429 3.58759 39.1429C4.47393 39.1429 5.15276 38.9319 5.62407 38.5098C6.09538 38.0877 6.33103 37.4019 6.33103 36.4522V26.2276H8.69462V36.8426C8.69462 37.743 8.50821 38.5309 8.13538 39.2062C7.76255 39.8745 7.21738 40.395 6.49986 40.7679C5.78234 41.1337 4.91007 41.3166 3.88303 41.3166ZM11.3949 45.7483C10.9376 45.7483 10.5367 45.7026 10.192 45.6111C9.84729 45.5267 9.52722 45.4071 9.23177 45.2523L9.76991 43.4691C9.94577 43.5535 10.1216 43.6203 10.2975 43.6696C10.4734 43.7259 10.6844 43.754 10.9306 43.754C11.3949 43.754 11.722 43.6239 11.9119 43.3636C12.1089 43.1033 12.2074 42.7164 12.2074 42.2029V30.5538H14.5287V42.4245C14.5287 43.0998 14.3986 43.6837 14.1383 44.1761C13.8851 44.6755 13.5228 45.0624 13.0515 45.3368C12.5802 45.6111 12.028 45.7483 11.3949 45.7483ZM13.368 28.6861C12.953 28.6861 12.5943 28.5525 12.2918 28.2852C11.9893 28.0179 11.838 27.6661 11.838 27.23C11.838 26.8009 11.9893 26.4527 12.2918 26.1854C12.5943 25.911 12.953 25.7739 13.368 25.7739C13.7831 25.7739 14.1418 25.911 14.4443 26.1854C14.7468 26.4527 14.898 26.8009 14.898 27.23C14.898 27.6661 14.7468 28.0179 14.4443 28.2852C14.1418 28.5525 13.7831 28.6861 13.368 28.6861ZM18.0571 41V26.2276H20.4207V33.7932L26.5302 26.2276H29.4424L24.04 32.9174L30.2549 41H27.2055L22.4889 34.7217L20.4207 37.1697V41H18.0571ZM32.4246 41V25.8055H34.746V34.7956L38.8612 30.5538H41.6046L37.9115 34.5529L42.1428 41H39.3677L36.2232 36.0618L34.746 37.5601V41H32.4246ZM44.4983 41V26.2276H46.8619V38.8263H53.2984V41H44.4983ZM55.6714 41V25.8055H57.9928V41H55.6714ZM61.5212 41V26.2276H63.8109L69.8359 36.0301L68.9179 36.0407L74.7214 26.2276H76.9689V41H74.6581L74.6897 29.372L75.1434 29.5303L70.1208 37.8134H68.3903L63.2727 29.5303L63.6526 29.372L63.6843 41H61.5212ZM80.505 41V30.5538H82.8264V31.9888C83.1078 31.5808 83.4314 31.2502 83.7972 30.997C84.163 30.7367 84.5499 30.5468 84.9579 30.4272C85.3659 30.3006 85.7809 30.2372 86.203 30.2372C87.0541 30.2372 87.7611 30.4237 88.3239 30.7965C88.8937 31.1693 89.2946 31.6477 89.5268 32.2315C90.0473 31.4718 90.6523 30.9512 91.3417 30.6699C92.031 30.3814 92.7239 30.2372 93.4203 30.2372C94.3841 30.2372 95.1543 30.4272 95.7312 30.807C96.308 31.1869 96.723 31.6758 96.9763 32.2737C97.2365 32.8717 97.3667 33.4872 97.3667 34.1203V41H95.0453V34.7956C95.0453 34.071 94.8448 33.4872 94.4439 33.044C94.0499 32.5938 93.4731 32.3687 92.7134 32.3687C92.2139 32.3687 91.7672 32.4777 91.3733 32.6958C90.9794 32.9139 90.6663 33.2163 90.4342 33.6032C90.2091 33.9831 90.0965 34.4228 90.0965 34.9222V41H87.7752V34.7956C87.7752 34.071 87.5782 33.4872 87.1843 33.044C86.7903 32.5938 86.21 32.3687 85.4432 32.3687C84.9508 32.3687 84.5041 32.4777 84.1032 32.6958C83.7092 32.9139 83.3962 33.2163 83.1641 33.6032C82.939 33.9831 82.8264 34.4228 82.8264 34.9222V41H80.505ZM100.802 41V26.2276H103.06L110.52 36.9587V26.2276H112.82V41H110.562L103.112 30.1423V41H100.802ZM116.364 41V30.5538H118.686V31.8833C119.122 31.2994 119.628 30.8809 120.205 30.6277C120.782 30.3674 121.38 30.2372 121.999 30.2372C122.956 30.2372 123.747 30.4272 124.373 30.807C124.999 31.1869 125.464 31.6758 125.766 32.2737C126.076 32.8717 126.23 33.4872 126.23 34.1203V41H123.909V34.8378C123.909 34.0921 123.684 33.4942 123.234 33.044C122.79 32.5938 122.171 32.3687 121.376 32.3687C120.856 32.3687 120.392 32.4848 119.984 32.7169C119.583 32.949 119.266 33.2726 119.034 33.6877C118.802 34.0957 118.686 34.574 118.686 35.1227V41H116.364ZM136.513 41.3166C135.401 41.3166 134.371 41.1231 133.421 40.7362C132.478 40.3423 131.655 39.7971 130.952 39.1007C130.255 38.4043 129.71 37.5883 129.316 36.6527C128.929 35.7171 128.736 34.7041 128.736 33.6138C128.736 32.5164 128.929 31.4999 129.316 30.5643C129.71 29.6288 130.255 28.8128 130.952 28.1163C131.655 27.4199 132.478 26.8783 133.421 26.4914C134.371 26.1045 135.401 25.911 136.513 25.911C137.617 25.911 138.641 26.108 139.583 26.5019C140.526 26.8959 141.349 27.4446 142.052 28.148C142.756 28.8514 143.301 29.671 143.688 30.6066C144.082 31.5351 144.279 32.5375 144.279 33.6138C144.279 34.7041 144.082 35.7171 143.688 36.6527C143.301 37.5883 142.756 38.4043 142.052 39.1007C141.349 39.7971 140.526 40.3423 139.583 40.7362C138.641 41.1231 137.617 41.3166 136.513 41.3166ZM136.513 39.0796C137.258 39.0796 137.951 38.953 138.591 38.6997C139.238 38.4394 139.801 38.0701 140.28 37.5918C140.758 37.1064 141.131 36.5296 141.398 35.8613C141.672 35.186 141.81 34.4368 141.81 33.6138C141.81 32.5094 141.574 31.5492 141.103 30.7332C140.638 29.9101 140.005 29.2735 139.203 28.8233C138.401 28.3731 137.504 28.148 136.513 28.148C135.767 28.148 135.071 28.2781 134.423 28.5384C133.783 28.7917 133.22 29.1574 132.735 29.6358C132.257 30.1141 131.88 30.691 131.606 31.3663C131.339 32.0346 131.205 32.7837 131.205 33.6138C131.205 34.7182 131.441 35.6819 131.912 36.505C132.383 37.321 133.016 37.9541 133.811 38.4043C134.613 38.8545 135.514 39.0796 136.513 39.0796ZM151.645 41.3166C150.555 41.3166 149.58 41.0668 148.722 40.5674C147.871 40.0609 147.203 39.3891 146.717 38.552C146.232 37.7079 145.989 36.7828 145.989 35.7769C145.989 35.0312 146.126 34.3278 146.401 33.6666C146.682 32.9983 147.076 32.4074 147.583 31.8939C148.096 31.3803 148.697 30.9759 149.387 30.6804C150.076 30.385 150.832 30.2372 151.655 30.2372C152.746 30.2372 153.717 30.4905 154.568 30.997C155.426 31.4964 156.098 32.1682 156.583 33.0123C157.069 33.8494 157.311 34.771 157.311 35.7769C157.311 36.5155 157.171 37.219 156.889 37.8872C156.615 38.5555 156.224 39.1464 155.718 39.6599C155.211 40.1734 154.613 40.5779 153.924 40.8734C153.235 41.1688 152.475 41.3166 151.645 41.3166ZM151.645 39.259C152.292 39.259 152.865 39.1183 153.365 38.8369C153.871 38.5485 154.269 38.144 154.557 37.6234C154.846 37.1029 154.99 36.4874 154.99 35.7769C154.99 35.0664 154.846 34.4509 154.557 33.9303C154.269 33.4028 153.871 32.9983 153.365 32.7169C152.865 32.4355 152.292 32.2948 151.645 32.2948C150.998 32.2948 150.421 32.4355 149.914 32.7169C149.415 32.9983 149.021 33.4028 148.733 33.9303C148.451 34.4509 148.311 35.0664 148.311 35.7769C148.311 36.4874 148.455 37.1029 148.743 37.6234C149.032 38.144 149.426 38.5485 149.925 38.8369C150.431 39.1183 151.005 39.259 151.645 39.259ZM159.949 41V26.2276H165.299C166.347 26.2276 167.272 26.4105 168.074 26.7763C168.883 27.135 169.516 27.6556 169.973 28.3379C170.43 29.0132 170.659 29.8257 170.659 30.7754C170.659 31.7532 170.448 32.5797 170.026 33.255C169.604 33.9233 168.988 34.4333 168.179 34.785C167.377 35.1297 166.4 35.3021 165.246 35.3021H162.313V41H159.949ZM162.313 33.2761H165.278C166.234 33.2761 166.976 33.0757 167.504 32.6747C168.032 32.2667 168.295 31.6512 168.295 30.8281C168.295 30.0121 168.025 29.3861 167.483 28.9499C166.941 28.5138 166.213 28.2957 165.299 28.2957H162.313V33.2761ZM173.018 45.4317V30.5538H175.107V32.0205C175.522 31.4929 176.053 31.0638 176.701 30.7332C177.348 30.4026 178.146 30.2372 179.096 30.2372C180.116 30.2372 181.02 30.4799 181.808 30.9653C182.603 31.4437 183.222 32.1014 183.665 32.9385C184.108 33.7686 184.33 34.7147 184.33 35.7769C184.33 36.5437 184.203 37.2647 183.95 37.94C183.696 38.6083 183.334 39.1957 182.863 39.7021C182.399 40.2086 181.843 40.6061 181.196 40.8945C180.556 41.1759 179.845 41.3166 179.064 41.3166C178.248 41.3166 177.531 41.1688 176.912 40.8734C176.293 40.5779 175.765 40.1805 175.329 39.681V45.4317H173.018ZM178.674 39.259C179.321 39.259 179.894 39.1183 180.394 38.8369C180.9 38.5485 181.294 38.144 181.576 37.6234C181.864 37.1029 182.008 36.4874 182.008 35.7769C182.008 35.0664 181.864 34.4509 181.576 33.9303C181.287 33.4028 180.89 32.9983 180.383 32.7169C179.884 32.4355 179.314 32.2948 178.674 32.2948C178.027 32.2948 177.45 32.4355 176.943 32.7169C176.444 32.9983 176.05 33.4028 175.762 33.9303C175.473 34.4509 175.329 35.0664 175.329 35.7769C175.329 36.4874 175.473 37.1029 175.762 37.6234C176.05 38.144 176.444 38.5485 176.943 38.8369C177.45 39.1183 178.027 39.259 178.674 39.259ZM199.671 41.823L198.131 40.0292C197.512 40.4302 196.833 40.7468 196.094 40.9789C195.356 41.204 194.578 41.3166 193.762 41.3166C192.679 41.3166 191.67 41.1231 190.734 40.7362C189.799 40.3493 188.979 39.8112 188.276 39.1218C187.579 38.4254 187.034 37.6094 186.64 36.6738C186.246 35.7312 186.049 34.7112 186.049 33.6138C186.049 32.5164 186.243 31.4999 186.629 30.5643C187.023 29.6288 187.572 28.8128 188.276 28.1163C188.979 27.4199 189.802 26.8783 190.745 26.4914C191.694 26.1045 192.721 25.911 193.826 25.911C194.916 25.911 195.929 26.108 196.865 26.5019C197.807 26.8888 198.63 27.4305 199.334 28.1269C200.044 28.8233 200.596 29.6358 200.99 30.5643C201.391 31.4929 201.592 32.4988 201.592 33.5821C201.592 34.6162 201.409 35.587 201.043 36.4944C200.684 37.3948 200.188 38.1827 199.555 38.858L201.064 40.5885L199.671 41.823ZM193.826 39.2484C194.367 39.2484 194.884 39.1746 195.377 39.0268C195.869 38.8791 196.323 38.6681 196.738 38.3937L194.501 35.8086L195.82 34.6479L198.068 37.2119C198.44 36.7547 198.736 36.2236 198.954 35.6186C199.172 35.0066 199.281 34.3383 199.281 33.6138C199.281 32.4883 199.038 31.5105 198.553 30.6804C198.068 29.8433 197.41 29.1961 196.58 28.7389C195.757 28.2746 194.839 28.0425 193.826 28.0425C193.066 28.0425 192.356 28.1761 191.694 28.4434C191.04 28.7037 190.467 29.0766 189.974 29.5619C189.489 30.0473 189.109 30.6347 188.835 31.3241C188.56 32.0064 188.423 32.7697 188.423 33.6138C188.423 34.7393 188.662 35.7241 189.141 36.5683C189.619 37.4124 190.266 38.0701 191.082 38.5414C191.898 39.0128 192.813 39.2484 193.826 39.2484ZM212.303 45.4317V38.647L212.778 39.164C212.314 39.8323 211.733 40.3599 211.037 40.7468C210.34 41.1266 209.517 41.3166 208.568 41.3166C207.534 41.3166 206.619 41.0703 205.824 40.5779C205.029 40.0785 204.41 39.4102 203.967 38.5731C203.524 37.736 203.302 36.8039 203.302 35.7769C203.302 34.982 203.429 34.2469 203.682 33.5716C203.942 32.8963 204.305 32.3089 204.769 31.8094C205.233 31.31 205.786 30.9231 206.426 30.6488C207.066 30.3744 207.769 30.2372 208.536 30.2372C209.261 30.2372 209.901 30.3357 210.456 30.5327C211.012 30.7297 211.487 31.004 211.881 31.3557C212.282 31.7004 212.609 32.0943 212.862 32.5375L212.525 33.0651V30.5538H214.614V45.4317H212.303ZM208.958 39.259C209.605 39.259 210.179 39.1183 210.678 38.8369C211.184 38.5485 211.582 38.144 211.87 37.6234C212.159 37.1029 212.303 36.4874 212.303 35.7769C212.303 35.0664 212.159 34.4509 211.87 33.9303C211.582 33.4028 211.184 32.9983 210.678 32.7169C210.179 32.4355 209.605 32.2948 208.958 32.2948C208.318 32.2948 207.745 32.4355 207.238 32.7169C206.739 32.9983 206.345 33.4028 206.056 33.9303C205.768 34.4509 205.624 35.0664 205.624 35.7769C205.624 36.4874 205.768 37.1029 206.056 37.6234C206.345 38.144 206.739 38.5485 207.238 38.8369C207.738 39.1183 208.311 39.259 208.958 39.259ZM1.92041 66V51.2276H7.50228C8.52931 51.2276 9.41566 51.407 10.1613 51.7657C10.914 52.1174 11.4943 52.6204 11.9023 53.2746C12.3174 53.9288 12.5249 54.7061 12.5249 55.6066C12.5249 56.3381 12.3666 56.9853 12.0501 57.5481C11.7406 58.1108 11.3044 58.5751 10.7417 58.9409C10.1789 59.2997 9.52821 59.5423 8.78959 59.669L13.2424 66H10.3829L6.29938 60.0383H4.284V66H1.92041ZM4.284 58.0757H7.11186C8.06855 58.0757 8.81069 57.8717 9.33828 57.4637C9.8729 57.0557 10.1402 56.4718 10.1402 55.7121C10.1402 54.9312 9.90103 54.3228 9.42269 53.8866C8.95138 53.4505 8.23738 53.2324 7.28069 53.2324H4.284V58.0757ZM15.6284 66V55.5538H17.9498V56.9994C18.3437 56.3452 18.8221 55.8879 19.3848 55.6277C19.9476 55.3603 20.5526 55.2267 21.1997 55.2267C21.4108 55.2267 21.6112 55.2372 21.8012 55.2583C21.9911 55.2794 22.174 55.3111 22.3499 55.3533L22.0439 57.7486C21.8328 57.6852 21.6183 57.636 21.4002 57.6008C21.1821 57.5657 20.9641 57.5481 20.746 57.5481C19.937 57.5481 19.2688 57.7978 18.7412 58.2972C18.2136 58.7897 17.9498 59.4614 17.9498 60.3126V66H15.6284ZM29.4017 66.3166C28.3817 66.3166 27.3828 66.1723 26.405 65.8839C25.4343 65.5885 24.6148 65.1664 23.9465 64.6177L25.1072 62.8134C25.4589 63.1159 25.8669 63.3761 26.3312 63.5942C26.8025 63.8123 27.3019 63.9811 27.8295 64.1007C28.3571 64.2132 28.8847 64.2695 29.4123 64.2695C30.376 64.2695 31.1533 64.0866 31.7442 63.7208C32.3421 63.355 32.6411 62.8204 32.6411 62.117C32.6411 61.5894 32.4371 61.1427 32.0291 60.7769C31.6281 60.4111 30.8825 60.0734 29.7921 59.7639L28.2727 59.3208C26.8799 58.9198 25.8634 58.3887 25.2232 57.7274C24.5901 57.0662 24.2736 56.2432 24.2736 55.2583C24.2736 54.6041 24.4037 54.0132 24.664 53.4857C24.9313 52.9581 25.3041 52.5008 25.7825 52.1139C26.2679 51.727 26.8376 51.4316 27.4919 51.2276C28.1461 51.0236 28.8636 50.9216 29.6444 50.9216C30.6363 50.9216 31.5578 51.0658 32.409 51.3542C33.2601 51.6426 33.9636 52.0295 34.5193 52.5149L33.3164 54.2665C33.0139 53.9921 32.6587 53.7565 32.2507 53.5595C31.8497 53.3626 31.4171 53.2113 30.9528 53.1058C30.4885 53.0003 30.0172 52.9475 29.5389 52.9475C28.948 52.9475 28.4239 53.0354 27.9667 53.2113C27.5165 53.3801 27.1648 53.6263 26.9115 53.9499C26.6583 54.2735 26.5316 54.6674 26.5316 55.1317C26.5316 55.4694 26.6161 55.7648 26.7849 56.0181C26.9537 56.2713 27.2421 56.5034 27.6501 56.7145C28.0652 56.9185 28.635 57.126 29.3595 57.337L30.9634 57.8119C32.3281 58.2128 33.327 58.7369 33.9601 59.3841C34.5932 60.0242 34.9097 60.8578 34.9097 61.8848C34.9097 62.7641 34.6916 63.5379 34.2555 64.2062C33.8264 64.8674 33.2003 65.3845 32.3773 65.7573C31.5543 66.1301 30.5624 66.3166 29.4017 66.3166ZM41.0599 66.306C40.1946 66.306 39.3857 66.1829 38.633 65.9367C37.8803 65.6905 37.2472 65.3599 36.7337 64.9448L37.6095 63.246C38.0949 63.6259 38.64 63.9248 39.245 64.1429C39.857 64.361 40.4584 64.47 41.0493 64.47C41.7317 64.47 42.2628 64.3504 42.6426 64.1112C43.0225 63.8721 43.2124 63.5379 43.2124 63.1088C43.2124 62.7008 43.0471 62.4019 42.7165 62.2119C42.3929 62.015 41.7739 61.811 40.8594 61.5999C39.544 61.3256 38.5873 60.9387 37.9893 60.4392C37.3984 59.9328 37.103 59.2328 37.103 58.3394C37.103 57.7134 37.2753 57.1612 37.62 56.6828C37.9718 56.1974 38.4536 55.8176 39.0656 55.5432C39.6776 55.2689 40.3846 55.1317 41.1865 55.1317C41.9673 55.1317 42.7024 55.2443 43.3918 55.4694C44.0812 55.6874 44.6791 55.997 45.1856 56.3979L44.3626 58.1073C44.1023 57.8752 43.7998 57.6747 43.4551 57.5059C43.1104 57.337 42.7446 57.2069 42.3578 57.1154C41.9779 57.017 41.598 56.9677 41.2182 56.9677C40.6273 56.9677 40.1454 57.0838 39.7726 57.3159C39.4068 57.541 39.2239 57.8541 39.2239 58.255C39.2239 58.6701 39.3998 58.9761 39.7515 59.173C40.1032 59.37 40.7082 59.567 41.5664 59.7639C42.917 60.0594 43.8842 60.4533 44.4681 60.9457C45.052 61.4381 45.3439 62.1205 45.3439 62.9928C45.3439 63.661 45.1645 64.2449 44.8058 64.7443C44.447 65.2368 43.944 65.6201 43.2969 65.8945C42.6567 66.1688 41.9111 66.306 41.0599 66.306ZM49.9842 66V53.3907H45.8268V51.2276H56.5051V53.3907H52.3478V66H49.9842ZM63.0698 66.3166C62.0498 66.3166 61.2338 66.0211 60.6218 65.4302C60.0098 64.8393 59.7038 63.9354 59.7038 62.7184V52.5043H62.0252V55.5538H64.9269V57.4742H62.0252V62.2119C62.0252 62.9435 62.1623 63.4606 62.4367 63.763C62.7181 64.0585 63.112 64.2062 63.6185 64.2062C63.8647 64.2062 64.0968 64.1781 64.3149 64.1218C64.533 64.0655 64.7299 63.9917 64.9058 63.9002L65.3173 65.7784C65.0148 65.9332 64.6666 66.0598 64.2727 66.1583C63.8858 66.2638 63.4848 66.3166 63.0698 66.3166ZM57.4141 57.4742V55.5538H60.0098V57.4742H57.4141ZM73.9315 66.3166C72.616 66.3166 71.5151 66.0492 70.6288 65.5146C69.7495 64.98 69.0847 64.2554 68.6345 63.341C68.1913 62.4194 67.9698 61.3854 67.9698 60.2388V51.2276H70.3333V60.2177C70.3333 61.519 70.6569 62.4898 71.3041 63.1299C71.9513 63.763 72.8271 64.0796 73.9315 64.0796C75.0359 64.0796 75.9117 63.763 76.5589 63.1299C77.206 62.4898 77.5296 61.519 77.5296 60.2177V51.2276H79.9038V60.2388C79.9038 61.3783 79.6786 62.4089 79.2284 63.3304C78.7853 64.2449 78.1205 64.973 77.2342 65.5146C76.3549 66.0492 75.254 66.3166 73.9315 66.3166ZM87.3798 66.3166C86.4442 66.3166 85.6704 66.1301 85.0584 65.7573C84.4535 65.3774 83.9997 64.878 83.6973 64.259C83.3948 63.6399 83.2435 62.9646 83.2435 62.233V55.5538H85.5649V61.8004C85.5649 62.5179 85.776 63.0948 86.198 63.5309C86.6271 63.96 87.218 64.1746 87.9707 64.1746C88.4631 64.1746 88.9028 64.0655 89.2897 63.8474C89.6766 63.6223 89.9826 63.3093 90.2077 62.9083C90.4398 62.5074 90.5559 62.0431 90.5559 61.5155V55.5538H92.8773V66H90.788V64.7654C90.38 65.2579 89.8946 65.6412 89.3319 65.9156C88.7762 66.1829 88.1255 66.3166 87.3798 66.3166ZM99.6455 66L93.9687 51.2276H96.6277L100.943 62.845L105.09 51.2276H107.696L102.167 66H99.6455ZM111.706 66L107.802 55.5538H110.345L113.236 64.0057H112.888L115.726 55.5538H118.195L114.365 66H111.706ZM123.13 66L118.677 51.2276H121.157L124.375 62.7184L127.752 51.2276H130.21L133.566 62.7079L136.784 51.2276H139.19L134.758 66H132.257L128.954 54.773L125.62 66H123.13ZM142.965 66L139.684 55.5538H141.994L144.231 63.3199L146.679 55.5538H148.948L151.238 63.3199L153.517 55.5538H155.722L152.441 66H150.045L147.745 58.4977L145.36 66H142.965ZM155.95 66L160.74 58.4239L156.203 51.2276H159.031L162.439 56.6828L166.08 51.2276H168.823L164.054 58.4872L168.96 66H166.122L162.344 60.186L158.704 66H155.95ZM169.845 66.0106L173.622 60.7558L170.066 55.5538H172.989L175.216 59.0886L177.368 55.5538H180.217L176.767 60.6925L180.513 66H177.537L175.131 62.328L172.694 65.9789L169.845 66.0106ZM185.347 66V59.6162L180.135 51.2276H182.836L186.582 57.337L190.307 51.2276H192.934L187.721 59.6373V66H185.347ZM195.575 70.7272C195.195 70.7272 194.822 70.685 194.456 70.6006C194.091 70.5161 193.732 70.3719 193.38 70.1679L193.908 68.1842C194.126 68.3249 194.365 68.4304 194.625 68.5008C194.885 68.5711 195.118 68.6063 195.322 68.6063C195.814 68.6063 196.201 68.4902 196.482 68.2581C196.764 68.0259 196.985 67.6672 197.147 67.1818L197.495 66.1688L193.38 55.5538H195.923L198.814 63.6575L201.632 55.5538H204.09L199.574 67.5089C199.25 68.346 198.888 68.9967 198.487 69.461C198.086 69.9323 197.643 70.2594 197.158 70.4423C196.672 70.6322 196.145 70.7272 195.575 70.7272ZM205.256 66V64.0268L212.821 53.3907H205.498V51.2276H215.67V53.1902L208.136 63.8263H215.733V66H205.256ZM217.559 66V64.3328L222.983 57.6219H217.675V55.5538H225.842V57.2104L220.545 63.9319H225.927V66H217.559Z" fill="#00020C"></path>
</svg>
