<svg width="96" height="25" viewBox="0 0 96 25" fill="none" xmlns="http://www.w3.org/2000/svg">
<g id="Logo">
<path id="Union" fill-rule="evenodd" clip-rule="evenodd" d="M36.5987 17.1409C36.2303 17.1409 36.2303 16.7154 36.5987 16.7762C37.049 16.8167 37.3765 16.8167 37.7859 16.7762C38.052 16.7559 38.052 16.6749 38.052 16.5736V1.62091C38.052 1.39804 37.9497 1.23595 37.6631 1.19543C37.3356 1.17517 37.1104 1.17517 36.7829 1.19543C36.3531 1.21569 36.3531 0.810467 36.7829 0.830728L36.8456 0.833321C37.3125 0.852646 37.7411 0.870385 38.1134 0.850989C38.5023 0.830728 39.1164 0.66864 39.5463 0.324202L39.5731 0.302288C39.8964 0.0386225 39.9352 0.00696446 39.9352 0.263419V16.5331C39.9352 16.6749 40.0375 16.7559 40.2013 16.7964C40.6516 16.837 40.9996 16.837 41.368 16.7964C41.7365 16.7559 41.716 17.1611 41.368 17.1611C39.7305 17.1004 38.2567 17.1004 36.5987 17.1409ZM21.206 17.1206C20.858 17.1206 20.858 16.6951 21.206 16.7762C21.6768 16.8167 22.0452 16.7964 22.4546 16.7559C22.7412 16.7357 22.7412 16.6546 22.7412 16.5533V9.86716C22.7412 8.59072 22.2704 8.20576 21.554 8.20576C20.0176 8.22247 19.2471 9.31428 18.5764 10.2648C18.4339 10.4667 18.2959 10.6622 18.1561 10.8397V16.4925C18.1561 16.6344 18.2175 16.7154 18.4222 16.7559C18.8725 16.7964 19.2 16.7964 19.5684 16.7559C19.9369 16.7154 19.9164 17.1206 19.5684 17.1206C17.9514 17.0801 16.4776 17.0801 14.8196 17.1206C14.4716 17.1206 14.4716 16.6951 14.8196 16.7559C15.2699 16.7964 15.6179 16.7964 16.0068 16.7559C16.2729 16.7357 16.2729 16.6546 16.2729 16.5533V1.66143C16.2729 1.43856 16.2115 1.27647 15.9045 1.23595C15.5974 1.21569 15.3518 1.21569 15.0448 1.23595C14.5945 1.25621 14.5945 0.850989 15.0448 0.87125L15.0762 0.872601C15.5356 0.892392 15.975 0.911321 16.3753 0.891511C16.7642 0.87125 17.3783 0.709161 17.8081 0.364723L17.8221 0.352568C18.1368 0.0799765 18.1766 0.0455279 18.1766 0.384984V10.1508C18.1766 10.2449 18.1856 10.232 18.2155 10.189C18.2307 10.1671 18.2513 10.1376 18.2789 10.1103C19.0772 8.97568 20.1416 7.8208 21.9633 7.84106C24.3787 7.86132 24.6243 9.07698 24.6243 10.4345V16.4925C24.6243 16.6344 24.6857 16.7154 24.8904 16.7559C25.3407 16.7964 25.7706 16.7964 26.18 16.7559C26.5279 16.7154 26.5075 17.1206 26.18 17.1206C24.522 17.0801 22.8844 17.0801 21.206 17.1206ZM12.916 16.5938C12.8955 15.439 12.609 15.1958 12.0563 15.439C11.7738 15.5596 11.4838 15.7544 11.1563 15.9744L11.1563 15.9744L11.1563 15.9744L11.1563 15.9744C10.2735 16.5674 9.11829 17.3435 7.10277 17.3435C3.29552 17.3232 0 13.6762 0 8.73254C0 4.15354 3.29552 0.48629 7.0823 0.48629C8.85605 0.48629 9.9022 1.17261 10.6414 1.65759C11.0453 1.92256 11.3576 2.12744 11.6469 2.12744C12.2815 2.12744 12.4861 1.96535 12.4657 1.29673C12.4657 1.03334 12.8341 1.07386 12.8341 1.29673C12.7113 2.81631 12.6908 4.23459 12.8341 5.97704C12.8546 6.30122 12.4861 6.30122 12.4861 5.97704C12.4861 3.40388 10.3164 0.850989 7.0823 0.850989C3.09083 0.850989 2.53817 5.79469 2.53817 8.7528C2.53817 12.0148 3.07036 16.9788 7.04136 16.9788C10.3369 16.9788 12.5066 14.6893 12.8955 11.6299C12.9365 11.326 13.264 11.3462 13.2435 11.6299C13.1412 13.2913 13.1412 14.8311 13.2435 16.6141C13.2844 16.837 12.9365 16.837 12.916 16.5938ZM32.2388 12.3593C32.5458 12.339 32.6073 12.3795 32.6073 12.5011H32.6277V15.52C32.464 15.7631 31.7066 16.7964 30.8674 16.7964C29.4345 16.7964 29.2299 15.905 29.2299 14.669C29.2299 12.7037 31.1335 12.4201 32.2388 12.3593ZM32.6687 15.986C32.8324 16.7964 33.5488 17.3435 34.6337 17.3435C35.3092 17.3435 35.739 17.0801 36.1484 16.7762C36.394 16.5331 36.1279 16.2899 35.9232 16.5736C35.78 16.7964 35.5343 16.8572 35.2273 16.8572C34.6132 16.8572 34.5518 16.3507 34.5518 15.905V10.2116C34.5518 8.69202 33.2623 7.71949 31.6452 7.73975C29.6802 7.78027 28.1245 8.73254 28.0631 9.72533C28.0222 10.4547 28.493 11.022 29.0456 10.9613C29.6188 10.8802 30.0896 10.5358 30.0896 10.0293C30.0896 9.45012 29.8318 9.37428 29.6171 9.31109C29.4637 9.26594 29.3322 9.22725 29.3322 9.0162C29.3322 8.30706 30.4989 8.08419 31.5019 8.08419C32.1979 8.08419 32.6277 8.46915 32.6277 9.27959V11.8933C32.6277 11.9946 32.5458 12.0351 32.1979 12.0351C30.3557 12.0756 27.2239 12.805 27.2239 15.0135C27.2239 16.5128 28.2678 17.3435 30.0282 17.3435C31.2563 17.3435 32.1569 16.7559 32.6073 15.986C32.6277 15.9455 32.6687 15.9455 32.6687 15.986ZM42.2687 16.7762C41.9002 16.7154 41.9002 17.1409 42.2687 17.1409C43.9267 17.1004 45.4004 17.1004 47.038 17.1611C47.3859 17.1611 47.4064 16.7559 47.038 16.7964C46.6695 16.837 46.3215 16.837 45.8712 16.7964C45.7075 16.7559 45.6051 16.6749 45.6051 16.5331V0.263419C45.6051 0.00696446 45.5663 0.0386225 45.2431 0.302288L45.2162 0.324202C44.7864 0.66864 44.1723 0.830728 43.7834 0.850989C43.4111 0.870385 42.9825 0.852646 42.5156 0.833321L42.4529 0.830728C42.023 0.810467 42.023 1.21569 42.4529 1.19543C42.7804 1.17517 43.0055 1.17517 43.333 1.19543C43.6196 1.23595 43.722 1.39804 43.722 1.62091V16.5736C43.722 16.6749 43.722 16.7559 43.4559 16.7762C43.0465 16.8167 42.719 16.8167 42.2687 16.7762ZM54.2226 11.0423C54.2226 9.6443 54.0384 8.00316 52.3599 8.06394C50.7838 8.10446 50.3335 9.66456 50.3335 11.0423V11.4881C50.3335 11.5894 50.354 11.6704 50.4768 11.6704H53.9565C54.1612 11.6704 54.2431 11.4475 54.2431 11.3665V11.0423H54.2226ZM52.626 17.3435C49.9855 17.3435 48.1433 15.3782 48.1433 12.5011C48.1433 10.394 49.9036 7.73976 52.3599 7.67898C56.0034 7.57767 56.3719 10.8194 56.3719 11.7312C56.3719 11.873 56.1876 11.9946 55.942 11.9946H50.4154C50.354 11.9946 50.2925 12.0351 50.2925 12.1162V13.7168C50.2925 15.2769 50.4768 16.9991 52.6056 16.9991C54.4682 16.9991 55.9625 15.8037 56.3923 14.1423C56.4128 13.9194 56.7812 13.8789 56.7403 14.1423C56.2081 16.0063 54.6934 17.3435 52.626 17.3435ZM63.7202 16.7762C63.3518 16.7154 63.3518 17.1409 63.7202 17.1409C65.3782 17.1004 66.852 17.1004 68.4486 17.1206C68.7966 17.1206 68.817 16.7154 68.4486 16.7559C68.0802 16.7965 67.7527 16.7965 67.2819 16.7559C67.1181 16.7357 67.0567 16.6749 67.0567 16.5331V10.4548C67.0567 9.09726 66.5859 7.82081 64.1706 7.82081C62.7377 7.82081 61.4686 8.85413 60.875 9.76587L60.8136 9.98875C60.8341 9.23909 60.8136 8.57047 60.6908 7.8816C60.6499 7.59794 60.6089 7.6182 60.3019 7.82081C59.8516 8.12473 59.2785 8.30708 58.8486 8.32734C58.4597 8.3476 58.1322 8.3476 57.6614 8.32734C57.2111 8.30708 57.2111 8.7123 57.6614 8.69204C57.9684 8.67178 58.2141 8.67178 58.5211 8.69204C58.8077 8.7123 58.91 8.87439 58.91 9.13778V16.5736C58.91 16.6749 58.91 16.7559 58.6439 16.7762C58.255 16.8167 57.907 16.8167 57.4567 16.7762C57.1087 16.7154 57.1087 17.1409 57.4567 17.1409C59.1147 17.1004 60.5885 17.1004 62.2055 17.1409C62.5535 17.1409 62.574 16.7357 62.2055 16.7762C61.8371 16.8167 61.5096 16.8167 61.0593 16.7762C60.875 16.7357 60.8341 16.6546 60.8341 16.5128V10.3534C61.2435 9.58352 62.4921 8.18551 64.0887 8.18551C64.8256 8.18551 65.1736 8.77308 65.1736 9.9077V16.5736C65.1736 16.6749 65.1736 16.7559 64.9075 16.7762C64.4981 16.8167 64.1706 16.8167 63.7202 16.7762ZM73.9957 8.26655C72.0913 8.32672 72.1521 10.2131 72.1932 11.4893L72.1945 11.5286C72.2354 13.0482 72.3173 14.6893 74.2209 14.6285C76.1016 14.5691 76.0658 13.1354 76.025 11.5003L76.0222 11.3868C75.9608 9.48222 75.8994 8.18551 73.9957 8.26655ZM76.3702 18.4173L76.2381 18.4111C75.0018 18.3526 73.8887 18.2999 72.6038 18.4173C71.3962 18.5389 70.5774 19.5114 70.5774 21.031C70.5774 22.9761 72.1945 23.7257 73.9343 23.7257C76.2269 23.7257 78.6422 21.963 78.765 19.8761C78.8674 18.701 77.5164 18.4781 76.3702 18.4173ZM78.9083 9.78613C78.458 9.78613 78.1305 9.44169 78.1305 9.077C78.1305 8.57047 78.2738 8.42864 78.4171 8.28681C77.9463 8.30708 77.3936 8.7123 77.0661 9.15804C77.5778 9.70509 78.0077 10.6371 78.0077 11.5488C78.0077 13.5142 75.9403 15.0337 74.1186 15.0337C73.2496 15.0337 72.7647 14.7904 72.4776 14.6463C72.4333 14.6241 72.3938 14.6042 72.3582 14.588C71.2324 14.5475 70.2908 14.8109 70.2499 15.7024C70.2294 16.2899 70.7207 16.6141 71.2529 16.6344C73.0951 16.7357 74.7326 16.6952 76.493 16.6344C78.0691 16.5736 79.0721 17.5664 79.113 19.5925C79.1539 22.2467 76.5134 24.1107 73.8115 24.1107C71.7441 24.1107 69.4925 23.3408 69.4925 21.1526C69.4925 19.8761 70.6388 18.7213 71.7441 18.4984V18.4376C70.4955 18.4376 69.8815 17.5664 69.9224 16.3102C69.9633 14.9122 70.6388 14.3044 72.0102 14.3651V14.3246C70.9663 13.656 70.2499 12.8861 70.2499 11.6096C70.2499 9.50248 72.0512 7.88159 74.139 7.88159C75.2444 7.88159 76.2269 8.22603 76.8819 8.91491C77.3117 8.42864 77.8849 7.88159 78.6627 7.88159C79.3382 7.88159 79.8499 8.26655 79.8499 8.97569C79.8294 9.543 79.3791 9.78613 78.9083 9.78613ZM84.394 8.06394C86.0725 8.00316 86.2567 9.6443 86.2567 11.0423H86.2772V11.3665C86.2772 11.4475 86.1953 11.6704 85.9906 11.6704H82.5109C82.3881 11.6704 82.3676 11.5894 82.3676 11.4881V11.0423C82.3676 9.66456 82.8179 8.10446 84.394 8.06394ZM80.1774 12.5011C80.1774 15.3782 82.0196 17.3435 84.6601 17.3435C86.7275 17.3435 88.2422 16.0063 88.7744 14.1423C88.8154 13.8789 88.4469 13.9194 88.4264 14.1423C88.0171 15.8037 86.5023 16.9991 84.6397 16.9991C82.5109 16.9991 82.3267 15.2769 82.3267 13.7168V12.1162C82.3267 12.0351 82.3881 11.9946 82.4495 11.9946H87.9761C88.2217 11.9946 88.406 11.873 88.406 11.7312C88.406 10.8194 88.0375 7.57767 84.394 7.67898C81.9377 7.73976 80.1774 10.394 80.1774 12.5011Z" fill="#282422"/>
<path id="Vector" d="M95.345 7.25335C94.8333 7.4357 94.4649 7.11152 94.3216 6.72656C94.1578 6.2403 94.3625 5.91612 94.5058 5.65273C94.4649 5.47038 94.3421 5.32855 93.8099 5.32855C93.1548 5.32855 92.5203 5.65273 92.5203 6.84813C92.5203 8.42849 94.9152 8.44875 94.9152 10.8598C94.9152 12.0147 93.6461 13.3317 92.07 13.3722C90.6576 13.4127 89.9207 12.582 89.6956 11.8931C89.4909 11.3461 89.6751 10.6775 90.2073 10.4749C90.6986 10.2925 91.1489 10.637 91.2922 11.0016C91.5787 11.8729 90.7395 11.9337 90.9032 12.4402C90.9851 12.6631 91.6606 12.9872 92.2542 12.8454C92.8478 12.7036 93.6461 12.4604 93.6461 11.4879C93.6461 9.90755 91.4559 9.52259 91.4559 7.55727C91.4559 6.54421 92.2542 4.84229 93.8917 4.84229C95.0789 4.84229 95.5907 5.22725 95.8977 6.07821C96.1229 6.62526 95.8158 7.071 95.345 7.25335Z" fill="#F43423"/>
</g>
</svg>
