<?xml version="1.0" encoding="UTF-8"?>
<svg xmlns="http://www.w3.org/2000/svg" width="1353" height="1353" viewBox="0 0 1353 1353" fill="none">
  <path d="M676.062 115.566C985.085 115.566 1236.56 367.038 1236.56 676.062C1236.56 985.085 985.085 1236.56 676.062 1236.56C367.038 1236.56 115.566 985.085 115.566 676.062C115.566 367.038 367.038 115.566 676.062 115.566ZM676.062 0C302.668 0 0 302.668 0 676.062C0 1049.46 302.668 1352.12 676.062 1352.12C1049.46 1352.12 1352.12 1049.46 1352.12 676.062C1352.12 302.668 1049.46 0 676.062 0Z" fill="#0FBCFF"></path>
  <path d="M676.066 385.566C836.01 385.566 966.137 515.693 966.137 675.637C966.137 835.58 836.01 965.708 676.066 965.708C516.123 965.708 385.996 835.58 385.996 675.637C385.996 515.693 516.123 385.566 676.066 385.566ZM676.066 270C451.984 270 270.43 451.554 270.43 675.637C270.43 899.719 451.984 1081.27 676.066 1081.27C900.149 1081.27 1081.7 899.719 1081.7 675.637C1081.7 451.554 900.149 270 676.066 270Z" fill="#0FBCFF"></path>
  <path d="M676.061 635.566C698.365 635.566 716.509 653.71 716.509 676.014C716.509 698.318 698.365 716.462 676.061 716.462C653.757 716.462 635.613 698.318 635.613 676.014C635.613 653.71 653.757 635.566 676.061 635.566ZM676.061 520C589.849 520 520.047 589.802 520.047 676.014C520.047 762.227 589.849 832.028 676.061 832.028C762.273 832.028 832.075 762.227 832.075 676.014C832.075 589.802 762.273 520 676.061 520Z" fill="#0FBCFF"></path>
</svg>
