<?xml version="1.0" encoding="UTF-8"?>
<svg xmlns="http://www.w3.org/2000/svg" width="1390" height="994" viewBox="0 0 1390 994" fill="none">
  <path fill-rule="evenodd" clip-rule="evenodd" d="M0.5 0.5H1389.5V993.5H0.5V0.5ZM115.5 115.5V878.5H1274.5V115.5H115.5Z" fill="#0FBCFF"></path>
  <path fill-rule="evenodd" clip-rule="evenodd" d="M0.5 0.5H389.5V993.5H0.5V0.5ZM115.5 115.5V878.5H274.5V115.5H115.5Z" fill="#0FBCFF"></path>
  <path fill-rule="evenodd" clip-rule="evenodd" d="M590 553H348V438H590V553Z" fill="#0FBCFF"></path>
  <path fill-rule="evenodd" clip-rule="evenodd" d="M706.5 438.5C673.915 438.5 647.5 464.915 647.5 497.5C647.5 530.085 673.915 556.5 706.5 556.5C739.085 556.5 765.5 530.085 765.5 497.5C765.5 464.915 739.085 438.5 706.5 438.5ZM532.5 497.5C532.5 401.402 610.402 323.5 706.5 323.5C802.598 323.5 880.5 401.402 880.5 497.5C880.5 593.598 802.598 671.5 706.5 671.5C610.402 671.5 532.5 593.598 532.5 497.5Z" fill="#0FBCFF"></path>
</svg>
