<?xml version="1.0" encoding="UTF-8"?>
<svg xmlns="http://www.w3.org/2000/svg" width="1296" height="1301" viewBox="0 0 1296 1301" fill="none">
  <path d="M648.036 0.115569C651.387 3.12029 654.161 5.43161 656.703 7.97407C749.272 100.543 841.841 193.111 934.293 285.564C1052.98 404.366 1171.78 523.052 1290.47 641.854C1297.63 649.019 1297.63 656.223 1290.47 663.465C1079.91 874.026 869.23 1084.7 658.669 1295.26C651.581 1302.35 644.57 1302.43 637.636 1295.5C426.844 1084.7 216.051 873.795 5.25826 663.003C-1.75275 655.992 -1.75275 648.981 5.25826 641.97C216.051 431.177 426.844 220.269 637.752 9.47643C640.872 6.35614 644.338 3.46698 648.036 0V0.115569ZM357.85 864.55C362.473 860.505 364.784 858.772 366.749 856.691C387.666 835.89 408.353 814.741 429.502 794.17C435.627 788.161 434.702 784.694 429.155 779.147C389.747 740.085 350.801 700.562 311.277 661.616C304.227 654.682 303.996 650.753 311.161 643.588C420.949 534.262 530.506 424.705 639.831 314.918C646.419 308.33 650.002 308.793 656.242 315.149C695.419 354.788 735.174 393.965 774.35 433.72C780.591 440.076 784.173 439.613 790.067 433.488C810.176 412.802 830.862 392.578 851.202 372.123C853.513 369.811 855.478 367.385 858.136 364.38C855.362 361.375 853.05 358.602 850.508 356.175C786.022 291.689 721.536 227.203 656.935 162.602C650.925 156.592 644.801 156.669 638.56 162.833C478.501 322.892 318.327 483.066 158.268 643.125C152.027 649.366 151.911 655.491 157.921 661.5C218.708 722.288 279.496 783.076 340.169 843.979C346.409 850.22 351.61 857.385 357.619 864.434L357.85 864.55ZM437.822 940.939C441.058 944.291 443.484 946.948 446.027 949.491C510.281 1013.75 574.537 1078 638.792 1142.26C644.955 1148.42 651.08 1148.46 657.166 1142.37C817.456 982.081 977.747 821.675 1138.27 661.5C1145.2 654.566 1145.55 650.637 1138.38 643.588C1073.44 579.102 1008.83 514.269 944.002 449.552C941.575 447.125 938.801 444.929 935.219 441.694C913.146 463.998 891.766 485.724 870.386 507.451C858.252 519.701 858.367 517.274 870.155 529.062C908.407 567.43 946.544 605.797 985.143 643.703C992.539 650.984 991.73 654.682 984.911 661.616C875.355 770.71 766.029 879.92 656.935 989.361C649.885 996.411 646.073 996.526 639.023 989.361C599.846 949.607 560.09 910.43 520.913 870.79C515.366 865.128 512.015 865.359 506.583 870.79C485.781 892.17 464.518 913.088 443.369 934.236C441.52 936.085 440.018 938.165 437.706 940.708L437.822 940.939ZM838.027 652.717C836.294 650.522 834.907 648.326 833.173 646.477C773.657 586.845 714.025 527.328 654.508 467.58C649.655 462.727 646.535 462.727 641.681 467.58C582.164 527.328 522.648 586.845 462.9 646.361C458.509 650.753 457.815 653.757 462.553 658.38C522.532 718.128 582.28 777.875 642.028 837.854C646.535 842.361 649.654 842.361 654.161 837.854C713.909 777.875 773.772 718.128 833.52 658.264C835.138 656.647 836.294 654.798 838.027 652.602V652.717Z" fill="#0FBCFF"></path>
</svg>
