<?xml version="1.0" encoding="UTF-8"?>
<svg xmlns="http://www.w3.org/2000/svg" width="1608" height="1413" viewBox="0 0 1608 1413" fill="none">
  <path d="M280.598 1214.71C280.598 1260.24 243.617 1297.22 198.084 1297.22C152.551 1297.22 115.57 1260.24 115.57 1214.71C115.57 1169.17 152.551 1132.19 198.084 1132.19C243.617 1132.19 280.598 1169.17 280.598 1214.71ZM396.164 1214.71C396.164 1105.26 307.525 1016.62 198.084 1016.62C88.6429 1016.62 0.00353616 1105.26 0.00353138 1214.71C0.0035266 1324.15 88.6429 1412.79 198.084 1412.79C307.525 1412.79 396.164 1324.15 396.164 1214.71Z" fill="#0FBCFF"></path>
  <path d="M280.598 706.33C280.598 751.863 243.617 788.844 198.084 788.844C152.551 788.844 115.57 751.863 115.57 706.33C115.57 660.797 152.551 623.816 198.084 623.816C243.617 623.816 280.598 660.797 280.598 706.33ZM396.164 706.33C396.164 596.889 307.525 508.25 198.084 508.25C88.6429 508.25 0.00353616 596.889 0.00353138 706.33C0.0035266 815.771 88.6429 904.411 198.084 904.411C307.525 904.411 396.164 815.771 396.164 706.33Z" fill="#0FBCFF"></path>
  <path d="M280.598 198.08C280.598 243.613 243.617 280.594 198.084 280.594C152.551 280.594 115.57 243.613 115.57 198.08C115.57 152.547 152.551 115.566 198.084 115.566C243.617 115.566 280.598 152.547 280.598 198.08ZM396.164 198.08C396.164 88.6393 307.525 -3.87453e-06 198.084 -8.65836e-06C88.6429 -1.34422e-05 0.00353616 88.6393 0.00353138 198.08C0.0035266 307.521 88.6429 396.161 198.084 396.161C307.525 396.161 396.164 307.522 396.164 198.08Z" fill="#0FBCFF"></path>
  <path fill-rule="evenodd" clip-rule="evenodd" d="M733.15 140.295L733.15 1272.5L488.266 1272.5L488.266 1156.93L617.584 1156.93L617.584 255.861L488.266 255.861L488.266 140.295L733.15 140.295Z" fill="#0FBCFF"></path>
  <path fill-rule="evenodd" clip-rule="evenodd" d="M1238.76 764.111L488.272 764.111L488.272 648.545L1238.76 648.545L1238.76 764.111Z" fill="#0FBCFF"></path>
  <path fill-rule="evenodd" clip-rule="evenodd" d="M1607.2 706.323L945.22 1368.3L945.22 44.4902L1607.2 706.323ZM1443.76 706.332L1060.79 323.448L1060.79 1089.3L1443.76 706.332Z" fill="#0FBCFF"></path>
</svg>
