<svg width="25" height="25" viewBox="0 0 25 25" fill="none" xmlns="http://www.w3.org/2000/svg">
<mask id="mask0_4295_4527" style="mask-type:alpha" maskUnits="userSpaceOnUse" x="0" y="0" width="25" height="25">
<rect x="0.869629" y="0.211914" width="24" height="24" fill="#D9D9D9"/>
</mask>
<g mask="url(#mask0_4295_4527)">
<path d="M12.8696 22.2119C12.3196 22.2119 11.8488 22.0161 11.4571 21.6244C11.0655 21.2327 10.8696 20.7619 10.8696 20.2119H14.8696C14.8696 20.7619 14.6738 21.2327 14.2821 21.6244C13.8905 22.0161 13.4196 22.2119 12.8696 22.2119ZM8.86963 19.2119V17.2119H16.8696V19.2119H8.86963ZM9.11963 16.2119C7.96963 15.5286 7.05713 14.6119 6.38213 13.4619C5.70713 12.3119 5.36963 11.0619 5.36963 9.71191C5.36963 7.62858 6.0988 5.85775 7.55713 4.39941C9.01546 2.94108 10.7863 2.21191 12.8696 2.21191C14.953 2.21191 16.7238 2.94108 18.1821 4.39941C19.6405 5.85775 20.3696 7.62858 20.3696 9.71191C20.3696 11.0619 20.0321 12.3119 19.3571 13.4619C18.6821 14.6119 17.7696 15.5286 16.6196 16.2119H9.11963ZM9.71963 14.2119H16.0196C16.7696 13.6786 17.3488 13.0202 17.7571 12.2369C18.1655 11.4536 18.3696 10.6119 18.3696 9.71191C18.3696 8.17858 17.8363 6.87858 16.7696 5.81191C15.703 4.74525 14.403 4.21191 12.8696 4.21191C11.3363 4.21191 10.0363 4.74525 8.96963 5.81191C7.90296 6.87858 7.36963 8.17858 7.36963 9.71191C7.36963 10.6119 7.5738 11.4536 7.98213 12.2369C8.39046 13.0202 8.96963 13.6786 9.71963 14.2119Z" fill="#0FBCFF"/>
</g>
</svg>
