<svg width="200" height="200" viewBox="0 0 200 200" fill="none" xmlns="http://www.w3.org/2000/svg">
<mask id="mask0_2000_7" style="mask-type:alpha" maskUnits="userSpaceOnUse" x="0" y="0" width="200" height="200">
<rect width="200" height="200" fill="#D9D9D9"/>
</mask>
<g mask="url(#mask0_2000_7)">
<path d="M45.8333 145.833C33.0556 145.833 22.2222 141.389 13.3333 132.5C4.44444 123.611 0 112.778 0 99.9998C0 87.2221 4.44444 76.3887 13.3333 67.4998C22.2222 58.6109 33.0556 54.1665 45.8333 54.1665C50.9722 54.1665 55.9028 55.0693 60.625 56.8748C65.3472 58.6804 69.5833 61.2498 73.3333 64.5832L87.5 77.4998L75 88.7498L62.0833 77.0832C59.8611 75.1387 57.3611 73.6109 54.5833 72.4998C51.8056 71.3887 48.8889 70.8332 45.8333 70.8332C37.7778 70.8332 30.9028 73.6804 25.2083 79.3748C19.5139 85.0693 16.6667 91.9443 16.6667 99.9998C16.6667 108.055 19.5139 114.93 25.2083 120.625C30.9028 126.319 37.7778 129.167 45.8333 129.167C48.8889 129.167 51.8056 128.611 54.5833 127.5C57.3611 126.389 59.8611 124.861 62.0833 122.917L126.667 64.5832C130.417 61.2498 134.653 58.6804 139.375 56.8748C144.097 55.0693 149.028 54.1665 154.167 54.1665C166.944 54.1665 177.778 58.6109 186.667 67.4998C195.556 76.3887 200 87.2221 200 99.9998C200 112.778 195.556 123.611 186.667 132.5C177.778 141.389 166.944 145.833 154.167 145.833C149.028 145.833 144.097 144.93 139.375 143.125C134.653 141.319 130.417 138.75 126.667 135.417L112.5 122.5L125 111.25L137.917 122.917C140.139 124.861 142.639 126.389 145.417 127.5C148.194 128.611 151.111 129.167 154.167 129.167C162.222 129.167 169.097 126.319 174.792 120.625C180.486 114.93 183.333 108.055 183.333 99.9998C183.333 91.9443 180.486 85.0693 174.792 79.3748C169.097 73.6804 162.222 70.8332 154.167 70.8332C151.111 70.8332 148.194 71.3887 145.417 72.4998C142.639 73.6109 140.139 75.1387 137.917 77.0832L73.3333 135.417C69.5833 138.75 65.3472 141.319 60.625 143.125C55.9028 144.93 50.9722 145.833 45.8333 145.833Z" fill="#0FBCFF"/>
</g>
</svg>
