<?xml version="1.0" encoding="UTF-8"?>
<svg xmlns="http://www.w3.org/2000/svg" width="970" height="1189" viewBox="0 0 970 1189" fill="none">
  <path fill-rule="evenodd" clip-rule="evenodd" d="M0.856445 0.570312H969.872V603.495H0.856445V0.570312ZM118.006 117.72V486.345H852.722V117.72H118.006Z" fill="#0FBCFF"></path>
  <path fill-rule="evenodd" clip-rule="evenodd" d="M840.895 790.061H129.833V672.911H840.895V790.061Z" fill="#0FBCFF"></path>
  <path fill-rule="evenodd" clip-rule="evenodd" d="M426.789 928.611L426.789 273.871L543.939 273.871L543.939 928.611L426.789 928.611Z" fill="#0FBCFF"></path>
  <path d="M484.751 858.21C576.362 857.859 650.284 931.429 650.401 1023.27C650.401 1114.65 577.651 1187.87 486.04 1188.57C394.429 1189.28 320.508 1116.06 319.922 1024.09C319.337 932.601 392.906 858.679 484.751 858.328V858.21ZM540.28 1022.81C540.046 992.932 514.39 967.862 484.4 968.097C454.995 968.448 429.926 993.753 429.809 1023.16C429.809 1053.03 455.464 1078.45 485.22 1078.33C515.211 1078.22 540.514 1052.68 540.28 1022.81Z" fill="#0FBCFF"></path>
</svg>
