<svg width="150" height="40" viewBox="0 0 150 40" fill="none" xmlns="http://www.w3.org/2000/svg">
<g clip-path="url(#clip0_1453_1376)">
<g clip-path="url(#clip1_1453_1376)">
<path d="M51.602 29.4757C50.253 29.4757 49.0026 29.2394 47.8508 28.7667C46.7079 28.2855 45.7067 27.6195 44.8476 26.7687C43.9967 25.9179 43.3351 24.9211 42.8625 23.7781C42.3898 22.6351 42.1533 21.3977 42.1533 20.0657C42.1533 18.7251 42.3898 17.4833 42.8625 16.3403C43.3351 15.1974 43.9967 14.2005 44.8476 13.3497C45.7067 12.499 46.7079 11.8373 47.8508 11.3646C49.0026 10.892 50.253 10.6556 51.602 10.6556C52.9428 10.6556 54.1843 10.8962 55.3275 11.3775C56.4703 11.8587 57.4715 12.529 58.331 13.3884C59.1901 14.2478 59.8562 15.2489 60.3289 16.3919C60.8101 17.5262 61.0508 18.7509 61.0508 20.0657C61.0508 21.3977 60.8101 22.6351 60.3289 23.7781C59.8562 24.9211 59.1901 25.9179 58.331 26.7687C57.4715 27.6195 56.4703 28.2855 55.3275 28.7667C54.1843 29.2394 52.9428 29.4757 51.602 29.4757ZM51.602 27.1683C52.5732 27.1683 53.4754 27.0007 54.3091 26.6656C55.1513 26.3304 55.886 25.8535 56.5134 25.2347C57.1406 24.6074 57.6304 23.8554 57.9828 22.9789C58.3437 22.1024 58.5241 21.1313 58.5241 20.0657C58.5241 18.6305 58.2148 17.3801 57.596 16.3145C56.9861 15.2489 56.1566 14.424 55.1082 13.8396C54.0598 13.2466 52.8911 12.9501 51.602 12.9501C50.6309 12.9501 49.7245 13.122 48.8823 13.4657C48.0486 13.8009 47.314 14.2822 46.6779 14.9095C46.0504 15.5282 45.5609 16.2759 45.2085 17.1524C44.8562 18.0204 44.68 18.9915 44.68 20.0657C44.68 21.4922 44.9848 22.7383 45.595 23.8039C46.2139 24.8695 47.0475 25.6988 48.0959 26.2917C49.1443 26.8761 50.313 27.1683 51.602 27.1683Z" fill="white"/>
<path d="M61.8999 34.503V16.4564H64.0784V18.3513C64.6028 17.681 65.2602 17.1353 66.0508 16.7142C66.8499 16.2846 67.8555 16.0697 69.067 16.0697C70.3219 16.0697 71.4262 16.3662 72.3801 16.9591C73.3337 17.5435 74.0774 18.3427 74.61 19.3568C75.1513 20.3708 75.4222 21.5095 75.4222 22.7728C75.4222 23.6923 75.2675 24.5602 74.9582 25.3766C74.6572 26.1844 74.2232 26.8977 73.6561 27.5164C73.0889 28.1266 72.4143 28.6078 71.6324 28.9602C70.8591 29.3039 69.9951 29.4758 69.0415 29.4758C67.9759 29.4758 67.0433 29.2781 66.2442 28.8828C65.4536 28.4789 64.7917 27.9504 64.2591 27.2973V34.503H61.8999ZM68.6416 27.3359C69.4925 27.3359 70.2444 27.1512 70.8977 26.7817C71.5593 26.4036 72.075 25.875 72.4446 25.1961C72.8225 24.5086 73.0117 23.7008 73.0117 22.7728C73.0117 21.836 72.8225 21.0282 72.4446 20.3493C72.075 19.6619 71.5593 19.1333 70.8977 18.7638C70.2444 18.3943 69.4925 18.2095 68.6416 18.2095C67.7911 18.2095 67.0347 18.3943 66.3731 18.7638C65.7198 19.1333 65.2044 19.6619 64.8262 20.3493C64.448 21.0282 64.2591 21.836 64.2591 22.7728C64.2591 23.7008 64.448 24.5086 64.8262 25.1961C65.2044 25.875 65.7198 26.4036 66.3731 26.7817C67.0347 27.1512 67.7911 27.3359 68.6416 27.3359Z" fill="white"/>
<path d="M83.0938 29.4757C81.7533 29.4757 80.5715 29.1964 79.549 28.6378C78.5264 28.0792 77.727 27.3015 77.1512 26.3046C76.5755 25.2991 76.2876 24.1304 76.2876 22.7984C76.2876 21.8359 76.451 20.9422 76.7775 20.1172C77.1126 19.2922 77.5766 18.5789 78.1696 17.9774C78.7712 17.3758 79.4717 16.9075 80.2709 16.5723C81.0787 16.2372 81.955 16.0696 82.9004 16.0696C83.9232 16.0696 84.8341 16.2501 85.6332 16.611C86.441 16.9719 87.1071 17.4789 87.6311 18.132C88.1641 18.7766 88.5464 19.5371 88.7784 20.4137C89.0105 21.2816 89.0577 22.2269 88.9205 23.2496H78.6337C78.6078 24.0917 78.7798 24.8308 79.1494 25.4667C79.519 26.094 80.0516 26.5839 80.7477 26.9362C81.4524 27.2886 82.286 27.4647 83.2486 27.4647C83.9532 27.4647 84.6407 27.353 85.3109 27.1296C85.9814 26.9062 86.5744 26.5753 87.0898 26.137L88.0955 27.903C87.6828 28.2382 87.1929 28.5261 86.6258 28.7667C86.0673 28.9987 85.4829 29.1749 84.8727 29.2952C84.2625 29.4155 83.6695 29.4757 83.0938 29.4757ZM78.7626 21.4062H86.5486C86.5141 20.3406 86.1831 19.5113 85.556 18.9184C84.9286 18.3168 84.0305 18.016 82.8617 18.016C81.7275 18.016 80.7908 18.3168 80.0516 18.9184C79.3125 19.5113 78.8829 20.3406 78.7626 21.4062Z" fill="white"/>
<path d="M90.1816 29.0889V16.4563H92.5536V18.1578C93.0948 17.4188 93.7264 16.886 94.4483 16.5594C95.1703 16.2329 95.9094 16.0696 96.6655 16.0696C97.8087 16.0696 98.7537 16.3016 99.5014 16.7657C100.258 17.2211 100.82 17.8055 101.19 18.5188C101.568 19.232 101.757 19.9625 101.757 20.7101V29.0889H99.3856V21.4449C99.3856 20.491 99.0891 19.7262 98.4961 19.1504C97.9031 18.566 97.0954 18.2738 96.0725 18.2738C95.4023 18.2738 94.8007 18.4242 94.268 18.725C93.7437 19.0172 93.3268 19.434 93.0176 19.9754C92.7083 20.5168 92.5536 21.1398 92.5536 21.8445V29.0889H90.1816Z" fill="white"/>
<path d="M112.458 29.4756C110.593 29.4756 108.96 29.0889 107.559 28.3154C106.167 27.5334 105.084 26.4377 104.311 25.0284C103.546 23.6104 103.164 21.9561 103.164 20.0655C103.164 18.6992 103.391 17.4445 103.847 16.3015C104.302 15.15 104.947 14.1531 105.78 13.3109C106.614 12.4688 107.598 11.8157 108.732 11.3516C109.875 10.8875 111.121 10.6555 112.471 10.6555C113.802 10.6555 114.967 10.8231 115.964 11.1582C116.961 11.4848 117.82 11.9531 118.542 12.5633L117.253 14.5484C116.668 14.0242 115.99 13.6332 115.216 13.3754C114.443 13.1176 113.588 12.9887 112.651 12.9887C111.594 12.9887 110.636 13.152 109.776 13.4785C108.917 13.8051 108.182 14.2777 107.572 14.8965C106.971 15.5066 106.507 16.2457 106.18 17.1136C105.853 17.9816 105.69 18.957 105.69 20.0398C105.69 21.535 105.978 22.8112 106.554 23.8682C107.138 24.9252 107.963 25.733 109.029 26.2916C110.094 26.8416 111.353 27.1166 112.806 27.1166C113.742 27.1166 114.64 26.9791 115.5 26.7041C116.368 26.4205 117.18 25.9608 117.936 25.3248L119.07 27.3873C118.185 28.0834 117.193 28.6076 116.093 28.96C115.001 29.3037 113.79 29.4756 112.458 29.4756Z" fill="white"/>
<path d="M124.993 29.0889V13.2723H119.824V11.0422H132.586V13.2723H127.417V29.0889H124.993Z" fill="white"/>
<path d="M133.958 29.0889V11.0422H136.382V29.0889H133.958Z" fill="white"/>
<path fill-rule="evenodd" clip-rule="evenodd" d="M28.3814 35.0858L0.280273 6.98465L1.63431 5.63062L29.7354 33.7317L28.3814 35.0858Z" fill="#0FBCFF"/>
<path fill-rule="evenodd" clip-rule="evenodd" d="M0.280273 33.7317L28.3814 5.63062L29.7354 6.98465L1.63431 35.0858L0.280273 33.7317Z" fill="#0FBCFF"/>
<path fill-rule="evenodd" clip-rule="evenodd" d="M23.1308 6.98464L14.9539 15.1586L6.78369 6.98434L8.13806 5.63067L14.9544 12.4506L21.777 5.63037L23.1308 6.98464Z" fill="#0FBCFF"/>
<path fill-rule="evenodd" clip-rule="evenodd" d="M14.9885 25.5679L15.6746 26.2541L23.1546 33.7314L21.8008 35.0857L14.9887 28.276L8.18032 35.0855L6.82617 33.7316L14.9885 25.5679Z" fill="#0FBCFF"/>
<path d="M16.3317 7.25496L14.8677 5.79102L13.4038 7.25496L14.8677 8.71892L16.3317 7.25496Z" fill="#0FBCFF"/>
<path d="M16.3332 33.7443L14.8692 32.2804L13.4053 33.7443L14.8692 35.2083L16.3332 33.7443Z" fill="#0FBCFF"/>
</g>
</g>
<defs>
<clipPath id="clip0_1453_1376">
<rect width="150" height="40" fill="white"/>
</clipPath>
<clipPath id="clip1_1453_1376">
<rect width="136.596" height="30" fill="white" transform="translate(0 5.47192)"/>
</clipPath>
</defs>
</svg>
