<?xml version="1.0" encoding="UTF-8"?>
<svg xmlns="http://www.w3.org/2000/svg" width="191" height="39" viewBox="0 0 191 39" fill="none">
  <path d="M64.8582 31.5307C63.1096 31.5307 61.489 31.2244 59.9965 30.6118C58.5152 29.9881 57.2176 29.1249 56.1038 28.0223C55.0011 26.9196 54.1435 25.6276 53.5309 24.1463C52.9184 22.6649 52.6121 21.0611 52.6121 19.3347C52.6121 17.5972 52.9184 15.9878 53.5309 14.5064C54.1435 13.0251 55.0011 11.7331 56.1038 10.6304C57.2176 9.52776 58.5152 8.67014 59.9965 8.05755C61.489 7.44496 63.1096 7.13867 64.8582 7.13867C66.5957 7.13867 68.2051 7.45053 69.6865 8.07426C71.1678 8.69798 72.4654 9.56674 73.5792 10.6805C74.693 11.7943 75.5562 13.0919 76.1688 14.5732C76.7925 16.0434 77.1043 17.6306 77.1043 19.3347C77.1043 21.0611 76.7925 22.6649 76.1688 24.1463C75.5562 25.6276 74.693 26.9196 73.5792 28.0223C72.4654 29.1249 71.1678 29.9881 69.6865 30.6118C68.2051 31.2244 66.5957 31.5307 64.8582 31.5307ZM64.8582 28.5402C66.1168 28.5402 67.2863 28.323 68.3666 27.8886C69.4582 27.4542 70.4105 26.8361 71.2235 26.0342C72.0366 25.2211 72.6715 24.2465 73.1281 23.1104C73.5959 21.9744 73.8298 20.7158 73.8298 19.3347C73.8298 17.4747 73.4288 15.8541 72.6269 14.473C71.8361 13.0919 70.7613 12.0227 69.4025 11.2653C68.0436 10.4968 66.5289 10.1125 64.8582 10.1125C63.5996 10.1125 62.4246 10.3353 61.3331 10.7808C60.2527 11.2152 59.3004 11.8389 58.4762 12.6519C57.6631 13.4539 57.0282 14.4229 56.5716 15.5589C56.1149 16.6839 55.8866 17.9425 55.8866 19.3347C55.8866 21.1836 56.282 22.7986 57.0728 24.1797C57.8747 25.5608 58.9551 26.6356 60.3139 27.4041C61.6728 28.1615 63.1875 28.5402 64.8582 28.5402Z" fill="white"></path>
  <path d="M79.1087 38.0464V14.6568H81.9321V17.1127C82.6115 16.2439 83.4636 15.5367 84.4883 14.9909C85.5241 14.434 86.8272 14.1556 88.3977 14.1556C90.0238 14.1556 91.455 14.5398 92.6913 15.3083C93.9277 16.0657 94.8911 17.1015 95.5816 18.4158C96.2833 19.7301 96.6342 21.2059 96.6342 22.8431C96.6342 24.0349 96.4337 25.1598 96.0327 26.2179C95.6429 27.2649 95.0804 28.1893 94.3453 28.9913C93.6102 29.7821 92.7359 30.4058 91.7223 30.8624C90.7199 31.308 89.6006 31.5307 88.3643 31.5307C86.9832 31.5307 85.7747 31.2745 84.7389 30.7622C83.7142 30.2387 82.8566 29.5537 82.166 28.7073V38.0464H79.1087ZM87.8464 28.7574C88.949 28.7574 89.9236 28.5179 90.7701 28.039C91.6277 27.5489 92.2959 26.8639 92.7749 25.984C93.2649 25.093 93.51 24.046 93.51 22.8431C93.51 21.6291 93.2649 20.5821 92.7749 19.7022C92.2959 18.8112 91.6277 18.1262 90.7701 17.6473C89.9236 17.1684 88.949 16.9289 87.8464 16.9289C86.7437 16.9289 85.7636 17.1684 84.9059 17.6473C84.0595 18.1262 83.3912 18.8112 82.9011 19.7022C82.411 20.5821 82.166 21.6291 82.166 22.8431C82.166 24.046 82.411 25.093 82.9011 25.984C83.3912 26.8639 84.0595 27.5489 84.9059 28.039C85.7636 28.5179 86.7437 28.7574 87.8464 28.7574Z" fill="white"></path>
  <path d="M105.674 31.5307C103.936 31.5307 102.405 31.1687 101.079 30.4448C99.7538 29.7208 98.718 28.7128 97.9718 27.4208C97.2255 26.1177 96.8524 24.6029 96.8524 22.8766C96.8524 21.6291 97.064 20.4708 97.4873 19.4015C97.9216 18.3323 98.5231 17.4078 99.2916 16.6282C100.071 15.8485 100.979 15.2415 102.015 14.8071C103.062 14.3728 104.198 14.1556 105.423 14.1556C106.748 14.1556 107.929 14.3895 108.965 14.8573C110.012 15.325 110.875 15.9822 111.554 16.8287C112.245 17.664 112.741 18.6497 113.041 19.7858C113.342 20.9107 113.403 22.1359 113.225 23.4613H99.8931C99.8596 24.5528 100.082 25.5107 100.561 26.3349C101.04 27.1479 101.731 27.7828 102.633 28.2395C103.546 28.6961 104.627 28.9244 105.874 28.9244C106.787 28.9244 107.678 28.7797 108.547 28.4901C109.416 28.2005 110.184 27.7717 110.853 27.2036L112.156 29.4925C111.621 29.9269 110.986 30.3 110.251 30.6118C109.527 30.9126 108.77 31.1409 107.979 31.2968C107.188 31.4528 106.42 31.5307 105.674 31.5307ZM100.06 21.0722H110.151C110.107 19.6911 109.678 18.6163 108.865 17.8478C108.052 17.0681 106.888 16.6783 105.373 16.6783C103.903 16.6783 102.689 17.0681 101.731 17.8478C100.773 18.6163 100.216 19.6911 100.06 21.0722Z" fill="white"></path>
  <path d="M114.86 31.0295V14.6568H117.934V16.8621C118.636 15.9042 119.454 15.2137 120.39 14.7904C121.326 14.3672 122.283 14.1556 123.264 14.1556C124.745 14.1556 125.97 14.4563 126.939 15.0577C127.919 15.648 128.649 16.4054 129.128 17.3299C129.618 18.2543 129.863 19.201 129.863 20.17V31.0295H126.789V21.1223C126.789 19.886 126.405 18.8947 125.636 18.1485C124.867 17.3911 123.821 17.0124 122.495 17.0124C121.626 17.0124 120.847 17.2074 120.156 17.5972C119.477 17.9759 118.937 18.5161 118.536 19.2177C118.135 19.9194 117.934 20.7269 117.934 21.6402V31.0295H114.86Z" fill="white"></path>
  <path d="M133.139 31.0295V7.63988H140.824C143.018 7.63988 144.795 8.14108 146.153 9.1435C147.523 10.1348 148.208 11.5994 148.208 13.5374C148.208 14.2836 148.025 15.002 147.657 15.6926C147.289 16.372 146.816 16.9679 146.237 17.4802C145.669 17.9926 145.079 18.3546 144.466 18.5662C145.747 18.9449 146.822 19.6521 147.69 20.688C148.57 21.7238 149.01 23.0102 149.01 24.5472C149.01 25.8058 148.693 26.9196 148.058 27.8886C147.434 28.8576 146.538 29.6261 145.368 30.1942C144.21 30.7511 142.834 31.0295 141.242 31.0295H133.139ZM136.28 28.4567H140.674C142.4 28.4567 143.681 28.1225 144.516 27.4542C145.363 26.786 145.786 25.7613 145.786 24.3802C145.786 23.0325 145.357 22.0078 144.499 21.3061C143.653 20.5933 142.327 20.2369 140.523 20.2369H136.28V28.4567ZM136.28 17.7642H140.306C141.275 17.7642 142.121 17.6083 142.845 17.2965C143.569 16.9846 144.126 16.5391 144.516 15.9599C144.917 15.3696 145.118 14.6623 145.118 13.8381C145.118 12.6575 144.694 11.7553 143.848 11.1316C143.012 10.5079 141.815 10.196 140.256 10.196H136.28V17.7642Z" fill="white"></path>
  <path d="M150.346 31.0295L159.551 7.63988H162.809L172.299 31.0295H168.757L166.435 25.1654H156.01L153.788 31.0295H150.346ZM156.895 22.4255H165.516L161.105 11.5326L156.895 22.4255Z" fill="white"></path>
  <path d="M182.293 31.5307C180.723 31.5307 179.192 31.3135 177.699 30.8791C176.207 30.4336 174.948 29.7988 173.923 28.9746L175.494 26.5187C176.073 26.9976 176.73 27.4041 177.465 27.7383C178.2 28.0724 178.98 28.3286 179.804 28.5068C180.628 28.685 181.464 28.7741 182.31 28.7741C183.97 28.7741 185.301 28.4511 186.303 27.8051C187.317 27.1591 187.823 26.2124 187.823 24.9649C187.823 24.0516 187.484 23.2775 186.804 22.6427C186.136 22.0078 184.883 21.4286 183.045 20.9051L180.506 20.1533C178.367 19.5296 176.802 18.711 175.811 17.6974C174.82 16.6839 174.324 15.4141 174.324 13.8883C174.324 12.8636 174.53 11.9391 174.942 11.1149C175.355 10.2907 175.934 9.58345 176.68 8.99314C177.426 8.39169 178.306 7.93503 179.32 7.62317C180.344 7.30017 181.464 7.13867 182.678 7.13867C184.181 7.13867 185.579 7.36143 186.871 7.80695C188.174 8.24133 189.249 8.82607 190.096 9.56117L188.475 11.9168C187.974 11.4936 187.4 11.1316 186.754 10.8309C186.108 10.519 185.418 10.2851 184.683 10.1292C183.947 9.96214 183.201 9.8786 182.444 9.8786C181.43 9.8786 180.534 10.029 179.754 10.3297C178.986 10.6193 178.384 11.0537 177.95 11.6328C177.526 12.2009 177.315 12.8914 177.315 13.7045C177.315 14.2948 177.454 14.8127 177.732 15.2582C178.011 15.6926 178.495 16.0936 179.186 16.4611C179.877 16.8287 180.829 17.1906 182.043 17.5471L184.749 18.349C186.832 18.9616 188.364 19.7691 189.344 20.7715C190.324 21.7628 190.814 23.0659 190.814 24.6809C190.814 26.0397 190.48 27.2371 189.812 28.2729C189.154 29.2976 188.191 30.0995 186.921 30.6787C185.652 31.2467 184.109 31.5307 182.293 31.5307Z" fill="white"></path>
  <g clip-path="url(#clip0_1769_2177)">
    <path fill-rule="evenodd" clip-rule="evenodd" d="M17.4421 37.9079L17.4421 0.616211L19.8481 0.616211L19.8481 37.9079H17.4421Z" fill="#0FBCFF"></path>
    <path fill-rule="evenodd" clip-rule="evenodd" d="M0 18.0581L37.2916 18.0581V20.464L0 20.464L0 18.0581Z" fill="#0FBCFF"></path>
    <path fill-rule="evenodd" clip-rule="evenodd" d="M11.4929 19.2578H13.8988V24.0071H18.7103V26.413H11.4929V19.2578Z" fill="#0FBCFF"></path>
    <path fill-rule="evenodd" clip-rule="evenodd" d="M5.54042 19.2578L7.94634 19.2582L7.94483 29.9613H18.5874V32.3672H5.53857L5.54042 19.2578Z" fill="#0FBCFF"></path>
    <path fill-rule="evenodd" clip-rule="evenodd" d="M18.5659 6.2627L31.6148 6.2627L31.6129 19.3704L29.207 19.37L29.2085 8.66861H18.5659V6.2627Z" fill="#0FBCFF"></path>
    <path fill-rule="evenodd" clip-rule="evenodd" d="M18.4742 12.2456L25.6927 12.2496L25.691 19.4029L23.2851 19.4022L23.2864 14.6542L18.4729 14.6515L18.4742 12.2456Z" fill="#0FBCFF"></path>
  </g>
  <defs>
    <clipPath id="clip0_1769_2177">
      <rect width="37.2916" height="37.2916" fill="white" transform="translate(0 0.616211)"></rect>
    </clipPath>
  </defs>
</svg>
