<?xml version="1.0" encoding="UTF-8"?>
<svg xmlns="http://www.w3.org/2000/svg" width="1757" height="817" viewBox="0 0 1757 817" fill="none">
  <path fill-rule="evenodd" clip-rule="evenodd" d="M1189 310.795L921 310.795L921 203.203L1189 203.203L1189 310.795Z" fill="white"></path>
  <path fill-rule="evenodd" clip-rule="evenodd" d="M1757 460.795L1489 460.795L1489 353.203L1757 353.203L1757 460.795Z" fill="white"></path>
  <path fill-rule="evenodd" clip-rule="evenodd" d="M268 460.795L-9.40599e-06 460.795L0 353.203L268 353.203L268 460.795Z" fill="white"></path>
  <path fill-rule="evenodd" clip-rule="evenodd" d="M711.204 813L711.204 -4.703e-06L818.796 0L818.796 813L711.204 813Z" fill="white"></path>
  <path fill-rule="evenodd" clip-rule="evenodd" d="M1189 610.795L921 610.795L921 503.203L1189 503.203L1189 610.795Z" fill="white"></path>
  <path fill-rule="evenodd" clip-rule="evenodd" d="M629.783 7.2168L629.783 816.783L214.217 816.783L214.217 7.21678L629.783 7.2168ZM514.217 122.783L329.783 122.783L329.783 701.217L514.217 701.217L514.217 122.783Z" fill="white"></path>
  <path fill-rule="evenodd" clip-rule="evenodd" d="M1546.78 7.2168L1546.78 806.783L1131.22 806.783L1131.22 7.21678L1546.78 7.2168ZM1431.22 122.783L1246.78 122.783L1246.78 691.217L1431.22 691.217L1431.22 122.783Z" fill="white"></path>
</svg>
