<?xml version="1.0" encoding="UTF-8"?>
<svg xmlns="http://www.w3.org/2000/svg" width="48" height="49" viewBox="0 0 48 49" fill="none">
  <path d="M39.7503 22.7527C41.8212 22.7527 43.5 21.0739 43.5 19.003V19.003C43.5 16.9321 41.8211 15.2533 39.7502 15.2533V15.2533C37.6791 15.2533 36 16.9322 36 19.0033V22.7527H39.7503ZM29.25 22.7527C31.3211 22.7527 33 21.0737 33 19.0027V8.5033C33 6.43223 31.3211 4.7533 29.25 4.7533V4.7533C27.1789 4.7533 25.5 6.43223 25.5 8.5033V19.0026C25.5 21.0737 27.1789 22.7527 29.25 22.7527V22.7527Z" fill="white"></path>
  <path d="M8.24968 25.7532C6.17879 25.7532 4.5 27.432 4.5 29.5029V29.5029C4.5 31.5738 6.17895 33.2526 8.24984 33.2526V33.2526C10.3209 33.2526 12 31.5736 12 29.5026V25.7532H8.24968ZM18.75 25.7532C16.6789 25.7532 15 27.4321 15 29.5032V40.0026C15 42.0736 16.6789 43.7526 18.75 43.7526V43.7526C20.8211 43.7526 22.5 42.0736 22.5 40.0026V29.5032C22.5 27.4321 20.8211 25.7532 18.75 25.7532V25.7532Z" fill="white"></path>
  <path d="M25.5006 40.0033C25.5006 42.0741 27.1794 43.7529 29.2503 43.7529V43.7529C31.3212 43.7529 33 42.074 33 40.0031V40.0031C33 37.932 31.3211 36.2529 29.25 36.2529L25.5006 36.2529L25.5006 40.0033ZM25.5006 29.5029C25.5006 31.574 27.1796 33.2529 29.2506 33.2529L39.75 33.2529C41.8211 33.2529 43.5 31.574 43.5 29.5029V29.5029C43.5 27.4319 41.8211 25.7529 39.75 25.7529L29.2506 25.7529C27.1796 25.7529 25.5006 27.4319 25.5006 29.5029V29.5029Z" fill="white"></path>
  <path d="M22.4994 8.50261C22.4994 6.43172 20.8206 4.75293 18.7497 4.75293V4.75293C16.6788 4.75293 15 6.43188 15 8.50277V8.50277C15 10.5738 16.6789 12.2529 18.75 12.2529L22.4994 12.2529L22.4994 8.50261ZM22.4994 19.0029C22.4994 16.9319 20.8204 15.2529 18.7494 15.2529L8.25 15.2529C6.17893 15.2529 4.5 16.9319 4.5 19.0029V19.0029C4.5 21.074 6.17893 22.7529 8.25 22.7529L18.7494 22.7529C20.8204 22.7529 22.4994 21.074 22.4994 19.0029V19.0029Z" fill="white"></path>
</svg>
