<?xml version="1.0" encoding="UTF-8"?>
<svg xmlns="http://www.w3.org/2000/svg" width="1144" height="1145" viewBox="0 0 1144 1145" fill="none">
  <path fill-rule="evenodd" clip-rule="evenodd" d="M845.023 225L443.73 225L443.73 107.851L845.023 107.851L845.023 225Z" fill="#0FBCFF"></path>
  <path fill-rule="evenodd" clip-rule="evenodd" d="M700.699 1038.14L278.286 1038.14L278.286 920.995L700.699 920.995L700.699 1038.14Z" fill="#0FBCFF"></path>
  <path fill-rule="evenodd" clip-rule="evenodd" d="M920.213 687.401L920.213 268.509L1037.36 268.509L1037.36 687.401L920.213 687.401Z" fill="#0FBCFF"></path>
  <path fill-rule="evenodd" clip-rule="evenodd" d="M107.068 863.407L107.068 451.555L224.218 451.555L224.218 863.407L107.068 863.407Z" fill="#0FBCFF"></path>
  <path d="M978.174 0.981723C1069.79 0.630274 1143.71 74.2006 1143.82 166.046C1143.82 257.423 1071.07 330.641 979.463 331.344C887.852 332.047 813.931 258.829 813.345 166.866C812.76 75.3722 886.329 1.45044 978.174 1.09899V0.981723ZM1033.7 165.577C1033.47 135.704 1007.81 110.634 977.822 110.868C948.418 111.22 923.349 136.524 923.232 165.929C923.232 195.802 948.887 221.224 978.643 221.106C1008.63 220.989 1033.94 195.45 1033.7 165.577Z" fill="#0FBCFF"></path>
  <path d="M978.174 814.126C1069.79 813.775 1143.71 887.345 1143.82 979.19C1143.82 1070.57 1071.07 1143.79 979.463 1144.49C887.852 1145.19 813.931 1071.97 813.345 980.011C812.76 888.517 886.329 814.595 978.174 814.244V814.126ZM1033.7 978.721C1033.47 948.848 1007.81 923.778 977.822 924.013C948.418 924.364 923.349 949.669 923.232 979.073C923.232 1008.95 948.887 1034.37 978.643 1034.25C1008.63 1034.13 1033.94 1008.59 1033.7 978.721Z" fill="#0FBCFF"></path>
  <path d="M165.03 0.981723C256.641 0.630274 330.562 74.2006 330.679 166.046C330.679 257.423 257.929 330.641 166.318 331.344C74.7071 332.047 0.786487 258.829 0.200739 166.866C-0.385009 75.3722 73.1843 1.45044 165.03 1.09899V0.981723ZM220.558 165.577C220.324 135.704 194.668 110.634 164.678 110.868C135.273 111.22 110.204 136.524 110.087 165.929C110.087 195.802 135.743 221.224 165.499 221.106C195.489 220.989 220.793 195.45 220.558 165.577Z" fill="#0FBCFF"></path>
  <path d="M165.03 814.126C256.641 813.775 330.562 887.345 330.679 979.19C330.679 1070.57 257.929 1143.79 166.318 1144.49C74.7071 1145.19 0.786487 1071.97 0.200739 980.011C-0.385009 888.517 73.1843 814.595 165.03 814.244V814.126ZM220.558 978.721C220.324 948.848 194.668 923.778 164.678 924.013C135.273 924.364 110.204 949.669 110.087 979.073C110.087 1008.95 135.743 1034.37 165.499 1034.25C195.489 1034.13 220.793 1008.59 220.558 978.721Z" fill="#0FBCFF"></path>
  <path fill-rule="evenodd" clip-rule="evenodd" d="M283.406 217.628L917.025 851.247L839.903 928.368L206.284 294.749L283.406 217.628Z" fill="#0FBCFF"></path>
</svg>
