<?xml version="1.0" encoding="UTF-8"?>
<svg xmlns="http://www.w3.org/2000/svg" width="1199" height="1199" viewBox="0 0 1199 1199" fill="none">
  <path fill-rule="evenodd" clip-rule="evenodd" d="M0.692871 599.242C0.692871 268.473 268.835 0.331055 599.604 0.331055C930.373 0.331055 1198.52 268.473 1198.52 599.242C1198.52 930.012 930.373 1198.15 599.604 1198.15C268.835 1198.15 0.692871 930.012 0.692871 599.242ZM599.604 117.481C333.535 117.481 117.843 333.173 117.843 599.242C117.843 865.312 333.535 1081 599.604 1081C865.673 1081 1081.37 865.312 1081.37 599.242C1081.37 333.173 865.673 117.481 599.604 117.481Z" fill="#0FBCFF"></path>
  <path fill-rule="evenodd" clip-rule="evenodd" d="M544.549 1114.94L544.549 855.715L603.124 855.715C680.141 855.715 741.675 793.978 741.675 718.925C741.675 643.872 680.14 582.135 603.124 582.134C526.108 582.134 464.573 643.872 464.573 718.925L347.423 718.925C347.423 578.183 462.401 464.985 603.124 464.985C743.847 464.985 858.825 578.183 858.825 718.925C858.825 839.525 774.402 939.9 661.699 966.16L661.699 1114.94L544.549 1114.94Z" fill="#0FBCFF"></path>
</svg>
