<?xml version="1.0" encoding="UTF-8"?>
<svg xmlns="http://www.w3.org/2000/svg" width="1184" height="999" viewBox="0 0 1184 999" fill="none">
  <path d="M165.511 668.406C257.122 668.054 331.044 741.624 331.161 833.47C331.161 924.846 258.411 998.065 166.8 998.768C75.1886 999.471 1.26793 926.252 0.682184 834.29C0.0964363 742.796 73.6658 668.874 165.511 668.523V668.406ZM221.04 833.001C220.806 803.128 195.15 778.058 165.159 778.292C135.755 778.643 110.686 803.948 110.569 833.352C110.569 863.226 136.224 888.647 165.98 888.53C195.97 888.413 221.274 862.874 221.04 833.001Z" fill="#0FBCFF"></path>
  <path d="M165.511 221.352C257.122 221 331.044 294.571 331.161 386.416C331.161 477.793 258.411 551.011 166.8 551.714C75.1886 552.417 1.26793 479.199 0.682184 387.236C0.0964363 295.742 73.6658 221.821 165.511 221.469V221.352ZM221.04 385.947C220.806 356.074 195.15 331.004 165.159 331.238C135.755 331.59 110.686 356.894 110.569 386.299C110.569 416.172 136.224 441.594 165.98 441.477C195.97 441.359 221.274 415.82 221.04 385.947Z" fill="#0FBCFF"></path>
  <path d="M609.044 668.406C700.655 668.054 774.577 741.624 774.694 833.47C774.694 924.846 701.944 998.065 610.333 998.768C518.722 999.471 444.801 926.252 444.215 834.29C443.63 742.796 517.199 668.874 609.044 668.523V668.406ZM664.573 833.001C664.339 803.128 638.683 778.058 608.693 778.292C579.288 778.643 554.219 803.948 554.102 833.352C554.102 863.226 579.757 888.647 609.513 888.53C639.504 888.413 664.807 862.874 664.573 833.001Z" fill="#0FBCFF"></path>
  <path d="M1017.38 668.406C1108.99 668.054 1182.91 741.624 1183.03 833.47C1183.03 924.846 1110.28 998.065 1018.67 998.768C927.055 999.471 853.134 926.252 852.548 834.29C851.963 742.796 925.532 668.874 1017.38 668.523V668.406ZM1072.91 833.001C1072.67 803.128 1047.02 778.058 1017.03 778.292C987.621 778.643 962.552 803.948 962.435 833.352C962.435 863.226 988.09 888.647 1017.85 888.53C1047.84 888.413 1073.14 862.874 1072.91 833.001Z" fill="#0FBCFF"></path>
  <path fill-rule="evenodd" clip-rule="evenodd" d="M452.519 0.850586H1182.17V543.933H452.519V0.850586ZM569.668 118V426.783H1065.02V118H569.668Z" fill="#0FBCFF"></path>
  <path fill-rule="evenodd" clip-rule="evenodd" d="M482.933 892.424L275.247 892.424L275.247 775.274L482.933 775.274L482.933 892.424Z" fill="#0FBCFF"></path>
  <path fill-rule="evenodd" clip-rule="evenodd" d="M954.628 892.424L746.941 892.424L746.941 775.274L954.628 775.274L954.628 892.424Z" fill="#0FBCFF"></path>
</svg>
