<?xml version="1.0" encoding="UTF-8"?>
<svg xmlns="http://www.w3.org/2000/svg" width="390" height="250" viewBox="0 0 390 250" fill="none">
  <g clip-path="url(#clip0_1253_898)">
    <rect width="390" height="249.41" fill="url(#paint0_linear_1253_898)"></rect>
    <rect width="390" height="249.41" fill="url(#paint1_linear_1253_898)"></rect>
    <g opacity="0.6">
      <g filter="url(#filter0_f_1253_898)">
        <ellipse cx="336.838" cy="212.888" rx="53.1621" ry="36.351" fill="#0FBCFF"></ellipse>
      </g>
      <g filter="url(#filter1_f_1253_898)">
        <ellipse cx="52.9525" cy="36.351" rx="52.9525" ry="36.351" fill="#0FBCFF"></ellipse>
      </g>
    </g>
    <g clip-path="url(#clip1_1253_898)">
      <path fill-rule="evenodd" clip-rule="evenodd" d="M33.331 29.814C32.0302 31.4358 31.252 33.4948 31.252 35.7356C31.252 37.9764 32.0302 40.0354 33.331 41.6572V29.814ZM34.6541 28.4642V43.007C35.2729 43.524 35.9586 43.9634 36.6964 44.3105V27.1607C35.9586 27.5077 35.2729 27.9472 34.6541 28.4642ZM38.0195 26.656V44.8152C38.6734 45.0096 39.3569 45.1353 40.0616 45.1839V26.2872C39.3569 26.3359 38.6734 26.4616 38.0195 26.656ZM41.3847 26.2872V28.3603H46.6656C45.2012 27.1789 43.3777 26.4247 41.3847 26.2872ZM48.0085 29.6834H41.3847V31.7269H49.3065C48.9613 30.9889 48.5237 30.3028 48.0085 29.6834ZM49.8081 33.05H41.3847V35.0922H50.1727C50.1255 34.3875 50.0011 33.704 49.8081 33.05ZM50.1702 36.4153H41.3847V45.184C42.1237 45.133 42.8394 44.9972 43.5221 44.7863V38.5398H49.7722C49.9823 37.8611 50.1182 37.1497 50.1702 36.4153ZM49.25 39.8629H44.8452V41.0831H46.1683V42.4061H44.8452V44.2651C46.763 43.3365 48.3203 41.7801 49.25 39.8629ZM29.929 35.7356C29.929 29.7741 34.7617 24.9414 40.7231 24.9414C46.6846 24.9414 51.5173 29.7741 51.5173 35.7356C51.5173 41.6971 46.6846 46.5298 40.7231 46.5298C34.7617 46.5298 29.929 41.6971 29.929 35.7356Z" fill="white"></path>
      <path d="M107.778 42.3814V33.2052H109.501V34.4412C109.894 33.9044 110.352 33.5173 110.877 33.2801C111.401 33.0429 111.938 32.9243 112.487 32.9243C113.318 32.9243 114.004 33.0929 114.547 33.4299C115.097 33.7608 115.506 34.1853 115.774 34.7034C116.048 35.2215 116.186 35.7521 116.186 36.2952V42.3814H114.463V36.8289C114.463 36.136 114.248 35.5804 113.817 35.1622C113.386 34.7377 112.799 34.5255 112.057 34.5255C111.57 34.5255 111.133 34.6347 110.746 34.8532C110.365 35.0654 110.062 35.3682 109.838 35.7614C109.613 36.1547 109.501 36.6073 109.501 37.1191V42.3814H107.778Z" fill="white"></path>
      <path d="M100.862 42.6624C99.9386 42.6624 99.1207 42.4471 98.4091 42.0163C97.6975 41.5856 97.1419 41.0051 96.7424 40.2747C96.3429 39.5381 96.1433 38.711 96.1433 37.7934C96.1433 37.1068 96.2587 36.4669 96.4897 35.8739C96.7207 35.2809 97.0452 34.7659 97.4634 34.329C97.8818 33.8858 98.378 33.5424 98.9522 33.299C99.5327 33.0493 100.17 32.9244 100.862 32.9244C101.786 32.9244 102.554 33.118 103.166 33.505C103.777 33.892 104.255 34.3851 104.598 34.9844L104.345 35.3589V33.2054H105.919V42.3815H104.345V40.2279L104.598 40.5931C104.255 41.1923 103.777 41.6886 103.166 42.0819C102.554 42.4689 101.786 42.6624 100.862 42.6624ZM101.05 41.1081C101.661 41.1081 102.204 40.9739 102.679 40.7055C103.153 40.4308 103.525 40.0469 103.793 39.5538C104.068 39.0544 104.205 38.4676 104.205 37.7934C104.205 37.113 104.068 36.5262 103.793 36.0331C103.525 35.5337 103.153 35.1498 102.679 34.8814C102.204 34.613 101.661 34.4788 101.05 34.4788C100.438 34.4788 99.8948 34.613 99.4204 34.8814C98.946 35.1498 98.5714 35.5337 98.2968 36.0331C98.0221 36.5262 97.8849 37.113 97.8849 37.7934C97.8849 38.4676 98.0221 39.0544 98.2968 39.5538C98.5714 40.0469 98.946 40.4308 99.4204 40.7055C99.8948 40.9739 100.438 41.1081 101.05 41.1081Z" fill="white"></path>
      <path d="M90.7671 42.3813V33.2052H92.49V34.5348C92.8582 33.9355 93.2952 33.5173 93.8008 33.2801C94.3127 33.0366 94.8558 32.9149 95.4301 32.9149C95.611 32.9149 95.7858 32.9243 95.9545 32.943C96.123 32.9617 96.2884 32.9867 96.4507 33.0179L96.1979 34.8063C96.023 34.7564 95.8451 34.7189 95.6642 34.694C95.4832 34.6628 95.3051 34.6471 95.1304 34.6471C94.3625 34.6471 93.729 34.8875 93.2296 35.3681C92.7366 35.8425 92.49 36.4792 92.49 37.2783V42.3813H90.7671Z" fill="white"></path>
      <path d="M83.9473 46.5951C83.3542 46.5951 82.7581 46.5357 82.1588 46.4171C81.5597 46.2985 80.9883 46.105 80.4452 45.8366L80.9041 44.3666C81.3972 44.5975 81.8967 44.7692 82.4022 44.8815C82.908 44.9939 83.4042 45.0501 83.891 45.0501C84.9959 45.0501 85.8387 44.7785 86.4192 44.2355C87.0059 43.6924 87.2993 42.9776 87.2993 42.0912V40.0968L87.5427 40.462C87.2057 41.0675 86.7344 41.5638 86.1288 41.9508C85.5235 42.3316 84.7618 42.5219 83.8441 42.5219C82.908 42.5219 82.087 42.3097 81.3816 41.8852C80.6762 41.4545 80.1269 40.8771 79.7336 40.153C79.3403 39.4289 79.1438 38.6174 79.1438 37.7185C79.1438 37.0506 79.2561 36.4264 79.4808 35.8458C79.7056 35.2653 80.0239 34.7566 80.4359 34.3196C80.8543 33.8764 81.3505 33.5331 81.9247 33.2896C82.4989 33.0462 83.1387 32.9244 83.8441 32.9244C84.7618 32.9244 85.5235 33.1148 86.1288 33.4956C86.7344 33.8764 87.2057 34.3695 87.5427 34.975L87.2993 35.3496V33.196H88.9193V41.6605C88.9193 43.2086 88.5009 44.4165 87.6646 45.2842C86.8342 46.1581 85.5953 46.5951 83.9473 46.5951ZM84.0502 40.9864C84.662 40.9864 85.2051 40.8521 85.6795 40.5837C86.1602 40.3153 86.5346 39.9376 86.8031 39.4508C87.0714 38.9638 87.2057 38.3864 87.2057 37.7185C87.2057 37.0568 87.0714 36.4825 86.8031 35.9957C86.5346 35.5025 86.1602 35.1217 85.6795 34.8533C85.2051 34.5849 84.662 34.4507 84.0502 34.4507C83.4322 34.4507 82.886 34.5849 82.4116 34.8533C81.9371 35.1217 81.5628 35.5025 81.288 35.9957C81.0197 36.4825 80.8854 37.0568 80.8854 37.7185C80.8854 38.3864 81.0197 38.9638 81.288 39.4508C81.5628 39.9376 81.9371 40.3153 82.4116 40.5837C82.886 40.8521 83.4322 40.9864 84.0502 40.9864Z" fill="white"></path>
      <path d="M76.3898 42.3814V33.2053H78.1127V42.3814H76.3898ZM77.2512 31.473C76.9266 31.473 76.6456 31.3638 76.4084 31.1453C76.1712 30.9268 76.0527 30.6491 76.0527 30.312C76.0527 29.9749 76.1712 29.7002 76.4084 29.488C76.6456 29.2695 76.9266 29.1603 77.2512 29.1603C77.582 29.1603 77.8628 29.2695 78.0938 29.488C78.331 29.7002 78.4497 29.9749 78.4497 30.312C78.4497 30.6491 78.331 30.9268 78.0938 31.1453C77.8628 31.3638 77.582 31.473 77.2512 31.473Z" fill="white"></path>
      <path d="M72.8152 42.382V28.8987H74.5381V42.382H72.8152Z" fill="white"></path>
      <path d="M69.2384 42.3814V33.2053H70.9613V42.3814H69.2384ZM70.0998 31.4731C69.7753 31.4731 69.4943 31.3638 69.2571 31.1453C69.0199 30.9268 68.9014 30.6491 68.9014 30.312C68.9014 29.9749 69.0199 29.7002 69.2571 29.488C69.4943 29.2695 69.7753 29.1603 70.0998 29.1603C70.4306 29.1603 70.7117 29.2695 70.9424 29.488C71.1796 29.7002 71.2983 29.9749 71.2983 30.312C71.2983 30.6491 71.1796 30.9268 70.9424 31.1453C70.7117 31.3638 70.4306 31.4731 70.0998 31.4731Z" fill="white"></path>
      <path d="M59.843 42.3821V29.2733H67.7647V30.8932H61.6035V35.0131H64.5069V36.5955H61.6035V42.3821H59.843Z" fill="white"></path>
    </g>
    <path d="M30.9952 83.6682V74.9389H32.8408V83.6682H30.9952ZM34.7158 83.6682V74.9389H36.5241L40.3836 80.6192V74.9389H42.1794V83.6682H40.3712L36.5053 77.9131V83.6682H34.7158ZM44.0506 83.6682V74.9389H46.9562C47.8458 74.9389 48.6294 75.1239 49.3069 75.4939C49.9886 75.8638 50.5186 76.3772 50.8969 77.034C51.2793 77.6907 51.4705 78.4493 51.4705 79.3098C51.4705 79.95 51.3604 80.5381 51.1401 81.0744C50.9239 81.6106 50.6163 82.072 50.2173 82.4586C49.8182 82.841 49.3422 83.1382 48.7894 83.3502C48.2365 83.5622 47.6255 83.6682 46.9562 83.6682H44.0506ZM45.8963 81.9473H46.8253C47.2327 81.9473 47.6005 81.8912 47.9289 81.7789C48.2615 81.6626 48.5483 81.49 48.7894 81.2614C49.0305 81.0328 49.2155 80.7564 49.3443 80.4321C49.4732 80.1038 49.5376 79.7296 49.5376 79.3098C49.5376 78.7445 49.4233 78.2644 49.1947 77.8695C48.9702 77.4746 48.6543 77.1732 48.2469 76.9654C47.8396 76.7575 47.3657 76.6536 46.8253 76.6536H45.8963V81.9473ZM56.4295 83.8553C55.623 83.8553 54.9476 83.6952 54.403 83.3752C53.8626 83.0509 53.4532 82.6103 53.1747 82.0533C52.9003 81.4921 52.7632 80.8541 52.7632 80.1391V74.9389H54.6088V80.189C54.6088 80.8374 54.7688 81.3217 55.0889 81.6418C55.4131 81.9618 55.86 82.1219 56.4295 82.1219C56.9948 82.1219 57.4375 81.9618 57.7576 81.6418C58.0818 81.3217 58.2439 80.8374 58.2439 80.189V74.9389H60.0958V80.1391C60.0958 80.8499 59.9565 81.4859 59.678 82.0471C59.4037 82.6082 58.9942 83.0509 58.4497 83.3752C57.9051 83.6952 57.2317 83.8553 56.4295 83.8553ZM64.9091 83.8553C64.2648 83.8553 63.6392 83.7617 63.0323 83.5747C62.4254 83.3876 61.912 83.1154 61.4922 82.7579L62.3713 81.3737C62.5625 81.5649 62.7974 81.7291 63.0759 81.8662C63.3586 82.0034 63.6579 82.1094 63.9738 82.1842C64.2938 82.2549 64.6077 82.2902 64.9153 82.2902C65.3892 82.2902 65.7737 82.2071 66.0688 82.0408C66.3639 81.8746 66.5115 81.6314 66.5115 81.3113C66.5115 81.0536 66.4076 80.8395 66.1997 80.6691C65.9919 80.4945 65.6053 80.3282 65.04 80.1703L64.2419 79.9458C63.3648 79.7005 62.733 79.368 62.3464 78.9482C61.9598 78.5283 61.7665 78.0191 61.7665 77.4205C61.7665 77.0298 61.8476 76.6723 62.0097 76.3481C62.1718 76.0238 62.3983 75.7433 62.6893 75.5063C62.9845 75.2694 63.3315 75.0865 63.7306 74.9576C64.1338 74.8246 64.5703 74.7581 65.04 74.7581C65.676 74.7581 66.2663 74.8516 66.8108 75.0387C67.3595 75.2216 67.8043 75.4731 68.1451 75.7931L67.2348 77.1337C67.0685 76.9674 66.8669 76.824 66.63 76.7035C66.3972 76.5829 66.1436 76.4894 65.8693 76.4229C65.5949 76.3522 65.3185 76.3169 65.04 76.3169C64.7407 76.3169 64.4767 76.3585 64.2481 76.4416C64.0237 76.5206 63.8491 76.637 63.7244 76.7908C63.5997 76.9404 63.5373 77.1212 63.5373 77.3332C63.5373 77.4954 63.581 77.6346 63.6682 77.751C63.7597 77.8632 63.9114 77.9692 64.1234 78.069C64.3396 78.1688 64.6347 78.2727 65.0088 78.3808L65.8319 78.6239C66.6965 78.8775 67.3242 79.1996 67.7149 79.5904C68.1056 79.9811 68.301 80.4883 68.301 81.1118C68.301 81.6522 68.1638 82.1302 67.8895 82.5459C67.6193 82.9574 67.2286 83.2796 66.7173 83.5123C66.2101 83.741 65.6074 83.8553 64.9091 83.8553ZM71.1663 83.6682V76.6224H68.7969V74.9389H75.3938V76.6224H73.0244V83.6682H71.1663ZM76.482 83.6682V74.9389H79.9425C80.5744 74.9389 81.1251 75.0449 81.5949 75.2569C82.0687 75.4648 82.4325 75.7661 82.686 76.161C82.9437 76.5559 83.0726 77.0277 83.0726 77.5764C83.0726 78.0087 82.9874 78.3891 82.817 78.7175C82.6465 79.0417 82.4117 79.3119 82.1124 79.528C81.8173 79.7442 81.4764 79.9001 81.0898 79.9957L83.534 83.6682H81.333L79.2317 80.3511H78.3276V83.6682H76.482ZM78.3276 78.8609H79.6994C80.1732 78.8609 80.5432 78.7653 80.8092 78.574C81.0794 78.3787 81.2145 78.0835 81.2145 77.6886C81.2145 77.2813 81.0898 76.9758 80.8404 76.7721C80.5952 76.5684 80.2356 76.4665 79.7617 76.4665H78.3276V78.8609ZM86.454 83.6682V79.977L83.3863 74.9389H85.4689L87.4205 78.2062L89.3472 74.9389H91.3736L88.3059 79.9957V83.6682H86.454ZM94.8656 83.6682V74.9389H98.3262C98.958 74.9389 99.5088 75.0449 99.9785 75.2569C100.452 75.4648 100.816 75.7661 101.07 76.161C101.327 76.5559 101.456 77.0277 101.456 77.5764C101.456 78.0087 101.371 78.3891 101.201 78.7175C101.03 79.0417 100.795 79.3119 100.496 79.528C100.201 79.7442 99.86 79.9001 99.4734 79.9957L101.918 83.6682H99.7166L97.6154 80.3511H96.7112V83.6682H94.8656ZM96.7112 78.8609H98.083C98.5569 78.8609 98.9268 78.7653 99.1929 78.574C99.4631 78.3787 99.5981 78.0835 99.5981 77.6886C99.5981 77.2813 99.4734 76.9758 99.224 76.7721C98.9788 76.5684 98.6192 76.4665 98.1453 76.4665H96.7112V78.8609ZM103.092 83.6682V74.9389H109.059V76.5476H104.938V78.4182H108.43V79.9084H104.938V82.0408H109.109V83.6682H103.092ZM110.673 83.6682V74.9389H114.059C114.699 74.9389 115.267 75.0512 115.761 75.2756C116.256 75.4959 116.645 75.8181 116.927 76.2421C117.21 76.6619 117.351 77.167 117.351 77.7572C117.351 78.36 117.22 78.8713 116.958 79.2911C116.697 79.7068 116.316 80.0248 115.817 80.2451C115.323 80.4612 114.722 80.5693 114.015 80.5693H112.519V83.6682H110.673ZM112.519 79.0167H113.984C114.462 79.0167 114.834 78.9191 115.1 78.7237C115.371 78.5283 115.506 78.2186 115.506 77.7946C115.506 77.3665 115.368 77.0485 115.094 76.8407C114.82 76.6328 114.454 76.5289 113.997 76.5289H112.519V79.0167ZM122.613 83.8553C121.948 83.8553 121.332 83.741 120.767 83.5123C120.202 83.2796 119.711 82.9574 119.296 82.5459C118.88 82.1344 118.556 81.6522 118.323 81.0993C118.094 80.5465 117.98 79.9479 117.98 79.3036C117.98 78.6551 118.094 78.0544 118.323 77.5016C118.556 76.9487 118.88 76.4665 119.296 76.055C119.711 75.6435 120.202 75.3234 120.767 75.0948C121.332 74.8662 121.948 74.7519 122.613 74.7519C123.278 74.7519 123.891 74.8683 124.452 75.101C125.017 75.3338 125.508 75.658 125.924 76.0737C126.343 76.4894 126.67 76.9737 126.903 77.5265C127.135 78.0752 127.252 78.6676 127.252 79.3036C127.252 79.9479 127.135 80.5465 126.903 81.0993C126.67 81.6522 126.343 82.1344 125.924 82.5459C125.508 82.9574 125.017 83.2796 124.452 83.5123C123.891 83.741 123.278 83.8553 122.613 83.8553ZM122.613 82.1219C122.999 82.1219 123.357 82.0554 123.685 81.9224C124.014 81.7893 124.3 81.6002 124.546 81.355C124.791 81.1055 124.98 80.8083 125.113 80.4633C125.25 80.1183 125.319 79.7317 125.319 79.3036C125.319 78.7341 125.2 78.2394 124.963 77.8196C124.726 77.3956 124.404 77.0672 123.997 76.8344C123.59 76.6016 123.128 76.4853 122.613 76.4853C122.23 76.4853 121.873 76.5518 121.54 76.6848C121.212 76.8178 120.925 77.0069 120.68 77.2522C120.439 77.4974 120.25 77.7946 120.112 78.1438C119.979 78.4888 119.913 78.8754 119.913 79.3036C119.913 79.873 120.031 80.3698 120.268 80.7938C120.505 81.2136 120.827 81.5399 121.235 81.7727C121.642 82.0055 122.101 82.1219 122.613 82.1219ZM128.588 83.6682V74.9389H132.048C132.68 74.9389 133.231 75.0449 133.701 75.2569C134.175 75.4648 134.538 75.7661 134.792 76.161C135.05 76.5559 135.178 77.0277 135.178 77.5764C135.178 78.0087 135.093 78.3891 134.923 78.7175C134.752 79.0417 134.518 79.3119 134.218 79.528C133.923 79.7442 133.582 79.9001 133.196 79.9957L135.64 83.6682H133.439L131.338 80.3511H130.433V83.6682H128.588ZM130.433 78.8609H131.805C132.279 78.8609 132.649 78.7653 132.915 78.574C133.185 78.3787 133.32 78.0835 133.32 77.6886C133.32 77.2813 133.196 76.9758 132.946 76.7721C132.701 76.5684 132.341 76.4665 131.868 76.4665H130.433V78.8609ZM138.386 83.6682V76.6224H136.016V74.9389H142.613V76.6224H140.244V83.6682H138.386Z" fill="#00F1BD"></path>
    <path d="M31.6948 112.903V98.9366H40.9827V101.211H34.2886V104.593H40.015V106.718H34.2886V110.609H41.0526V112.903H31.6948ZM43.3794 112.903V102.927H45.9333V104.124C46.3324 103.599 46.7979 103.22 47.33 102.987C47.8687 102.748 48.4307 102.628 49.016 102.628C49.9338 102.628 50.692 102.811 51.2906 103.177C51.8959 103.542 52.3448 104.011 52.6374 104.583C52.9301 105.155 53.0764 105.754 53.0764 106.379V112.903H50.5224V107.177C50.5224 106.499 50.3262 105.96 49.9338 105.561C49.5414 105.162 48.9927 104.962 48.2877 104.962C47.8288 104.962 47.4198 105.065 47.0607 105.272C46.7082 105.471 46.4321 105.754 46.2326 106.12C46.0331 106.485 45.9333 106.908 45.9333 107.387V112.903H43.3794ZM55.5287 112.903V98.5375H58.0826V105.032L57.5539 104.434C57.9928 103.842 58.5183 103.393 59.1301 103.087C59.742 102.781 60.4005 102.628 61.1055 102.628C62.0233 102.628 62.7848 102.811 63.39 103.177C64.0019 103.542 64.4608 104.018 64.7668 104.603C65.0727 105.188 65.2257 105.807 65.2257 106.459V112.903H62.6717V107.187C62.6717 106.529 62.4689 105.993 62.0632 105.581C61.6641 105.168 61.1154 104.962 60.4171 104.962C59.9515 104.956 59.5425 105.052 59.19 105.252C58.8375 105.451 58.5648 105.737 58.3719 106.11C58.1791 106.475 58.0826 106.904 58.0826 107.397V112.903H55.5287ZM71.8681 113.203C70.8904 113.203 70.0224 112.977 69.2642 112.524C68.5127 112.072 67.9208 111.447 67.4884 110.649C67.0561 109.851 66.84 108.94 66.84 107.915C66.84 107.144 66.963 106.435 67.2091 105.79C67.4552 105.145 67.801 104.587 68.2466 104.114C68.6989 103.642 69.231 103.276 69.8429 103.017C70.4614 102.758 71.1365 102.628 71.8681 102.628C72.8324 102.628 73.6438 102.834 74.3023 103.246C74.9607 103.659 75.4529 104.194 75.7788 104.853L75.4196 105.401V102.927H77.6643V112.903H75.4196V110.429L75.7788 110.978C75.4529 111.636 74.9607 112.172 74.3023 112.584C73.6438 112.997 72.8324 113.203 71.8681 113.203ZM72.2472 110.968C72.7992 110.968 73.2913 110.845 73.7237 110.599C74.156 110.346 74.4985 109.994 74.7512 109.541C75.0039 109.083 75.1303 108.54 75.1303 107.915C75.1303 107.29 75.0039 106.748 74.7512 106.289C74.4985 105.83 74.156 105.478 73.7237 105.232C73.2913 104.986 72.7992 104.863 72.2472 104.863C71.6951 104.863 71.1996 104.986 70.7607 105.232C70.3284 105.478 69.9859 105.83 69.7331 106.289C69.487 106.748 69.364 107.29 69.364 107.915C69.364 108.54 69.487 109.083 69.7331 109.541C69.9859 109.994 70.3284 110.346 70.7607 110.599C71.1996 110.845 71.6951 110.968 72.2472 110.968ZM80.217 112.903V102.927H82.7709V104.124C83.17 103.599 83.6356 103.22 84.1676 102.987C84.7063 102.748 85.2683 102.628 85.8536 102.628C86.7714 102.628 87.5296 102.811 88.1282 103.177C88.7335 103.542 89.1824 104.011 89.475 104.583C89.7677 105.155 89.914 105.754 89.914 106.379V112.903H87.36V107.177C87.36 106.499 87.1638 105.96 86.7714 105.561C86.379 105.162 85.8303 104.962 85.1254 104.962C84.6664 104.962 84.2574 105.065 83.8983 105.272C83.5458 105.471 83.2698 105.754 83.0702 106.12C82.8707 106.485 82.7709 106.908 82.7709 107.387V112.903H80.217ZM96.9953 113.203C95.9378 113.203 94.9967 112.973 94.172 112.514C93.354 112.049 92.7088 111.42 92.2366 110.629C91.7644 109.831 91.5283 108.926 91.5283 107.915C91.5283 107.15 91.668 106.449 91.9473 105.81C92.2266 105.165 92.619 104.606 93.1245 104.134C93.63 103.655 94.2219 103.286 94.9003 103.027C95.5853 102.761 96.3302 102.628 97.135 102.628C97.8333 102.628 98.4818 102.721 99.0804 102.907C99.6789 103.093 100.228 103.379 100.726 103.765L99.5393 105.691C99.2267 105.411 98.8709 105.205 98.4718 105.072C98.0794 104.932 97.6671 104.863 97.2347 104.863C96.583 104.863 96.021 104.982 95.5487 105.222C95.0832 105.461 94.724 105.807 94.4713 106.259C94.2186 106.711 94.0922 107.26 94.0922 107.905C94.0922 108.863 94.3715 109.615 94.9302 110.16C95.4955 110.699 96.2637 110.968 97.2347 110.968C97.7203 110.968 98.1792 110.878 98.6115 110.699C99.0438 110.519 99.4196 110.273 99.7388 109.96L100.876 111.896C100.331 112.302 99.7222 112.621 99.0504 112.854C98.3787 113.086 97.6937 113.203 96.9953 113.203ZM102.392 112.903V102.927H104.946V112.903H102.392ZM103.669 101.251C103.23 101.251 102.851 101.111 102.531 100.832C102.212 100.553 102.053 100.184 102.053 99.7247C102.053 99.2658 102.212 98.8967 102.531 98.6173C102.851 98.338 103.23 98.1983 103.669 98.1983C104.108 98.1983 104.487 98.338 104.806 98.6173C105.125 98.8967 105.285 99.2658 105.285 99.7247C105.285 100.184 105.125 100.553 104.806 100.832C104.487 101.111 104.108 101.251 103.669 101.251ZM107.487 112.903V102.927H110.041V104.124C110.44 103.599 110.906 103.22 111.438 102.987C111.977 102.748 112.539 102.628 113.124 102.628C114.042 102.628 114.8 102.811 115.399 103.177C116.004 103.542 116.453 104.011 116.745 104.583C117.038 105.155 117.184 105.754 117.184 106.379V112.903H114.631V107.177C114.631 106.499 114.434 105.96 114.042 105.561C113.65 105.162 113.101 104.962 112.396 104.962C111.937 104.962 111.528 105.065 111.169 105.272C110.816 105.471 110.54 105.754 110.341 106.12C110.141 106.485 110.041 106.908 110.041 107.387V112.903H107.487ZM124.006 117.393C123.328 117.393 122.663 117.326 122.011 117.193C121.366 117.067 120.757 116.854 120.185 116.555L120.774 114.48C121.273 114.719 121.782 114.895 122.3 115.008C122.819 115.122 123.338 115.178 123.857 115.178C124.961 115.178 125.802 114.922 126.381 114.41C126.959 113.904 127.249 113.219 127.249 112.355V110.17L127.588 110.719C127.282 111.37 126.806 111.899 126.161 112.305C125.516 112.704 124.708 112.903 123.737 112.903C122.746 112.903 121.878 112.681 121.133 112.235C120.388 111.783 119.806 111.171 119.387 110.399C118.975 109.621 118.769 108.743 118.769 107.766C118.769 107.027 118.889 106.346 119.128 105.72C119.367 105.095 119.707 104.553 120.146 104.094C120.585 103.629 121.107 103.27 121.712 103.017C122.324 102.758 122.999 102.628 123.737 102.628C124.708 102.628 125.516 102.827 126.161 103.226C126.806 103.619 127.282 104.148 127.588 104.813L127.249 105.361V102.917H129.593V111.846C129.593 113.602 129.121 114.965 128.176 115.936C127.232 116.907 125.842 117.393 124.006 117.393ZM124.176 110.719C124.741 110.719 125.24 110.596 125.672 110.35C126.105 110.103 126.444 109.761 126.69 109.322C126.936 108.876 127.059 108.358 127.059 107.766C127.059 107.167 126.936 106.648 126.69 106.209C126.444 105.764 126.105 105.421 125.672 105.182C125.24 104.936 124.741 104.813 124.176 104.813C123.617 104.813 123.118 104.936 122.68 105.182C122.247 105.421 121.908 105.764 121.662 106.209C121.416 106.648 121.293 107.167 121.293 107.766C121.293 108.358 121.416 108.876 121.662 109.322C121.908 109.761 122.247 110.103 122.68 110.35C123.118 110.596 123.617 110.719 124.176 110.719ZM137.478 112.903V101.54C137.478 100.523 137.774 99.7181 138.366 99.1261C138.965 98.5342 139.799 98.2382 140.87 98.2382C141.243 98.2382 141.589 98.2781 141.908 98.358C142.234 98.4311 142.543 98.5442 142.836 98.6971L142.407 100.682C142.214 100.576 142.028 100.503 141.848 100.463C141.668 100.423 141.495 100.403 141.329 100.403C140.937 100.403 140.621 100.5 140.381 100.692C140.142 100.885 140.022 101.208 140.022 101.66V102.927H142.576V105.002H140.022V112.903H137.478ZM135.563 105.002V102.927H137.768V105.002H135.563ZM144.492 112.903V102.927H147.046V112.903H144.492ZM145.769 101.251C145.33 101.251 144.951 101.111 144.631 100.832C144.312 100.553 144.152 100.184 144.152 99.7247C144.152 99.2658 144.312 98.8967 144.631 98.6173C144.951 98.338 145.33 98.1983 145.769 98.1983C146.208 98.1983 146.587 98.338 146.906 98.6173C147.225 98.8967 147.385 99.2658 147.385 99.7247C147.385 100.184 147.225 100.553 146.906 100.832C146.587 101.111 146.208 101.251 145.769 101.251ZM149.596 112.903V102.927H152.15V104.124C152.549 103.599 153.015 103.22 153.547 102.987C154.085 102.748 154.647 102.628 155.233 102.628C156.151 102.628 156.909 102.811 157.507 103.177C158.113 103.542 158.562 104.011 158.854 104.583C159.147 105.155 159.293 105.754 159.293 106.379V112.903H156.739V107.177C156.739 106.499 156.543 105.96 156.151 105.561C155.758 105.162 155.209 104.962 154.505 104.962C154.046 104.962 153.637 105.065 153.277 105.272C152.925 105.471 152.649 105.754 152.449 106.12C152.25 106.485 152.15 106.908 152.15 107.387V112.903H149.596ZM165.936 113.203C164.958 113.203 164.09 112.977 163.332 112.524C162.58 112.072 161.988 111.447 161.556 110.649C161.124 109.851 160.907 108.94 160.907 107.915C160.907 107.144 161.03 106.435 161.277 105.79C161.523 105.145 161.868 104.587 162.314 104.114C162.766 103.642 163.298 103.276 163.91 103.017C164.529 102.758 165.204 102.628 165.936 102.628C166.9 102.628 167.711 102.834 168.37 103.246C169.028 103.659 169.52 104.194 169.846 104.853L169.487 105.401V102.927H171.732V112.903H169.487V110.429L169.846 110.978C169.52 111.636 169.028 112.172 168.37 112.584C167.711 112.997 166.9 113.203 165.936 113.203ZM166.315 110.968C166.867 110.968 167.359 110.845 167.791 110.599C168.223 110.346 168.566 109.994 168.819 109.541C169.071 109.083 169.198 108.54 169.198 107.915C169.198 107.29 169.071 106.748 168.819 106.289C168.566 105.83 168.223 105.478 167.791 105.232C167.359 104.986 166.867 104.863 166.315 104.863C165.763 104.863 165.267 104.986 164.828 105.232C164.396 105.478 164.053 105.83 163.801 106.289C163.554 106.748 163.431 107.29 163.431 107.915C163.431 108.54 163.554 109.083 163.801 109.541C164.053 109.994 164.396 110.346 164.828 110.599C165.267 110.845 165.763 110.968 166.315 110.968ZM174.284 112.903V102.927H176.838V104.124C177.237 103.599 177.703 103.22 178.235 102.987C178.774 102.748 179.336 102.628 179.921 102.628C180.839 102.628 181.597 102.811 182.196 103.177C182.801 103.542 183.25 104.011 183.542 104.583C183.835 105.155 183.981 105.754 183.981 106.379V112.903H181.428V107.177C181.428 106.499 181.231 105.96 180.839 105.561C180.446 105.162 179.898 104.962 179.193 104.962C178.734 104.962 178.325 105.065 177.966 105.272C177.613 105.471 177.337 105.754 177.138 106.12C176.938 106.485 176.838 106.908 176.838 107.387V112.903H174.284ZM191.063 113.203C190.005 113.203 189.064 112.973 188.239 112.514C187.421 112.049 186.776 111.42 186.304 110.629C185.832 109.831 185.596 108.926 185.596 107.915C185.596 107.15 185.735 106.449 186.015 105.81C186.294 105.165 186.686 104.606 187.192 104.134C187.697 103.655 188.289 103.286 188.968 103.027C189.653 102.761 190.398 102.628 191.202 102.628C191.901 102.628 192.549 102.721 193.148 102.907C193.746 103.093 194.295 103.379 194.794 103.765L193.607 105.691C193.294 105.411 192.938 105.205 192.539 105.072C192.147 104.932 191.735 104.863 191.302 104.863C190.65 104.863 190.088 104.982 189.616 105.222C189.151 105.461 188.791 105.807 188.539 106.259C188.286 106.711 188.16 107.26 188.16 107.905C188.16 108.863 188.439 109.615 188.998 110.16C189.563 110.699 190.331 110.968 191.302 110.968C191.788 110.968 192.247 110.878 192.679 110.699C193.111 110.519 193.487 110.273 193.806 109.96L194.944 111.896C194.398 112.302 193.79 112.621 193.118 112.854C192.446 113.086 191.761 113.203 191.063 113.203ZM196.459 112.903V102.927H199.013V112.903H196.459ZM197.736 101.251C197.297 101.251 196.918 101.111 196.599 100.832C196.28 100.553 196.12 100.184 196.12 99.7247C196.12 99.2658 196.28 98.8967 196.599 98.6173C196.918 98.338 197.297 98.1983 197.736 98.1983C198.175 98.1983 198.554 98.338 198.873 98.6173C199.193 98.8967 199.352 99.2658 199.352 99.7247C199.352 100.184 199.193 100.553 198.873 100.832C198.554 101.111 198.175 101.251 197.736 101.251ZM205.745 113.203C204.767 113.203 203.899 112.977 203.141 112.524C202.39 112.072 201.798 111.447 201.365 110.649C200.933 109.851 200.717 108.94 200.717 107.915C200.717 107.144 200.84 106.435 201.086 105.79C201.332 105.145 201.678 104.587 202.124 104.114C202.576 103.642 203.108 103.276 203.72 103.017C204.338 102.758 205.013 102.628 205.745 102.628C206.709 102.628 207.521 102.834 208.179 103.246C208.838 103.659 209.33 104.194 209.656 104.853L209.297 105.401V102.927H211.541V112.903H209.297V110.429L209.656 110.978C209.33 111.636 208.838 112.172 208.179 112.584C207.521 112.997 206.709 113.203 205.745 113.203ZM206.124 110.968C206.676 110.968 207.168 110.845 207.601 110.599C208.033 110.346 208.375 109.994 208.628 109.541C208.881 109.083 209.007 108.54 209.007 107.915C209.007 107.29 208.881 106.748 208.628 106.289C208.375 105.83 208.033 105.478 207.601 105.232C207.168 104.986 206.676 104.863 206.124 104.863C205.572 104.863 205.077 104.986 204.638 105.232C204.205 105.478 203.863 105.83 203.61 106.289C203.364 106.748 203.241 107.29 203.241 107.915C203.241 108.54 203.364 109.083 203.61 109.541C203.863 109.994 204.205 110.346 204.638 110.599C205.077 110.845 205.572 110.968 206.124 110.968ZM214.094 112.903V98.5375H216.648V112.903H214.094ZM227.076 113.193C226.218 113.193 225.42 113.076 224.681 112.844C223.95 112.611 223.328 112.292 222.816 111.886L223.704 110.07C224.196 110.423 224.738 110.702 225.33 110.908C225.922 111.114 226.5 111.217 227.066 111.217C227.664 111.217 228.13 111.118 228.462 110.918C228.795 110.719 228.961 110.439 228.961 110.08C228.961 109.741 228.815 109.492 228.522 109.332C228.23 109.172 227.678 109.006 226.866 108.833C225.576 108.58 224.638 108.208 224.053 107.716C223.467 107.217 223.175 106.532 223.175 105.661C223.175 105.042 223.344 104.497 223.684 104.025C224.029 103.552 224.502 103.186 225.1 102.927C225.706 102.661 226.401 102.528 227.185 102.528C227.95 102.528 228.672 102.634 229.35 102.847C230.035 103.06 230.624 103.359 231.116 103.745L230.268 105.571C230.009 105.351 229.713 105.162 229.38 105.002C229.048 104.843 228.695 104.72 228.323 104.633C227.957 104.547 227.594 104.503 227.235 104.503C226.71 104.503 226.284 104.596 225.958 104.783C225.639 104.969 225.479 105.232 225.479 105.571C225.479 105.91 225.629 106.163 225.928 106.329C226.228 106.489 226.77 106.658 227.554 106.838C228.885 107.124 229.836 107.503 230.408 107.975C230.98 108.447 231.266 109.109 231.266 109.96C231.266 110.612 231.089 111.181 230.737 111.666C230.384 112.145 229.892 112.521 229.26 112.794C228.635 113.06 227.907 113.193 227.076 113.193ZM237.848 113.203C236.764 113.203 235.813 112.983 234.995 112.544C234.177 112.099 233.538 111.48 233.079 110.689C232.627 109.897 232.401 108.976 232.401 107.925C232.401 107.154 232.531 106.445 232.79 105.8C233.056 105.155 233.429 104.596 233.908 104.124C234.393 103.645 234.958 103.276 235.604 103.017C236.255 102.758 236.967 102.628 237.738 102.628C238.576 102.628 239.325 102.777 239.983 103.077C240.642 103.369 241.187 103.785 241.619 104.324C242.058 104.856 242.364 105.481 242.537 106.199C242.717 106.911 242.74 107.689 242.607 108.534H234.805C234.799 109.059 234.922 109.518 235.175 109.911C235.434 110.303 235.8 110.612 236.272 110.838C236.751 111.058 237.313 111.168 237.958 111.168C238.53 111.168 239.079 111.084 239.604 110.918C240.129 110.752 240.618 110.506 241.071 110.18L241.968 111.966C241.656 112.218 241.267 112.438 240.801 112.624C240.336 112.81 239.843 112.953 239.325 113.053C238.813 113.153 238.32 113.203 237.848 113.203ZM234.955 106.718H240.133C240.113 106.046 239.89 105.521 239.464 105.142C239.039 104.756 238.443 104.563 237.679 104.563C236.92 104.563 236.295 104.756 235.803 105.142C235.311 105.521 235.028 106.046 234.955 106.718ZM249.121 113.203C248.064 113.203 247.123 112.973 246.298 112.514C245.48 112.049 244.835 111.42 244.362 110.629C243.89 109.831 243.654 108.926 243.654 107.915C243.654 107.15 243.794 106.449 244.073 105.81C244.352 105.165 244.745 104.606 245.25 104.134C245.756 103.655 246.348 103.286 247.026 103.027C247.711 102.761 248.456 102.628 249.261 102.628C249.959 102.628 250.608 102.721 251.206 102.907C251.805 103.093 252.353 103.379 252.852 103.765L251.665 105.691C251.352 105.411 250.997 105.205 250.598 105.072C250.205 104.932 249.793 104.863 249.361 104.863C248.709 104.863 248.147 104.982 247.675 105.222C247.209 105.461 246.85 105.807 246.597 106.259C246.344 106.711 246.218 107.26 246.218 107.905C246.218 108.863 246.497 109.615 247.056 110.16C247.621 110.699 248.39 110.968 249.361 110.968C249.846 110.968 250.305 110.878 250.737 110.699C251.17 110.519 251.545 110.273 251.865 109.96L253.002 111.896C252.457 112.302 251.848 112.621 251.176 112.854C250.505 113.086 249.819 113.203 249.121 113.203ZM258.777 113.203C257.753 113.203 256.942 112.91 256.343 112.325C255.745 111.74 255.445 110.855 255.445 109.671V100.034H257.999V102.927H260.623V105.002H257.999V109.162C257.999 109.801 258.126 110.253 258.378 110.519C258.631 110.778 258.98 110.908 259.426 110.908C259.652 110.908 259.865 110.882 260.064 110.828C260.271 110.775 260.46 110.705 260.633 110.619L261.032 112.654C260.739 112.807 260.397 112.937 260.005 113.043C259.612 113.15 259.203 113.203 258.777 113.203ZM253.34 105.002V102.927H255.735V105.002H253.34ZM267.369 113.203C266.305 113.203 265.361 112.963 264.536 112.484C263.718 111.999 263.076 111.357 262.611 110.559C262.145 109.754 261.912 108.873 261.912 107.915C261.912 107.21 262.045 106.539 262.311 105.9C262.577 105.262 262.953 104.7 263.439 104.214C263.931 103.722 264.51 103.336 265.175 103.057C265.84 102.771 266.571 102.628 267.369 102.628C268.427 102.628 269.365 102.867 270.183 103.346C271.007 103.825 271.653 104.467 272.118 105.272C272.59 106.076 272.826 106.958 272.826 107.915C272.826 108.62 272.69 109.292 272.417 109.93C272.151 110.562 271.776 111.124 271.29 111.616C270.805 112.109 270.229 112.498 269.564 112.784C268.899 113.063 268.167 113.203 267.369 113.203ZM267.369 110.968C267.928 110.968 268.427 110.845 268.866 110.599C269.311 110.346 269.661 109.994 269.913 109.541C270.166 109.083 270.292 108.54 270.292 107.915C270.292 107.29 270.166 106.748 269.913 106.289C269.661 105.83 269.315 105.478 268.876 105.232C268.437 104.986 267.935 104.863 267.369 104.863C266.804 104.863 266.299 104.986 265.853 105.232C265.414 105.478 265.068 105.83 264.815 106.289C264.569 106.748 264.446 107.29 264.446 107.915C264.446 108.54 264.573 109.083 264.825 109.541C265.078 109.994 265.424 110.346 265.863 110.599C266.302 110.845 266.804 110.968 267.369 110.968ZM274.529 112.903V102.927H277.083V104.234C277.429 103.649 277.862 103.233 278.38 102.987C278.906 102.741 279.471 102.618 280.076 102.618C280.289 102.618 280.485 102.628 280.665 102.648C280.844 102.668 281.017 102.698 281.184 102.738L280.864 105.371C280.658 105.298 280.442 105.245 280.216 105.212C279.996 105.172 279.777 105.152 279.558 105.152C278.839 105.152 278.247 105.368 277.782 105.8C277.316 106.226 277.083 106.825 277.083 107.596V112.903H274.529ZM36.0345 138.203C34.977 138.203 34.0359 137.973 33.2112 137.514C32.3931 137.049 31.748 136.42 31.2758 135.629C30.8035 134.831 30.5674 133.926 30.5674 132.915C30.5674 132.15 30.7071 131.449 30.9864 130.81C31.2658 130.165 31.6582 129.606 32.1637 129.134C32.6691 128.655 33.261 128.286 33.9394 128.027C34.6245 127.761 35.3694 127.628 36.1741 127.628C36.8725 127.628 37.5209 127.721 38.1195 127.907C38.7181 128.093 39.2668 128.379 39.7656 128.765L38.5784 130.691C38.2658 130.411 37.91 130.205 37.511 130.072C37.1186 129.932 36.7062 129.863 36.2739 129.863C35.6221 129.863 35.0601 129.982 34.5879 130.222C34.1223 130.461 33.7632 130.807 33.5105 131.259C33.2577 131.711 33.1314 132.26 33.1314 132.905C33.1314 133.863 33.4107 134.615 33.9694 135.16C34.5347 135.699 35.3029 135.968 36.2739 135.968C36.7594 135.968 37.2183 135.878 37.6506 135.699C38.0829 135.519 38.4587 135.273 38.778 134.96L39.9153 136.896C39.3699 137.302 38.7613 137.621 38.0896 137.854C37.4179 138.086 36.7328 138.203 36.0345 138.203ZM42.4984 142.373C42.106 142.373 41.7202 142.33 41.3411 142.243C40.962 142.157 40.5962 142.017 40.2437 141.824L40.8124 139.659C41.0185 139.786 41.248 139.882 41.5007 139.949C41.7535 140.015 41.9829 140.048 42.1891 140.048C42.6147 140.048 42.9606 139.949 43.2266 139.749C43.4927 139.556 43.6955 139.247 43.8352 138.821L44.1045 138.023L40.1938 127.927H42.9772L45.5511 135.359L48.0552 127.927H50.7588L46.5088 139.19C46.1896 140.002 45.8271 140.637 45.4214 141.096C45.0157 141.561 44.5668 141.891 44.0746 142.084C43.5891 142.276 43.0637 142.373 42.4984 142.373ZM57.9183 138.203C57.2665 138.203 56.6779 138.106 56.1525 137.913C55.6271 137.721 55.1715 137.455 54.7858 137.115C54.4 136.776 54.0974 136.384 53.8779 135.938L54.2371 135.369V137.903H51.9824V123.538H54.5264V130.212L53.9777 129.633C54.4233 129.008 54.9687 128.519 55.6138 128.167C56.2656 127.807 57.0205 127.628 57.8784 127.628C58.8628 127.628 59.734 127.864 60.4922 128.336C61.2504 128.802 61.8424 129.437 62.268 130.242C62.6937 131.04 62.9065 131.931 62.9065 132.915C62.9065 133.68 62.7835 134.388 62.5374 135.04C62.2913 135.685 61.9454 136.244 61.4998 136.716C61.0542 137.188 60.5255 137.554 59.9136 137.814C59.3084 138.073 58.6433 138.203 57.9183 138.203ZM57.4494 135.968C58.0081 135.968 58.5069 135.845 58.9459 135.599C59.3915 135.346 59.7407 134.994 59.9934 134.541C60.2461 134.083 60.3725 133.54 60.3725 132.915C60.3725 132.29 60.2461 131.748 59.9934 131.289C59.7407 130.83 59.3948 130.478 58.9559 130.232C58.5169 129.986 58.0148 129.863 57.4494 129.863C56.8841 129.863 56.3787 129.986 55.933 130.232C55.4941 130.478 55.1482 130.83 54.8955 131.289C54.6494 131.748 54.5264 132.29 54.5264 132.915C54.5264 133.54 54.6527 134.083 54.9055 134.541C55.1582 134.994 55.5041 135.346 55.943 135.599C56.382 135.845 56.8841 135.968 57.4494 135.968ZM69.3253 138.203C68.2412 138.203 67.2902 137.983 66.4721 137.544C65.654 137.099 65.0156 136.48 64.5566 135.689C64.1044 134.897 63.8783 133.976 63.8783 132.925C63.8783 132.154 64.0079 131.445 64.2673 130.8C64.5334 130.155 64.9058 129.596 65.3847 129.124C65.8702 128.645 66.4355 128.276 67.0807 128.017C67.7324 127.758 68.4441 127.628 69.2156 127.628C70.0536 127.628 70.8018 127.777 71.4603 128.077C72.1187 128.369 72.6641 128.785 73.0964 129.324C73.5353 129.856 73.8413 130.481 74.0142 131.199C74.1938 131.911 74.2171 132.689 74.084 133.534H66.2826C66.2759 134.059 66.3989 134.518 66.6517 134.911C66.9111 135.303 67.2769 135.612 67.7491 135.838C68.2279 136.058 68.7899 136.168 69.4351 136.168C70.007 136.168 70.5557 136.084 71.0812 135.918C71.6066 135.752 72.0954 135.506 72.5477 135.18L73.4456 136.966C73.133 137.218 72.7439 137.438 72.2783 137.624C71.8128 137.81 71.3206 137.953 70.8018 138.053C70.2897 138.153 69.7975 138.203 69.3253 138.203ZM66.4322 131.718H71.6099C71.59 131.046 71.3672 130.521 70.9415 130.142C70.5158 129.756 69.9206 129.563 69.1557 129.563C68.3975 129.563 67.7723 129.756 67.2802 130.142C66.788 130.521 66.5054 131.046 66.4322 131.718ZM75.8718 137.903V127.927H78.4258V129.234C78.7716 128.649 79.2039 128.233 79.7227 127.987C80.2481 127.741 80.8134 127.618 81.4187 127.618C81.6315 127.618 81.8277 127.628 82.0073 127.648C82.1869 127.668 82.3598 127.698 82.526 127.738L82.2068 130.371C82.0006 130.298 81.7845 130.245 81.5583 130.212C81.3389 130.172 81.1194 130.152 80.8999 130.152C80.1816 130.152 79.5897 130.368 79.1241 130.8C78.6586 131.226 78.4258 131.825 78.4258 132.596V137.903H75.8718ZM87.382 138.193C86.5241 138.193 85.726 138.076 84.9877 137.844C84.2561 137.611 83.6342 137.292 83.1221 136.886L84.01 135.07C84.5022 135.423 85.0442 135.702 85.6362 135.908C86.2281 136.114 86.8067 136.217 87.372 136.217C87.9706 136.217 88.4362 136.118 88.7687 135.918C89.1013 135.719 89.2676 135.439 89.2676 135.08C89.2676 134.741 89.1212 134.492 88.8286 134.332C88.536 134.172 87.9839 134.006 87.1725 133.833C85.8822 133.58 84.9445 133.208 84.3592 132.716C83.7739 132.217 83.4813 131.532 83.4813 130.661C83.4813 130.042 83.6509 129.497 83.9901 129.025C84.3359 128.552 84.8081 128.186 85.4067 127.927C86.0119 127.661 86.707 127.528 87.4918 127.528C88.2566 127.528 88.9782 127.634 89.6566 127.847C90.3417 128.06 90.9303 128.359 91.4224 128.745L90.5745 130.571C90.3151 130.351 90.0191 130.162 89.6866 130.002C89.354 129.843 89.0015 129.72 88.6291 129.633C88.2633 129.547 87.9008 129.503 87.5416 129.503C87.0162 129.503 86.5906 129.596 86.2647 129.783C85.9454 129.969 85.7858 130.232 85.7858 130.571C85.7858 130.91 85.9355 131.163 86.2347 131.329C86.534 131.489 87.0761 131.658 87.8609 131.838C89.1911 132.124 90.1421 132.503 90.7141 132.975C91.2861 133.447 91.5721 134.109 91.5721 134.96C91.5721 135.612 91.3958 136.181 91.0433 136.666C90.6908 137.145 90.1987 137.521 89.5668 137.794C88.9417 138.06 88.2134 138.193 87.382 138.193ZM98.1546 138.203C97.0705 138.203 96.1194 137.983 95.3014 137.544C94.4833 137.099 93.8448 136.48 93.3859 135.689C92.9336 134.897 92.7075 133.976 92.7075 132.925C92.7075 132.154 92.8372 131.445 93.0966 130.8C93.3626 130.155 93.7351 129.596 94.2139 129.124C94.6995 128.645 95.2648 128.276 95.9099 128.017C96.5617 127.758 97.2734 127.628 98.0449 127.628C98.8829 127.628 99.6311 127.777 100.29 128.077C100.948 128.369 101.493 128.785 101.926 129.324C102.365 129.856 102.671 130.481 102.843 131.199C103.023 131.911 103.046 132.689 102.913 133.534H95.1118C95.1052 134.059 95.2282 134.518 95.4809 134.911C95.7403 135.303 96.1061 135.612 96.5783 135.838C97.0572 136.058 97.6192 136.168 98.2643 136.168C98.8363 136.168 99.385 136.084 99.9104 135.918C100.436 135.752 100.925 135.506 101.377 135.18L102.275 136.966C101.962 137.218 101.573 137.438 101.108 137.624C100.642 137.81 100.15 137.953 99.6311 138.053C99.119 138.153 98.6268 138.203 98.1546 138.203ZM95.2615 131.718H100.439C100.419 131.046 100.196 130.521 99.7708 130.142C99.3451 129.756 98.7498 129.563 97.985 129.563C97.2268 129.563 96.6016 129.756 96.1094 130.142C95.6173 130.521 95.3346 131.046 95.2615 131.718ZM109.428 138.203C108.37 138.203 107.429 137.973 106.604 137.514C105.786 137.049 105.141 136.42 104.669 135.629C104.197 134.831 103.961 133.926 103.961 132.915C103.961 132.15 104.1 131.449 104.38 130.81C104.659 130.165 105.051 129.606 105.557 129.134C106.062 128.655 106.654 128.286 107.333 128.027C108.018 127.761 108.762 127.628 109.567 127.628C110.266 127.628 110.914 127.721 111.513 127.907C112.111 128.093 112.66 128.379 113.159 128.765L111.972 130.691C111.659 130.411 111.303 130.205 110.904 130.072C110.512 129.932 110.099 129.863 109.667 129.863C109.015 129.863 108.453 129.982 107.981 130.222C107.515 130.461 107.156 130.807 106.904 131.259C106.651 131.711 106.524 132.26 106.524 132.905C106.524 133.863 106.804 134.615 107.362 135.16C107.928 135.699 108.696 135.968 109.667 135.968C110.152 135.968 110.611 135.878 111.044 135.699C111.476 135.519 111.852 135.273 112.171 134.96L113.308 136.896C112.763 137.302 112.154 137.621 111.483 137.854C110.811 138.086 110.126 138.203 109.428 138.203ZM118.695 138.203C117.797 138.203 117.052 138.023 116.46 137.664C115.875 137.305 115.439 136.826 115.153 136.227C114.867 135.622 114.724 134.947 114.724 134.202V127.927H117.278V133.763C117.278 134.402 117.461 134.914 117.827 135.3C118.193 135.679 118.708 135.868 119.373 135.868C119.799 135.868 120.181 135.772 120.52 135.579C120.86 135.379 121.126 135.107 121.319 134.761C121.511 134.415 121.608 134.013 121.608 133.554V127.927H124.162V137.903H121.907V136.766C121.541 137.198 121.096 137.548 120.57 137.814C120.052 138.073 119.426 138.203 118.695 138.203ZM126.7 137.903V127.927H129.254V129.234C129.6 128.649 130.033 128.233 130.551 127.987C131.077 127.741 131.642 127.618 132.247 127.618C132.46 127.618 132.656 127.628 132.836 127.648C133.015 127.668 133.188 127.698 133.355 127.738L133.035 130.371C132.829 130.298 132.613 130.245 132.387 130.212C132.167 130.172 131.948 130.152 131.729 130.152C131.01 130.152 130.418 130.368 129.953 130.8C129.487 131.226 129.254 131.825 129.254 132.596V137.903H126.7ZM134.719 137.903V127.927H137.273V137.903H134.719ZM135.996 126.251C135.557 126.251 135.178 126.111 134.859 125.832C134.539 125.553 134.38 125.184 134.38 124.725C134.38 124.266 134.539 123.897 134.859 123.617C135.178 123.338 135.557 123.198 135.996 123.198C136.435 123.198 136.814 123.338 137.133 123.617C137.452 123.897 137.612 124.266 137.612 124.725C137.612 125.184 137.452 125.553 137.133 125.832C136.814 126.111 136.435 126.251 135.996 126.251ZM144.075 138.203C143.05 138.203 142.239 137.91 141.64 137.325C141.042 136.74 140.742 135.855 140.742 134.671V125.034H143.296V127.927H145.92V130.002H143.296V134.162C143.296 134.801 143.423 135.253 143.676 135.519C143.928 135.778 144.277 135.908 144.723 135.908C144.949 135.908 145.162 135.882 145.362 135.828C145.568 135.775 145.757 135.705 145.93 135.619L146.329 137.654C146.037 137.807 145.694 137.937 145.302 138.043C144.909 138.15 144.5 138.203 144.075 138.203ZM138.637 130.002V127.927H141.032V130.002H138.637ZM149.173 142.373C148.781 142.373 148.395 142.33 148.016 142.243C147.637 142.157 147.271 142.017 146.919 141.824L147.487 139.659C147.694 139.786 147.923 139.882 148.176 139.949C148.428 140.015 148.658 140.048 148.864 140.048C149.29 140.048 149.636 139.949 149.902 139.749C150.168 139.556 150.371 139.247 150.51 138.821L150.78 138.023L146.869 127.927H149.652L152.226 135.359L154.73 127.927H157.434L153.184 139.19C152.865 140.002 152.502 140.637 152.096 141.096C151.691 141.561 151.242 141.891 150.75 142.084C150.264 142.276 149.739 142.373 149.173 142.373Z" fill="white"></path>
    <path opacity="0.7" d="M32.509 154.669V161.149C32.509 162.149 32.694 162.909 33.064 163.429C33.434 163.939 34.084 164.194 35.014 164.194C35.944 164.194 36.594 163.939 36.964 163.429C37.334 162.909 37.519 162.149 37.519 161.149V154.669H38.779V160.849C38.779 161.609 38.709 162.269 38.569 162.829C38.439 163.389 38.224 163.854 37.924 164.224C37.624 164.594 37.229 164.869 36.739 165.049C36.259 165.229 35.669 165.319 34.969 165.319C34.269 165.319 33.679 165.229 33.199 165.049C32.729 164.869 32.349 164.594 32.059 164.224C31.769 163.854 31.559 163.389 31.429 162.829C31.309 162.269 31.249 161.609 31.249 160.849V154.669H32.509ZM41.07 165.139V157.399H42.27V158.659H42.33C42.52 158.219 42.785 157.869 43.125 157.609C43.475 157.349 43.94 157.219 44.52 157.219C45.32 157.219 45.95 157.479 46.41 157.999C46.88 158.509 47.115 159.234 47.115 160.174V165.139H45.915V160.384C45.915 158.994 45.33 158.299 44.16 158.299C43.92 158.299 43.685 158.329 43.455 158.389C43.235 158.449 43.035 158.539 42.855 158.659C42.675 158.779 42.53 158.934 42.42 159.124C42.32 159.304 42.27 159.519 42.27 159.769V165.139H41.07ZM50.8882 165.139L48.1732 157.399H49.3732L50.7232 161.239L51.5632 163.879H51.6382L52.4782 161.239L53.8582 157.399H55.0132L52.2832 165.139H50.8882ZM59.0538 165.319C58.5238 165.319 58.0438 165.224 57.6138 165.034C57.1938 164.844 56.8288 164.574 56.5188 164.224C56.2188 163.864 55.9838 163.439 55.8138 162.949C55.6538 162.449 55.5738 161.889 55.5738 161.269C55.5738 160.659 55.6538 160.104 55.8138 159.604C55.9838 159.104 56.2188 158.679 56.5188 158.329C56.8288 157.969 57.1938 157.694 57.6138 157.504C58.0438 157.314 58.5238 157.219 59.0538 157.219C59.5738 157.219 60.0388 157.314 60.4488 157.504C60.8588 157.694 61.2088 157.959 61.4988 158.299C61.7888 158.629 62.0088 159.024 62.1588 159.484C62.3188 159.944 62.3988 160.449 62.3988 160.999V161.569H56.8338V161.929C56.8338 162.259 56.8838 162.569 56.9838 162.859C57.0938 163.139 57.2438 163.384 57.4338 163.594C57.6338 163.804 57.8738 163.969 58.1538 164.089C58.4438 164.209 58.7688 164.269 59.1288 164.269C59.6188 164.269 60.0438 164.154 60.4038 163.924C60.7738 163.694 61.0588 163.364 61.2588 162.934L62.1138 163.549C61.8638 164.079 61.4738 164.509 60.9438 164.839C60.4138 165.159 59.7838 165.319 59.0538 165.319ZM59.0538 158.224C58.7238 158.224 58.4238 158.284 58.1538 158.404C57.8838 158.514 57.6488 158.674 57.4488 158.884C57.2588 159.094 57.1088 159.344 56.9988 159.634C56.8888 159.914 56.8338 160.224 56.8338 160.564V160.669H61.1088V160.504C61.1088 159.814 60.9188 159.264 60.5388 158.854C60.1688 158.434 59.6738 158.224 59.0538 158.224ZM64.6762 155.584C64.4162 155.584 64.2262 155.524 64.1062 155.404C63.9962 155.274 63.9412 155.109 63.9412 154.909V154.714C63.9412 154.514 63.9962 154.354 64.1062 154.234C64.2262 154.104 64.4162 154.039 64.6762 154.039C64.9362 154.039 65.1212 154.104 65.2312 154.234C65.3512 154.354 65.4112 154.514 65.4112 154.714V154.909C65.4112 155.109 65.3512 155.274 65.2312 155.404C65.1212 155.524 64.9362 155.584 64.6762 155.584ZM64.0762 157.399H65.2762V165.139H64.0762V157.399ZM68.8012 165.139C68.3812 165.139 68.0612 165.024 67.8412 164.794C67.6312 164.554 67.5262 164.254 67.5262 163.894V154.039H68.7262V164.089H69.8662V165.139H68.8012ZM71.9131 155.584C71.6531 155.584 71.4631 155.524 71.3431 155.404C71.2331 155.274 71.1781 155.109 71.1781 154.909V154.714C71.1781 154.514 71.2331 154.354 71.3431 154.234C71.4631 154.104 71.6531 154.039 71.9131 154.039C72.1731 154.039 72.3581 154.104 72.4681 154.234C72.5881 154.354 72.6481 154.514 72.6481 154.714V154.909C72.6481 155.109 72.5881 155.274 72.4681 155.404C72.3581 155.524 72.1731 155.584 71.9131 155.584ZM71.3131 157.399H72.5131V165.139H71.3131V157.399ZM74.7631 165.139V157.399H75.9631V158.659H76.0231C76.2131 158.219 76.4781 157.869 76.8181 157.609C77.1681 157.349 77.6331 157.219 78.2131 157.219C79.0131 157.219 79.6431 157.479 80.1031 157.999C80.5731 158.509 80.8081 159.234 80.8081 160.174V165.139H79.6081V160.384C79.6081 158.994 79.0231 158.299 77.8531 158.299C77.6131 158.299 77.3781 158.329 77.1481 158.389C76.9281 158.449 76.7281 158.539 76.5481 158.659C76.3681 158.779 76.2231 158.934 76.1131 159.124C76.0131 159.304 75.9631 159.519 75.9631 159.769V165.139H74.7631ZM89.5135 165.994C89.5135 166.794 89.1985 167.379 88.5685 167.749C87.9485 168.129 87.0135 168.319 85.7635 168.319C84.5535 168.319 83.6835 168.154 83.1535 167.824C82.6235 167.494 82.3585 167.024 82.3585 166.414C82.3585 165.994 82.4685 165.664 82.6885 165.424C82.9085 165.194 83.2085 165.024 83.5885 164.914V164.749C83.1285 164.529 82.8985 164.169 82.8985 163.669C82.8985 163.279 83.0235 162.984 83.2735 162.784C83.5235 162.574 83.8435 162.419 84.2335 162.319V162.259C83.7735 162.039 83.4135 161.724 83.1535 161.314C82.9035 160.904 82.7785 160.429 82.7785 159.889C82.7785 159.499 82.8485 159.139 82.9885 158.809C83.1285 158.479 83.3235 158.199 83.5735 157.969C83.8335 157.729 84.1385 157.544 84.4885 157.414C84.8485 157.284 85.2485 157.219 85.6885 157.219C86.2385 157.219 86.7285 157.319 87.1585 157.519V157.384C87.1585 157.084 87.2285 156.839 87.3685 156.649C87.5085 156.449 87.7385 156.349 88.0585 156.349H89.2135V157.399H87.7435V157.894C88.0235 158.134 88.2385 158.424 88.3885 158.764C88.5485 159.094 88.6285 159.469 88.6285 159.889C88.6285 160.279 88.5585 160.639 88.4185 160.969C88.2785 161.299 88.0785 161.584 87.8185 161.824C87.5685 162.054 87.2635 162.234 86.9035 162.364C86.5435 162.494 86.1435 162.559 85.7035 162.559C85.4535 162.559 85.2035 162.534 84.9535 162.484C84.6935 162.554 84.4585 162.659 84.2485 162.799C84.0385 162.929 83.9335 163.114 83.9335 163.354C83.9335 163.584 84.0435 163.739 84.2635 163.819C84.4835 163.899 84.7685 163.939 85.1185 163.939H86.7685C87.7285 163.939 88.4235 164.124 88.8535 164.494C89.2935 164.854 89.5135 165.354 89.5135 165.994ZM88.3885 166.084C88.3885 165.774 88.2685 165.524 88.0285 165.334C87.7985 165.154 87.3835 165.064 86.7835 165.064H84.2035C83.7235 165.284 83.4835 165.634 83.4835 166.114C83.4835 166.454 83.6085 166.744 83.8585 166.984C84.1185 167.224 84.5535 167.344 85.1635 167.344H86.2735C86.9435 167.344 87.4635 167.239 87.8335 167.029C88.2035 166.819 88.3885 166.504 88.3885 166.084ZM85.7035 161.599C86.2135 161.599 86.6185 161.479 86.9185 161.239C87.2185 160.989 87.3685 160.609 87.3685 160.099V159.679C87.3685 159.169 87.2185 158.794 86.9185 158.554C86.6185 158.304 86.2135 158.179 85.7035 158.179C85.1935 158.179 84.7885 158.304 84.4885 158.554C84.1885 158.794 84.0385 159.169 84.0385 159.679V160.099C84.0385 160.609 84.1885 160.989 84.4885 161.239C84.7885 161.479 85.1935 161.599 85.7035 161.599ZM96.7383 165.319C96.1983 165.319 95.7133 165.224 95.2833 165.034C94.8533 164.844 94.4883 164.574 94.1883 164.224C93.8983 163.874 93.6733 163.449 93.5133 162.949C93.3633 162.449 93.2883 161.889 93.2883 161.269C93.2883 160.649 93.3633 160.089 93.5133 159.589C93.6733 159.089 93.8983 158.664 94.1883 158.314C94.4883 157.964 94.8533 157.694 95.2833 157.504C95.7133 157.314 96.1983 157.219 96.7383 157.219C97.5083 157.219 98.1233 157.389 98.5833 157.729C99.0533 158.059 99.4033 158.494 99.6333 159.034L98.6283 159.544C98.4883 159.144 98.2583 158.834 97.9383 158.614C97.6183 158.394 97.2183 158.284 96.7383 158.284C96.3783 158.284 96.0633 158.344 95.7933 158.464C95.5233 158.574 95.2983 158.734 95.1183 158.944C94.9383 159.144 94.8033 159.389 94.7133 159.679C94.6233 159.959 94.5783 160.269 94.5783 160.609V161.929C94.5783 162.609 94.7583 163.169 95.1183 163.609C95.4883 164.039 96.0283 164.254 96.7383 164.254C97.7083 164.254 98.4083 163.804 98.8383 162.904L99.7083 163.489C99.4583 164.049 99.0833 164.494 98.5833 164.824C98.0933 165.154 97.4783 165.319 96.7383 165.319ZM105.872 163.879H105.812C105.732 164.059 105.632 164.239 105.512 164.419C105.402 164.589 105.262 164.744 105.092 164.884C104.922 165.014 104.717 165.119 104.477 165.199C104.237 165.279 103.957 165.319 103.637 165.319C102.837 165.319 102.202 165.064 101.732 164.554C101.262 164.034 101.027 163.304 101.027 162.364V157.399H102.227V162.154C102.227 163.544 102.817 164.239 103.997 164.239C104.237 164.239 104.467 164.209 104.687 164.149C104.917 164.089 105.117 163.999 105.287 163.879C105.467 163.759 105.607 163.609 105.707 163.429C105.817 163.239 105.872 163.014 105.872 162.754V157.399H107.072V165.139H105.872V163.879ZM109.328 165.139V157.399H110.528V158.824H110.603C110.743 158.454 110.993 158.124 111.353 157.834C111.713 157.544 112.208 157.399 112.838 157.399H113.303V158.599H112.598C111.948 158.599 111.438 158.724 111.068 158.974C110.708 159.214 110.528 159.519 110.528 159.889V165.139H109.328ZM114.535 165.139V157.399H115.735V158.824H115.81C115.95 158.454 116.2 158.124 116.56 157.834C116.92 157.544 117.415 157.399 118.045 157.399H118.51V158.599H117.805C117.155 158.599 116.645 158.724 116.275 158.974C115.915 159.214 115.735 159.519 115.735 159.889V165.139H114.535ZM122.58 165.319C122.05 165.319 121.57 165.224 121.14 165.034C120.72 164.844 120.355 164.574 120.045 164.224C119.745 163.864 119.51 163.439 119.34 162.949C119.18 162.449 119.1 161.889 119.1 161.269C119.1 160.659 119.18 160.104 119.34 159.604C119.51 159.104 119.745 158.679 120.045 158.329C120.355 157.969 120.72 157.694 121.14 157.504C121.57 157.314 122.05 157.219 122.58 157.219C123.1 157.219 123.565 157.314 123.975 157.504C124.385 157.694 124.735 157.959 125.025 158.299C125.315 158.629 125.535 159.024 125.685 159.484C125.845 159.944 125.925 160.449 125.925 160.999V161.569H120.36V161.929C120.36 162.259 120.41 162.569 120.51 162.859C120.62 163.139 120.77 163.384 120.96 163.594C121.16 163.804 121.4 163.969 121.68 164.089C121.97 164.209 122.295 164.269 122.655 164.269C123.145 164.269 123.57 164.154 123.93 163.924C124.3 163.694 124.585 163.364 124.785 162.934L125.64 163.549C125.39 164.079 125 164.509 124.47 164.839C123.94 165.159 123.31 165.319 122.58 165.319ZM122.58 158.224C122.25 158.224 121.95 158.284 121.68 158.404C121.41 158.514 121.175 158.674 120.975 158.884C120.785 159.094 120.635 159.344 120.525 159.634C120.415 159.914 120.36 160.224 120.36 160.564V160.669H124.635V160.504C124.635 159.814 124.445 159.264 124.065 158.854C123.695 158.434 123.2 158.224 122.58 158.224ZM127.602 165.139V157.399H128.802V158.659H128.862C129.052 158.219 129.317 157.869 129.657 157.609C130.007 157.349 130.472 157.219 131.052 157.219C131.852 157.219 132.482 157.479 132.942 157.999C133.412 158.509 133.647 159.234 133.647 160.174V165.139H132.447V160.384C132.447 158.994 131.862 158.299 130.692 158.299C130.452 158.299 130.217 158.329 129.987 158.389C129.767 158.449 129.567 158.539 129.387 158.659C129.207 158.779 129.062 158.934 128.952 159.124C128.852 159.304 128.802 159.519 128.802 159.769V165.139H127.602ZM137.538 165.139C137.118 165.139 136.798 165.024 136.578 164.794C136.368 164.554 136.263 164.244 136.263 163.864V158.449H134.988V157.399H135.708C135.968 157.399 136.143 157.349 136.233 157.249C136.333 157.139 136.383 156.954 136.383 156.694V155.254H137.463V157.399H139.158V158.449H137.463V164.089H139.038V165.139H137.538ZM145.742 165.139C145.322 165.139 145.002 165.024 144.782 164.794C144.572 164.554 144.467 164.244 144.467 163.864V158.449H143.192V157.399H143.912C144.172 157.399 144.347 157.349 144.437 157.249C144.537 157.139 144.587 156.954 144.587 156.694V155.254H145.667V157.399H147.362V158.449H145.667V164.089H147.242V165.139H145.742ZM148.99 154.039H150.19V158.659H150.25C150.44 158.219 150.705 157.869 151.045 157.609C151.395 157.349 151.86 157.219 152.44 157.219C153.24 157.219 153.87 157.479 154.33 157.999C154.8 158.509 155.035 159.234 155.035 160.174V165.139H153.835V160.384C153.835 158.994 153.25 158.299 152.08 158.299C151.84 158.299 151.605 158.329 151.375 158.389C151.155 158.449 150.955 158.539 150.775 158.659C150.595 158.779 150.45 158.934 150.34 159.124C150.24 159.304 150.19 159.519 150.19 159.769V165.139H148.99V154.039ZM157.216 165.139V157.399H158.416V158.824H158.491C158.631 158.454 158.881 158.124 159.241 157.834C159.601 157.544 160.096 157.399 160.726 157.399H161.191V158.599H160.486C159.836 158.599 159.326 158.724 158.956 158.974C158.596 159.214 158.416 159.519 158.416 159.889V165.139H157.216ZM165.26 165.319C164.73 165.319 164.25 165.224 163.82 165.034C163.4 164.844 163.035 164.574 162.725 164.224C162.425 163.864 162.19 163.439 162.02 162.949C161.86 162.449 161.78 161.889 161.78 161.269C161.78 160.659 161.86 160.104 162.02 159.604C162.19 159.104 162.425 158.679 162.725 158.329C163.035 157.969 163.4 157.694 163.82 157.504C164.25 157.314 164.73 157.219 165.26 157.219C165.78 157.219 166.245 157.314 166.655 157.504C167.065 157.694 167.415 157.959 167.705 158.299C167.995 158.629 168.215 159.024 168.365 159.484C168.525 159.944 168.605 160.449 168.605 160.999V161.569H163.04V161.929C163.04 162.259 163.09 162.569 163.19 162.859C163.3 163.139 163.45 163.384 163.64 163.594C163.84 163.804 164.08 163.969 164.36 164.089C164.65 164.209 164.975 164.269 165.335 164.269C165.825 164.269 166.25 164.154 166.61 163.924C166.98 163.694 167.265 163.364 167.465 162.934L168.32 163.549C168.07 164.079 167.68 164.509 167.15 164.839C166.62 165.159 165.99 165.319 165.26 165.319ZM165.26 158.224C164.93 158.224 164.63 158.284 164.36 158.404C164.09 158.514 163.855 158.674 163.655 158.884C163.465 159.094 163.315 159.344 163.205 159.634C163.095 159.914 163.04 160.224 163.04 160.564V160.669H167.315V160.504C167.315 159.814 167.125 159.264 166.745 158.854C166.375 158.434 165.88 158.224 165.26 158.224ZM175.908 165.139C175.458 165.139 175.133 165.019 174.933 164.779C174.743 164.539 174.623 164.239 174.573 163.879H174.498C174.328 164.359 174.048 164.719 173.658 164.959C173.268 165.199 172.803 165.319 172.263 165.319C171.443 165.319 170.803 165.109 170.343 164.689C169.893 164.269 169.668 163.699 169.668 162.979C169.668 162.249 169.933 161.689 170.463 161.299C171.003 160.909 171.838 160.714 172.968 160.714H174.498V159.949C174.498 159.399 174.348 158.979 174.048 158.689C173.748 158.399 173.288 158.254 172.668 158.254C172.198 158.254 171.803 158.359 171.483 158.569C171.173 158.779 170.913 159.059 170.703 159.409L169.983 158.734C170.193 158.314 170.528 157.959 170.988 157.669C171.448 157.369 172.028 157.219 172.728 157.219C173.668 157.219 174.398 157.449 174.918 157.909C175.438 158.369 175.698 159.009 175.698 159.829V164.089H176.583V165.139H175.908ZM172.458 164.299C172.758 164.299 173.033 164.264 173.283 164.194C173.533 164.124 173.748 164.024 173.928 163.894C174.108 163.764 174.248 163.614 174.348 163.444C174.448 163.274 174.498 163.089 174.498 162.889V161.614H172.908C172.218 161.614 171.713 161.714 171.393 161.914C171.083 162.114 170.928 162.404 170.928 162.784V163.099C170.928 163.479 171.063 163.774 171.333 163.984C171.613 164.194 171.988 164.299 172.458 164.299ZM179.705 165.139C179.285 165.139 178.965 165.024 178.745 164.794C178.535 164.554 178.43 164.244 178.43 163.864V158.449H177.155V157.399H177.875C178.135 157.399 178.31 157.349 178.4 157.249C178.5 157.139 178.55 156.954 178.55 156.694V155.254H179.63V157.399H181.325V158.449H179.63V164.089H181.205V165.139H179.705ZM185.279 165.319C184.559 165.319 183.954 165.184 183.464 164.914C182.984 164.634 182.569 164.264 182.219 163.804L183.074 163.114C183.374 163.494 183.709 163.789 184.079 163.999C184.449 164.199 184.879 164.299 185.369 164.299C185.879 164.299 186.274 164.189 186.554 163.969C186.844 163.749 186.989 163.439 186.989 163.039C186.989 162.739 186.889 162.484 186.689 162.274C186.499 162.054 186.149 161.904 185.639 161.824L185.024 161.734C184.664 161.684 184.334 161.609 184.034 161.509C183.734 161.399 183.469 161.259 183.239 161.089C183.019 160.909 182.844 160.689 182.714 160.429C182.594 160.169 182.534 159.859 182.534 159.499C182.534 159.119 182.604 158.789 182.744 158.509C182.884 158.219 183.074 157.979 183.314 157.789C183.564 157.599 183.859 157.459 184.199 157.369C184.539 157.269 184.904 157.219 185.294 157.219C185.924 157.219 186.449 157.329 186.869 157.549C187.299 157.769 187.674 158.074 187.994 158.464L187.199 159.184C187.029 158.944 186.779 158.729 186.449 158.539C186.119 158.339 185.704 158.239 185.204 158.239C184.704 158.239 184.324 158.349 184.064 158.569C183.814 158.779 183.689 159.069 183.689 159.439C183.689 159.819 183.814 160.094 184.064 160.264C184.324 160.434 184.694 160.559 185.174 160.639L185.774 160.729C186.634 160.859 187.244 161.109 187.604 161.479C187.964 161.839 188.144 162.314 188.144 162.904C188.144 163.654 187.889 164.244 187.379 164.674C186.869 165.104 186.169 165.319 185.279 165.319ZM198.834 165.139C198.384 165.139 198.059 165.019 197.859 164.779C197.669 164.539 197.549 164.239 197.499 163.879H197.424C197.254 164.359 196.974 164.719 196.584 164.959C196.194 165.199 195.729 165.319 195.189 165.319C194.369 165.319 193.729 165.109 193.269 164.689C192.819 164.269 192.594 163.699 192.594 162.979C192.594 162.249 192.859 161.689 193.389 161.299C193.929 160.909 194.764 160.714 195.894 160.714H197.424V159.949C197.424 159.399 197.274 158.979 196.974 158.689C196.674 158.399 196.214 158.254 195.594 158.254C195.124 158.254 194.729 158.359 194.409 158.569C194.099 158.779 193.839 159.059 193.629 159.409L192.909 158.734C193.119 158.314 193.454 157.959 193.914 157.669C194.374 157.369 194.954 157.219 195.654 157.219C196.594 157.219 197.324 157.449 197.844 157.909C198.364 158.369 198.624 159.009 198.624 159.829V164.089H199.509V165.139H198.834ZM195.384 164.299C195.684 164.299 195.959 164.264 196.209 164.194C196.459 164.124 196.674 164.024 196.854 163.894C197.034 163.764 197.174 163.614 197.274 163.444C197.374 163.274 197.424 163.089 197.424 162.889V161.614H195.834C195.144 161.614 194.639 161.714 194.319 161.914C194.009 162.114 193.854 162.404 193.854 162.784V163.099C193.854 163.479 193.989 163.774 194.259 163.984C194.539 164.194 194.914 164.299 195.384 164.299ZM200.921 165.139V157.399H202.121V158.659H202.181C202.371 158.219 202.636 157.869 202.976 157.609C203.326 157.349 203.791 157.219 204.371 157.219C205.171 157.219 205.801 157.479 206.261 157.999C206.731 158.509 206.966 159.234 206.966 160.174V165.139H205.766V160.384C205.766 158.994 205.181 158.299 204.011 158.299C203.771 158.299 203.536 158.329 203.306 158.389C203.086 158.449 202.886 158.539 202.706 158.659C202.526 158.779 202.381 158.934 202.271 159.124C202.171 159.304 202.121 159.519 202.121 159.769V165.139H200.921ZM214.097 163.879H214.037C213.567 164.839 212.812 165.319 211.772 165.319C211.292 165.319 210.857 165.224 210.467 165.034C210.077 164.844 209.742 164.574 209.462 164.224C209.192 163.874 208.982 163.449 208.832 162.949C208.692 162.449 208.622 161.889 208.622 161.269C208.622 160.649 208.692 160.089 208.832 159.589C208.982 159.089 209.192 158.664 209.462 158.314C209.742 157.964 210.077 157.694 210.467 157.504C210.857 157.314 211.292 157.219 211.772 157.219C212.312 157.219 212.772 157.339 213.152 157.579C213.542 157.809 213.837 158.169 214.037 158.659H214.097V154.039H215.297V165.139H214.097V163.879ZM212.102 164.239C212.372 164.239 212.627 164.204 212.867 164.134C213.117 164.064 213.332 163.964 213.512 163.834C213.692 163.694 213.832 163.529 213.932 163.339C214.042 163.139 214.097 162.914 214.097 162.664V159.784C214.097 159.574 214.042 159.379 213.932 159.199C213.832 159.009 213.692 158.849 213.512 158.719C213.332 158.589 213.117 158.489 212.867 158.419C212.627 158.339 212.372 158.299 212.102 158.299C211.422 158.299 210.887 158.514 210.497 158.944C210.107 159.364 209.912 159.919 209.912 160.609V161.929C209.912 162.619 210.107 163.179 210.497 163.609C210.887 164.029 211.422 164.239 212.102 164.239ZM220.793 154.039H221.993V158.659H222.053C222.243 158.219 222.508 157.869 222.848 157.609C223.198 157.349 223.663 157.219 224.243 157.219C225.043 157.219 225.673 157.479 226.133 157.999C226.603 158.509 226.838 159.234 226.838 160.174V165.139H225.638V160.384C225.638 158.994 225.053 158.299 223.883 158.299C223.643 158.299 223.408 158.329 223.178 158.389C222.958 158.449 222.758 158.539 222.578 158.659C222.398 158.779 222.253 158.934 222.143 159.124C222.043 159.304 221.993 159.519 221.993 159.769V165.139H220.793V154.039ZM231.943 165.319C231.423 165.319 230.948 165.224 230.518 165.034C230.088 164.844 229.718 164.574 229.408 164.224C229.108 163.864 228.873 163.439 228.703 162.949C228.533 162.449 228.448 161.889 228.448 161.269C228.448 160.659 228.533 160.104 228.703 159.604C228.873 159.104 229.108 158.679 229.408 158.329C229.718 157.969 230.088 157.694 230.518 157.504C230.948 157.314 231.423 157.219 231.943 157.219C232.463 157.219 232.933 157.314 233.353 157.504C233.783 157.694 234.153 157.969 234.463 158.329C234.773 158.679 235.013 159.104 235.183 159.604C235.353 160.104 235.438 160.659 235.438 161.269C235.438 161.889 235.353 162.449 235.183 162.949C235.013 163.439 234.773 163.864 234.463 164.224C234.153 164.574 233.783 164.844 233.353 165.034C232.933 165.224 232.463 165.319 231.943 165.319ZM231.943 164.254C232.593 164.254 233.123 164.054 233.533 163.654C233.943 163.254 234.148 162.644 234.148 161.824V160.714C234.148 159.894 233.943 159.284 233.533 158.884C233.123 158.484 232.593 158.284 231.943 158.284C231.293 158.284 230.763 158.484 230.353 158.884C229.943 159.284 229.738 159.894 229.738 160.714V161.824C229.738 162.644 229.943 163.254 230.353 163.654C230.763 164.054 231.293 164.254 231.943 164.254ZM236.229 157.399H237.399L238.224 160.744L239.049 164.134H239.079L240.024 160.744L240.999 157.399H242.064L243.069 160.744L244.029 164.134H244.059L244.854 160.744L245.694 157.399H246.819L244.764 165.139H243.279L242.199 161.419L241.524 159.064H241.494L240.834 161.419L239.754 165.139H238.299L236.229 157.399ZM255.532 165.319C254.852 165.319 254.237 165.204 253.687 164.974C253.147 164.734 252.682 164.389 252.292 163.939C251.912 163.479 251.617 162.914 251.407 162.244C251.197 161.564 251.092 160.784 251.092 159.904C251.092 159.024 251.197 158.249 251.407 157.579C251.617 156.909 251.912 156.344 252.292 155.884C252.682 155.424 253.147 155.079 253.687 154.849C254.237 154.609 254.852 154.489 255.532 154.489C256.202 154.489 256.812 154.609 257.362 154.849C257.912 155.079 258.377 155.424 258.757 155.884C259.147 156.344 259.447 156.909 259.657 157.579C259.867 158.249 259.972 159.024 259.972 159.904C259.972 160.784 259.867 161.564 259.657 162.244C259.447 162.914 259.147 163.479 258.757 163.939C258.377 164.389 257.912 164.734 257.362 164.974C256.812 165.204 256.202 165.319 255.532 165.319ZM255.532 164.194C255.982 164.194 256.397 164.114 256.777 163.954C257.157 163.794 257.482 163.564 257.752 163.264C258.032 162.964 258.247 162.604 258.397 162.184C258.547 161.764 258.622 161.294 258.622 160.774V159.034C258.622 158.514 258.547 158.044 258.397 157.624C258.247 157.204 258.032 156.844 257.752 156.544C257.482 156.244 257.157 156.014 256.777 155.854C256.397 155.694 255.982 155.614 255.532 155.614C255.082 155.614 254.667 155.694 254.287 155.854C253.907 156.014 253.577 156.244 253.297 156.544C253.027 156.844 252.817 157.204 252.667 157.624C252.517 158.044 252.442 158.514 252.442 159.034V160.774C252.442 161.294 252.517 161.764 252.667 162.184C252.817 162.604 253.027 162.964 253.297 163.264C253.577 163.564 253.907 163.794 254.287 163.954C254.667 164.114 255.082 164.194 255.532 164.194ZM261.817 157.399H263.017V158.659H263.077C263.277 158.169 263.567 157.809 263.947 157.579C264.337 157.339 264.802 157.219 265.342 157.219C265.822 157.219 266.257 157.314 266.647 157.504C267.037 157.694 267.367 157.964 267.637 158.314C267.917 158.664 268.127 159.089 268.267 159.589C268.417 160.089 268.492 160.649 268.492 161.269C268.492 161.889 268.417 162.449 268.267 162.949C268.127 163.449 267.917 163.874 267.637 164.224C267.367 164.574 267.037 164.844 266.647 165.034C266.257 165.224 265.822 165.319 265.342 165.319C264.292 165.319 263.537 164.839 263.077 163.879H263.017V168.139H261.817V157.399ZM265.012 164.239C265.692 164.239 266.227 164.029 266.617 163.609C267.007 163.179 267.202 162.619 267.202 161.929V160.609C267.202 159.919 267.007 159.364 266.617 158.944C266.227 158.514 265.692 158.299 265.012 158.299C264.742 158.299 264.482 158.339 264.232 158.419C263.992 158.489 263.782 158.589 263.602 158.719C263.422 158.849 263.277 159.009 263.167 159.199C263.067 159.379 263.017 159.574 263.017 159.784V162.664C263.017 162.914 263.067 163.139 263.167 163.339C263.277 163.529 263.422 163.694 263.602 163.834C263.782 163.964 263.992 164.064 264.232 164.134C264.482 164.204 264.742 164.239 265.012 164.239ZM273.128 165.319C272.598 165.319 272.118 165.224 271.688 165.034C271.268 164.844 270.903 164.574 270.593 164.224C270.293 163.864 270.058 163.439 269.888 162.949C269.728 162.449 269.648 161.889 269.648 161.269C269.648 160.659 269.728 160.104 269.888 159.604C270.058 159.104 270.293 158.679 270.593 158.329C270.903 157.969 271.268 157.694 271.688 157.504C272.118 157.314 272.598 157.219 273.128 157.219C273.648 157.219 274.113 157.314 274.523 157.504C274.933 157.694 275.283 157.959 275.573 158.299C275.863 158.629 276.083 159.024 276.233 159.484C276.393 159.944 276.473 160.449 276.473 160.999V161.569H270.908V161.929C270.908 162.259 270.958 162.569 271.058 162.859C271.168 163.139 271.318 163.384 271.508 163.594C271.708 163.804 271.948 163.969 272.228 164.089C272.518 164.209 272.843 164.269 273.203 164.269C273.693 164.269 274.118 164.154 274.478 163.924C274.848 163.694 275.133 163.364 275.333 162.934L276.188 163.549C275.938 164.079 275.548 164.509 275.018 164.839C274.488 165.159 273.858 165.319 273.128 165.319ZM273.128 158.224C272.798 158.224 272.498 158.284 272.228 158.404C271.958 158.514 271.723 158.674 271.523 158.884C271.333 159.094 271.183 159.344 271.073 159.634C270.963 159.914 270.908 160.224 270.908 160.564V160.669H275.183V160.504C275.183 159.814 274.993 159.264 274.613 158.854C274.243 158.434 273.748 158.224 273.128 158.224ZM278.151 165.139V157.399H279.351V158.659H279.411C279.601 158.219 279.866 157.869 280.206 157.609C280.556 157.349 281.021 157.219 281.601 157.219C282.401 157.219 283.031 157.479 283.491 157.999C283.961 158.509 284.196 159.234 284.196 160.174V165.139H282.996V160.384C282.996 158.994 282.411 158.299 281.241 158.299C281.001 158.299 280.766 158.329 280.536 158.389C280.316 158.449 280.116 158.539 279.936 158.659C279.756 158.779 279.611 158.934 279.501 159.124C279.401 159.304 279.351 159.519 279.351 159.769V165.139H278.151ZM290.186 165.319C288.856 165.319 287.821 164.869 287.081 163.969C286.341 163.059 285.971 161.724 285.971 159.964C285.971 158.204 286.341 156.854 287.081 155.914C287.821 154.964 288.856 154.489 290.186 154.489C291.066 154.489 291.801 154.689 292.391 155.089C292.991 155.489 293.456 156.054 293.786 156.784L292.766 157.399C292.556 156.859 292.236 156.429 291.806 156.109C291.376 155.779 290.836 155.614 290.186 155.614C289.736 155.614 289.331 155.699 288.971 155.869C288.621 156.039 288.321 156.284 288.071 156.604C287.831 156.914 287.646 157.289 287.516 157.729C287.386 158.159 287.321 158.644 287.321 159.184V160.744C287.321 161.824 287.571 162.669 288.071 163.279C288.571 163.889 289.276 164.194 290.186 164.194C290.856 164.194 291.416 164.024 291.866 163.684C292.316 163.334 292.646 162.874 292.856 162.304L293.861 162.934C293.531 163.674 293.056 164.259 292.436 164.689C291.816 165.109 291.066 165.319 290.186 165.319ZM299.038 155.779V165.139H297.778V155.779H294.448V154.669H302.368V155.779H299.038ZM303.199 165.139V164.089H304.669V155.719H303.199V154.669H307.399V155.719H305.929V164.089H307.399V165.139H303.199ZM34.114 183.319C33.584 183.319 33.104 183.224 32.674 183.034C32.254 182.844 31.889 182.574 31.579 182.224C31.279 181.864 31.044 181.439 30.874 180.949C30.714 180.449 30.634 179.889 30.634 179.269C30.634 178.659 30.714 178.104 30.874 177.604C31.044 177.104 31.279 176.679 31.579 176.329C31.889 175.969 32.254 175.694 32.674 175.504C33.104 175.314 33.584 175.219 34.114 175.219C34.634 175.219 35.099 175.314 35.509 175.504C35.919 175.694 36.269 175.959 36.559 176.299C36.849 176.629 37.069 177.024 37.219 177.484C37.379 177.944 37.459 178.449 37.459 178.999V179.569H31.894V179.929C31.894 180.259 31.944 180.569 32.044 180.859C32.154 181.139 32.304 181.384 32.494 181.594C32.694 181.804 32.934 181.969 33.214 182.089C33.504 182.209 33.829 182.269 34.189 182.269C34.679 182.269 35.104 182.154 35.464 181.924C35.834 181.694 36.119 181.364 36.319 180.934L37.174 181.549C36.924 182.079 36.534 182.509 36.004 182.839C35.474 183.159 34.844 183.319 34.114 183.319ZM34.114 176.224C33.784 176.224 33.484 176.284 33.214 176.404C32.944 176.514 32.709 176.674 32.509 176.884C32.319 177.094 32.169 177.344 32.059 177.634C31.949 177.914 31.894 178.224 31.894 178.564V178.669H36.169V178.504C36.169 177.814 35.979 177.264 35.599 176.854C35.229 176.434 34.734 176.224 34.114 176.224ZM39.1364 183.139V175.399H40.3364V176.659H40.3964C40.4864 176.459 40.5864 176.274 40.6964 176.104C40.8164 175.924 40.9564 175.769 41.1164 175.639C41.2864 175.509 41.4814 175.409 41.7014 175.339C41.9214 175.259 42.1814 175.219 42.4814 175.219C42.9914 175.219 43.4614 175.344 43.8914 175.594C44.3214 175.834 44.6414 176.234 44.8514 176.794H44.8814C45.0214 176.374 45.2814 176.009 45.6614 175.699C46.0514 175.379 46.5764 175.219 47.2364 175.219C48.0264 175.219 48.6414 175.479 49.0814 175.999C49.5314 176.509 49.7564 177.234 49.7564 178.174V183.139H48.5564V178.384C48.5564 177.694 48.4214 177.174 48.1514 176.824C47.8814 176.474 47.4514 176.299 46.8614 176.299C46.6214 176.299 46.3914 176.329 46.1714 176.389C45.9614 176.449 45.7714 176.539 45.6014 176.659C45.4314 176.779 45.2964 176.934 45.1964 177.124C45.0964 177.304 45.0464 177.519 45.0464 177.769V183.139H43.8464V178.384C43.8464 177.694 43.7114 177.174 43.4414 176.824C43.1714 176.474 42.7514 176.299 42.1814 176.299C41.9414 176.299 41.7114 176.329 41.4914 176.389C41.2714 176.449 41.0764 176.539 40.9064 176.659C40.7364 176.779 40.5964 176.934 40.4864 177.124C40.3864 177.304 40.3364 177.519 40.3364 177.769V183.139H39.1364ZM51.9321 175.399H53.1321V176.659H53.1921C53.3921 176.169 53.6821 175.809 54.0621 175.579C54.4521 175.339 54.9171 175.219 55.4571 175.219C55.9371 175.219 56.3721 175.314 56.7621 175.504C57.1521 175.694 57.4821 175.964 57.7521 176.314C58.0321 176.664 58.2421 177.089 58.3821 177.589C58.5321 178.089 58.6071 178.649 58.6071 179.269C58.6071 179.889 58.5321 180.449 58.3821 180.949C58.2421 181.449 58.0321 181.874 57.7521 182.224C57.4821 182.574 57.1521 182.844 56.7621 183.034C56.3721 183.224 55.9371 183.319 55.4571 183.319C54.4071 183.319 53.6521 182.839 53.1921 181.879H53.1321V186.139H51.9321V175.399ZM55.1271 182.239C55.8071 182.239 56.3421 182.029 56.7321 181.609C57.1221 181.179 57.3171 180.619 57.3171 179.929V178.609C57.3171 177.919 57.1221 177.364 56.7321 176.944C56.3421 176.514 55.8071 176.299 55.1271 176.299C54.8571 176.299 54.5971 176.339 54.3471 176.419C54.1071 176.489 53.8971 176.589 53.7171 176.719C53.5371 176.849 53.3921 177.009 53.2821 177.199C53.1821 177.379 53.1321 177.574 53.1321 177.784V180.664C53.1321 180.914 53.1821 181.139 53.2821 181.339C53.3921 181.529 53.5371 181.694 53.7171 181.834C53.8971 181.964 54.1071 182.064 54.3471 182.134C54.5971 182.204 54.8571 182.239 55.1271 182.239ZM63.2583 183.319C62.7383 183.319 62.2633 183.224 61.8333 183.034C61.4033 182.844 61.0333 182.574 60.7233 182.224C60.4233 181.864 60.1883 181.439 60.0183 180.949C59.8483 180.449 59.7633 179.889 59.7633 179.269C59.7633 178.659 59.8483 178.104 60.0183 177.604C60.1883 177.104 60.4233 176.679 60.7233 176.329C61.0333 175.969 61.4033 175.694 61.8333 175.504C62.2633 175.314 62.7383 175.219 63.2583 175.219C63.7783 175.219 64.2483 175.314 64.6683 175.504C65.0983 175.694 65.4683 175.969 65.7783 176.329C66.0883 176.679 66.3283 177.104 66.4983 177.604C66.6683 178.104 66.7533 178.659 66.7533 179.269C66.7533 179.889 66.6683 180.449 66.4983 180.949C66.3283 181.439 66.0883 181.864 65.7783 182.224C65.4683 182.574 65.0983 182.844 64.6683 183.034C64.2483 183.224 63.7783 183.319 63.2583 183.319ZM63.2583 182.254C63.9083 182.254 64.4383 182.054 64.8483 181.654C65.2583 181.254 65.4633 180.644 65.4633 179.824V178.714C65.4633 177.894 65.2583 177.284 64.8483 176.884C64.4383 176.484 63.9083 176.284 63.2583 176.284C62.6083 176.284 62.0783 176.484 61.6683 176.884C61.2583 177.284 61.0533 177.894 61.0533 178.714V179.824C61.0533 180.644 61.2583 181.254 61.6683 181.654C62.0783 182.054 62.6083 182.254 63.2583 182.254ZM67.5436 175.399H68.7136L69.5386 178.744L70.3636 182.134H70.3936L71.3386 178.744L72.3136 175.399H73.3786L74.3836 178.744L75.3436 182.134H75.3736L76.1686 178.744L77.0086 175.399H78.1336L76.0786 183.139H74.5936L73.5136 179.419L72.8386 177.064H72.8086L72.1486 179.419L71.0686 183.139H69.6136L67.5436 175.399ZM82.404 183.319C81.874 183.319 81.394 183.224 80.964 183.034C80.544 182.844 80.179 182.574 79.869 182.224C79.569 181.864 79.334 181.439 79.164 180.949C79.004 180.449 78.924 179.889 78.924 179.269C78.924 178.659 79.004 178.104 79.164 177.604C79.334 177.104 79.569 176.679 79.869 176.329C80.179 175.969 80.544 175.694 80.964 175.504C81.394 175.314 81.874 175.219 82.404 175.219C82.924 175.219 83.389 175.314 83.799 175.504C84.209 175.694 84.559 175.959 84.849 176.299C85.139 176.629 85.359 177.024 85.509 177.484C85.669 177.944 85.749 178.449 85.749 178.999V179.569H80.184V179.929C80.184 180.259 80.234 180.569 80.334 180.859C80.444 181.139 80.594 181.384 80.784 181.594C80.984 181.804 81.224 181.969 81.504 182.089C81.794 182.209 82.119 182.269 82.479 182.269C82.969 182.269 83.394 182.154 83.754 181.924C84.124 181.694 84.409 181.364 84.609 180.934L85.464 181.549C85.214 182.079 84.824 182.509 84.294 182.839C83.764 183.159 83.134 183.319 82.404 183.319ZM82.404 176.224C82.074 176.224 81.774 176.284 81.504 176.404C81.234 176.514 80.999 176.674 80.799 176.884C80.609 177.094 80.459 177.344 80.349 177.634C80.239 177.914 80.184 178.224 80.184 178.564V178.669H84.459V178.504C84.459 177.814 84.269 177.264 83.889 176.854C83.519 176.434 83.024 176.224 82.404 176.224ZM87.4264 183.139V175.399H88.6264V176.824H88.7014C88.8414 176.454 89.0914 176.124 89.4514 175.834C89.8114 175.544 90.3064 175.399 90.9364 175.399H91.4014V176.599H90.6964C90.0464 176.599 89.5364 176.724 89.1664 176.974C88.8064 177.214 88.6264 177.519 88.6264 177.889V183.139H87.4264ZM94.9592 183.319C94.2392 183.319 93.6342 183.184 93.1442 182.914C92.6642 182.634 92.2492 182.264 91.8992 181.804L92.7542 181.114C93.0542 181.494 93.3892 181.789 93.7592 181.999C94.1292 182.199 94.5592 182.299 95.0492 182.299C95.5592 182.299 95.9542 182.189 96.2342 181.969C96.5242 181.749 96.6692 181.439 96.6692 181.039C96.6692 180.739 96.5692 180.484 96.3692 180.274C96.1792 180.054 95.8292 179.904 95.3192 179.824L94.7042 179.734C94.3442 179.684 94.0142 179.609 93.7142 179.509C93.4142 179.399 93.1492 179.259 92.9192 179.089C92.6992 178.909 92.5242 178.689 92.3942 178.429C92.2742 178.169 92.2142 177.859 92.2142 177.499C92.2142 177.119 92.2842 176.789 92.4242 176.509C92.5642 176.219 92.7542 175.979 92.9942 175.789C93.2442 175.599 93.5392 175.459 93.8792 175.369C94.2192 175.269 94.5842 175.219 94.9742 175.219C95.6042 175.219 96.1292 175.329 96.5492 175.549C96.9792 175.769 97.3542 176.074 97.6742 176.464L96.8792 177.184C96.7092 176.944 96.4592 176.729 96.1292 176.539C95.7992 176.339 95.3842 176.239 94.8842 176.239C94.3842 176.239 94.0042 176.349 93.7442 176.569C93.4942 176.779 93.3692 177.069 93.3692 177.439C93.3692 177.819 93.4942 178.094 93.7442 178.264C94.0042 178.434 94.3742 178.559 94.8542 178.639L95.4542 178.729C96.3142 178.859 96.9242 179.109 97.2842 179.479C97.6442 179.839 97.8242 180.314 97.8242 180.904C97.8242 181.654 97.5692 182.244 97.0592 182.674C96.5492 183.104 95.8492 183.319 94.9592 183.319ZM104.599 183.139C104.179 183.139 103.859 183.024 103.639 182.794C103.429 182.554 103.324 182.244 103.324 181.864V176.449H102.049V175.399H102.769C103.029 175.399 103.204 175.349 103.294 175.249C103.394 175.139 103.444 174.954 103.444 174.694V173.254H104.524V175.399H106.219V176.449H104.524V182.089H106.099V183.139H104.599ZM107.848 172.039H109.048V176.659H109.108C109.298 176.219 109.563 175.869 109.903 175.609C110.253 175.349 110.718 175.219 111.298 175.219C112.098 175.219 112.728 175.479 113.188 175.999C113.658 176.509 113.893 177.234 113.893 178.174V183.139H112.693V178.384C112.693 176.994 112.108 176.299 110.938 176.299C110.698 176.299 110.463 176.329 110.233 176.389C110.013 176.449 109.813 176.539 109.633 176.659C109.453 176.779 109.308 176.934 109.198 177.124C109.098 177.304 109.048 177.519 109.048 177.769V183.139H107.848V172.039ZM118.983 183.319C118.453 183.319 117.973 183.224 117.543 183.034C117.123 182.844 116.758 182.574 116.448 182.224C116.148 181.864 115.913 181.439 115.743 180.949C115.583 180.449 115.503 179.889 115.503 179.269C115.503 178.659 115.583 178.104 115.743 177.604C115.913 177.104 116.148 176.679 116.448 176.329C116.758 175.969 117.123 175.694 117.543 175.504C117.973 175.314 118.453 175.219 118.983 175.219C119.503 175.219 119.968 175.314 120.378 175.504C120.788 175.694 121.138 175.959 121.428 176.299C121.718 176.629 121.938 177.024 122.088 177.484C122.248 177.944 122.328 178.449 122.328 178.999V179.569H116.763V179.929C116.763 180.259 116.813 180.569 116.913 180.859C117.023 181.139 117.173 181.384 117.363 181.594C117.563 181.804 117.803 181.969 118.083 182.089C118.373 182.209 118.698 182.269 119.058 182.269C119.548 182.269 119.973 182.154 120.333 181.924C120.703 181.694 120.988 181.364 121.188 180.934L122.043 181.549C121.793 182.079 121.403 182.509 120.873 182.839C120.343 183.159 119.713 183.319 118.983 183.319ZM118.983 176.224C118.653 176.224 118.353 176.284 118.083 176.404C117.813 176.514 117.578 176.674 117.378 176.884C117.188 177.094 117.038 177.344 116.928 177.634C116.818 177.914 116.763 178.224 116.763 178.564V178.669H121.038V178.504C121.038 177.814 120.848 177.264 120.468 176.854C120.098 176.434 119.603 176.224 118.983 176.224ZM124.605 173.584C124.345 173.584 124.155 173.524 124.035 173.404C123.925 173.274 123.87 173.109 123.87 172.909V172.714C123.87 172.514 123.925 172.354 124.035 172.234C124.155 172.104 124.345 172.039 124.605 172.039C124.865 172.039 125.05 172.104 125.16 172.234C125.28 172.354 125.34 172.514 125.34 172.714V172.909C125.34 173.109 125.28 173.274 125.16 173.404C125.05 173.524 124.865 173.584 124.605 173.584ZM124.005 175.399H125.205V183.139H124.005V175.399ZM127.455 183.139V175.399H128.655V176.824H128.73C128.87 176.454 129.12 176.124 129.48 175.834C129.84 175.544 130.335 175.399 130.965 175.399H131.43V176.599H130.725C130.075 176.599 129.565 176.724 129.195 176.974C128.835 177.214 128.655 177.519 128.655 177.889V183.139H127.455ZM135.908 183.139V175.399H137.108V176.659H137.168C137.258 176.459 137.358 176.274 137.468 176.104C137.588 175.924 137.728 175.769 137.888 175.639C138.058 175.509 138.253 175.409 138.473 175.339C138.693 175.259 138.953 175.219 139.253 175.219C139.763 175.219 140.233 175.344 140.663 175.594C141.093 175.834 141.413 176.234 141.623 176.794H141.653C141.793 176.374 142.053 176.009 142.433 175.699C142.823 175.379 143.348 175.219 144.008 175.219C144.798 175.219 145.413 175.479 145.853 175.999C146.303 176.509 146.528 177.234 146.528 178.174V183.139H145.328V178.384C145.328 177.694 145.193 177.174 144.923 176.824C144.653 176.474 144.223 176.299 143.633 176.299C143.393 176.299 143.163 176.329 142.943 176.389C142.733 176.449 142.543 176.539 142.373 176.659C142.203 176.779 142.068 176.934 141.968 177.124C141.868 177.304 141.818 177.519 141.818 177.769V183.139H140.618V178.384C140.618 177.694 140.483 177.174 140.213 176.824C139.943 176.474 139.523 176.299 138.953 176.299C138.713 176.299 138.483 176.329 138.263 176.389C138.043 176.449 137.848 176.539 137.678 176.659C137.508 176.779 137.368 176.934 137.258 177.124C137.158 177.304 137.108 177.519 137.108 177.769V183.139H135.908ZM154.329 183.139C153.879 183.139 153.554 183.019 153.354 182.779C153.164 182.539 153.044 182.239 152.994 181.879H152.919C152.749 182.359 152.469 182.719 152.079 182.959C151.689 183.199 151.224 183.319 150.684 183.319C149.864 183.319 149.224 183.109 148.764 182.689C148.314 182.269 148.089 181.699 148.089 180.979C148.089 180.249 148.354 179.689 148.884 179.299C149.424 178.909 150.259 178.714 151.389 178.714H152.919V177.949C152.919 177.399 152.769 176.979 152.469 176.689C152.169 176.399 151.709 176.254 151.089 176.254C150.619 176.254 150.224 176.359 149.904 176.569C149.594 176.779 149.334 177.059 149.124 177.409L148.404 176.734C148.614 176.314 148.949 175.959 149.409 175.669C149.869 175.369 150.449 175.219 151.149 175.219C152.089 175.219 152.819 175.449 153.339 175.909C153.859 176.369 154.119 177.009 154.119 177.829V182.089H155.004V183.139H154.329ZM150.879 182.299C151.179 182.299 151.454 182.264 151.704 182.194C151.954 182.124 152.169 182.024 152.349 181.894C152.529 181.764 152.669 181.614 152.769 181.444C152.869 181.274 152.919 181.089 152.919 180.889V179.614H151.329C150.639 179.614 150.134 179.714 149.814 179.914C149.504 180.114 149.349 180.404 149.349 180.784V181.099C149.349 181.479 149.484 181.774 149.754 181.984C150.034 182.194 150.409 182.299 150.879 182.299ZM156.416 183.139V175.399H157.616V176.659H157.676C157.866 176.219 158.131 175.869 158.471 175.609C158.821 175.349 159.286 175.219 159.866 175.219C160.666 175.219 161.296 175.479 161.756 175.999C162.226 176.509 162.461 177.234 162.461 178.174V183.139H161.261V178.384C161.261 176.994 160.676 176.299 159.506 176.299C159.266 176.299 159.031 176.329 158.801 176.389C158.581 176.449 158.381 176.539 158.201 176.659C158.021 176.779 157.876 176.934 157.766 177.124C157.666 177.304 157.616 177.519 157.616 177.769V183.139H156.416ZM170.267 183.139C169.817 183.139 169.492 183.019 169.292 182.779C169.102 182.539 168.982 182.239 168.932 181.879H168.857C168.687 182.359 168.407 182.719 168.017 182.959C167.627 183.199 167.162 183.319 166.622 183.319C165.802 183.319 165.162 183.109 164.702 182.689C164.252 182.269 164.027 181.699 164.027 180.979C164.027 180.249 164.292 179.689 164.822 179.299C165.362 178.909 166.197 178.714 167.327 178.714H168.857V177.949C168.857 177.399 168.707 176.979 168.407 176.689C168.107 176.399 167.647 176.254 167.027 176.254C166.557 176.254 166.162 176.359 165.842 176.569C165.532 176.779 165.272 177.059 165.062 177.409L164.342 176.734C164.552 176.314 164.887 175.959 165.347 175.669C165.807 175.369 166.387 175.219 167.087 175.219C168.027 175.219 168.757 175.449 169.277 175.909C169.797 176.369 170.057 177.009 170.057 177.829V182.089H170.942V183.139H170.267ZM166.817 182.299C167.117 182.299 167.392 182.264 167.642 182.194C167.892 182.124 168.107 182.024 168.287 181.894C168.467 181.764 168.607 181.614 168.707 181.444C168.807 181.274 168.857 181.089 168.857 180.889V179.614H167.267C166.577 179.614 166.072 179.714 165.752 179.914C165.442 180.114 165.287 180.404 165.287 180.784V181.099C165.287 181.479 165.422 181.774 165.692 181.984C165.972 182.194 166.347 182.299 166.817 182.299ZM178.88 183.994C178.88 184.794 178.565 185.379 177.935 185.749C177.315 186.129 176.38 186.319 175.13 186.319C173.92 186.319 173.05 186.154 172.52 185.824C171.99 185.494 171.725 185.024 171.725 184.414C171.725 183.994 171.835 183.664 172.055 183.424C172.275 183.194 172.575 183.024 172.955 182.914V182.749C172.495 182.529 172.265 182.169 172.265 181.669C172.265 181.279 172.39 180.984 172.64 180.784C172.89 180.574 173.21 180.419 173.6 180.319V180.259C173.14 180.039 172.78 179.724 172.52 179.314C172.27 178.904 172.145 178.429 172.145 177.889C172.145 177.499 172.215 177.139 172.355 176.809C172.495 176.479 172.69 176.199 172.94 175.969C173.2 175.729 173.505 175.544 173.855 175.414C174.215 175.284 174.615 175.219 175.055 175.219C175.605 175.219 176.095 175.319 176.525 175.519V175.384C176.525 175.084 176.595 174.839 176.735 174.649C176.875 174.449 177.105 174.349 177.425 174.349H178.58V175.399H177.11V175.894C177.39 176.134 177.605 176.424 177.755 176.764C177.915 177.094 177.995 177.469 177.995 177.889C177.995 178.279 177.925 178.639 177.785 178.969C177.645 179.299 177.445 179.584 177.185 179.824C176.935 180.054 176.63 180.234 176.27 180.364C175.91 180.494 175.51 180.559 175.07 180.559C174.82 180.559 174.57 180.534 174.32 180.484C174.06 180.554 173.825 180.659 173.615 180.799C173.405 180.929 173.3 181.114 173.3 181.354C173.3 181.584 173.41 181.739 173.63 181.819C173.85 181.899 174.135 181.939 174.485 181.939H176.135C177.095 181.939 177.79 182.124 178.22 182.494C178.66 182.854 178.88 183.354 178.88 183.994ZM177.755 184.084C177.755 183.774 177.635 183.524 177.395 183.334C177.165 183.154 176.75 183.064 176.15 183.064H173.57C173.09 183.284 172.85 183.634 172.85 184.114C172.85 184.454 172.975 184.744 173.225 184.984C173.485 185.224 173.92 185.344 174.53 185.344H175.64C176.31 185.344 176.83 185.239 177.2 185.029C177.57 184.819 177.755 184.504 177.755 184.084ZM175.07 179.599C175.58 179.599 175.985 179.479 176.285 179.239C176.585 178.989 176.735 178.609 176.735 178.099V177.679C176.735 177.169 176.585 176.794 176.285 176.554C175.985 176.304 175.58 176.179 175.07 176.179C174.56 176.179 174.155 176.304 173.855 176.554C173.555 176.794 173.405 177.169 173.405 177.679V178.099C173.405 178.609 173.555 178.989 173.855 179.239C174.155 179.479 174.56 179.599 175.07 179.599ZM182.801 183.319C182.271 183.319 181.791 183.224 181.361 183.034C180.941 182.844 180.576 182.574 180.266 182.224C179.966 181.864 179.731 181.439 179.561 180.949C179.401 180.449 179.321 179.889 179.321 179.269C179.321 178.659 179.401 178.104 179.561 177.604C179.731 177.104 179.966 176.679 180.266 176.329C180.576 175.969 180.941 175.694 181.361 175.504C181.791 175.314 182.271 175.219 182.801 175.219C183.321 175.219 183.786 175.314 184.196 175.504C184.606 175.694 184.956 175.959 185.246 176.299C185.536 176.629 185.756 177.024 185.906 177.484C186.066 177.944 186.146 178.449 186.146 178.999V179.569H180.581V179.929C180.581 180.259 180.631 180.569 180.731 180.859C180.841 181.139 180.991 181.384 181.181 181.594C181.381 181.804 181.621 181.969 181.901 182.089C182.191 182.209 182.516 182.269 182.876 182.269C183.366 182.269 183.791 182.154 184.151 181.924C184.521 181.694 184.806 181.364 185.006 180.934L185.861 181.549C185.611 182.079 185.221 182.509 184.691 182.839C184.161 183.159 183.531 183.319 182.801 183.319ZM182.801 176.224C182.471 176.224 182.171 176.284 181.901 176.404C181.631 176.514 181.396 176.674 181.196 176.884C181.006 177.094 180.856 177.344 180.746 177.634C180.636 177.914 180.581 178.224 180.581 178.564V178.669H184.856V178.504C184.856 177.814 184.666 177.264 184.286 176.854C183.916 176.434 183.421 176.224 182.801 176.224ZM187.824 183.139V175.399H189.024V176.659H189.084C189.174 176.459 189.274 176.274 189.384 176.104C189.504 175.924 189.644 175.769 189.804 175.639C189.974 175.509 190.169 175.409 190.389 175.339C190.609 175.259 190.869 175.219 191.169 175.219C191.679 175.219 192.149 175.344 192.579 175.594C193.009 175.834 193.329 176.234 193.539 176.794H193.569C193.709 176.374 193.969 176.009 194.349 175.699C194.739 175.379 195.264 175.219 195.924 175.219C196.714 175.219 197.329 175.479 197.769 175.999C198.219 176.509 198.444 177.234 198.444 178.174V183.139H197.244V178.384C197.244 177.694 197.109 177.174 196.839 176.824C196.569 176.474 196.139 176.299 195.549 176.299C195.309 176.299 195.079 176.329 194.859 176.389C194.649 176.449 194.459 176.539 194.289 176.659C194.119 176.779 193.984 176.934 193.884 177.124C193.784 177.304 193.734 177.519 193.734 177.769V183.139H192.534V178.384C192.534 177.694 192.399 177.174 192.129 176.824C191.859 176.474 191.439 176.299 190.869 176.299C190.629 176.299 190.399 176.329 190.179 176.389C189.959 176.449 189.764 176.539 189.594 176.659C189.424 176.779 189.284 176.934 189.174 177.124C189.074 177.304 189.024 177.519 189.024 177.769V183.139H187.824ZM203.53 183.319C203 183.319 202.52 183.224 202.09 183.034C201.67 182.844 201.305 182.574 200.995 182.224C200.695 181.864 200.46 181.439 200.29 180.949C200.13 180.449 200.05 179.889 200.05 179.269C200.05 178.659 200.13 178.104 200.29 177.604C200.46 177.104 200.695 176.679 200.995 176.329C201.305 175.969 201.67 175.694 202.09 175.504C202.52 175.314 203 175.219 203.53 175.219C204.05 175.219 204.515 175.314 204.925 175.504C205.335 175.694 205.685 175.959 205.975 176.299C206.265 176.629 206.485 177.024 206.635 177.484C206.795 177.944 206.875 178.449 206.875 178.999V179.569H201.31V179.929C201.31 180.259 201.36 180.569 201.46 180.859C201.57 181.139 201.72 181.384 201.91 181.594C202.11 181.804 202.35 181.969 202.63 182.089C202.92 182.209 203.245 182.269 203.605 182.269C204.095 182.269 204.52 182.154 204.88 181.924C205.25 181.694 205.535 181.364 205.735 180.934L206.59 181.549C206.34 182.079 205.95 182.509 205.42 182.839C204.89 183.159 204.26 183.319 203.53 183.319ZM203.53 176.224C203.2 176.224 202.9 176.284 202.63 176.404C202.36 176.514 202.125 176.674 201.925 176.884C201.735 177.094 201.585 177.344 201.475 177.634C201.365 177.914 201.31 178.224 201.31 178.564V178.669H205.585V178.504C205.585 177.814 205.395 177.264 205.015 176.854C204.645 176.434 204.15 176.224 203.53 176.224ZM208.552 183.139V175.399H209.752V176.659H209.812C210.002 176.219 210.267 175.869 210.607 175.609C210.957 175.349 211.422 175.219 212.002 175.219C212.802 175.219 213.432 175.479 213.892 175.999C214.362 176.509 214.597 177.234 214.597 178.174V183.139H213.397V178.384C213.397 176.994 212.812 176.299 211.642 176.299C211.402 176.299 211.167 176.329 210.937 176.389C210.717 176.449 210.517 176.539 210.337 176.659C210.157 176.779 210.012 176.934 209.902 177.124C209.802 177.304 209.752 177.519 209.752 177.769V183.139H208.552ZM218.487 183.139C218.067 183.139 217.747 183.024 217.527 182.794C217.317 182.554 217.212 182.244 217.212 181.864V176.449H215.937V175.399H216.657C216.917 175.399 217.092 175.349 217.182 175.249C217.282 175.139 217.332 174.954 217.332 174.694V173.254H218.412V175.399H220.107V176.449H218.412V182.089H219.987V183.139H218.487Z" fill="white"></path>
    <path opacity="0.03" fill-rule="evenodd" clip-rule="evenodd" d="M239.256 -15.4286C217.785 -4.66397 199.696 13.2097 188.903 36.7399C178.11 60.2702 176.364 85.64 182.212 108.936L239.256 -15.4286ZM259.651 -23.2302L189.605 129.483C193.612 137.892 198.696 145.81 204.772 153.008L287.375 -27.0819C277.956 -26.9909 268.639 -25.6788 259.651 -23.2302ZM303.7 -26.0085L216.235 164.68C222.165 169.871 228.737 174.484 235.902 178.388L326.92 -20.0449C319.286 -22.9286 311.503 -24.9006 303.7 -26.0085ZM340.814 -13.6722L330.829 8.09674L386.284 33.5328C376.596 14.0738 361.081 -2.62832 340.814 -13.6722ZM394.013 53.8949L324.456 21.9904L314.613 43.4494L397.8 81.6058C397.73 72.1933 396.439 62.8803 394.013 53.8949ZM396.694 97.9152L308.24 57.343L298.404 78.7881L390.687 121.117C393.585 113.49 395.571 105.713 396.694 97.9152ZM384.288 134.998L292.031 92.6818L249.796 184.761C257.802 187.785 265.971 189.807 274.156 190.881L304.243 125.286L369.876 155.391C375.351 149.276 380.203 142.46 384.288 134.998ZM358.02 166.769L311.764 145.553L305.887 158.366L319.781 164.739L313.408 178.633L299.514 172.26L290.561 191.78C315.173 191.267 339.022 182.424 358.02 166.769ZM175.009 30.3672C203.723 -32.2339 277.748 -59.7048 340.349 -30.9909C402.951 -2.27703 430.421 71.7484 401.708 134.349C372.994 196.95 298.968 224.421 236.367 195.708C173.766 166.994 146.295 92.9682 175.009 30.3672Z" fill="white"></path>
  </g>
  <defs>
    <filter id="filter0_f_1253_898" x="182.113" y="74.9746" width="309.449" height="275.827" color-interpolation-filters="sRGB">
      <feFlood flood-opacity="0" result="BackgroundImageFix"></feFlood>
      <feBlend mode="normal" in="SourceGraphic" in2="BackgroundImageFix" result="shape"></feBlend>
      <feGaussianBlur stdDeviation="50.7813" result="effect1_foregroundBlur_1253_898"></feGaussianBlur>
    </filter>
    <filter id="filter1_f_1253_898" x="-101.563" y="-101.563" width="309.03" height="275.827" color-interpolation-filters="sRGB">
      <feFlood flood-opacity="0" result="BackgroundImageFix"></feFlood>
      <feBlend mode="normal" in="SourceGraphic" in2="BackgroundImageFix" result="shape"></feBlend>
      <feGaussianBlur stdDeviation="50.7813" result="effect1_foregroundBlur_1253_898"></feGaussianBlur>
    </filter>
    <linearGradient id="paint0_linear_1253_898" x1="195" y1="0" x2="195" y2="249.41" gradientUnits="userSpaceOnUse">
      <stop stop-color="#313848"></stop>
      <stop offset="1" stop-opacity="0"></stop>
    </linearGradient>
    <linearGradient id="paint1_linear_1253_898" x1="195" y1="0" x2="195" y2="249.41" gradientUnits="userSpaceOnUse">
      <stop stop-color="#070E23" stop-opacity="0.6"></stop>
      <stop offset="1" stop-color="#12192E"></stop>
    </linearGradient>
    <clipPath id="clip0_1253_898">
      <rect width="390" height="249.41" fill="white"></rect>
    </clipPath>
    <clipPath id="clip1_1253_898">
      <rect width="86.257" height="21.7865" fill="white" transform="translate(29.929 24.9409)"></rect>
    </clipPath>
  </defs>
</svg>
