<?xml version="1.0" encoding="UTF-8"?>
<svg xmlns="http://www.w3.org/2000/svg" width="1306" height="1252" viewBox="0 0 1306 1252" fill="none">
  <path d="M1187.9 701.969C1187.9 712.139 1188.6 722.424 1187.67 732.479C1186.98 740.453 1189.41 745.075 1195.99 749.351C1244.07 781.363 1277.35 824.816 1294.69 880.056C1324.39 974.936 1293.88 1080.33 1215.87 1141.58C1134.63 1205.38 1045.87 1214.85 952.148 1170.24C945.676 1167.24 941.054 1167.01 935.044 1170.82C879.573 1205.72 819.363 1229.41 755.108 1241.89C699.29 1252.64 643.124 1254.38 586.613 1247.33C508.605 1237.62 436.492 1211.62 369.811 1170.24C364.264 1166.78 360.103 1167.24 354.44 1170.01C227.78 1233.57 78.8151 1180.3 20.6854 1050.86C-27.3901 943.849 10.8623 813.606 109.209 749.582C114.641 746.115 118.686 742.995 118.339 735.137C112.907 608.361 149.657 494.528 225.353 393.177C272.62 329.962 331.674 280.268 401.129 242.825C404.596 240.976 407.947 235.66 408.294 231.731C416.153 126.219 483.066 39.7754 583.608 10.1905C703.103 -24.9416 826.759 33.1882 877.03 147.252C888.471 173.37 894.827 200.759 896.792 229.073C897.37 236.584 899.797 240.629 906.384 244.212C977.919 282.811 1037.9 334.931 1085.86 400.573C1135.32 468.41 1167.79 543.644 1180.85 626.736C1184.78 651.582 1186.86 676.776 1189.87 701.854C1189.17 701.854 1188.6 701.854 1187.9 701.969ZM449.205 1089.81C451.4 1091.2 453.365 1092.93 455.676 1094.08C509.299 1122.28 566.504 1138.23 626.714 1141.81C705.299 1146.55 779.839 1130.6 849.988 1094.43C856.459 1091.08 857.615 1088.31 853.455 1081.83C835.426 1053.98 823.754 1023.24 819.016 990.538C808.5 916.807 826.066 850.009 874.834 793.497C925.799 734.559 990.863 705.321 1069.56 708.325C1075.23 708.556 1080.31 709.134 1079.27 700.698C1075.8 674.349 1074.42 647.653 1068.75 621.766C1054.19 554.969 1024.38 495.337 980.462 442.87C951.802 408.662 918.75 379.54 881.075 355.502C875.297 351.804 871.945 352.035 868.94 358.622C866.398 364.285 862.931 369.485 859.695 374.802C803.646 466.908 686.231 511.863 584.301 480.082C519.238 459.858 470.237 419.641 437.763 359.662C433.603 352.035 430.252 351.342 423.549 356.426C412.801 364.516 401.129 371.335 390.728 379.771C288.683 461.938 233.905 568.375 226.509 699.311C226.046 706.938 228.473 709.019 235.869 708.441C263.374 706.361 290.07 710.29 316.419 718.148C453.711 758.943 527.212 914.264 471.046 1045.66C464.69 1060.57 456.716 1074.9 449.205 1089.81ZM244.537 1087.96C319.77 1087.96 380.558 1027.63 380.558 952.516C380.558 877.514 320.117 816.611 245.115 816.264C170.69 815.917 109.093 877.283 108.862 951.939C108.631 1026.71 169.65 1087.84 244.537 1087.96ZM788.622 246.292C789.662 171.867 729.915 110.386 655.259 109.115C579.91 107.844 518.429 167.707 517.389 243.75C516.348 318.059 576.559 380.118 650.752 380.927C726.448 381.851 787.582 322.219 788.622 246.292ZM1060.66 1087.96C1135.67 1088.19 1196.8 1027.4 1196.92 952.516C1197.03 877.861 1136.13 816.611 1061.24 816.264C986.587 815.917 925.337 876.936 925.221 951.823C925.106 1027.06 985.431 1087.61 1060.66 1087.84V1087.96Z" fill="#0FBCFF"></path>
  <path d="M816.009 715.379C816.471 805.636 743.665 878.674 653.061 878.789C562.919 878.905 490.691 807.138 489.882 716.65C489.073 626.508 561.648 553.355 652.252 552.893C742.74 552.431 815.431 624.659 815.894 715.494L816.009 715.379ZM653.061 770.157C682.646 770.157 707.724 744.848 707.492 715.494C707.261 685.794 682.068 661.063 652.483 661.525C623.361 661.872 598.629 686.718 598.629 715.725C598.629 745.195 623.592 770.273 653.177 770.157H653.061Z" fill="#0FBCFF"></path>
</svg>
