<svg width="1038" height="580" viewBox="0 0 1038 580" fill="none" xmlns="http://www.w3.org/2000/svg">
<rect x="1" y="1" width="1036" height="578" rx="10" fill="url(#paint0_linear_4462_3884)"/>
<rect x="0.5" y="0.5" width="1037" height="579" rx="10.5" stroke="white" stroke-opacity="0.2"/>
<path d="M147.82 280.08C143.26 280.08 139.432 279.156 136.336 277.308C133.264 275.46 130.948 272.952 129.388 269.784C127.828 266.592 127.048 262.992 127.048 258.984V228.6H136.408V259.092C136.408 263.172 137.428 266.22 139.468 268.236C141.508 270.252 144.292 271.26 147.82 271.26C151.348 271.26 154.12 270.252 156.136 268.236C158.176 266.22 159.196 263.172 159.196 259.092V228.6H168.592V258.984C168.592 262.992 167.812 266.592 166.252 269.784C164.692 272.952 162.376 275.46 159.304 277.308C156.232 279.156 152.404 280.08 147.82 280.08ZM178.536 279V243H187.752V247.32C189.192 245.424 190.872 244.056 192.792 243.216C194.736 242.352 196.764 241.92 198.876 241.92C202.188 241.92 204.924 242.58 207.084 243.9C209.268 245.22 210.888 246.912 211.944 248.976C213 251.04 213.528 253.2 213.528 255.456V279H204.312V258.336C204.312 255.888 203.604 253.944 202.188 252.504C200.772 251.064 198.792 250.344 196.248 250.344C194.592 250.344 193.116 250.716 191.82 251.46C190.548 252.18 189.552 253.2 188.832 254.52C188.112 255.84 187.752 257.364 187.752 259.092V279H178.536ZM222.378 279V243H231.594V247.716C232.842 245.604 234.402 244.104 236.274 243.216C238.17 242.328 240.21 241.884 242.394 241.884C243.162 241.884 243.87 241.92 244.518 241.992C245.166 242.064 245.79 242.172 246.39 242.316L245.238 251.82C244.494 251.556 243.714 251.364 242.898 251.244C242.106 251.1 241.314 251.028 240.522 251.028C237.93 251.028 235.794 251.808 234.114 253.368C232.434 254.904 231.594 257.064 231.594 259.848V279H222.378ZM265.73 280.08C262.202 280.08 259.07 279.264 256.334 277.632C253.622 276 251.486 273.744 249.926 270.864C248.366 267.984 247.586 264.696 247.586 261C247.586 258.216 248.03 255.66 248.918 253.332C249.806 251.004 251.054 248.988 252.662 247.284C254.294 245.58 256.214 244.26 258.422 243.324C260.654 242.388 263.09 241.92 265.73 241.92C269.21 241.92 272.138 242.664 274.514 244.152C276.89 245.64 278.666 247.572 279.842 249.948L278.546 251.928V243H286.646V279H278.546V270.072L279.842 272.052C278.666 274.428 276.89 276.36 274.514 277.848C272.138 279.336 269.21 280.08 265.73 280.08ZM267.098 272.016C269.09 272.016 270.866 271.572 272.426 270.684C273.986 269.772 275.222 268.5 276.134 266.868C277.046 265.212 277.502 263.256 277.502 261C277.502 258.744 277.046 256.788 276.134 255.132C275.222 253.476 273.986 252.204 272.426 251.316C270.866 250.428 269.09 249.984 267.098 249.984C265.106 249.984 263.318 250.428 261.734 251.316C260.174 252.204 258.938 253.476 258.026 255.132C257.138 256.788 256.694 258.744 256.694 261C256.694 263.256 257.138 265.212 258.026 266.868C258.938 268.5 260.174 269.772 261.734 270.684C263.318 271.572 265.106 272.016 267.098 272.016ZM304.641 279L291.429 243H301.437L310.617 271.08H309.393L318.393 243H328.149L315.261 279H304.641ZM349.158 280.08C345.246 280.08 341.814 279.288 338.862 277.704C335.91 276.096 333.606 273.864 331.95 271.008C330.318 268.152 329.502 264.828 329.502 261.036C329.502 258.252 329.97 255.696 330.906 253.368C331.866 251.04 333.21 249.024 334.938 247.32C336.69 245.592 338.73 244.26 341.058 243.324C343.41 242.388 345.978 241.92 348.762 241.92C351.786 241.92 354.486 242.46 356.862 243.54C359.238 244.596 361.206 246.096 362.766 248.04C364.35 249.96 365.454 252.216 366.078 254.808C366.726 257.376 366.81 260.184 366.33 263.232H338.178C338.154 265.128 338.598 266.784 339.51 268.2C340.446 269.616 341.766 270.732 343.47 271.548C345.198 272.34 347.226 272.736 349.554 272.736C351.618 272.736 353.598 272.436 355.494 271.836C357.39 271.236 359.154 270.348 360.786 269.172L364.026 275.616C362.898 276.528 361.494 277.32 359.814 277.992C358.134 278.664 356.358 279.18 354.486 279.54C352.638 279.9 350.862 280.08 349.158 280.08ZM338.718 256.68H357.402C357.33 254.256 356.526 252.36 354.99 250.992C353.454 249.6 351.306 248.904 348.546 248.904C345.81 248.904 343.554 249.6 341.778 250.992C340.002 252.36 338.982 254.256 338.718 256.68ZM372.782 279V227.16H381.998V279H372.782ZM431.147 280.08C425.915 280.08 421.331 279 417.395 276.84C413.459 274.68 410.399 271.644 408.215 267.732C406.031 263.796 404.939 259.176 404.939 253.872C404.939 250.008 405.575 246.48 406.847 243.288C408.143 240.072 409.967 237.288 412.319 234.936C414.695 232.56 417.479 230.736 420.671 229.464C423.887 228.168 427.415 227.52 431.255 227.52C435.215 227.52 438.599 228.024 441.407 229.032C444.215 230.016 446.711 231.42 448.895 233.244L444.107 240.912C442.571 239.448 440.771 238.368 438.707 237.672C436.667 236.952 434.399 236.592 431.903 236.592C429.239 236.592 426.851 236.988 424.739 237.78C422.627 238.572 420.827 239.724 419.339 241.236C417.851 242.724 416.711 244.524 415.919 246.636C415.127 248.748 414.731 251.124 414.731 253.764C414.731 257.388 415.439 260.484 416.855 263.052C418.271 265.596 420.287 267.552 422.903 268.92C425.519 270.288 428.627 270.972 432.227 270.972C434.651 270.972 437.015 270.6 439.319 269.856C441.647 269.112 443.843 267.924 445.907 266.292L450.227 274.176C447.827 276.048 445.043 277.5 441.875 278.532C438.731 279.564 435.155 280.08 431.147 280.08ZM472.528 280.08C468.688 280.08 465.28 279.216 462.304 277.488C459.352 275.736 457.036 273.42 455.356 270.54C453.676 267.636 452.836 264.456 452.836 261C452.836 258.456 453.316 256.032 454.276 253.728C455.236 251.424 456.592 249.396 458.344 247.644C460.12 245.868 462.208 244.476 464.608 243.468C467.008 242.436 469.648 241.92 472.528 241.92C476.344 241.92 479.728 242.784 482.68 244.512C485.656 246.24 487.984 248.556 489.664 251.46C491.368 254.364 492.22 257.544 492.22 261C492.22 263.544 491.728 265.968 490.744 268.272C489.784 270.552 488.428 272.58 486.676 274.356C484.924 276.132 482.848 277.536 480.448 278.568C478.048 279.576 475.408 280.08 472.528 280.08ZM472.528 272.016C474.544 272.016 476.344 271.572 477.928 270.684C479.536 269.772 480.796 268.5 481.708 266.868C482.62 265.212 483.076 263.256 483.076 261C483.076 258.744 482.62 256.788 481.708 255.132C480.796 253.476 479.548 252.204 477.964 251.316C476.38 250.428 474.568 249.984 472.528 249.984C470.488 249.984 468.664 250.428 467.056 251.316C465.472 252.204 464.224 253.476 463.312 255.132C462.424 256.788 461.98 258.744 461.98 261C461.98 263.256 462.436 265.212 463.348 266.868C464.26 268.5 465.508 269.772 467.092 270.684C468.676 271.572 470.488 272.016 472.528 272.016ZM498.366 279V243H507.582V247.788C508.518 246.444 509.598 245.34 510.822 244.476C512.046 243.612 513.354 242.976 514.746 242.568C516.138 242.136 517.542 241.92 518.958 241.92C521.79 241.92 524.178 242.544 526.122 243.792C528.066 245.04 529.422 246.672 530.19 248.688C531.846 246.192 533.862 244.44 536.238 243.432C538.614 242.424 541.05 241.92 543.546 241.92C546.93 241.92 549.618 242.58 551.61 243.9C553.602 245.22 555.03 246.912 555.894 248.976C556.758 251.04 557.19 253.2 557.19 255.456V279H547.974V258.12C547.974 255.792 547.338 253.92 546.066 252.504C544.818 251.064 542.982 250.344 540.558 250.344C538.998 250.344 537.594 250.68 536.346 251.352C535.122 252.024 534.15 252.96 533.43 254.16C532.734 255.336 532.386 256.68 532.386 258.192V279H523.17V258.12C523.17 255.792 522.534 253.92 521.262 252.504C520.014 251.064 518.178 250.344 515.754 250.344C514.194 250.344 512.79 250.68 511.542 251.352C510.318 252.024 509.346 252.96 508.626 254.16C507.93 255.336 507.582 256.68 507.582 258.192V279H498.366ZM566.043 294.12V243H574.179V247.752C575.571 246 577.359 244.596 579.543 243.54C581.727 242.46 584.367 241.92 587.463 241.92C590.943 241.92 594.039 242.736 596.751 244.368C599.463 246 601.587 248.256 603.123 251.136C604.683 253.992 605.463 257.28 605.463 261C605.463 263.664 605.019 266.148 604.131 268.452C603.243 270.756 601.995 272.784 600.387 274.536C598.779 276.264 596.859 277.62 594.627 278.604C592.419 279.588 589.983 280.08 587.319 280.08C584.727 280.08 582.423 279.636 580.407 278.748C578.415 277.836 576.687 276.6 575.223 275.04V294.12H566.043ZM585.771 272.016C587.811 272.016 589.623 271.572 591.207 270.684C592.791 269.772 594.039 268.5 594.951 266.868C595.863 265.212 596.319 263.256 596.319 261C596.319 258.744 595.863 256.788 594.951 255.132C594.039 253.476 592.779 252.204 591.171 251.316C589.587 250.428 587.787 249.984 585.771 249.984C583.731 249.984 581.919 250.428 580.335 251.316C578.751 252.204 577.503 253.476 576.591 255.132C575.679 256.788 575.223 258.744 575.223 261C575.223 263.256 575.667 265.212 576.555 266.868C577.467 268.5 578.715 269.772 580.299 270.684C581.907 271.572 583.731 272.016 585.771 272.016ZM611.642 279V227.16H620.858V279H611.642ZM646.662 280.08C642.75 280.08 639.318 279.288 636.366 277.704C633.414 276.096 631.11 273.864 629.454 271.008C627.822 268.152 627.006 264.828 627.006 261.036C627.006 258.252 627.474 255.696 628.41 253.368C629.37 251.04 630.714 249.024 632.442 247.32C634.194 245.592 636.234 244.26 638.562 243.324C640.914 242.388 643.482 241.92 646.266 241.92C649.29 241.92 651.99 242.46 654.366 243.54C656.742 244.596 658.71 246.096 660.27 248.04C661.854 249.96 662.958 252.216 663.582 254.808C664.23 257.376 664.314 260.184 663.834 263.232H635.682C635.658 265.128 636.102 266.784 637.014 268.2C637.95 269.616 639.27 270.732 640.974 271.548C642.702 272.34 644.73 272.736 647.058 272.736C649.122 272.736 651.102 272.436 652.998 271.836C654.894 271.236 656.658 270.348 658.29 269.172L661.53 275.616C660.402 276.528 658.998 277.32 657.318 277.992C655.638 278.664 653.862 279.18 651.99 279.54C650.142 279.9 648.366 280.08 646.662 280.08ZM636.222 256.68H654.906C654.834 254.256 654.03 252.36 652.494 250.992C650.958 249.6 648.81 248.904 646.05 248.904C643.314 248.904 641.058 249.6 639.282 250.992C637.506 252.36 636.486 254.256 636.222 256.68ZM665.403 279.072L678.399 261.036L666.123 243H677.751L684.771 254.556L691.575 243H702.915L690.999 260.82L703.887 279H692.079L684.447 267.192L676.707 278.928L665.403 279.072ZM708.712 279V243H717.928V279H708.712ZM713.32 236.952C711.736 236.952 710.368 236.448 709.216 235.44C708.064 234.432 707.488 233.1 707.488 231.444C707.488 229.788 708.064 228.456 709.216 227.448C710.368 226.44 711.736 225.936 713.32 225.936C714.904 225.936 716.272 226.44 717.424 227.448C718.576 228.456 719.152 229.788 719.152 231.444C719.152 233.1 718.576 234.432 717.424 235.44C716.272 236.448 714.904 236.952 713.32 236.952ZM742.473 280.08C738.777 280.08 735.849 279.024 733.689 276.912C731.529 274.8 730.449 271.608 730.449 267.336V232.56H739.665V243H749.133V250.488H739.665V265.5C739.665 267.804 740.121 269.436 741.033 270.396C741.945 271.332 743.205 271.8 744.813 271.8C745.629 271.8 746.397 271.704 747.117 271.512C747.861 271.32 748.545 271.068 749.169 270.756L750.609 278.1C749.553 278.652 748.317 279.12 746.901 279.504C745.485 279.888 744.009 280.08 742.473 280.08ZM722.853 250.488V243H731.493V250.488H722.853ZM760.872 295.128C759.456 295.128 758.064 294.972 756.696 294.66C755.328 294.348 754.008 293.844 752.736 293.148L754.788 285.336C755.532 285.792 756.36 286.14 757.272 286.38C758.184 286.62 759.012 286.74 759.756 286.74C761.292 286.74 762.54 286.38 763.5 285.66C764.46 284.964 765.192 283.848 765.696 282.312L766.668 279.432L752.556 243H762.6L771.888 269.82L780.924 243H790.68L775.344 283.644C774.192 286.572 772.884 288.864 771.42 290.52C769.956 292.2 768.336 293.388 766.56 294.084C764.808 294.78 762.912 295.128 760.872 295.128ZM796.785 280.08C795.105 280.08 793.653 279.552 792.429 278.496C791.205 277.416 790.593 275.988 790.593 274.212C790.593 273.012 790.869 271.968 791.421 271.08C791.997 270.192 792.753 269.508 793.689 269.028C794.625 268.548 795.657 268.308 796.785 268.308C798.489 268.308 799.941 268.848 801.141 269.928C802.365 270.984 802.977 272.412 802.977 274.212C802.977 275.388 802.689 276.42 802.113 277.308C801.561 278.196 800.817 278.88 799.881 279.36C798.945 279.84 797.913 280.08 796.785 280.08Z" fill="white"/>
<path d="M127.372 351V300.6H159.196V309.168H136.732V322.308H157V330.588H136.732V351H127.372ZM167.076 351V315H176.292V351H167.076ZM171.684 308.952C170.1 308.952 168.732 308.448 167.58 307.44C166.428 306.432 165.852 305.1 165.852 303.444C165.852 301.788 166.428 300.456 167.58 299.448C168.732 298.44 170.1 297.936 171.684 297.936C173.268 297.936 174.636 298.44 175.788 299.448C176.94 300.456 177.516 301.788 177.516 303.444C177.516 305.1 176.94 306.432 175.788 307.44C174.636 308.448 173.268 308.952 171.684 308.952ZM185.464 351V315H194.68V319.32C196.12 317.424 197.8 316.056 199.72 315.216C201.664 314.352 203.692 313.92 205.804 313.92C209.116 313.92 211.852 314.58 214.012 315.9C216.196 317.22 217.816 318.912 218.872 320.976C219.928 323.04 220.456 325.2 220.456 327.456V351H211.24V330.336C211.24 327.888 210.532 325.944 209.116 324.504C207.7 323.064 205.72 322.344 203.176 322.344C201.52 322.344 200.044 322.716 198.748 323.46C197.476 324.18 196.48 325.2 195.76 326.52C195.04 327.84 194.68 329.364 194.68 331.092V351H185.464ZM244.281 352.08C240.777 352.08 237.669 351.264 234.957 349.632C232.245 348 230.121 345.744 228.585 342.864C227.049 339.984 226.281 336.696 226.281 333C226.281 330.336 226.713 327.852 227.577 325.548C228.465 323.22 229.713 321.192 231.321 319.464C232.953 317.712 234.873 316.356 237.081 315.396C239.289 314.412 241.737 313.92 244.425 313.92C247.521 313.92 250.233 314.544 252.561 315.792C254.889 317.016 256.869 318.756 258.501 321.012L256.485 323.1V299.16H265.701V351H257.565V342.108L258.861 344.196C257.637 346.476 255.813 348.36 253.389 349.848C250.965 351.336 247.929 352.08 244.281 352.08ZM245.973 344.016C247.989 344.016 249.789 343.572 251.373 342.684C252.981 341.772 254.241 340.5 255.153 338.868C256.065 337.212 256.521 335.256 256.521 333C256.521 330.744 256.065 328.788 255.153 327.132C254.241 325.476 252.993 324.204 251.409 323.316C249.825 322.428 248.013 321.984 245.973 321.984C243.933 321.984 242.109 322.428 240.501 323.316C238.917 324.204 237.669 325.476 236.757 327.132C235.869 328.788 235.425 330.744 235.425 333C235.425 335.256 235.881 337.212 236.793 338.868C237.705 340.5 238.953 341.772 240.537 342.684C242.121 343.572 243.933 344.016 245.973 344.016ZM306.133 352.08C302.437 352.08 299.509 351.024 297.349 348.912C295.189 346.8 294.109 343.608 294.109 339.336V304.56H303.325V315H312.793V322.488H303.325V337.5C303.325 339.804 303.781 341.436 304.693 342.396C305.605 343.332 306.865 343.8 308.473 343.8C309.289 343.8 310.057 343.704 310.777 343.512C311.521 343.32 312.205 343.068 312.829 342.756L314.269 350.1C313.213 350.652 311.977 351.12 310.561 351.504C309.145 351.888 307.669 352.08 306.133 352.08ZM286.513 322.488V315H295.153V322.488H286.513ZM320.68 351V299.16H329.896V322.596L327.988 320.436C329.572 318.3 331.468 316.68 333.676 315.576C335.884 314.472 338.26 313.92 340.804 313.92C344.116 313.92 346.864 314.58 349.048 315.9C351.256 317.22 352.912 318.936 354.016 321.048C355.12 323.16 355.672 325.392 355.672 327.744V351H346.456V330.372C346.456 327.996 345.724 326.064 344.26 324.576C342.82 323.088 340.84 322.344 338.32 322.344C336.64 322.32 335.164 322.668 333.892 323.388C332.62 324.108 331.636 325.14 330.94 326.484C330.244 327.804 329.896 329.352 329.896 331.128V351H320.68ZM381.153 352.08C377.241 352.08 373.809 351.288 370.857 349.704C367.905 348.096 365.601 345.864 363.945 343.008C362.313 340.152 361.497 336.828 361.497 333.036C361.497 330.252 361.965 327.696 362.901 325.368C363.861 323.04 365.205 321.024 366.933 319.32C368.685 317.592 370.725 316.26 373.053 315.324C375.405 314.388 377.973 313.92 380.757 313.92C383.781 313.92 386.481 314.46 388.857 315.54C391.233 316.596 393.201 318.096 394.761 320.04C396.345 321.96 397.449 324.216 398.073 326.808C398.721 329.376 398.805 332.184 398.325 335.232H370.173C370.149 337.128 370.593 338.784 371.505 340.2C372.441 341.616 373.761 342.732 375.465 343.548C377.193 344.34 379.221 344.736 381.549 344.736C383.613 344.736 385.593 344.436 387.489 343.836C389.385 343.236 391.149 342.348 392.781 341.172L396.021 347.616C394.893 348.528 393.489 349.32 391.809 349.992C390.129 350.664 388.353 351.18 386.481 351.54C384.633 351.9 382.857 352.08 381.153 352.08ZM370.713 328.68H389.397C389.325 326.256 388.521 324.36 386.985 322.992C385.449 321.6 383.301 320.904 380.541 320.904C377.805 320.904 375.549 321.6 373.773 322.992C371.997 324.36 370.977 326.256 370.713 328.68ZM427.33 351L416.206 315H425.278L432.334 340.38L440.182 315H448.966L456.382 340.38L463.51 315H472.186L461.062 351H451.702L444.358 326.52L436.69 351H427.33ZM491.689 352.08C488.161 352.08 485.029 351.264 482.293 349.632C479.581 348 477.445 345.744 475.885 342.864C474.325 339.984 473.545 336.696 473.545 333C473.545 330.216 473.989 327.66 474.877 325.332C475.765 323.004 477.013 320.988 478.621 319.284C480.253 317.58 482.173 316.26 484.381 315.324C486.613 314.388 489.049 313.92 491.689 313.92C495.169 313.92 498.097 314.664 500.473 316.152C502.849 317.64 504.625 319.572 505.801 321.948L504.505 323.928V315H512.605V351H504.505V342.072L505.801 344.052C504.625 346.428 502.849 348.36 500.473 349.848C498.097 351.336 495.169 352.08 491.689 352.08ZM493.057 344.016C495.049 344.016 496.825 343.572 498.385 342.684C499.945 341.772 501.181 340.5 502.093 338.868C503.005 337.212 503.461 335.256 503.461 333C503.461 330.744 503.005 328.788 502.093 327.132C501.181 325.476 499.945 324.204 498.385 323.316C496.825 322.428 495.049 321.984 493.057 321.984C491.065 321.984 489.277 322.428 487.693 323.316C486.133 324.204 484.897 325.476 483.985 327.132C483.097 328.788 482.653 330.744 482.653 333C482.653 335.256 483.097 337.212 483.985 338.868C484.897 340.5 486.133 341.772 487.693 342.684C489.277 343.572 491.065 344.016 493.057 344.016ZM525.668 367.128C524.252 367.128 522.86 366.972 521.492 366.66C520.124 366.348 518.804 365.844 517.532 365.148L519.584 357.336C520.328 357.792 521.156 358.14 522.068 358.38C522.98 358.62 523.808 358.74 524.552 358.74C526.088 358.74 527.336 358.38 528.296 357.66C529.256 356.964 529.988 355.848 530.492 354.312L531.464 351.432L517.352 315H527.396L536.684 341.82L545.72 315H555.476L540.14 355.644C538.988 358.572 537.68 360.864 536.216 362.52C534.752 364.2 533.132 365.388 531.356 366.084C529.604 366.78 527.708 367.128 525.668 367.128ZM561.581 352.08C559.901 352.08 558.449 351.552 557.225 350.496C556.001 349.416 555.389 347.988 555.389 346.212C555.389 345.012 555.665 343.968 556.217 343.08C556.793 342.192 557.549 341.508 558.485 341.028C559.421 340.548 560.453 340.308 561.581 340.308C563.285 340.308 564.737 340.848 565.937 341.928C567.161 342.984 567.773 344.412 567.773 346.212C567.773 347.388 567.485 348.42 566.909 349.308C566.357 350.196 565.613 350.88 564.677 351.36C563.741 351.84 562.709 352.08 561.581 352.08Z" fill="url(#paint1_linear_4462_3884)"/>
<defs>
<linearGradient id="paint0_linear_4462_3884" x1="1" y1="1" x2="1109.17" y2="349.56" gradientUnits="userSpaceOnUse">
<stop stop-color="#00020C"/>
<stop offset="1" stop-color="#9C27B0"/>
</linearGradient>
<linearGradient id="paint1_linear_4462_3884" x1="121" y1="218" x2="603.25" y2="694.031" gradientUnits="userSpaceOnUse">
<stop stop-color="#9C27B0"/>
<stop offset="1" stop-color="#9575CD"/>
</linearGradient>
</defs>
</svg>
