<svg width="621" height="347" viewBox="0 0 621 347" fill="none" xmlns="http://www.w3.org/2000/svg">
<rect x="1" y="1.33081" width="618.45" height="345.043" rx="5.96959" fill="#070D19"/>
<rect x="1" y="1.33081" width="618.45" height="345.043" rx="5.96959" fill="url(#paint0_radial_4674_13007)"/>
<rect x="0.70152" y="1.03233" width="619.047" height="345.64" rx="6.26807" stroke="white" stroke-opacity="0.2" stroke-width="0.596959"/>
<path d="M81.3553 163.852V140.612H73.6153V135.852H94.3153V140.612H86.5753V163.852H81.3553ZM97.4515 163.852V135.052H102.572V148.072L101.512 146.872C102.392 145.685 103.445 144.785 104.672 144.172C105.898 143.559 107.218 143.252 108.632 143.252C110.472 143.252 111.998 143.619 113.212 144.352C114.438 145.085 115.358 146.039 115.972 147.212C116.585 148.385 116.892 149.625 116.892 150.932V163.852H111.772V152.392C111.772 151.072 111.365 149.999 110.552 149.172C109.752 148.345 108.652 147.932 107.252 147.932C106.318 147.919 105.498 148.112 104.792 148.512C104.085 148.912 103.538 149.485 103.152 150.232C102.765 150.965 102.572 151.825 102.572 152.812V163.852H97.4515ZM121.808 163.852V143.852H126.928V146.472C127.621 145.299 128.488 144.465 129.528 143.972C130.581 143.479 131.714 143.232 132.928 143.232C133.354 143.232 133.748 143.252 134.108 143.292C134.468 143.332 134.814 143.392 135.148 143.472L134.508 148.752C134.094 148.605 133.661 148.499 133.208 148.432C132.768 148.352 132.328 148.312 131.888 148.312C130.448 148.312 129.261 148.745 128.328 149.612C127.394 150.465 126.928 151.665 126.928 153.212V163.852H121.808ZM146.732 164.452C144.559 164.452 142.652 164.012 141.012 163.132C139.372 162.239 138.092 160.999 137.172 159.412C136.265 157.825 135.812 155.979 135.812 153.872C135.812 152.325 136.072 150.905 136.592 149.612C137.125 148.319 137.872 147.199 138.832 146.252C139.805 145.292 140.939 144.552 142.232 144.032C143.539 143.512 144.965 143.252 146.512 143.252C148.192 143.252 149.692 143.552 151.012 144.152C152.332 144.739 153.425 145.572 154.292 146.652C155.172 147.719 155.785 148.972 156.132 150.412C156.492 151.839 156.539 153.399 156.272 155.092H140.632C140.619 156.145 140.865 157.065 141.372 157.852C141.892 158.639 142.625 159.259 143.572 159.712C144.532 160.152 145.659 160.372 146.952 160.372C148.099 160.372 149.199 160.205 150.252 159.872C151.305 159.539 152.285 159.045 153.192 158.392L154.992 161.972C154.365 162.479 153.585 162.919 152.652 163.292C151.719 163.665 150.732 163.952 149.692 164.152C148.665 164.352 147.679 164.452 146.732 164.452ZM140.932 151.452H151.312C151.272 150.105 150.825 149.052 149.972 148.292C149.119 147.519 147.925 147.132 146.392 147.132C144.872 147.132 143.619 147.519 142.632 148.292C141.645 149.052 141.079 150.105 140.932 151.452ZM168.452 164.452C166.492 164.452 164.752 163.999 163.232 163.092C161.725 162.185 160.538 160.932 159.672 159.332C158.805 157.732 158.372 155.905 158.372 153.852C158.372 152.305 158.618 150.885 159.112 149.592C159.605 148.299 160.298 147.179 161.192 146.232C162.098 145.285 163.165 144.552 164.392 144.032C165.632 143.512 166.985 143.252 168.452 143.252C170.385 143.252 172.012 143.665 173.332 144.492C174.652 145.319 175.638 146.392 176.292 147.712L175.572 148.812V143.852H180.072V163.852H175.572V158.892L176.292 159.992C175.638 161.312 174.652 162.385 173.332 163.212C172.012 164.039 170.385 164.452 168.452 164.452ZM169.212 159.972C170.318 159.972 171.305 159.725 172.172 159.232C173.038 158.725 173.725 158.019 174.232 157.112C174.738 156.192 174.992 155.105 174.992 153.852C174.992 152.599 174.738 151.512 174.232 150.592C173.725 149.672 173.038 148.965 172.172 148.472C171.305 147.979 170.318 147.732 169.212 147.732C168.105 147.732 167.112 147.979 166.232 148.472C165.365 148.965 164.678 149.672 164.172 150.592C163.678 151.512 163.432 152.599 163.432 153.852C163.432 155.105 163.678 156.192 164.172 157.112C164.678 158.019 165.365 158.725 166.232 159.232C167.112 159.725 168.105 159.972 169.212 159.972ZM193.729 164.452C191.676 164.452 190.049 163.865 188.849 162.692C187.649 161.519 187.049 159.745 187.049 157.372V138.052H192.169V143.852H197.429V148.012H192.169V156.352C192.169 157.632 192.422 158.539 192.929 159.072C193.436 159.592 194.136 159.852 195.029 159.852C195.482 159.852 195.909 159.799 196.309 159.692C196.722 159.585 197.102 159.445 197.449 159.272L198.249 163.352C197.662 163.659 196.976 163.919 196.189 164.132C195.402 164.345 194.582 164.452 193.729 164.452ZM182.829 148.012V143.852H187.629V148.012H182.829ZM211.2 163.852V135.852H216.22L227.38 154.132L225.34 154.152L236.04 135.852H241V163.852H235.94L236.02 142.652L236.98 142.992L227.94 158.072H224.28L215.02 142.992L215.88 142.652L215.96 163.852H211.2ZM255.095 164.452C253.135 164.452 251.395 163.999 249.875 163.092C248.369 162.185 247.182 160.932 246.315 159.332C245.449 157.732 245.015 155.905 245.015 153.852C245.015 152.305 245.262 150.885 245.755 149.592C246.249 148.299 246.942 147.179 247.835 146.232C248.742 145.285 249.809 144.552 251.035 144.032C252.275 143.512 253.629 143.252 255.095 143.252C257.029 143.252 258.655 143.665 259.975 144.492C261.295 145.319 262.282 146.392 262.935 147.712L262.215 148.812V143.852H266.715V163.852H262.215V158.892L262.935 159.992C262.282 161.312 261.295 162.385 259.975 163.212C258.655 164.039 257.029 164.452 255.095 164.452ZM255.855 159.972C256.962 159.972 257.949 159.725 258.815 159.232C259.682 158.725 260.369 158.019 260.875 157.112C261.382 156.192 261.635 155.105 261.635 153.852C261.635 152.599 261.382 151.512 260.875 150.592C260.369 149.672 259.682 148.965 258.815 148.472C257.949 147.979 256.962 147.732 255.855 147.732C254.749 147.732 253.755 147.979 252.875 148.472C252.009 148.965 251.322 149.672 250.815 150.592C250.322 151.512 250.075 152.599 250.075 153.852C250.075 155.105 250.322 156.192 250.815 157.112C251.322 158.019 252.009 158.725 252.875 159.232C253.755 159.725 254.749 159.972 255.855 159.972ZM271.833 163.852V143.852H276.953V146.252C277.753 145.199 278.686 144.439 279.753 143.972C280.833 143.492 281.959 143.252 283.133 143.252C284.973 143.252 286.493 143.619 287.693 144.352C288.906 145.085 289.806 146.025 290.393 147.172C290.979 148.319 291.273 149.519 291.273 150.772V163.852H286.153V152.372C286.153 151.012 285.759 149.932 284.973 149.132C284.186 148.332 283.086 147.932 281.673 147.932C280.753 147.932 279.933 148.139 279.213 148.552C278.506 148.952 277.953 149.519 277.553 150.252C277.153 150.985 276.953 151.832 276.953 152.792V163.852H271.833ZM304.589 164.452C302.629 164.452 300.889 163.999 299.369 163.092C297.862 162.185 296.676 160.932 295.809 159.332C294.942 157.732 294.509 155.905 294.509 153.852C294.509 152.305 294.756 150.885 295.249 149.592C295.742 148.299 296.436 147.179 297.329 146.232C298.236 145.285 299.302 144.552 300.529 144.032C301.769 143.512 303.122 143.252 304.589 143.252C306.522 143.252 308.149 143.665 309.469 144.492C310.789 145.319 311.776 146.392 312.429 147.712L311.709 148.812V143.852H316.209V163.852H311.709V158.892L312.429 159.992C311.776 161.312 310.789 162.385 309.469 163.212C308.149 164.039 306.522 164.452 304.589 164.452ZM305.349 159.972C306.456 159.972 307.442 159.725 308.309 159.232C309.176 158.725 309.862 158.019 310.369 157.112C310.876 156.192 311.129 155.105 311.129 153.852C311.129 152.599 310.876 151.512 310.369 150.592C309.862 149.672 309.176 148.965 308.309 148.472C307.442 147.979 306.456 147.732 305.349 147.732C304.242 147.732 303.249 147.979 302.369 148.472C301.502 148.965 300.816 149.672 300.309 150.592C299.816 151.512 299.569 152.599 299.569 153.852C299.569 155.105 299.816 156.192 300.309 157.112C300.816 158.019 301.502 158.725 302.369 159.232C303.249 159.725 304.242 159.972 305.349 159.972ZM330.087 172.852C328.727 172.852 327.393 172.719 326.087 172.452C324.793 172.199 323.573 171.772 322.427 171.172L323.607 167.012C324.607 167.492 325.627 167.845 326.667 168.072C327.707 168.299 328.747 168.412 329.787 168.412C332 168.412 333.687 167.899 334.847 166.872C336.007 165.859 336.587 164.485 336.587 162.752V158.372L337.267 159.472C336.653 160.779 335.7 161.839 334.407 162.652C333.113 163.452 331.493 163.852 329.547 163.852C327.56 163.852 325.82 163.405 324.327 162.512C322.833 161.605 321.667 160.379 320.827 158.832C320 157.272 319.587 155.512 319.587 153.552C319.587 152.072 319.827 150.705 320.307 149.452C320.787 148.199 321.467 147.112 322.347 146.192C323.227 145.259 324.273 144.539 325.487 144.032C326.713 143.512 328.067 143.252 329.547 143.252C331.493 143.252 333.113 143.652 334.407 144.452C335.7 145.239 336.653 146.299 337.267 147.632L336.587 148.732V143.832H341.287V161.732C341.287 165.252 340.34 167.985 338.447 169.932C336.553 171.879 333.767 172.852 330.087 172.852ZM330.427 159.472C331.56 159.472 332.56 159.225 333.427 158.732C334.293 158.239 334.973 157.552 335.467 156.672C335.96 155.779 336.207 154.739 336.207 153.552C336.207 152.352 335.96 151.312 335.467 150.432C334.973 149.539 334.293 148.852 333.427 148.372C332.56 147.879 331.56 147.632 330.427 147.632C329.307 147.632 328.307 147.879 327.427 148.372C326.56 148.852 325.88 149.539 325.387 150.432C324.893 151.312 324.647 152.352 324.647 153.552C324.647 154.739 324.893 155.779 325.387 156.672C325.88 157.552 326.56 158.239 327.427 158.732C328.307 159.225 329.307 159.472 330.427 159.472ZM355.665 164.452C353.492 164.452 351.585 164.012 349.945 163.132C348.305 162.239 347.025 160.999 346.105 159.412C345.198 157.825 344.745 155.979 344.745 153.872C344.745 152.325 345.005 150.905 345.525 149.612C346.058 148.319 346.805 147.199 347.765 146.252C348.738 145.292 349.872 144.552 351.165 144.032C352.472 143.512 353.898 143.252 355.445 143.252C357.125 143.252 358.625 143.552 359.945 144.152C361.265 144.739 362.358 145.572 363.225 146.652C364.105 147.719 364.718 148.972 365.065 150.412C365.425 151.839 365.472 153.399 365.205 155.092H349.565C349.552 156.145 349.798 157.065 350.305 157.852C350.825 158.639 351.558 159.259 352.505 159.712C353.465 160.152 354.592 160.372 355.885 160.372C357.032 160.372 358.132 160.205 359.185 159.872C360.238 159.539 361.218 159.045 362.125 158.392L363.925 161.972C363.298 162.479 362.518 162.919 361.585 163.292C360.652 163.665 359.665 163.952 358.625 164.152C357.598 164.352 356.612 164.452 355.665 164.452ZM349.865 151.452H360.245C360.205 150.105 359.758 149.052 358.905 148.292C358.052 147.519 356.858 147.132 355.325 147.132C353.805 147.132 352.552 147.519 351.565 148.292C350.578 149.052 350.012 150.105 349.865 151.452ZM368.789 163.852V143.852H373.909V146.512C374.429 145.765 375.029 145.152 375.709 144.672C376.389 144.192 377.116 143.839 377.889 143.612C378.662 143.372 379.442 143.252 380.229 143.252C381.802 143.252 383.129 143.599 384.209 144.292C385.289 144.985 386.042 145.892 386.469 147.012C387.389 145.625 388.509 144.652 389.829 144.092C391.149 143.532 392.502 143.252 393.889 143.252C395.769 143.252 397.262 143.619 398.369 144.352C399.476 145.085 400.269 146.025 400.749 147.172C401.229 148.319 401.469 149.519 401.469 150.772V163.852H396.349V152.252C396.349 150.959 395.996 149.919 395.289 149.132C394.596 148.332 393.576 147.932 392.229 147.932C391.362 147.932 390.582 148.119 389.889 148.492C389.209 148.865 388.669 149.385 388.269 150.052C387.882 150.705 387.689 151.452 387.689 152.292V163.852H382.569V152.252C382.569 150.959 382.216 149.919 381.509 149.132C380.816 148.332 379.796 147.932 378.449 147.932C377.582 147.932 376.802 148.119 376.109 148.492C375.429 148.865 374.889 149.385 374.489 150.052C374.102 150.705 373.909 151.452 373.909 152.292V163.852H368.789ZM415.627 164.452C413.454 164.452 411.547 164.012 409.907 163.132C408.267 162.239 406.987 160.999 406.067 159.412C405.161 157.825 404.707 155.979 404.707 153.872C404.707 152.325 404.967 150.905 405.487 149.612C406.021 148.319 406.767 147.199 407.727 146.252C408.701 145.292 409.834 144.552 411.127 144.032C412.434 143.512 413.861 143.252 415.407 143.252C417.087 143.252 418.587 143.552 419.907 144.152C421.227 144.739 422.321 145.572 423.187 146.652C424.067 147.719 424.681 148.972 425.027 150.412C425.387 151.839 425.434 153.399 425.167 155.092H409.527C409.514 156.145 409.761 157.065 410.267 157.852C410.787 158.639 411.521 159.259 412.467 159.712C413.427 160.152 414.554 160.372 415.847 160.372C416.994 160.372 418.094 160.205 419.147 159.872C420.201 159.539 421.181 159.045 422.087 158.392L423.887 161.972C423.261 162.479 422.481 162.919 421.547 163.292C420.614 163.665 419.627 163.952 418.587 164.152C417.561 164.352 416.574 164.452 415.627 164.452ZM409.827 151.452H420.207C420.167 150.105 419.721 149.052 418.867 148.292C418.014 147.519 416.821 147.132 415.287 147.132C413.767 147.132 412.514 147.519 411.527 148.292C410.541 149.052 409.974 150.105 409.827 151.452ZM428.752 163.852V143.852H433.872V146.252C434.672 145.199 435.605 144.439 436.672 143.972C437.752 143.492 438.878 143.252 440.052 143.252C441.892 143.252 443.412 143.619 444.612 144.352C445.825 145.085 446.725 146.025 447.312 147.172C447.898 148.319 448.192 149.519 448.192 150.772V163.852H443.072V152.372C443.072 151.012 442.678 149.932 441.892 149.132C441.105 148.332 440.005 147.932 438.592 147.932C437.672 147.932 436.852 148.139 436.132 148.552C435.425 148.952 434.872 149.519 434.472 150.252C434.072 150.985 433.872 151.832 433.872 152.792V163.852H428.752ZM461.257 164.452C459.204 164.452 457.577 163.865 456.377 162.692C455.177 161.519 454.577 159.745 454.577 157.372V138.052H459.697V143.852H464.957V148.012H459.697V156.352C459.697 157.632 459.95 158.539 460.457 159.072C460.964 159.592 461.664 159.852 462.557 159.852C463.01 159.852 463.437 159.799 463.837 159.692C464.25 159.585 464.63 159.445 464.977 159.272L465.777 163.352C465.19 163.659 464.504 163.919 463.717 164.132C462.93 164.345 462.11 164.452 461.257 164.452ZM450.357 148.012V143.852H455.157V148.012H450.357ZM478.728 163.852V135.852H483.928V149.392L494.808 135.852H501.248L490.968 148.592L502.728 163.852H496.028L487.548 152.552L483.928 156.792V163.852H478.728ZM505.63 163.852V143.852H510.75V163.852H505.63ZM508.19 140.492C507.31 140.492 506.55 140.212 505.91 139.652C505.27 139.092 504.95 138.352 504.95 137.432C504.95 136.512 505.27 135.772 505.91 135.212C506.55 134.652 507.31 134.372 508.19 134.372C509.07 134.372 509.83 134.652 510.47 135.212C511.11 135.772 511.43 136.512 511.43 137.432C511.43 138.352 511.11 139.092 510.47 139.652C509.83 140.212 509.07 140.492 508.19 140.492ZM524.385 164.452C522.332 164.452 520.705 163.865 519.505 162.692C518.305 161.519 517.705 159.745 517.705 157.372V138.052H522.825V143.852H528.085V148.012H522.825V156.352C522.825 157.632 523.079 158.539 523.585 159.072C524.092 159.592 524.792 159.852 525.685 159.852C526.139 159.852 526.565 159.799 526.965 159.692C527.379 159.585 527.759 159.445 528.105 159.272L528.905 163.352C528.319 163.659 527.632 163.919 526.845 164.132C526.059 164.345 525.239 164.452 524.385 164.452ZM513.485 148.012V143.852H518.285V148.012H513.485ZM535.007 164.452C534.074 164.452 533.267 164.159 532.587 163.572C531.907 162.972 531.567 162.179 531.567 161.192C531.567 160.525 531.72 159.945 532.027 159.452C532.347 158.959 532.767 158.579 533.287 158.312C533.807 158.045 534.38 157.912 535.007 157.912C535.954 157.912 536.76 158.212 537.427 158.812C538.107 159.399 538.447 160.192 538.447 161.192C538.447 161.845 538.287 162.419 537.967 162.912C537.66 163.405 537.247 163.785 536.727 164.052C536.207 164.319 535.634 164.452 535.007 164.452Z" fill="white"/>
<path d="M76.1753 211.852V183.852H81.3753V207.092H93.2553V211.852H76.1753ZM106.027 212.452C103.854 212.452 101.947 212.012 100.307 211.132C98.6674 210.239 97.3874 208.999 96.4674 207.412C95.5608 205.825 95.1074 203.979 95.1074 201.872C95.1074 200.325 95.3674 198.905 95.8874 197.612C96.4208 196.319 97.1674 195.199 98.1274 194.252C99.1008 193.292 100.234 192.552 101.527 192.032C102.834 191.512 104.261 191.252 105.807 191.252C107.487 191.252 108.987 191.552 110.307 192.152C111.627 192.739 112.721 193.572 113.587 194.652C114.467 195.719 115.081 196.972 115.427 198.412C115.787 199.839 115.834 201.399 115.567 203.092H99.9274C99.9141 204.145 100.161 205.065 100.667 205.852C101.187 206.639 101.921 207.259 102.867 207.712C103.827 208.152 104.954 208.372 106.247 208.372C107.394 208.372 108.494 208.205 109.547 207.872C110.601 207.539 111.581 207.045 112.487 206.392L114.287 209.972C113.661 210.479 112.881 210.919 111.947 211.292C111.014 211.665 110.027 211.952 108.987 212.152C107.961 212.352 106.974 212.452 106.027 212.452ZM100.227 199.452H110.607C110.567 198.105 110.121 197.052 109.267 196.292C108.414 195.519 107.221 195.132 105.687 195.132C104.167 195.132 102.914 195.519 101.927 196.292C100.941 197.052 100.374 198.105 100.227 199.452ZM127.747 212.452C125.787 212.452 124.047 211.999 122.527 211.092C121.02 210.185 119.833 208.932 118.967 207.332C118.1 205.732 117.667 203.905 117.667 201.852C117.667 200.305 117.913 198.885 118.407 197.592C118.9 196.299 119.593 195.179 120.487 194.232C121.393 193.285 122.46 192.552 123.687 192.032C124.927 191.512 126.28 191.252 127.747 191.252C129.68 191.252 131.307 191.665 132.627 192.492C133.947 193.319 134.933 194.392 135.587 195.712L134.867 196.812V191.852H139.367V211.852H134.867V206.892L135.587 207.992C134.933 209.312 133.947 210.385 132.627 211.212C131.307 212.039 129.68 212.452 127.747 212.452ZM128.507 207.972C129.613 207.972 130.6 207.725 131.467 207.232C132.333 206.725 133.02 206.019 133.527 205.112C134.033 204.192 134.287 203.105 134.287 201.852C134.287 200.599 134.033 199.512 133.527 198.592C133.02 197.672 132.333 196.965 131.467 196.472C130.6 195.979 129.613 195.732 128.507 195.732C127.4 195.732 126.407 195.979 125.527 196.472C124.66 196.965 123.973 197.672 123.467 198.592C122.973 199.512 122.727 200.599 122.727 201.852C122.727 203.105 122.973 204.192 123.467 205.112C123.973 206.019 124.66 206.725 125.527 207.232C126.407 207.725 127.4 207.972 128.507 207.972ZM144.484 211.852V191.852H149.604V194.472C150.298 193.299 151.164 192.465 152.204 191.972C153.258 191.479 154.391 191.232 155.604 191.232C156.031 191.232 156.424 191.252 156.784 191.292C157.144 191.332 157.491 191.392 157.824 191.472L157.184 196.752C156.771 196.605 156.338 196.499 155.884 196.432C155.444 196.352 155.004 196.312 154.564 196.312C153.124 196.312 151.938 196.745 151.004 197.612C150.071 198.465 149.604 199.665 149.604 201.212V211.852H144.484ZM160.559 211.852V191.852H165.679V194.252C166.479 193.199 167.413 192.439 168.479 191.972C169.559 191.492 170.686 191.252 171.859 191.252C173.699 191.252 175.219 191.619 176.419 192.352C177.633 193.085 178.533 194.025 179.119 195.172C179.706 196.319 179.999 197.519 179.999 198.772V211.852H174.879V200.372C174.879 199.012 174.486 197.932 173.699 197.132C172.913 196.332 171.813 195.932 170.399 195.932C169.479 195.932 168.659 196.139 167.939 196.552C167.233 196.952 166.679 197.519 166.279 198.252C165.879 198.985 165.679 199.832 165.679 200.792V211.852H160.559ZM202.125 212.452C200.165 212.452 198.425 211.999 196.905 211.092C195.398 210.185 194.212 208.932 193.345 207.332C192.478 205.732 192.045 203.905 192.045 201.852C192.045 200.305 192.292 198.885 192.785 197.592C193.278 196.299 193.972 195.179 194.865 194.232C195.772 193.285 196.838 192.552 198.065 192.032C199.305 191.512 200.658 191.252 202.125 191.252C204.058 191.252 205.685 191.665 207.005 192.492C208.325 193.319 209.312 194.392 209.965 195.712L209.245 196.812V191.852H213.745V211.852H209.245V206.892L209.965 207.992C209.312 209.312 208.325 210.385 207.005 211.212C205.685 212.039 204.058 212.452 202.125 212.452ZM202.885 207.972C203.992 207.972 204.978 207.725 205.845 207.232C206.712 206.725 207.398 206.019 207.905 205.112C208.412 204.192 208.665 203.105 208.665 201.852C208.665 200.599 208.412 199.512 207.905 198.592C207.398 197.672 206.712 196.965 205.845 196.472C204.978 195.979 203.992 195.732 202.885 195.732C201.778 195.732 200.785 195.979 199.905 196.472C199.038 196.965 198.352 197.672 197.845 198.592C197.352 199.512 197.105 200.599 197.105 201.852C197.105 203.105 197.352 204.192 197.845 205.112C198.352 206.019 199.038 206.725 199.905 207.232C200.785 207.725 201.778 207.972 202.885 207.972ZM218.862 211.852V191.852H223.982V194.252C224.782 193.199 225.716 192.439 226.782 191.972C227.862 191.492 228.989 191.252 230.162 191.252C232.002 191.252 233.522 191.619 234.722 192.352C235.936 193.085 236.836 194.025 237.422 195.172C238.009 196.319 238.302 197.519 238.302 198.772V211.852H233.182V200.372C233.182 199.012 232.789 197.932 232.002 197.132C231.216 196.332 230.116 195.932 228.702 195.932C227.782 195.932 226.962 196.139 226.242 196.552C225.536 196.952 224.982 197.519 224.582 198.252C224.182 198.985 223.982 199.832 223.982 200.792V211.852H218.862ZM251.539 212.452C249.592 212.452 247.865 211.999 246.359 211.092C244.852 210.185 243.672 208.932 242.819 207.332C241.965 205.732 241.539 203.905 241.539 201.852C241.539 200.372 241.779 198.992 242.259 197.712C242.752 196.419 243.445 195.292 244.339 194.332C245.245 193.359 246.312 192.605 247.539 192.072C248.765 191.525 250.125 191.252 251.619 191.252C253.339 191.252 254.845 191.599 256.139 192.292C257.432 192.972 258.532 193.939 259.439 195.192L258.319 196.352V183.052H263.439V211.852H258.919V206.912L259.639 208.072C258.959 209.339 257.945 210.385 256.599 211.212C255.252 212.039 253.565 212.452 251.539 212.452ZM252.479 207.972C253.599 207.972 254.599 207.725 255.479 207.232C256.372 206.725 257.072 206.019 257.579 205.112C258.085 204.192 258.339 203.105 258.339 201.852C258.339 200.599 258.085 199.512 257.579 198.592C257.072 197.672 256.379 196.965 255.499 196.472C254.619 195.979 253.612 195.732 252.479 195.732C251.345 195.732 250.332 195.979 249.439 196.472C248.559 196.965 247.865 197.672 247.359 198.592C246.865 199.512 246.619 200.599 246.619 201.852C246.619 203.105 246.872 204.192 247.379 205.112C247.885 206.019 248.579 206.725 249.459 207.232C250.339 207.725 251.345 207.972 252.479 207.972ZM291.881 212.452C289.681 212.452 287.628 212.112 285.721 211.432C283.828 210.752 282.168 209.779 280.741 208.512C279.314 207.245 278.201 205.719 277.401 203.932C276.601 202.132 276.201 200.119 276.201 197.892C276.201 195.665 276.581 193.652 277.341 191.852C278.114 190.052 279.194 188.512 280.581 187.232C281.968 185.952 283.588 184.972 285.441 184.292C287.294 183.599 289.308 183.252 291.481 183.252C292.481 183.252 293.508 183.332 294.561 183.492C295.614 183.652 296.661 183.919 297.701 184.292C298.754 184.665 299.761 185.179 300.721 185.832L298.501 189.892C297.501 189.252 296.428 188.779 295.281 188.472C294.134 188.152 292.941 187.992 291.701 187.992C290.141 187.992 288.734 188.219 287.481 188.672C286.228 189.125 285.161 189.785 284.281 190.652C283.401 191.505 282.728 192.545 282.261 193.772C281.794 194.985 281.561 196.359 281.561 197.892C281.561 200.039 282.014 201.859 282.921 203.352C283.841 204.845 285.094 205.979 286.681 206.752C288.281 207.512 290.108 207.892 292.161 207.892C293.108 207.892 293.974 207.805 294.761 207.632C295.548 207.445 296.201 207.239 296.721 207.012V200.852H290.581V196.612H301.341V210.092C300.568 210.572 299.621 210.992 298.501 211.352C297.394 211.712 296.248 211.985 295.061 212.172C293.888 212.359 292.828 212.452 291.881 212.452ZM306.639 211.852V191.852H311.759V194.472C312.452 193.299 313.319 192.465 314.359 191.972C315.412 191.479 316.546 191.232 317.759 191.232C318.186 191.232 318.579 191.252 318.939 191.292C319.299 191.332 319.646 191.392 319.979 191.472L319.339 196.752C318.926 196.605 318.492 196.499 318.039 196.432C317.599 196.352 317.159 196.312 316.719 196.312C315.279 196.312 314.092 196.745 313.159 197.612C312.226 198.465 311.759 199.665 311.759 201.212V211.852H306.639ZM331.583 212.452C329.45 212.452 327.557 211.972 325.903 211.012C324.263 210.039 322.977 208.752 322.043 207.152C321.11 205.539 320.643 203.772 320.643 201.852C320.643 200.439 320.91 199.092 321.443 197.812C321.977 196.532 322.73 195.405 323.703 194.432C324.69 193.445 325.85 192.672 327.183 192.112C328.517 191.539 329.983 191.252 331.583 191.252C333.703 191.252 335.583 191.732 337.223 192.692C338.877 193.652 340.17 194.939 341.103 196.552C342.05 198.165 342.523 199.932 342.523 201.852C342.523 203.265 342.25 204.612 341.703 205.892C341.17 207.159 340.417 208.285 339.443 209.272C338.47 210.259 337.317 211.039 335.983 211.612C334.65 212.172 333.183 212.452 331.583 212.452ZM331.563 207.972C332.697 207.972 333.703 207.725 334.583 207.232C335.477 206.725 336.177 206.019 336.683 205.112C337.19 204.192 337.443 203.105 337.443 201.852C337.443 200.599 337.19 199.512 336.683 198.592C336.177 197.672 335.483 196.965 334.603 196.472C333.723 195.979 332.717 195.732 331.583 195.732C330.45 195.732 329.437 195.979 328.543 196.472C327.663 196.965 326.97 197.672 326.463 198.592C325.97 199.512 325.723 200.599 325.723 201.852C325.723 203.105 325.977 204.192 326.483 205.112C326.99 206.019 327.683 206.725 328.563 207.232C329.443 207.725 330.443 207.972 331.563 207.972ZM349.462 211.852L343.282 191.852H348.322L352.242 205.952L356.602 191.852H361.482L365.602 205.952L369.562 191.852H374.382L368.202 211.852H363.002L358.922 198.252L354.662 211.852H349.462ZM377.951 212.452C377.018 212.452 376.211 212.159 375.531 211.572C374.851 210.972 374.511 210.179 374.511 209.192C374.511 208.525 374.664 207.945 374.971 207.452C375.291 206.959 375.711 206.579 376.231 206.312C376.751 206.045 377.324 205.912 377.951 205.912C378.898 205.912 379.704 206.212 380.371 206.812C381.051 207.399 381.391 208.192 381.391 209.192C381.391 209.845 381.231 210.419 380.911 210.912C380.604 211.405 380.191 211.785 379.671 212.052C379.151 212.319 378.578 212.452 377.951 212.452Z" fill="url(#paint1_linear_4674_13007)"/>
<defs>
<radialGradient id="paint0_radial_4674_13007" cx="0" cy="0" r="1" gradientTransform="matrix(-440.5 -309 546.942 -194.686 635.5 394)" gradientUnits="userSpaceOnUse">
<stop offset="0.0200256" stop-color="#00F1BD"/>
<stop offset="0.320026" stop-color="#0FBCFF"/>
<stop offset="0.582321" stop-color="#0125DC"/>
<stop offset="0.796008" stop-color="#071578"/>
<stop offset="1" stop-color="#0D0D0D"/>
</radialGradient>
<linearGradient id="paint1_linear_4674_13007" x1="186.5" y1="161.5" x2="370.555" y2="267.783" gradientUnits="userSpaceOnUse">
<stop offset="0.348424" stop-color="#54CBFF"/>
<stop offset="1" stop-color="#24507B"/>
</linearGradient>
</defs>
</svg>
