<svg width="586" height="375" viewBox="0 0 586 375" fill="none" xmlns="http://www.w3.org/2000/svg">
<g clip-path="url(#clip0_4737_5741)">
<rect width="585.486" height="374.112" fill="url(#paint0_linear_4737_5741)"/>
<g clip-path="url(#clip1_4737_5741)">
<path fill-rule="evenodd" clip-rule="evenodd" d="M49.9972 44.721C48.0459 47.1537 46.8787 50.2422 46.8787 53.6034C46.8787 56.9645 48.0459 60.0531 49.9972 62.4857V44.721ZM51.9818 42.6963V64.5105C52.9099 65.2859 53.9385 65.9452 55.0452 66.4658V40.741C53.9385 41.2616 52.9099 41.9208 51.9818 42.6963ZM57.0298 39.984V67.2228C58.0107 67.5144 59.0359 67.703 60.093 67.7759V39.4309C59.0359 39.5038 58.0107 39.6924 57.0298 39.984ZM62.0776 39.4309V42.5404H69.999C67.8024 40.7684 65.0672 39.6371 62.0776 39.4309ZM72.0134 44.525H62.0776V47.5903H73.9604C73.4425 46.4834 72.7861 45.4541 72.0134 44.525ZM74.7127 49.575H62.0776V52.6383H75.2597C75.1888 51.5813 75.0023 50.556 74.7127 49.575ZM75.2559 54.6229H62.0776V67.7759C63.1861 67.6994 64.2596 67.4958 65.2837 67.1795V57.8097H74.659C74.9741 56.7916 75.1778 55.7246 75.2559 54.6229ZM73.8757 59.7943H67.2684V61.6246H69.253V63.6092H67.2684V66.3976C70.1452 65.0047 72.4811 62.6702 73.8757 59.7943ZM44.894 53.6034C44.894 44.6612 52.1431 37.4121 61.0853 37.4121C70.0275 37.4121 77.2766 44.6612 77.2766 53.6034C77.2766 62.5456 70.0275 69.7947 61.0853 69.7947C52.1431 69.7947 44.894 62.5456 44.894 53.6034Z" fill="white"/>
<path d="M161.667 63.5721V49.8078H164.251V51.6618C164.841 50.8565 165.529 50.276 166.315 49.9202C167.102 49.5644 167.907 49.3865 168.731 49.3865C169.977 49.3865 171.007 49.6393 171.821 50.1449C172.645 50.6412 173.259 51.2779 173.661 52.055C174.073 52.8322 174.279 53.6281 174.279 54.4427V63.5721H171.695V55.2433C171.695 54.204 171.372 53.3706 170.725 52.7433C170.08 52.1066 169.199 51.7882 168.085 51.7882C167.355 51.7882 166.699 51.9521 166.119 52.2798C165.548 52.5981 165.094 53.0523 164.756 53.6422C164.419 54.2321 164.251 54.9109 164.251 55.6787V63.5721H161.667Z" fill="white"/>
<path d="M151.294 63.9937C149.908 63.9937 148.681 63.6706 147.614 63.0245C146.547 62.3785 145.713 61.5077 145.114 60.4122C144.515 59.3073 144.215 58.0666 144.215 56.6902C144.215 55.6602 144.388 54.7005 144.735 53.8109C145.081 52.9214 145.568 52.1489 146.195 51.4935C146.823 50.8287 147.567 50.3137 148.429 49.9485C149.299 49.574 150.255 49.3867 151.294 49.3867C152.68 49.3867 153.832 49.677 154.749 50.2575C155.667 50.8381 156.383 51.5778 156.898 52.4767L156.519 53.0385V49.8081H158.878V63.5723H156.519V60.3419L156.898 60.8897C156.383 61.7886 155.667 62.533 154.749 63.1229C153.832 63.7034 152.68 63.9937 151.294 63.9937ZM151.575 61.6622C152.492 61.6622 153.307 61.4608 154.019 61.0583C154.73 60.6463 155.287 60.0704 155.69 59.3307C156.102 58.5816 156.308 57.7014 156.308 56.6902C156.308 55.6696 156.102 54.7894 155.69 54.0497C155.287 53.3006 154.73 52.7248 154.019 52.3222C153.307 51.9195 152.492 51.7182 151.575 51.7182C150.657 51.7182 149.843 51.9195 149.131 52.3222C148.419 52.7248 147.857 53.3006 147.446 54.0497C147.033 54.7894 146.828 55.6696 146.828 56.6902C146.828 57.7014 147.033 58.5816 147.446 59.3307C147.857 60.0704 148.419 60.6463 149.131 61.0583C149.843 61.4608 150.657 61.6622 151.575 61.6622Z" fill="white"/>
<path d="M136.15 63.5719V49.8077H138.735V51.8021C139.287 50.9032 139.943 50.2759 140.701 49.9201C141.469 49.5549 142.284 49.3723 143.145 49.3723C143.416 49.3723 143.678 49.3864 143.932 49.4144C144.184 49.4425 144.432 49.48 144.676 49.5268L144.297 52.2094C144.034 52.1345 143.767 52.0783 143.496 52.0409C143.225 51.9941 142.957 51.9707 142.695 51.9707C141.544 51.9707 140.593 52.3311 139.844 53.0521C139.105 53.7637 138.735 54.7188 138.735 55.9173V63.5719H136.15Z" fill="white"/>
<path d="M125.921 69.8926C125.031 69.8926 124.137 69.8037 123.238 69.6258C122.34 69.4479 121.483 69.1576 120.668 68.755L121.356 66.5499C122.096 66.8963 122.845 67.1538 123.603 67.3224C124.362 67.4909 125.106 67.5752 125.837 67.5752C127.494 67.5752 128.758 67.1679 129.629 66.3533C130.509 65.5386 130.949 64.4665 130.949 63.1369V60.1453L131.314 60.6931C130.809 61.6013 130.102 62.3457 129.193 62.9262C128.285 63.4974 127.143 63.783 125.766 63.783C124.362 63.783 123.131 63.4647 122.073 62.8279C121.014 62.1818 120.19 61.3157 119.601 60.2296C119.011 59.1434 118.716 57.9262 118.716 56.5778C118.716 55.5759 118.884 54.6396 119.221 53.7688C119.558 52.898 120.036 52.1349 120.654 51.4795C121.282 50.8147 122.026 50.2997 122.887 49.9345C123.749 49.5693 124.708 49.3867 125.766 49.3867C127.143 49.3867 128.285 49.6723 129.193 50.2435C130.102 50.8147 130.809 51.5544 131.314 52.4626L130.949 53.0244V49.794H133.379V62.4908C133.379 64.813 132.751 66.6248 131.497 67.9263C130.251 69.2372 128.393 69.8926 125.921 69.8926ZM126.075 61.4796C126.993 61.4796 127.808 61.2783 128.519 60.8756C129.24 60.473 129.802 59.9065 130.205 59.1762C130.607 58.4458 130.809 57.5797 130.809 56.5778C130.809 55.5853 130.607 54.7239 130.205 53.9935C129.802 53.2538 129.24 52.6826 128.519 52.28C127.808 51.8774 126.993 51.6761 126.075 51.6761C125.148 51.6761 124.329 51.8774 123.617 52.28C122.906 52.6826 122.344 53.2538 121.932 53.9935C121.53 54.7239 121.328 55.5853 121.328 56.5778C121.328 57.5797 121.53 58.4458 121.932 59.1762C122.344 59.9065 122.906 60.473 123.617 60.8756C124.329 61.2783 125.148 61.4796 126.075 61.4796Z" fill="white"/>
<path d="M114.585 63.5721V49.8078H117.169V63.5721H114.585ZM115.877 47.2095C115.39 47.2095 114.968 47.0457 114.613 46.7179C114.257 46.3902 114.079 45.9735 114.079 45.4679C114.079 44.9623 114.257 44.5503 114.613 44.2319C114.968 43.9042 115.39 43.7404 115.877 43.7404C116.373 43.7404 116.794 43.9042 117.141 44.2319C117.496 44.5503 117.675 44.9623 117.675 45.4679C117.675 45.9735 117.496 46.3902 117.141 46.7179C116.794 47.0457 116.373 47.2095 115.877 47.2095Z" fill="white"/>
<path d="M109.223 63.5729V43.3479H111.808V63.5729H109.223Z" fill="white"/>
<path d="M103.858 63.5721V49.8079H106.442V63.5721H103.858ZM105.15 47.2095C104.663 47.2095 104.242 47.0457 103.886 46.7179C103.53 46.3902 103.353 45.9735 103.353 45.4679C103.353 44.9623 103.53 44.5503 103.886 44.2319C104.242 43.9042 104.663 43.7404 105.15 43.7404C105.646 43.7404 106.068 43.9042 106.414 44.2319C106.77 44.5503 106.948 44.9623 106.948 45.4679C106.948 45.9735 106.77 46.3902 106.414 46.7179C106.068 47.0457 105.646 47.2095 105.15 47.2095Z" fill="white"/>
<path d="M89.7646 63.5732V43.91H101.647V46.3398H92.4054V52.5197H96.7605V54.8933H92.4054V63.5732H89.7646Z" fill="white"/>
</g>
<path opacity="0.03" fill-rule="evenodd" clip-rule="evenodd" d="M481.018 -47.6044C445.205 -43.6716 410.439 -27.9764 382.981 -0.518589C355.524 26.9392 339.828 61.7053 335.896 97.5181L481.018 -47.6044ZM513.771 -47.9319L335.568 130.271C336.815 144.188 339.832 157.976 344.62 171.269L554.769 -38.8799C541.476 -43.6677 527.688 -46.6851 513.771 -47.9319ZM577.166 -28.8512L354.649 193.666C360.279 204.061 367.114 213.977 375.153 223.208L606.708 -8.34655C597.477 -16.3859 587.561 -23.2208 577.166 -28.8512ZM622.921 7.8661L597.518 33.2686L662.229 97.9796C658.761 65.559 645.658 33.9739 622.921 7.8661ZM662.473 130.648L581.306 49.4813L556.265 74.522L653.337 171.594C658.15 158.321 661.195 144.55 662.473 130.648ZM643.27 193.953L540.052 90.7347L515.028 115.759L622.714 223.446C630.769 214.232 637.621 204.333 643.27 193.953ZM606.471 239.628L498.815 131.972L391.366 239.421C401.046 247.852 411.48 254.958 422.43 260.739L498.973 184.196L575.56 260.784C586.451 255.042 596.832 247.99 606.471 239.628ZM552.949 270.598L498.973 216.622L484.021 231.574L500.234 247.787L484.021 264L467.808 247.786L445.03 270.565C479.909 282.688 518.063 282.699 552.949 270.598ZM366.769 -16.7313C439.819 -89.7813 558.256 -89.7813 631.306 -16.7313C704.356 56.3187 704.356 174.756 631.306 247.806C558.256 320.856 439.819 320.856 366.769 247.806C293.719 174.756 293.719 56.3187 366.769 -16.7313Z" fill="white"/>
<path d="M52.5161 139.281C51.1631 139.281 49.9721 139.003 48.9433 138.448C47.9145 137.887 47.1133 137.098 46.5396 136.082C45.966 135.059 45.6792 133.859 45.6792 132.481C45.6792 131.477 45.8475 130.558 46.1842 129.722C46.5209 128.886 46.9979 128.163 47.6152 127.552C48.2325 126.935 48.9589 126.461 49.7944 126.131C50.6362 125.794 51.5559 125.625 52.5535 125.625C53.6135 125.625 54.5114 125.76 55.2471 126.028C55.9829 126.296 56.6438 126.673 57.2299 127.159L55.827 129.432C55.4466 129.058 54.9946 128.777 54.4708 128.59C53.9533 128.403 53.3766 128.31 52.7406 128.31C52.0921 128.31 51.5091 128.406 50.9916 128.6C50.4803 128.793 50.0438 129.07 49.6822 129.432C49.3268 129.787 49.0524 130.221 48.8591 130.732C48.6721 131.237 48.5786 131.808 48.5786 132.444C48.5786 133.317 48.7469 134.062 49.0836 134.679C49.4266 135.29 49.9129 135.761 50.5427 136.091C51.1786 136.422 51.9362 136.587 52.8154 136.587C53.4264 136.587 54.025 136.493 54.6111 136.306C55.2035 136.119 55.7615 135.82 56.2853 135.409L57.5573 137.737C56.94 138.211 56.2167 138.588 55.3874 138.869C54.5581 139.143 53.601 139.281 52.5161 139.281ZM65.023 139.281C64.0254 139.281 63.1026 139.109 62.2546 138.766C61.4066 138.417 60.6708 137.934 60.0473 137.316C59.4238 136.699 58.9374 135.976 58.5883 135.147C58.2453 134.317 58.0739 133.419 58.0739 132.453C58.0739 131.48 58.2453 130.579 58.5883 129.75C58.9374 128.921 59.4238 128.198 60.0473 127.58C60.6708 126.963 61.4066 126.483 62.2546 126.14C63.1026 125.797 64.0254 125.625 65.023 125.625C66.0206 125.625 66.9403 125.8 67.7821 126.149C68.6301 126.498 69.3658 126.985 69.9893 127.608C70.6191 128.232 71.1086 128.958 71.4577 129.787C71.8069 130.611 71.9815 131.499 71.9815 132.453C71.9815 133.419 71.8069 134.317 71.4577 135.147C71.1086 135.976 70.6191 136.699 69.9893 137.316C69.3658 137.934 68.6301 138.417 67.7821 138.766C66.9403 139.109 66.0206 139.281 65.023 139.281ZM65.023 136.681C65.6029 136.681 66.1391 136.581 66.6317 136.381C67.1243 136.182 67.5545 135.898 67.9224 135.53C68.2902 135.156 68.5739 134.71 68.7735 134.193C68.9792 133.675 69.0821 133.095 69.0821 132.453C69.0821 131.599 68.9044 130.857 68.549 130.227C68.1936 129.591 67.7104 129.098 67.0993 128.749C66.4883 128.4 65.7962 128.226 65.023 128.226C64.4494 128.226 63.9131 128.325 63.4143 128.525C62.9217 128.724 62.4915 129.008 62.1236 129.376C61.762 129.744 61.4783 130.19 61.2725 130.713C61.073 131.231 60.9732 131.811 60.9732 132.453C60.9732 133.307 61.1509 134.052 61.5063 134.688C61.8617 135.318 62.345 135.808 62.956 136.157C63.5671 136.506 64.2561 136.681 65.023 136.681ZM73.9858 139V125.906H76.6513L81.7486 134.305L80.6543 134.324L85.5178 125.906H88.1646V139H85.4804L85.5271 129.479L86.0228 129.657L82.0198 136.419H80.1306L76.006 129.657L76.4736 129.479L76.5204 139H73.9858ZM90.9838 139V125.906H96.0623C97.0226 125.906 97.8737 126.074 98.6157 126.411C99.3577 126.742 99.9406 127.225 100.365 127.861C100.789 128.491 101.001 129.248 101.001 130.134C101.001 131.038 100.804 131.805 100.411 132.434C100.019 133.058 99.4481 133.535 98.6998 133.865C97.9579 134.19 97.0569 134.352 95.9969 134.352H93.7522V139H90.9838ZM93.7522 132.023H95.9501C96.6672 132.023 97.2252 131.876 97.6243 131.583C98.0296 131.29 98.2322 130.826 98.2322 130.19C98.2322 129.547 98.0264 129.07 97.6149 128.759C97.2034 128.447 96.6547 128.291 95.9688 128.291H93.7522V132.023ZM102.757 139V125.906H111.708V128.319H105.526V131.125H110.763V133.36H105.526V136.559H111.783V139H102.757ZM116.486 139V128.431H112.932V125.906H122.827V128.431H119.273V139H116.486ZM124.46 139V125.906H127.228V139H124.46ZM132.397 139V128.431H128.843V125.906H138.739V128.431H135.185V139H132.397ZM140.371 139V125.906H143.139V139H140.371ZM149.235 139L144.334 125.906H147.458L150.815 135.437L154.098 125.906H157.157L152.331 139H149.235ZM158.365 139V125.906H167.316V128.319H161.133V131.125H166.371V133.36H161.133V136.559H167.39V139H158.365ZM173.765 139V125.906H178.638C179.947 125.906 180.995 126.187 181.78 126.748C182.572 127.303 182.968 128.126 182.968 129.217C182.968 129.622 182.881 129.999 182.706 130.349C182.532 130.698 182.301 131.006 182.014 131.275C181.727 131.536 181.412 131.742 181.069 131.892C181.78 132.129 182.357 132.537 182.8 133.117C183.249 133.697 183.473 134.395 183.473 135.212C183.473 135.973 183.283 136.637 182.903 137.204C182.522 137.772 181.983 138.214 181.285 138.532C180.586 138.844 179.754 139 178.787 139H173.765ZM176.533 136.924H178.376C179.124 136.924 179.682 136.774 180.05 136.475C180.418 136.175 180.602 135.723 180.602 135.119C180.602 134.532 180.421 134.084 180.059 133.772C179.698 133.454 179.155 133.295 178.432 133.295H176.533V136.924ZM176.533 131.349H178.254C178.672 131.349 179.031 131.281 179.33 131.144C179.635 131.006 179.869 130.81 180.031 130.554C180.2 130.293 180.284 129.978 180.284 129.61C180.284 129.086 180.103 128.684 179.741 128.403C179.386 128.123 178.875 127.982 178.208 127.982H176.533V131.349ZM185.557 139V125.906H190.748C191.695 125.906 192.522 126.065 193.226 126.383C193.937 126.695 194.482 127.147 194.863 127.739C195.249 128.332 195.443 129.039 195.443 129.862C195.443 130.511 195.315 131.081 195.059 131.574C194.804 132.06 194.451 132.466 194.002 132.79C193.56 133.114 193.048 133.348 192.469 133.491L196.135 139H192.833L189.681 134.024H188.325V139H185.557ZM188.325 131.789H190.383C191.094 131.789 191.649 131.646 192.048 131.359C192.453 131.066 192.656 130.623 192.656 130.031C192.656 129.42 192.469 128.961 192.094 128.656C191.727 128.35 191.187 128.198 190.476 128.198H188.325V131.789ZM197.897 139V125.906H200.665V139H197.897ZM203.478 139V125.906H212.428V128.319H206.246V131.125H211.484V133.36H206.246V136.559H212.503V139H203.478ZM214.849 139V125.906H223.295V128.431H217.618V131.499H222.715V133.931H217.618V139H214.849Z" fill="#00F1BD"/>
<path d="M47.5423 182.353V161.402H61.4742V164.814H51.433V169.887H60.0227V173.075H51.433V178.911H61.579V182.353H47.5423ZM65.0692 182.353V160.804H68.9001V182.353H65.0692ZM79.6264 182.802C78.0002 182.802 76.5736 182.472 75.3465 181.814C74.1195 181.146 73.1617 180.218 72.4734 179.031C71.795 177.843 71.4558 176.462 71.4558 174.885C71.4558 173.728 71.6503 172.666 72.0394 171.698C72.4384 170.73 72.9971 169.892 73.7154 169.184C74.4437 168.466 75.2917 167.912 76.2594 167.523C77.2371 167.134 78.3045 166.939 79.4618 166.939C80.7188 166.939 81.8411 167.164 82.8288 167.613C83.8164 168.052 84.6345 168.675 85.283 169.483C85.9414 170.281 86.4003 171.219 86.6597 172.297C86.9291 173.364 86.964 174.531 86.7645 175.798H75.0622C75.0522 176.586 75.2368 177.275 75.6159 177.863C76.005 178.452 76.5537 178.916 77.262 179.255C77.9803 179.584 78.8233 179.749 79.791 179.749C80.649 179.749 81.472 179.624 82.2601 179.375C83.0483 179.125 83.7815 178.756 84.4599 178.267L85.8067 180.946C85.3378 181.325 84.7542 181.654 84.0559 181.934C83.3575 182.213 82.6193 182.428 81.8411 182.577C81.073 182.727 80.3347 182.802 79.6264 182.802ZM75.2867 173.075H83.0533C83.0233 172.067 82.6891 171.279 82.0506 170.71C81.4122 170.132 80.5193 169.842 79.372 169.842C78.2347 169.842 77.2969 170.132 76.5587 170.71C75.8204 171.279 75.3964 172.067 75.2867 173.075ZM92.9513 182.353L87.4594 167.388H91.6195L95.4354 179.061H94.9267L98.6678 167.388H102.723L97.3659 182.353H92.9513ZM110.828 182.802C109.361 182.802 108.059 182.463 106.922 181.784C105.795 181.106 104.907 180.168 104.258 178.971C103.61 177.774 103.286 176.407 103.286 174.871C103.286 173.713 103.47 172.651 103.839 171.683C104.209 170.715 104.727 169.877 105.396 169.169C106.074 168.461 106.872 167.912 107.79 167.523C108.718 167.134 109.73 166.939 110.828 166.939C112.274 166.939 113.492 167.249 114.479 167.867C115.467 168.486 116.205 169.289 116.694 170.276L116.155 171.099V167.388H119.522V182.353H116.155V178.642L116.694 179.465C116.205 180.452 115.467 181.255 114.479 181.874C113.492 182.492 112.274 182.802 110.828 182.802ZM111.396 179.45C112.225 179.45 112.963 179.265 113.611 178.896C114.26 178.517 114.773 177.988 115.153 177.31C115.532 176.621 115.721 175.808 115.721 174.871C115.721 173.933 115.532 173.12 115.153 172.431C114.773 171.743 114.26 171.214 113.611 170.845C112.963 170.476 112.225 170.291 111.396 170.291C110.568 170.291 109.825 170.476 109.167 170.845C108.518 171.214 108.005 171.743 107.625 172.431C107.256 173.12 107.072 173.933 107.072 174.871C107.072 175.808 107.256 176.621 107.625 177.31C108.005 177.988 108.518 178.517 109.167 178.896C109.825 179.265 110.568 179.45 111.396 179.45ZM129.741 182.802C128.205 182.802 126.988 182.363 126.09 181.485C125.192 180.607 124.743 179.28 124.743 177.504V163.049H128.574V167.388H132.51V170.501H128.574V176.741C128.574 177.699 128.763 178.377 129.143 178.776C129.522 179.165 130.045 179.36 130.714 179.36C131.053 179.36 131.372 179.32 131.672 179.24C131.981 179.16 132.265 179.056 132.524 178.926L133.123 181.979C132.684 182.208 132.17 182.403 131.582 182.562C130.993 182.722 130.38 182.802 129.741 182.802ZM121.585 170.501V167.388H125.177V170.501H121.585ZM135.788 182.353V167.388H139.619V182.353H135.788ZM137.704 164.874C137.045 164.874 136.477 164.665 135.998 164.246C135.519 163.827 135.279 163.273 135.279 162.585C135.279 161.896 135.519 161.343 135.998 160.924C136.477 160.505 137.045 160.295 137.704 160.295C138.362 160.295 138.931 160.505 139.41 160.924C139.888 161.343 140.128 161.896 140.128 162.585C140.128 163.273 139.888 163.827 139.41 164.246C138.931 164.665 138.362 164.874 137.704 164.874ZM143.432 182.353V167.388H147.263V169.184C147.861 168.396 148.56 167.827 149.358 167.478C150.166 167.119 151.009 166.939 151.887 166.939C153.263 166.939 154.401 167.214 155.299 167.762C156.206 168.311 156.88 169.014 157.319 169.872C157.758 170.73 157.977 171.628 157.977 172.566V182.353H154.146V173.763C154.146 172.746 153.852 171.937 153.263 171.339C152.675 170.74 151.852 170.441 150.794 170.441C150.106 170.441 149.492 170.596 148.954 170.905C148.425 171.204 148.011 171.628 147.712 172.177C147.412 172.726 147.263 173.359 147.263 174.077V182.353H143.432ZM168.21 189.087C167.193 189.087 166.195 188.987 165.217 188.788C164.25 188.598 163.337 188.279 162.479 187.83L163.362 184.717C164.11 185.076 164.873 185.341 165.651 185.51C166.429 185.68 167.208 185.765 167.986 185.765C169.642 185.765 170.904 185.381 171.772 184.612C172.64 183.854 173.074 182.827 173.074 181.53V178.253L173.582 179.076C173.123 180.053 172.41 180.846 171.442 181.455C170.475 182.053 169.263 182.353 167.806 182.353C166.32 182.353 165.018 182.019 163.9 181.35C162.783 180.672 161.91 179.754 161.282 178.597C160.663 177.429 160.354 176.113 160.354 174.646C160.354 173.539 160.533 172.516 160.892 171.578C161.252 170.641 161.76 169.827 162.419 169.139C163.077 168.441 163.86 167.902 164.768 167.523C165.686 167.134 166.699 166.939 167.806 166.939C169.263 166.939 170.475 167.239 171.442 167.837C172.41 168.426 173.123 169.219 173.582 170.217L173.074 171.04V167.373H176.59V180.767C176.59 183.4 175.882 185.445 174.465 186.902C173.049 188.359 170.964 189.087 168.21 189.087ZM168.465 179.076C169.313 179.076 170.061 178.891 170.709 178.522C171.358 178.153 171.866 177.639 172.236 176.981C172.605 176.312 172.789 175.534 172.789 174.646C172.789 173.748 172.605 172.97 172.236 172.312C171.866 171.643 171.358 171.129 170.709 170.77C170.061 170.401 169.313 170.217 168.465 170.217C167.627 170.217 166.878 170.401 166.22 170.77C165.571 171.129 165.063 171.643 164.693 172.312C164.324 172.97 164.14 173.748 164.14 174.646C164.14 175.534 164.324 176.312 164.693 176.981C165.063 177.639 165.571 178.153 166.22 178.522C166.878 178.891 167.627 179.076 168.465 179.076ZM191.336 182.353V164.964H185.545V161.402H201.033V164.964H195.242V182.353H191.336ZM203.38 182.353V160.804H207.211V170.546L206.418 169.648C207.076 168.76 207.864 168.087 208.782 167.628C209.7 167.169 210.687 166.939 211.745 166.939C213.122 166.939 214.264 167.214 215.172 167.762C216.09 168.311 216.778 169.024 217.237 169.902C217.696 170.78 217.925 171.708 217.925 172.686V182.353H214.094V173.778C214.094 172.79 213.79 171.987 213.181 171.369C212.583 170.75 211.76 170.441 210.712 170.441C210.014 170.431 209.4 170.576 208.872 170.875C208.343 171.174 207.934 171.603 207.645 172.162C207.355 172.711 207.211 173.354 207.211 174.092V182.353H203.38ZM221.604 182.353V167.388H225.435V169.349C225.953 168.471 226.602 167.847 227.38 167.478C228.168 167.109 229.016 166.924 229.924 166.924C230.243 166.924 230.537 166.939 230.807 166.969C231.076 166.999 231.336 167.044 231.585 167.104L231.106 171.055C230.797 170.945 230.473 170.865 230.133 170.815C229.804 170.755 229.475 170.725 229.146 170.725C228.068 170.725 227.18 171.05 226.482 171.698C225.784 172.337 225.435 173.234 225.435 174.392V182.353H221.604ZM240.253 182.802C238.627 182.802 237.2 182.472 235.973 181.814C234.746 181.146 233.788 180.218 233.1 179.031C232.421 177.843 232.082 176.462 232.082 174.885C232.082 173.728 232.277 172.666 232.666 171.698C233.065 170.73 233.623 169.892 234.342 169.184C235.07 168.466 235.918 167.912 236.886 167.523C237.863 167.134 238.931 166.939 240.088 166.939C241.345 166.939 242.467 167.164 243.455 167.613C244.443 168.052 245.261 168.675 245.909 169.483C246.568 170.281 247.027 171.219 247.286 172.297C247.555 173.364 247.59 174.531 247.391 175.798H235.689C235.679 176.586 235.863 177.275 236.242 177.863C236.631 178.452 237.18 178.916 237.888 179.255C238.607 179.584 239.45 179.749 240.417 179.749C241.275 179.749 242.098 179.624 242.886 179.375C243.675 179.125 244.408 178.756 245.086 178.267L246.433 180.946C245.964 181.325 245.381 181.654 244.682 181.934C243.984 182.213 243.246 182.428 242.467 182.577C241.699 182.727 240.961 182.802 240.253 182.802ZM235.913 173.075H243.68C243.65 172.067 243.315 171.279 242.677 170.71C242.038 170.132 241.146 169.842 239.998 169.842C238.861 169.842 237.923 170.132 237.185 170.71C236.447 171.279 236.023 172.067 235.913 173.075ZM256.504 182.802C255.037 182.802 253.735 182.463 252.598 181.784C251.471 181.106 250.583 180.168 249.934 178.971C249.286 177.774 248.962 176.407 248.962 174.871C248.962 173.713 249.146 172.651 249.515 171.683C249.884 170.715 250.403 169.877 251.072 169.169C251.75 168.461 252.548 167.912 253.466 167.523C254.394 167.134 255.406 166.939 256.504 166.939C257.95 166.939 259.167 167.249 260.155 167.867C261.143 168.486 261.881 169.289 262.37 170.276L261.831 171.099V167.388H265.198V182.353H261.831V178.642L262.37 179.465C261.881 180.452 261.143 181.255 260.155 181.874C259.167 182.492 257.95 182.802 256.504 182.802ZM257.072 179.45C257.9 179.45 258.639 179.265 259.287 178.896C259.936 178.517 260.449 177.988 260.828 177.31C261.208 176.621 261.397 175.808 261.397 174.871C261.397 173.933 261.208 173.12 260.828 172.431C260.449 171.743 259.936 171.214 259.287 170.845C258.639 170.476 257.9 170.291 257.072 170.291C256.244 170.291 255.501 170.476 254.843 170.845C254.194 171.214 253.68 171.743 253.301 172.431C252.932 173.12 252.748 173.933 252.748 174.871C252.748 175.808 252.932 176.621 253.301 177.31C253.68 177.988 254.194 178.517 254.843 178.896C255.501 179.265 256.244 179.45 257.072 179.45ZM275.417 182.802C273.881 182.802 272.663 182.363 271.766 181.485C270.868 180.607 270.419 179.28 270.419 177.504V163.049H274.25V167.388H278.185V170.501H274.25V176.741C274.25 177.699 274.439 178.377 274.818 178.776C275.197 179.165 275.721 179.36 276.39 179.36C276.729 179.36 277.048 179.32 277.347 179.24C277.657 179.16 277.941 179.056 278.2 178.926L278.799 181.979C278.36 182.208 277.846 182.403 277.258 182.562C276.669 182.722 276.055 182.802 275.417 182.802ZM267.261 170.501V167.388H270.853V170.501H267.261ZM288.489 182.353V161.402H292.38V182.353H288.489ZM296.634 182.353V167.388H300.465V169.184C301.064 168.396 301.762 167.827 302.56 167.478C303.368 167.119 304.211 166.939 305.089 166.939C306.466 166.939 307.603 167.214 308.501 167.762C309.409 168.311 310.082 169.014 310.521 169.872C310.96 170.73 311.18 171.628 311.18 172.566V182.353H307.349V173.763C307.349 172.746 307.055 171.937 306.466 171.339C305.877 170.74 305.054 170.441 303.997 170.441C303.308 170.441 302.695 170.596 302.156 170.905C301.627 171.204 301.213 171.628 300.914 172.177C300.615 172.726 300.465 173.359 300.465 174.077V182.353H296.634ZM320.956 182.802C319.419 182.802 318.202 182.363 317.304 181.485C316.407 180.607 315.958 179.28 315.958 177.504V163.049H319.789V167.388H323.724V170.501H319.789V176.741C319.789 177.699 319.978 178.377 320.357 178.776C320.736 179.165 321.26 179.36 321.929 179.36C322.268 179.36 322.587 179.32 322.886 179.24C323.195 179.16 323.48 179.056 323.739 178.926L324.338 181.979C323.899 182.208 323.385 182.403 322.796 182.562C322.208 182.722 321.594 182.802 320.956 182.802ZM312.8 170.501V167.388H316.392V170.501H312.8ZM333.858 182.802C332.232 182.802 330.805 182.472 329.578 181.814C328.351 181.146 327.393 180.218 326.705 179.031C326.027 177.843 325.687 176.462 325.687 174.885C325.687 173.728 325.882 172.666 326.271 171.698C326.67 170.73 327.229 169.892 327.947 169.184C328.675 168.466 329.523 167.912 330.491 167.523C331.469 167.134 332.536 166.939 333.693 166.939C334.95 166.939 336.073 167.164 337.06 167.613C338.048 168.052 338.866 168.675 339.515 169.483C340.173 170.281 340.632 171.219 340.891 172.297C341.161 173.364 341.196 174.531 340.996 175.798H329.294C329.284 176.586 329.468 177.275 329.848 177.863C330.237 178.452 330.785 178.916 331.494 179.255C332.212 179.584 333.055 179.749 334.023 179.749C334.881 179.749 335.704 179.624 336.492 179.375C337.28 179.125 338.013 178.756 338.692 178.267L340.038 180.946C339.569 181.325 338.986 181.654 338.288 181.934C337.589 182.213 336.851 182.428 336.073 182.577C335.305 182.727 334.566 182.802 333.858 182.802ZM329.518 173.075H337.285C337.255 172.067 336.921 171.279 336.282 170.71C335.644 170.132 334.751 169.842 333.604 169.842C332.466 169.842 331.529 170.132 330.79 170.71C330.052 171.279 329.628 172.067 329.518 173.075ZM343.678 182.353V160.804H347.509V182.353H343.678ZM351.321 182.353V160.804H355.152V182.353H351.321ZM358.965 182.353V167.388H362.796V182.353H358.965ZM360.88 164.874C360.222 164.874 359.653 164.665 359.174 164.246C358.696 163.827 358.456 163.273 358.456 162.585C358.456 161.896 358.696 161.343 359.174 160.924C359.653 160.505 360.222 160.295 360.88 160.295C361.539 160.295 362.107 160.505 362.586 160.924C363.065 161.343 363.305 161.896 363.305 162.585C363.305 163.273 363.065 163.827 362.586 164.246C362.107 164.665 361.539 164.874 360.88 164.874ZM373.163 189.087C372.145 189.087 371.148 188.987 370.17 188.788C369.202 188.598 368.29 188.279 367.432 187.83L368.314 184.717C369.063 185.076 369.826 185.341 370.604 185.51C371.382 185.68 372.16 185.765 372.938 185.765C374.595 185.765 375.857 185.381 376.725 184.612C377.592 183.854 378.026 182.827 378.026 181.53V178.253L378.535 179.076C378.076 180.053 377.363 180.846 376.395 181.455C375.428 182.053 374.215 182.353 372.759 182.353C371.272 182.353 369.971 182.019 368.853 181.35C367.736 180.672 366.863 179.754 366.234 178.597C365.616 177.429 365.307 176.113 365.307 174.646C365.307 173.539 365.486 172.516 365.845 171.578C366.204 170.641 366.713 169.827 367.372 169.139C368.03 168.441 368.813 167.902 369.721 167.523C370.639 167.134 371.652 166.939 372.759 166.939C374.215 166.939 375.428 167.239 376.395 167.837C377.363 168.426 378.076 169.219 378.535 170.217L378.026 171.04V167.373H381.543V180.767C381.543 183.4 380.835 185.445 379.418 186.902C378.001 188.359 375.916 189.087 373.163 189.087ZM373.417 179.076C374.265 179.076 375.014 178.891 375.662 178.522C376.31 178.153 376.819 177.639 377.188 176.981C377.558 176.312 377.742 175.534 377.742 174.646C377.742 173.748 377.558 172.97 377.188 172.312C376.819 171.643 376.31 171.129 375.662 170.77C375.014 170.401 374.265 170.217 373.417 170.217C372.579 170.217 371.831 170.401 371.173 170.77C370.524 171.129 370.015 171.643 369.646 172.312C369.277 172.97 369.093 173.748 369.093 174.646C369.093 175.534 369.277 176.312 369.646 176.981C370.015 177.639 370.524 178.153 371.173 178.522C371.831 178.891 372.579 179.076 373.417 179.076ZM392.301 182.802C390.675 182.802 389.249 182.472 388.022 181.814C386.794 181.146 385.837 180.218 385.148 179.031C384.47 177.843 384.131 176.462 384.131 174.885C384.131 173.728 384.325 172.666 384.714 171.698C385.113 170.73 385.672 169.892 386.39 169.184C387.119 168.466 387.967 167.912 388.934 167.523C389.912 167.134 390.98 166.939 392.137 166.939C393.394 166.939 394.516 167.164 395.504 167.613C396.491 168.052 397.309 168.675 397.958 169.483C398.616 170.281 399.075 171.219 399.335 172.297C399.604 173.364 399.639 174.531 399.439 175.798H387.737C387.727 176.586 387.912 177.275 388.291 177.863C388.68 178.452 389.229 178.916 389.937 179.255C390.655 179.584 391.498 179.749 392.466 179.749C393.324 179.749 394.147 179.624 394.935 179.375C395.723 179.125 396.457 178.756 397.135 178.267L398.482 180.946C398.013 181.325 397.429 181.654 396.731 181.934C396.033 182.213 395.294 182.428 394.516 182.577C393.748 182.727 393.01 182.802 392.301 182.802ZM387.962 173.075H395.728C395.698 172.067 395.364 171.279 394.726 170.71C394.087 170.132 393.194 169.842 392.047 169.842C390.91 169.842 389.972 170.132 389.234 170.71C388.495 171.279 388.071 172.067 387.962 173.075ZM402.121 182.353V167.388H405.952V169.184C406.551 168.396 407.249 167.827 408.047 167.478C408.855 167.119 409.698 166.939 410.576 166.939C411.953 166.939 413.09 167.214 413.988 167.762C414.896 168.311 415.569 169.014 416.008 169.872C416.447 170.73 416.667 171.628 416.667 172.566V182.353H412.836V173.763C412.836 172.746 412.541 171.937 411.953 171.339C411.364 170.74 410.541 170.441 409.484 170.441C408.795 170.441 408.182 170.596 407.643 170.905C407.114 171.204 406.7 171.628 406.401 172.177C406.102 172.726 405.952 173.359 405.952 174.077V182.353H402.121ZM427.289 182.802C425.702 182.802 424.291 182.458 423.054 181.769C421.827 181.071 420.859 180.128 420.151 178.941C419.442 177.744 419.088 176.387 419.088 174.871C419.088 173.723 419.298 172.671 419.717 171.713C420.136 170.745 420.724 169.907 421.482 169.199C422.241 168.481 423.128 167.927 424.146 167.538C425.174 167.139 426.291 166.939 427.498 166.939C428.546 166.939 429.518 167.079 430.416 167.358C431.314 167.638 432.137 168.067 432.885 168.645L431.105 171.533C430.636 171.114 430.102 170.805 429.503 170.606C428.915 170.396 428.296 170.291 427.648 170.291C426.67 170.291 425.827 170.471 425.119 170.83C424.42 171.189 423.882 171.708 423.503 172.386C423.123 173.065 422.934 173.888 422.934 174.856C422.934 176.292 423.353 177.419 424.191 178.238C425.039 179.046 426.191 179.45 427.648 179.45C428.376 179.45 429.064 179.315 429.713 179.046C430.361 178.776 430.925 178.407 431.404 177.938L433.11 180.841C432.292 181.45 431.379 181.929 430.371 182.278C429.364 182.627 428.336 182.802 427.289 182.802ZM442.005 182.802C440.378 182.802 438.952 182.472 437.725 181.814C436.498 181.146 435.54 180.218 434.852 179.031C434.173 177.843 433.834 176.462 433.834 174.885C433.834 173.728 434.028 172.666 434.418 171.698C434.817 170.73 435.375 169.892 436.094 169.184C436.822 168.466 437.67 167.912 438.638 167.523C439.615 167.134 440.683 166.939 441.84 166.939C443.097 166.939 444.219 167.164 445.207 167.613C446.195 168.052 447.013 168.675 447.661 169.483C448.32 170.281 448.778 171.219 449.038 172.297C449.307 173.364 449.342 174.531 449.143 175.798H437.44C437.43 176.586 437.615 177.275 437.994 177.863C438.383 178.452 438.932 178.916 439.64 179.255C440.358 179.584 441.201 179.749 442.169 179.749C443.027 179.749 443.85 179.624 444.638 179.375C445.426 179.125 446.16 178.756 446.838 178.267L448.185 180.946C447.716 181.325 447.132 181.654 446.434 181.934C445.736 182.213 444.997 182.428 444.219 182.577C443.451 182.727 442.713 182.802 442.005 182.802ZM437.665 173.075H445.431C445.402 172.067 445.067 171.279 444.429 170.71C443.79 170.132 442.897 169.842 441.75 169.842C440.613 169.842 439.675 170.132 438.937 170.71C438.199 171.279 437.775 172.067 437.665 173.075Z" fill="white"/>
<path opacity="0.7" d="M56.8186 214.596H48.8761V221.706H46.9861V206.001H48.8761V212.931H56.8186V206.001H58.7086V221.706H56.8186V214.596ZM66.6518 221.976C65.8718 221.976 65.1593 221.833 64.5143 221.548C63.8693 221.263 63.3143 220.858 62.8493 220.333C62.3993 219.793 62.0468 219.156 61.7918 218.421C61.5368 217.671 61.4093 216.831 61.4093 215.901C61.4093 214.986 61.5368 214.153 61.7918 213.403C62.0468 212.653 62.3993 212.016 62.8493 211.491C63.3143 210.951 63.8693 210.538 64.5143 210.253C65.1593 209.968 65.8718 209.826 66.6518 209.826C67.4318 209.826 68.1368 209.968 68.7668 210.253C69.4118 210.538 69.9668 210.951 70.4318 211.491C70.8968 212.016 71.2568 212.653 71.5118 213.403C71.7668 214.153 71.8943 214.986 71.8943 215.901C71.8943 216.831 71.7668 217.671 71.5118 218.421C71.2568 219.156 70.8968 219.793 70.4318 220.333C69.9668 220.858 69.4118 221.263 68.7668 221.548C68.1368 221.833 67.4318 221.976 66.6518 221.976ZM66.6518 220.378C67.6268 220.378 68.4218 220.078 69.0368 219.478C69.6518 218.878 69.9593 217.963 69.9593 216.733V215.068C69.9593 213.838 69.6518 212.923 69.0368 212.323C68.4218 211.723 67.6268 211.423 66.6518 211.423C65.6768 211.423 64.8818 211.723 64.2668 212.323C63.6518 212.923 63.3443 213.838 63.3443 215.068V216.733C63.3443 217.963 63.6518 218.878 64.2668 219.478C64.8818 220.078 65.6768 220.378 66.6518 220.378ZM73.0797 210.096H74.8347L76.0722 215.113L77.3097 220.198H77.3547L78.7722 215.113L80.2347 210.096H81.8322L83.3397 215.113L84.7797 220.198H84.8247L86.0172 215.113L87.2772 210.096H88.9647L85.8822 221.706H83.6547L82.0347 216.126L81.0222 212.593H80.9772L79.9872 216.126L78.3672 221.706H76.1847L73.0797 210.096ZM98.5476 221.706C97.9176 221.706 97.4376 221.533 97.1076 221.188C96.7926 220.828 96.6351 220.363 96.6351 219.793V211.671H94.7226V210.096H95.8026C96.1926 210.096 96.4551 210.021 96.5901 209.871C96.7401 209.706 96.8151 209.428 96.8151 209.038V206.878H98.4351V210.096H100.978V211.671H98.4351V220.131H100.798V221.706H98.5476ZM107.72 221.976C106.94 221.976 106.228 221.833 105.583 221.548C104.938 221.263 104.383 220.858 103.918 220.333C103.468 219.793 103.115 219.156 102.86 218.421C102.605 217.671 102.478 216.831 102.478 215.901C102.478 214.986 102.605 214.153 102.86 213.403C103.115 212.653 103.468 212.016 103.918 211.491C104.383 210.951 104.938 210.538 105.583 210.253C106.228 209.968 106.94 209.826 107.72 209.826C108.5 209.826 109.205 209.968 109.835 210.253C110.48 210.538 111.035 210.951 111.5 211.491C111.965 212.016 112.325 212.653 112.58 213.403C112.835 214.153 112.963 214.986 112.963 215.901C112.963 216.831 112.835 217.671 112.58 218.421C112.325 219.156 111.965 219.793 111.5 220.333C111.035 220.858 110.48 221.263 109.835 221.548C109.205 221.833 108.5 221.976 107.72 221.976ZM107.72 220.378C108.695 220.378 109.49 220.078 110.105 219.478C110.72 218.878 111.028 217.963 111.028 216.733V215.068C111.028 213.838 110.72 212.923 110.105 212.323C109.49 211.723 108.695 211.423 107.72 211.423C106.745 211.423 105.95 211.723 105.335 212.323C104.72 212.923 104.413 213.838 104.413 215.068V216.733C104.413 217.963 104.72 218.878 105.335 219.478C105.95 220.078 106.745 220.378 107.72 220.378ZM126.056 221.976C124.061 221.976 122.508 221.301 121.398 219.951C120.288 218.586 119.733 216.583 119.733 213.943C119.733 211.303 120.288 209.278 121.398 207.868C122.508 206.443 124.061 205.731 126.056 205.731C127.376 205.731 128.478 206.031 129.363 206.631C130.263 207.231 130.961 208.078 131.456 209.173L129.926 210.096C129.611 209.286 129.131 208.641 128.486 208.161C127.841 207.666 127.031 207.418 126.056 207.418C125.381 207.418 124.773 207.546 124.233 207.801C123.708 208.056 123.258 208.423 122.883 208.903C122.523 209.368 122.246 209.931 122.051 210.591C121.856 211.236 121.758 211.963 121.758 212.773V215.113C121.758 216.733 122.133 218.001 122.883 218.916C123.633 219.831 124.691 220.288 126.056 220.288C127.061 220.288 127.901 220.033 128.576 219.523C129.251 218.998 129.746 218.308 130.061 217.453L131.568 218.398C131.073 219.508 130.361 220.386 129.431 221.031C128.501 221.661 127.376 221.976 126.056 221.976ZM133.865 205.056H135.665V211.986H135.755C136.04 211.326 136.438 210.801 136.948 210.411C137.473 210.021 138.17 209.826 139.04 209.826C140.24 209.826 141.185 210.216 141.875 210.996C142.58 211.761 142.933 212.848 142.933 214.258V221.706H141.133V214.573C141.133 212.488 140.255 211.446 138.5 211.446C138.14 211.446 137.788 211.491 137.443 211.581C137.113 211.671 136.813 211.806 136.543 211.986C136.273 212.166 136.055 212.398 135.89 212.683C135.74 212.953 135.665 213.276 135.665 213.651V221.706H133.865V205.056ZM150.591 221.976C149.811 221.976 149.098 221.833 148.453 221.548C147.808 221.263 147.253 220.858 146.788 220.333C146.338 219.793 145.986 219.156 145.731 218.421C145.476 217.671 145.348 216.831 145.348 215.901C145.348 214.986 145.476 214.153 145.731 213.403C145.986 212.653 146.338 212.016 146.788 211.491C147.253 210.951 147.808 210.538 148.453 210.253C149.098 209.968 149.811 209.826 150.591 209.826C151.371 209.826 152.076 209.968 152.706 210.253C153.351 210.538 153.906 210.951 154.371 211.491C154.836 212.016 155.196 212.653 155.451 213.403C155.706 214.153 155.833 214.986 155.833 215.901C155.833 216.831 155.706 217.671 155.451 218.421C155.196 219.156 154.836 219.793 154.371 220.333C153.906 220.858 153.351 221.263 152.706 221.548C152.076 221.833 151.371 221.976 150.591 221.976ZM150.591 220.378C151.566 220.378 152.361 220.078 152.976 219.478C153.591 218.878 153.898 217.963 153.898 216.733V215.068C153.898 213.838 153.591 212.923 152.976 212.323C152.361 211.723 151.566 211.423 150.591 211.423C149.616 211.423 148.821 211.723 148.206 212.323C147.591 212.923 147.283 213.838 147.283 215.068V216.733C147.283 217.963 147.591 218.878 148.206 219.478C148.821 220.078 149.616 220.378 150.591 220.378ZM162.731 221.976C161.951 221.976 161.239 221.833 160.594 221.548C159.949 221.263 159.394 220.858 158.929 220.333C158.479 219.793 158.126 219.156 157.871 218.421C157.616 217.671 157.489 216.831 157.489 215.901C157.489 214.986 157.616 214.153 157.871 213.403C158.126 212.653 158.479 212.016 158.929 211.491C159.394 210.951 159.949 210.538 160.594 210.253C161.239 209.968 161.951 209.826 162.731 209.826C163.511 209.826 164.216 209.968 164.846 210.253C165.491 210.538 166.046 210.951 166.511 211.491C166.976 212.016 167.336 212.653 167.591 213.403C167.846 214.153 167.974 214.986 167.974 215.901C167.974 216.831 167.846 217.671 167.591 218.421C167.336 219.156 166.976 219.793 166.511 220.333C166.046 220.858 165.491 221.263 164.846 221.548C164.216 221.833 163.511 221.976 162.731 221.976ZM162.731 220.378C163.706 220.378 164.501 220.078 165.116 219.478C165.731 218.878 166.039 217.963 166.039 216.733V215.068C166.039 213.838 165.731 212.923 165.116 212.323C164.501 211.723 163.706 211.423 162.731 211.423C161.756 211.423 160.961 211.723 160.346 212.323C159.731 212.923 159.424 213.838 159.424 215.068V216.733C159.424 217.963 159.731 218.878 160.346 219.478C160.961 220.078 161.756 220.378 162.731 220.378ZM173.971 221.976C172.891 221.976 171.984 221.773 171.249 221.368C170.529 220.948 169.906 220.393 169.381 219.703L170.664 218.668C171.114 219.238 171.616 219.681 172.171 219.996C172.726 220.296 173.371 220.446 174.106 220.446C174.871 220.446 175.464 220.281 175.884 219.951C176.319 219.621 176.536 219.156 176.536 218.556C176.536 218.106 176.386 217.723 176.086 217.408C175.801 217.078 175.276 216.853 174.511 216.733L173.589 216.598C173.049 216.523 172.554 216.411 172.104 216.261C171.654 216.096 171.256 215.886 170.911 215.631C170.581 215.361 170.319 215.031 170.124 214.641C169.944 214.251 169.854 213.786 169.854 213.246C169.854 212.676 169.959 212.181 170.169 211.761C170.379 211.326 170.664 210.966 171.024 210.681C171.399 210.396 171.841 210.186 172.351 210.051C172.861 209.901 173.409 209.826 173.994 209.826C174.939 209.826 175.726 209.991 176.356 210.321C177.001 210.651 177.564 211.108 178.044 211.693L176.851 212.773C176.596 212.413 176.221 212.091 175.726 211.806C175.231 211.506 174.609 211.356 173.859 211.356C173.109 211.356 172.539 211.521 172.149 211.851C171.774 212.166 171.586 212.601 171.586 213.156C171.586 213.726 171.774 214.138 172.149 214.393C172.539 214.648 173.094 214.836 173.814 214.956L174.714 215.091C176.004 215.286 176.919 215.661 177.459 216.216C177.999 216.756 178.269 217.468 178.269 218.353C178.269 219.478 177.886 220.363 177.121 221.008C176.356 221.653 175.306 221.976 173.971 221.976ZM185.363 221.976C184.568 221.976 183.848 221.833 183.203 221.548C182.573 221.263 182.026 220.858 181.561 220.333C181.111 219.793 180.758 219.156 180.503 218.421C180.263 217.671 180.143 216.831 180.143 215.901C180.143 214.986 180.263 214.153 180.503 213.403C180.758 212.653 181.111 212.016 181.561 211.491C182.026 210.951 182.573 210.538 183.203 210.253C183.848 209.968 184.568 209.826 185.363 209.826C186.143 209.826 186.841 209.968 187.456 210.253C188.071 210.538 188.596 210.936 189.031 211.446C189.466 211.941 189.796 212.533 190.021 213.223C190.261 213.913 190.381 214.671 190.381 215.496V216.351H182.033V216.891C182.033 217.386 182.108 217.851 182.258 218.286C182.423 218.706 182.648 219.073 182.933 219.388C183.233 219.703 183.593 219.951 184.013 220.131C184.448 220.311 184.936 220.401 185.476 220.401C186.211 220.401 186.848 220.228 187.388 219.883C187.943 219.538 188.371 219.043 188.671 218.398L189.953 219.321C189.578 220.116 188.993 220.761 188.198 221.256C187.403 221.736 186.458 221.976 185.363 221.976ZM185.363 211.333C184.868 211.333 184.418 211.423 184.013 211.603C183.608 211.768 183.256 212.008 182.956 212.323C182.671 212.638 182.446 213.013 182.281 213.448C182.116 213.868 182.033 214.333 182.033 214.843V215.001H188.446V214.753C188.446 213.718 188.161 212.893 187.591 212.278C187.036 211.648 186.293 211.333 185.363 211.333ZM200.329 221.706C199.699 221.706 199.219 221.533 198.889 221.188C198.574 220.828 198.417 220.363 198.417 219.793V211.671H196.504V210.096H197.584C197.974 210.096 198.237 210.021 198.372 209.871C198.522 209.706 198.597 209.428 198.597 209.038V206.878H200.217V210.096H202.759V211.671H200.217V220.131H202.579V221.706H200.329ZM205.203 205.056H207.003V211.986H207.093C207.378 211.326 207.775 210.801 208.285 210.411C208.81 210.021 209.508 209.826 210.378 209.826C211.578 209.826 212.523 210.216 213.213 210.996C213.918 211.761 214.27 212.848 214.27 214.258V221.706H212.47V214.573C212.47 212.488 211.593 211.446 209.838 211.446C209.478 211.446 209.125 211.491 208.78 211.581C208.45 211.671 208.15 211.806 207.88 211.986C207.61 212.166 207.393 212.398 207.228 212.683C207.078 212.953 207.003 213.276 207.003 213.651V221.706H205.203V205.056ZM221.906 221.976C221.111 221.976 220.391 221.833 219.746 221.548C219.116 221.263 218.568 220.858 218.103 220.333C217.653 219.793 217.301 219.156 217.046 218.421C216.806 217.671 216.686 216.831 216.686 215.901C216.686 214.986 216.806 214.153 217.046 213.403C217.301 212.653 217.653 212.016 218.103 211.491C218.568 210.951 219.116 210.538 219.746 210.253C220.391 209.968 221.111 209.826 221.906 209.826C222.686 209.826 223.383 209.968 223.998 210.253C224.613 210.538 225.138 210.936 225.573 211.446C226.008 211.941 226.338 212.533 226.563 213.223C226.803 213.913 226.923 214.671 226.923 215.496V216.351H218.576V216.891C218.576 217.386 218.651 217.851 218.801 218.286C218.966 218.706 219.191 219.073 219.476 219.388C219.776 219.703 220.136 219.951 220.556 220.131C220.991 220.311 221.478 220.401 222.018 220.401C222.753 220.401 223.391 220.228 223.931 219.883C224.486 219.538 224.913 219.043 225.213 218.398L226.496 219.321C226.121 220.116 225.536 220.761 224.741 221.256C223.946 221.736 223.001 221.976 221.906 221.976ZM221.906 211.333C221.411 211.333 220.961 211.423 220.556 211.603C220.151 211.768 219.798 212.008 219.498 212.323C219.213 212.638 218.988 213.013 218.823 213.448C218.658 213.868 218.576 214.333 218.576 214.843V215.001H224.988V214.753C224.988 213.718 224.703 212.893 224.133 212.278C223.578 211.648 222.836 211.333 221.906 211.333ZM236.377 221.706H234.487V206.001H240.742C242.122 206.001 243.194 206.383 243.959 207.148C244.739 207.913 245.129 209.016 245.129 210.456C245.129 211.611 244.859 212.563 244.319 213.313C243.794 214.048 243.014 214.536 241.979 214.776L245.579 221.706H243.442L240.044 214.956H236.377V221.706ZM240.742 213.336C241.492 213.336 242.069 213.141 242.474 212.751C242.894 212.361 243.104 211.806 243.104 211.086V209.916C243.104 209.196 242.894 208.641 242.474 208.251C242.069 207.861 241.492 207.666 240.742 207.666H236.377V213.336H240.742ZM249.149 207.373C248.759 207.373 248.474 207.283 248.294 207.103C248.129 206.908 248.046 206.661 248.046 206.361V206.068C248.046 205.768 248.129 205.528 248.294 205.348C248.474 205.153 248.759 205.056 249.149 205.056C249.539 205.056 249.816 205.153 249.981 205.348C250.161 205.528 250.251 205.768 250.251 206.068V206.361C250.251 206.661 250.161 206.908 249.981 207.103C249.816 207.283 249.539 207.373 249.149 207.373ZM248.249 210.096H250.049V221.706H248.249V210.096ZM263.211 222.988C263.211 224.188 262.739 225.066 261.794 225.621C260.864 226.191 259.461 226.476 257.586 226.476C255.771 226.476 254.466 226.228 253.671 225.733C252.876 225.238 252.479 224.533 252.479 223.618C252.479 222.988 252.644 222.493 252.974 222.133C253.304 221.788 253.754 221.533 254.324 221.368V221.121C253.634 220.791 253.289 220.251 253.289 219.501C253.289 218.916 253.476 218.473 253.851 218.173C254.226 217.858 254.706 217.626 255.291 217.476V217.386C254.601 217.056 254.061 216.583 253.671 215.968C253.296 215.353 253.109 214.641 253.109 213.831C253.109 213.246 253.214 212.706 253.424 212.211C253.634 211.716 253.926 211.296 254.301 210.951C254.691 210.591 255.149 210.313 255.674 210.118C256.214 209.923 256.814 209.826 257.474 209.826C258.299 209.826 259.034 209.976 259.679 210.276V210.073C259.679 209.623 259.784 209.256 259.994 208.971C260.204 208.671 260.549 208.521 261.029 208.521H262.761V210.096H260.556V210.838C260.976 211.198 261.299 211.633 261.524 212.143C261.764 212.638 261.884 213.201 261.884 213.831C261.884 214.416 261.779 214.956 261.569 215.451C261.359 215.946 261.059 216.373 260.669 216.733C260.294 217.078 259.836 217.348 259.296 217.543C258.756 217.738 258.156 217.836 257.496 217.836C257.121 217.836 256.746 217.798 256.371 217.723C255.981 217.828 255.629 217.986 255.314 218.196C254.999 218.391 254.841 218.668 254.841 219.028C254.841 219.373 255.006 219.606 255.336 219.726C255.666 219.846 256.094 219.906 256.619 219.906H259.094C260.534 219.906 261.576 220.183 262.221 220.738C262.881 221.278 263.211 222.028 263.211 222.988ZM261.524 223.123C261.524 222.658 261.344 222.283 260.984 221.998C260.639 221.728 260.016 221.593 259.116 221.593H255.246C254.526 221.923 254.166 222.448 254.166 223.168C254.166 223.678 254.354 224.113 254.729 224.473C255.119 224.833 255.771 225.013 256.686 225.013H258.351C259.356 225.013 260.136 224.856 260.691 224.541C261.246 224.226 261.524 223.753 261.524 223.123ZM257.496 216.396C258.261 216.396 258.869 216.216 259.319 215.856C259.769 215.481 259.994 214.911 259.994 214.146V213.516C259.994 212.751 259.769 212.188 259.319 211.828C258.869 211.453 258.261 211.266 257.496 211.266C256.731 211.266 256.124 211.453 255.674 211.828C255.224 212.188 254.999 212.751 254.999 213.516V214.146C254.999 214.911 255.224 215.481 255.674 215.856C256.124 216.216 256.731 216.396 257.496 216.396ZM264.861 205.056H266.661V211.986H266.751C267.036 211.326 267.433 210.801 267.943 210.411C268.468 210.021 269.166 209.826 270.036 209.826C271.236 209.826 272.181 210.216 272.871 210.996C273.576 211.761 273.928 212.848 273.928 214.258V221.706H272.128V214.573C272.128 212.488 271.251 211.446 269.496 211.446C269.136 211.446 268.783 211.491 268.438 211.581C268.108 211.671 267.808 211.806 267.538 211.986C267.268 212.166 267.051 212.398 266.886 212.683C266.736 212.953 266.661 213.276 266.661 213.651V221.706H264.861V205.056ZM279.764 221.706C279.134 221.706 278.654 221.533 278.324 221.188C278.009 220.828 277.852 220.363 277.852 219.793V211.671H275.939V210.096H277.019C277.409 210.096 277.672 210.021 277.807 209.871C277.957 209.706 278.032 209.428 278.032 209.038V206.878H279.652V210.096H282.194V211.671H279.652V220.131H282.014V221.706H279.764ZM294.095 221.976C292.82 221.976 291.732 221.736 290.832 221.256C289.932 220.761 289.167 220.086 288.537 219.231L289.932 218.061C290.487 218.796 291.102 219.358 291.777 219.748C292.452 220.123 293.247 220.311 294.162 220.311C295.287 220.311 296.142 220.041 296.727 219.501C297.327 218.961 297.627 218.241 297.627 217.341C297.627 216.591 297.402 216.013 296.952 215.608C296.502 215.203 295.76 214.881 294.725 214.641L293.442 214.348C292.002 214.018 290.9 213.523 290.135 212.863C289.385 212.188 289.01 211.243 289.01 210.028C289.01 209.338 289.137 208.723 289.392 208.183C289.647 207.643 290 207.193 290.45 206.833C290.915 206.473 291.462 206.203 292.092 206.023C292.737 205.828 293.442 205.731 294.207 205.731C295.392 205.731 296.405 205.948 297.245 206.383C298.1 206.818 298.82 207.456 299.405 208.296L297.987 209.331C297.552 208.731 297.027 208.258 296.412 207.913C295.797 207.568 295.032 207.396 294.117 207.396C293.112 207.396 292.317 207.613 291.732 208.048C291.162 208.468 290.877 209.106 290.877 209.961C290.877 210.711 291.117 211.281 291.597 211.671C292.092 212.046 292.835 212.346 293.825 212.571L295.107 212.863C296.652 213.208 297.77 213.733 298.46 214.438C299.15 215.143 299.495 216.081 299.495 217.251C299.495 217.971 299.367 218.623 299.112 219.208C298.872 219.793 298.52 220.288 298.055 220.693C297.59 221.098 297.02 221.413 296.345 221.638C295.685 221.863 294.935 221.976 294.095 221.976ZM306.516 221.976C305.736 221.976 305.023 221.833 304.378 221.548C303.733 221.263 303.178 220.858 302.713 220.333C302.263 219.793 301.911 219.156 301.656 218.421C301.401 217.671 301.273 216.831 301.273 215.901C301.273 214.986 301.401 214.153 301.656 213.403C301.911 212.653 302.263 212.016 302.713 211.491C303.178 210.951 303.733 210.538 304.378 210.253C305.023 209.968 305.736 209.826 306.516 209.826C307.296 209.826 308.001 209.968 308.631 210.253C309.276 210.538 309.831 210.951 310.296 211.491C310.761 212.016 311.121 212.653 311.376 213.403C311.631 214.153 311.758 214.986 311.758 215.901C311.758 216.831 311.631 217.671 311.376 218.421C311.121 219.156 310.761 219.793 310.296 220.333C309.831 220.858 309.276 221.263 308.631 221.548C308.001 221.833 307.296 221.976 306.516 221.976ZM306.516 220.378C307.491 220.378 308.286 220.078 308.901 219.478C309.516 218.878 309.823 217.963 309.823 216.733V215.068C309.823 213.838 309.516 212.923 308.901 212.323C308.286 211.723 307.491 211.423 306.516 211.423C305.541 211.423 304.746 211.723 304.131 212.323C303.516 212.923 303.208 213.838 303.208 215.068V216.733C303.208 217.963 303.516 218.878 304.131 219.478C304.746 220.078 305.541 220.378 306.516 220.378ZM316.181 221.706C315.551 221.706 315.071 221.533 314.741 221.188C314.426 220.828 314.269 220.378 314.269 219.838V205.056H316.069V220.131H317.779V221.706H316.181ZM327.104 219.816H327.014C326.894 220.086 326.744 220.356 326.564 220.626C326.399 220.881 326.189 221.113 325.934 221.323C325.679 221.518 325.372 221.676 325.012 221.796C324.652 221.916 324.232 221.976 323.752 221.976C322.552 221.976 321.599 221.593 320.894 220.828C320.189 220.048 319.837 218.953 319.837 217.543V210.096H321.637V217.228C321.637 219.313 322.522 220.356 324.292 220.356C324.652 220.356 324.997 220.311 325.327 220.221C325.672 220.131 325.972 219.996 326.227 219.816C326.497 219.636 326.707 219.411 326.857 219.141C327.022 218.856 327.104 218.518 327.104 218.128V210.096H328.904V221.706H327.104V219.816ZM334.852 221.706C334.222 221.706 333.742 221.533 333.412 221.188C333.097 220.828 332.94 220.363 332.94 219.793V211.671H331.027V210.096H332.107C332.497 210.096 332.76 210.021 332.895 209.871C333.045 209.706 333.12 209.428 333.12 209.038V206.878H334.74V210.096H337.282V211.671H334.74V220.131H337.102V221.706H334.852ZM340.625 207.373C340.235 207.373 339.95 207.283 339.77 207.103C339.605 206.908 339.523 206.661 339.523 206.361V206.068C339.523 205.768 339.605 205.528 339.77 205.348C339.95 205.153 340.235 205.056 340.625 205.056C341.015 205.056 341.293 205.153 341.458 205.348C341.638 205.528 341.728 205.768 341.728 206.068V206.361C341.728 206.661 341.638 206.908 341.458 207.103C341.293 207.283 341.015 207.373 340.625 207.373ZM339.725 210.096H341.525V221.706H339.725V210.096ZM349.288 221.976C348.508 221.976 347.795 221.833 347.15 221.548C346.505 221.263 345.95 220.858 345.485 220.333C345.035 219.793 344.683 219.156 344.428 218.421C344.173 217.671 344.045 216.831 344.045 215.901C344.045 214.986 344.173 214.153 344.428 213.403C344.683 212.653 345.035 212.016 345.485 211.491C345.95 210.951 346.505 210.538 347.15 210.253C347.795 209.968 348.508 209.826 349.288 209.826C350.068 209.826 350.773 209.968 351.403 210.253C352.048 210.538 352.603 210.951 353.068 211.491C353.533 212.016 353.893 212.653 354.148 213.403C354.403 214.153 354.53 214.986 354.53 215.901C354.53 216.831 354.403 217.671 354.148 218.421C353.893 219.156 353.533 219.793 353.068 220.333C352.603 220.858 352.048 221.263 351.403 221.548C350.773 221.833 350.068 221.976 349.288 221.976ZM349.288 220.378C350.263 220.378 351.058 220.078 351.673 219.478C352.288 218.878 352.595 217.963 352.595 216.733V215.068C352.595 213.838 352.288 212.923 351.673 212.323C351.058 211.723 350.263 211.423 349.288 211.423C348.313 211.423 347.518 211.723 346.903 212.323C346.288 212.923 345.98 213.838 345.98 215.068V216.733C345.98 217.963 346.288 218.878 346.903 219.478C347.518 220.078 348.313 220.378 349.288 220.378ZM357.041 221.706V210.096H358.841V211.986H358.931C359.216 211.326 359.613 210.801 360.123 210.411C360.648 210.021 361.346 209.826 362.216 209.826C363.416 209.826 364.361 210.216 365.051 210.996C365.756 211.761 366.108 212.848 366.108 214.258V221.706H364.308V214.573C364.308 212.488 363.431 211.446 361.676 211.446C361.316 211.446 360.963 211.491 360.618 211.581C360.288 211.671 359.988 211.806 359.718 211.986C359.448 212.166 359.231 212.398 359.066 212.683C358.916 212.953 358.841 213.276 358.841 213.651V221.706H357.041ZM49.3711 248.706C48.7411 248.706 48.2611 248.533 47.9311 248.188C47.6161 247.828 47.4586 247.363 47.4586 246.793V238.671H45.5461V237.096H46.6261C47.0161 237.096 47.2786 237.021 47.4136 236.871C47.5636 236.706 47.6386 236.428 47.6386 236.038V233.878H49.2586V237.096H51.8011V238.671H49.2586V247.131H51.6211V248.706H49.3711ZM54.2442 232.056H56.0442V238.986H56.1342C56.4192 238.326 56.8167 237.801 57.3267 237.411C57.8517 237.021 58.5492 236.826 59.4192 236.826C60.6192 236.826 61.5642 237.216 62.2542 237.996C62.9592 238.761 63.3117 239.848 63.3117 241.258V248.706H61.5117V241.573C61.5117 239.488 60.6342 238.446 58.8792 238.446C58.5192 238.446 58.1667 238.491 57.8217 238.581C57.4917 238.671 57.1917 238.806 56.9217 238.986C56.6517 239.166 56.4342 239.398 56.2692 239.683C56.1192 239.953 56.0442 240.276 56.0442 240.651V248.706H54.2442V232.056ZM75.0198 248.706C74.3448 248.706 73.8573 248.526 73.5573 248.166C73.2723 247.806 73.0923 247.356 73.0173 246.816H72.9048C72.6498 247.536 72.2298 248.076 71.6448 248.436C71.0598 248.796 70.3623 248.976 69.5523 248.976C68.3223 248.976 67.3623 248.661 66.6723 248.031C65.9973 247.401 65.6598 246.546 65.6598 245.466C65.6598 244.371 66.0573 243.531 66.8523 242.946C67.6623 242.361 68.9148 242.068 70.6098 242.068H72.9048V240.921C72.9048 240.096 72.6798 239.466 72.2298 239.031C71.7798 238.596 71.0898 238.378 70.1598 238.378C69.4548 238.378 68.8623 238.536 68.3823 238.851C67.9173 239.166 67.5273 239.586 67.2123 240.111L66.1323 239.098C66.4473 238.468 66.9498 237.936 67.6398 237.501C68.3298 237.051 69.1998 236.826 70.2498 236.826C71.6598 236.826 72.7548 237.171 73.5348 237.861C74.3148 238.551 74.7048 239.511 74.7048 240.741V247.131H76.0323V248.706H75.0198ZM69.8448 247.446C70.2948 247.446 70.7073 247.393 71.0823 247.288C71.4573 247.183 71.7798 247.033 72.0498 246.838C72.3198 246.643 72.5298 246.418 72.6798 246.163C72.8298 245.908 72.9048 245.631 72.9048 245.331V243.418H70.5198C69.4848 243.418 68.7273 243.568 68.2473 243.868C67.7823 244.168 67.5498 244.603 67.5498 245.173V245.646C67.5498 246.216 67.7523 246.658 68.1573 246.973C68.5773 247.288 69.1398 247.446 69.8448 247.446ZM80.7164 248.706C80.0864 248.706 79.6064 248.533 79.2764 248.188C78.9614 247.828 78.8039 247.363 78.8039 246.793V238.671H76.8914V237.096H77.9714C78.3614 237.096 78.6239 237.021 78.7589 236.871C78.9089 236.706 78.9839 236.428 78.9839 236.038V233.878H80.6039V237.096H83.1464V238.671H80.6039V247.131H82.9664V248.706H80.7164ZM95.0469 248.976C93.7719 248.976 92.6844 248.736 91.7844 248.256C90.8844 247.761 90.1194 247.086 89.4894 246.231L90.8844 245.061C91.4394 245.796 92.0544 246.358 92.7294 246.748C93.4044 247.123 94.1994 247.311 95.1144 247.311C96.2394 247.311 97.0944 247.041 97.6794 246.501C98.2794 245.961 98.5794 245.241 98.5794 244.341C98.5794 243.591 98.3544 243.013 97.9044 242.608C97.4544 242.203 96.7119 241.881 95.6769 241.641L94.3944 241.348C92.9544 241.018 91.8519 240.523 91.0869 239.863C90.3369 239.188 89.9619 238.243 89.9619 237.028C89.9619 236.338 90.0894 235.723 90.3444 235.183C90.5994 234.643 90.9519 234.193 91.4019 233.833C91.8669 233.473 92.4144 233.203 93.0444 233.023C93.6894 232.828 94.3944 232.731 95.1594 232.731C96.3444 232.731 97.3569 232.948 98.1969 233.383C99.0519 233.818 99.7719 234.456 100.357 235.296L98.9394 236.331C98.5044 235.731 97.9794 235.258 97.3644 234.913C96.7494 234.568 95.9844 234.396 95.0694 234.396C94.0644 234.396 93.2694 234.613 92.6844 235.048C92.1144 235.468 91.8294 236.106 91.8294 236.961C91.8294 237.711 92.0694 238.281 92.5494 238.671C93.0444 239.046 93.7869 239.346 94.7769 239.571L96.0594 239.863C97.6044 240.208 98.7219 240.733 99.4119 241.438C100.102 242.143 100.447 243.081 100.447 244.251C100.447 244.971 100.319 245.623 100.064 246.208C99.8244 246.793 99.4719 247.288 99.0069 247.693C98.5419 248.098 97.9719 248.413 97.2969 248.638C96.6369 248.863 95.8869 248.976 95.0469 248.976ZM107.401 248.976C106.591 248.976 105.863 248.833 105.218 248.548C104.573 248.263 104.026 247.858 103.576 247.333C103.141 246.808 102.803 246.171 102.563 245.421C102.338 244.671 102.226 243.831 102.226 242.901C102.226 241.971 102.338 241.131 102.563 240.381C102.803 239.631 103.141 238.993 103.576 238.468C104.026 237.943 104.573 237.538 105.218 237.253C105.863 236.968 106.591 236.826 107.401 236.826C108.556 236.826 109.478 237.081 110.168 237.591C110.873 238.086 111.398 238.738 111.743 239.548L110.236 240.313C110.026 239.713 109.681 239.248 109.201 238.918C108.721 238.588 108.121 238.423 107.401 238.423C106.861 238.423 106.388 238.513 105.983 238.693C105.578 238.858 105.241 239.098 104.971 239.413C104.701 239.713 104.498 240.081 104.363 240.516C104.228 240.936 104.161 241.401 104.161 241.911V243.891C104.161 244.911 104.431 245.751 104.971 246.411C105.526 247.056 106.336 247.378 107.401 247.378C108.856 247.378 109.906 246.703 110.551 245.353L111.856 246.231C111.481 247.071 110.918 247.738 110.168 248.233C109.433 248.728 108.511 248.976 107.401 248.976ZM122.384 248.706C121.709 248.706 121.222 248.526 120.922 248.166C120.637 247.806 120.457 247.356 120.382 246.816H120.269C120.014 247.536 119.594 248.076 119.009 248.436C118.424 248.796 117.727 248.976 116.917 248.976C115.687 248.976 114.727 248.661 114.037 248.031C113.362 247.401 113.024 246.546 113.024 245.466C113.024 244.371 113.422 243.531 114.217 242.946C115.027 242.361 116.279 242.068 117.974 242.068H120.269V240.921C120.269 240.096 120.044 239.466 119.594 239.031C119.144 238.596 118.454 238.378 117.524 238.378C116.819 238.378 116.227 238.536 115.747 238.851C115.282 239.166 114.892 239.586 114.577 240.111L113.497 239.098C113.812 238.468 114.314 237.936 115.004 237.501C115.694 237.051 116.564 236.826 117.614 236.826C119.024 236.826 120.119 237.171 120.899 237.861C121.679 238.551 122.069 239.511 122.069 240.741V247.131H123.397V248.706H122.384ZM117.209 247.446C117.659 247.446 118.072 247.393 118.447 247.288C118.822 247.183 119.144 247.033 119.414 246.838C119.684 246.643 119.894 246.418 120.044 246.163C120.194 245.908 120.269 245.631 120.269 245.331V243.418H117.884C116.849 243.418 116.092 243.568 115.612 243.868C115.147 244.168 114.914 244.603 114.914 245.173V245.646C114.914 246.216 115.117 246.658 115.522 246.973C115.942 247.288 116.504 247.446 117.209 247.446ZM127.428 248.706C126.798 248.706 126.318 248.533 125.988 248.188C125.673 247.828 125.516 247.378 125.516 246.838V232.056H127.316V247.131H129.026V248.706H127.428ZM135.561 248.976C134.766 248.976 134.046 248.833 133.401 248.548C132.771 248.263 132.224 247.858 131.759 247.333C131.309 246.793 130.956 246.156 130.701 245.421C130.461 244.671 130.341 243.831 130.341 242.901C130.341 241.986 130.461 241.153 130.701 240.403C130.956 239.653 131.309 239.016 131.759 238.491C132.224 237.951 132.771 237.538 133.401 237.253C134.046 236.968 134.766 236.826 135.561 236.826C136.341 236.826 137.039 236.968 137.654 237.253C138.269 237.538 138.794 237.936 139.229 238.446C139.664 238.941 139.994 239.533 140.219 240.223C140.459 240.913 140.579 241.671 140.579 242.496V243.351H132.231V243.891C132.231 244.386 132.306 244.851 132.456 245.286C132.621 245.706 132.846 246.073 133.131 246.388C133.431 246.703 133.791 246.951 134.211 247.131C134.646 247.311 135.134 247.401 135.674 247.401C136.409 247.401 137.046 247.228 137.586 246.883C138.141 246.538 138.569 246.043 138.869 245.398L140.151 246.321C139.776 247.116 139.191 247.761 138.396 248.256C137.601 248.736 136.656 248.976 135.561 248.976ZM135.561 238.333C135.066 238.333 134.616 238.423 134.211 238.603C133.806 238.768 133.454 239.008 133.154 239.323C132.869 239.638 132.644 240.013 132.479 240.448C132.314 240.868 132.231 241.333 132.231 241.843V242.001H138.644V241.753C138.644 240.718 138.359 239.893 137.789 239.278C137.234 238.648 136.491 238.333 135.561 238.333ZM146.582 248.976C145.502 248.976 144.595 248.773 143.86 248.368C143.14 247.948 142.517 247.393 141.992 246.703L143.275 245.668C143.725 246.238 144.227 246.681 144.782 246.996C145.337 247.296 145.982 247.446 146.717 247.446C147.482 247.446 148.075 247.281 148.495 246.951C148.93 246.621 149.147 246.156 149.147 245.556C149.147 245.106 148.997 244.723 148.697 244.408C148.412 244.078 147.887 243.853 147.122 243.733L146.2 243.598C145.66 243.523 145.165 243.411 144.715 243.261C144.265 243.096 143.867 242.886 143.522 242.631C143.192 242.361 142.93 242.031 142.735 241.641C142.555 241.251 142.465 240.786 142.465 240.246C142.465 239.676 142.57 239.181 142.78 238.761C142.99 238.326 143.275 237.966 143.635 237.681C144.01 237.396 144.452 237.186 144.962 237.051C145.472 236.901 146.02 236.826 146.605 236.826C147.55 236.826 148.337 236.991 148.967 237.321C149.612 237.651 150.175 238.108 150.655 238.693L149.462 239.773C149.207 239.413 148.832 239.091 148.337 238.806C147.842 238.506 147.22 238.356 146.47 238.356C145.72 238.356 145.15 238.521 144.76 238.851C144.385 239.166 144.197 239.601 144.197 240.156C144.197 240.726 144.385 241.138 144.76 241.393C145.15 241.648 145.705 241.836 146.425 241.956L147.325 242.091C148.615 242.286 149.53 242.661 150.07 243.216C150.61 243.756 150.88 244.468 150.88 245.353C150.88 246.478 150.497 247.363 149.732 248.008C148.967 248.653 147.917 248.976 146.582 248.976ZM159.106 238.671H157.216V237.096H159.106V234.756C159.106 233.946 159.316 233.293 159.736 232.798C160.156 232.303 160.794 232.056 161.649 232.056H163.404V233.631H160.906V237.096H163.404V238.671H160.906V248.706H159.106V238.671ZM169.621 248.976C168.841 248.976 168.128 248.833 167.483 248.548C166.838 248.263 166.283 247.858 165.818 247.333C165.368 246.793 165.016 246.156 164.761 245.421C164.506 244.671 164.378 243.831 164.378 242.901C164.378 241.986 164.506 241.153 164.761 240.403C165.016 239.653 165.368 239.016 165.818 238.491C166.283 237.951 166.838 237.538 167.483 237.253C168.128 236.968 168.841 236.826 169.621 236.826C170.401 236.826 171.106 236.968 171.736 237.253C172.381 237.538 172.936 237.951 173.401 238.491C173.866 239.016 174.226 239.653 174.481 240.403C174.736 241.153 174.863 241.986 174.863 242.901C174.863 243.831 174.736 244.671 174.481 245.421C174.226 246.156 173.866 246.793 173.401 247.333C172.936 247.858 172.381 248.263 171.736 248.548C171.106 248.833 170.401 248.976 169.621 248.976ZM169.621 247.378C170.596 247.378 171.391 247.078 172.006 246.478C172.621 245.878 172.928 244.963 172.928 243.733V242.068C172.928 240.838 172.621 239.923 172.006 239.323C171.391 238.723 170.596 238.423 169.621 238.423C168.646 238.423 167.851 238.723 167.236 239.323C166.621 239.923 166.313 240.838 166.313 242.068V243.733C166.313 244.963 166.621 245.878 167.236 246.478C167.851 247.078 168.646 247.378 169.621 247.378ZM177.374 248.706V237.096H179.174V239.233H179.286C179.496 238.678 179.871 238.183 180.411 237.748C180.951 237.313 181.694 237.096 182.639 237.096H183.336V238.896H182.279C181.304 238.896 180.539 239.083 179.984 239.458C179.444 239.818 179.174 240.276 179.174 240.831V248.706H177.374ZM193.833 248.706V242.496L188.433 233.001H190.593L194.778 240.561H194.845L199.03 233.001H201.19L195.723 242.428V248.706H193.833ZM206.207 248.976C205.427 248.976 204.715 248.833 204.07 248.548C203.425 248.263 202.87 247.858 202.405 247.333C201.955 246.793 201.602 246.156 201.347 245.421C201.092 244.671 200.965 243.831 200.965 242.901C200.965 241.986 201.092 241.153 201.347 240.403C201.602 239.653 201.955 239.016 202.405 238.491C202.87 237.951 203.425 237.538 204.07 237.253C204.715 236.968 205.427 236.826 206.207 236.826C206.987 236.826 207.692 236.968 208.322 237.253C208.967 237.538 209.522 237.951 209.987 238.491C210.452 239.016 210.812 239.653 211.067 240.403C211.322 241.153 211.45 241.986 211.45 242.901C211.45 243.831 211.322 244.671 211.067 245.421C210.812 246.156 210.452 246.793 209.987 247.333C209.522 247.858 208.967 248.263 208.322 248.548C207.692 248.833 206.987 248.976 206.207 248.976ZM206.207 247.378C207.182 247.378 207.977 247.078 208.592 246.478C209.207 245.878 209.515 244.963 209.515 243.733V242.068C209.515 240.838 209.207 239.923 208.592 239.323C207.977 238.723 207.182 238.423 206.207 238.423C205.232 238.423 204.437 238.723 203.822 239.323C203.207 239.923 202.9 240.838 202.9 242.068V243.733C202.9 244.963 203.207 245.878 203.822 246.478C204.437 247.078 205.232 247.378 206.207 247.378ZM221.115 246.816H221.025C220.905 247.086 220.755 247.356 220.575 247.626C220.41 247.881 220.2 248.113 219.945 248.323C219.69 248.518 219.382 248.676 219.022 248.796C218.662 248.916 218.242 248.976 217.762 248.976C216.562 248.976 215.61 248.593 214.905 247.828C214.2 247.048 213.847 245.953 213.847 244.543V237.096H215.647V244.228C215.647 246.313 216.532 247.356 218.302 247.356C218.662 247.356 219.007 247.311 219.337 247.221C219.682 247.131 219.982 246.996 220.237 246.816C220.507 246.636 220.717 246.411 220.867 246.141C221.032 245.856 221.115 245.518 221.115 245.128V237.096H222.915V248.706H221.115V246.816Z" fill="white"/>
</g>
<defs>
<linearGradient id="paint0_linear_4737_5741" x1="0" y1="0" x2="639.962" y2="175.756" gradientUnits="userSpaceOnUse">
<stop stop-color="#071578"/>
<stop offset="1" stop-color="#00F1BD"/>
</linearGradient>
<clipPath id="clip0_4737_5741">
<rect width="585.486" height="374.112" fill="white"/>
</clipPath>
<clipPath id="clip1_4737_5741">
<rect width="129.385" height="32.6798" fill="white" transform="translate(44.8936 37.4113)"/>
</clipPath>
</defs>
</svg>
