<svg xmlns="http://www.w3.org/2000/svg" viewBox="0 0 397.42942 146.92201"><defs><style>.cls-1{fill:#191c63;}.cls-2{fill:#37c4d4;}.cls-3{fill:#2ddeeb;}.cls-4{fill:#0cedc7;}</style></defs><title>apius_nowe logo</title><g id="logo"><path class="cls-1" d="M271.54968,36.74157a8.858,8.858,0,0,1,2.65548,6.408,8.42447,8.42447,0,0,1-2.65548,6.34991,9.86987,9.86987,0,0,1-13.21929,0,8.51777,8.51777,0,0,1-2.59737-6.34991,9.26654,9.26654,0,0,1,15.81666-6.408Z"/><path class="cls-1" d="M175.169,117.96135H159.94934v-4.49672q-7.72277,6.22623-19.02174,6.22623a26.77126,26.77126,0,0,1-19.82788-8.64754q-8.41741-8.64468-8.416-21.78895,0-13.14283,8.47316-21.84612,8.47317-8.70471,19.77071-8.70471,11.41476,0,19.02174,6.34057V60.433H175.169Zm-20.17664-16.31169a16.46016,16.46016,0,0,0,4.957-12.39529,16.644,16.644,0,0,0-4.957-12.4496,15.867,15.867,0,0,0-11.4119-4.84262,15.38911,15.38911,0,0,0-11.58628,4.72827q-4.5539,4.72542-4.55389,12.56395,0,7.84283,4.55389,12.50964a15.48956,15.48956,0,0,0,11.58628,4.66824A15.96571,15.96571,0,0,0,154.99237,101.64966Z"/><path class="cls-1" d="M240.93607,67.40825q8.47316,8.70473,8.47316,21.84612,0,13.14284-8.416,21.789-8.41741,8.649-19.83074,8.64754-11.29468,0-19.02173-6.22623V146.672H186.924V60.433h15.21682v4.61107q7.61126-6.33771,19.02173-6.34057Q232.46148,58.70354,240.93607,67.40825ZM230.09877,101.764q4.5539-4.66968,4.5539-12.50964,0-7.83854-4.5539-12.56395a15.38909,15.38909,0,0,0-11.58628-4.72827,15.86854,15.86854,0,0,0-11.41475,4.84262,16.644,16.644,0,0,0-4.957,12.4496,16.46012,16.46012,0,0,0,4.957,12.39529,15.96731,15.96731,0,0,0,11.41475,4.78259A15.48954,15.48954,0,0,0,230.09877,101.764Z"/><path class="cls-1" d="M257.35925,117.96135V60.433h15.21968v57.52831Z"/><path class="cls-1" d="M340.01832,117.96135H324.8015v-5.18852q-6.9166,6.91661-18.10123,6.918-10.37277,0-16.71477-6.74365-6.342-6.74508-6.34058-17.46661V60.433h15.21682v31.8201q0,6.11044,3.17028,9.79959a10.60833,10.60833,0,0,0,8.47317,3.68772q14.29631,0,14.29631-19.82789V60.433h15.21682Z"/><path class="cls-1" d="M361.69006,99.63142q1.0377,7.83853,11.875,7.83853a11.71339,11.71339,0,0,0,6.56928-1.6123,4.83044,4.83044,0,0,0,2.42131-4.15082q0-3.80349-6.34058-5.18852L364.45727,94.097q-7.84281-1.6123-12.04938-5.88033a14.36071,14.36071,0,0,1-4.208-10.4914,17.00024,17.00024,0,0,1,6.40061-13.71886q6.39776-5.3,17.11785-5.30287,10.02972,0,16.7748,4.72827a19.19626,19.19626,0,0,1,8.24447,12.33526l-14.52787,2.88156a8.24615,8.24615,0,0,0-3.399-5.76313,12.312,12.312,0,0,0-7.55266-2.19261q-4.15082,0-5.99468,1.67233a5.19807,5.19807,0,0,0-1.84385,3.9793q0,3.68772,5.18852,4.83977L382.327,84.18305q7.37542,1.61231,11.24038,5.93751a14.969,14.969,0,0,1,3.86209,10.317q0,9.33935-6.86086,14.29632t-18.3871,4.957q-10.26127,0-17.52378-4.208a16.20337,16.20337,0,0,1-8.30164-12.73833Z"/><path class="cls-2" d="M226.28016,136.45131V146.672h-1.92578v-10.2207H220.162v-1.73047h10.32813v1.73047Z"/><path class="cls-2" d="M243.89051,146.672h-8.90137V134.72084H243.872v1.73047h-6.97461v3.37109h6.43945v1.71289h-6.43945v3.40625h6.99316Z"/><path class="cls-2" d="M256.98621,144.35268a3.90145,3.90145,0,0,0,1.44434-2.24707l1.85547.39257a5.42448,5.42448,0,0,1-2.06934,3.2461,6.08525,6.08525,0,0,1-3.72851,1.17773,6.22563,6.22563,0,1,1,0-12.45117,6.12017,6.12017,0,0,1,3.71093,1.16016,5.3903,5.3903,0,0,1,2.08692,3.12109l-1.85547.53516a3.90138,3.90138,0,0,0-1.44434-2.24707,4.36614,4.36614,0,0,0-5.55664.50781,4.61641,4.61641,0,0,0,0,6.29687,4.36616,4.36616,0,0,0,5.55664.50782Z"/><path class="cls-2" d="M275.50574,146.672h-1.9082v-5.13672h-6.458V146.672h-1.9082V134.72084h1.9082v5.06543h6.458v-5.06543h1.9082Z"/><path class="cls-2" d="M291.75965,146.672H290.1366l-7.22461-8.58008V146.672h-1.9082V134.72084h1.62305l7.20605,8.72266v-8.72266h1.92676Z"/><path class="cls-2" d="M307.36219,136.29018a6.30843,6.30843,0,1,1-4.43262-1.81934A6.03667,6.03667,0,0,1,307.36219,136.29018Zm-1.36426,7.56347a4.29355,4.29355,0,0,0,1.249-3.13965,4.34647,4.34647,0,0,0-1.249-3.166,4.31691,4.31691,0,0,0-6.127,0,4.36693,4.36693,0,0,0-1.24024,3.166,4.31358,4.31358,0,0,0,1.24024,3.13965,4.338,4.338,0,0,0,6.127,0Z"/><path class="cls-2" d="M322.538,146.672h-8.4375V134.72084h1.9082v10.2207h6.5293Z"/><path class="cls-2" d="M336.97938,136.29018a6.30843,6.30843,0,1,1-4.43262-1.81934A6.03666,6.03666,0,0,1,336.97938,136.29018Zm-1.36426,7.56347a4.29354,4.29354,0,0,0,1.249-3.13965,4.34647,4.34647,0,0,0-1.249-3.166,4.31691,4.31691,0,0,0-6.12695,0,4.36689,4.36689,0,0,0-1.24024,3.166,4.31354,4.31354,0,0,0,1.24024,3.13965,4.338,4.338,0,0,0,6.12695,0Z"/><path class="cls-2" d="M355.43641,139.89369c.02441.42774.03613.70215.03613.82031a6.1635,6.1635,0,0,1-1.69433,4.43262,5.731,5.731,0,0,1-4.335,1.77539,6.09372,6.09372,0,0,1-4.459-1.80176,6.22137,6.22137,0,0,1,4.40527-10.64941,6.72077,6.72077,0,0,1,3.51465.92773,4.97833,4.97833,0,0,1,2.17578,2.6045l-1.73047.60644a4.41585,4.41585,0,0,0-7.001-1.06152,4.34266,4.34266,0,0,0-1.23926,3.14844,4.28365,4.28365,0,0,0,1.2666,3.15722,4.239,4.239,0,0,0,3.1211,1.2666,4.03427,4.03427,0,0,0,2.72949-.9541,4.13516,4.13516,0,0,0,1.373-2.52441h-4.74511v-1.74805Z"/><path class="cls-2" d="M360.41785,146.672V134.72084h1.90821V146.672Z"/><path class="cls-2" d="M376.72449,146.672h-8.90136V134.72084h8.88281v1.73047h-6.97461v3.37109h6.43945v1.71289h-6.43945v3.40625h6.99316Z"/><path class="cls-2" d="M389.06141,135.381a3.93391,3.93391,0,0,1,1.56152,2.46191l-1.90918.3916a2.35854,2.35854,0,0,0-.90918-1.52441,2.88461,2.88461,0,0,0-1.81933-.58008,2.654,2.654,0,0,0-1.69532.50879,1.59671,1.59671,0,0,0-.6416,1.31055,1.31136,1.31136,0,0,0,.36524.98144,2.28394,2.28394,0,0,0,1.15039.5166l2.58691.55371q3.06738.67677,3.06836,3.26368a3.21876,3.21876,0,0,1-1.25781,2.667,5.22672,5.22672,0,0,1-3.32715.99023,5.81635,5.81635,0,0,1-3.35352-.93652,3.57246,3.57246,0,0,1-1.58691-2.61328l2.0332-.42871a2.57673,2.57673,0,0,0,1.03418,1.7041,3.46928,3.46928,0,0,0,2.05176.5791,2.9842,2.9842,0,0,0,1.8457-.50781,1.60838,1.60838,0,0,0,.66895-1.34668,1.34454,1.34454,0,0,0-.38281-1.03516,2.77982,2.77982,0,0,0-1.29395-.55273l-2.60351-.53516q-3.01466-.6958-3.01465-3.24609a3.12772,3.12772,0,0,1,1.2041-2.55957,4.91184,4.91184,0,0,1,3.18359-.97266A4.99847,4.99847,0,0,1,389.06141,135.381Z"/><path class="cls-3" d="M80.204,86.30164a9.00123,9.00123,0,0,1-7.27344-14.291L97.74207,37.86024a9.00006,9.00006,0,0,1,14.5625,10.58008L87.49305,82.59071A8.98873,8.98873,0,0,1,80.204,86.30164Z"/><path class="cls-4" d="M105.03114,52.15125a8.99007,8.99007,0,0,1-7.28907-3.71093L72.93055,14.2909A9.00006,9.00006,0,1,1,87.49305,3.71082l24.81152,34.14942a9.00123,9.00123,0,0,1-7.27343,14.291Z"/><path class="cls-3" d="M33.81922,86.30164a8.98873,8.98873,0,0,1-7.28906-3.71093L1.71961,48.44032a9.00006,9.00006,0,0,1,14.5625-10.58008L41.09266,72.01063a9.00123,9.00123,0,0,1-7.27344,14.291Z"/><path class="cls-4" d="M8.99305,52.15125a9.00123,9.00123,0,0,1-7.27344-14.291L26.53016,3.71082A9.00006,9.00006,0,0,1,41.09266,14.2909L16.28211,48.44032A8.98873,8.98873,0,0,1,8.99305,52.15125Z"/><path class="cls-3" d="M55.5243,67.01746a8.13489,8.13489,0,0,1-6.59668-3.35839L37.50477,47.93739a8.14567,8.14567,0,0,1,13.17969-9.57618L62.10731,54.08289a8.14672,8.14672,0,0,1-6.583,12.93457Z"/><path class="cls-4" d="M44.08778,51.29578a8.14672,8.14672,0,0,1-6.583-12.93457L48.92762,22.63953a8.14567,8.14567,0,0,1,13.17969,9.57618L50.68446,47.93739A8.13623,8.13623,0,0,1,44.08778,51.29578Z"/><path class="cls-2" d="M114.00843,42.70838c-.0061-.127-.01977-.25342-.03125-.37988-.01538-.166-.03-.33154-.05444-.49609-.0166-.11182-.04-.22315-.06079-.335-.03247-.17382-.06543-.34814-.10816-.52-.02734-.11084-.06225-.2207-.09424-.33056-.04785-.166-.0957-.332-.15332-.49512-.04541-.12891-.09961-.25537-.15136-.38281-.05616-.13867-.11011-.27735-.17286-.41309-.07592-.1626-.16259-.32177-.24877-.48144-.05176-.09619-.09961-.19385-.155-.28809-.11719-.19873-.24732-.39258-.3816-.585-.04419-.06348-.083-.12939-.12915-.19189l-.04443-.06153a9.00336,9.00336,0,0,0-14.481.11231l-3.8435,5.29,3.8435,5.29a9.00334,9.00334,0,0,0,14.481.1123l.04443-.06152c.04615-.0625.085-.12891.12915-.1919.13428-.19238.26441-.38623.3816-.58545.05542-.09424.10327-.19189.155-.28759.08618-.15967.17285-.31885.24877-.48145.06275-.13574.1167-.2749.17286-.41309.05175-.12744.10595-.2539.15136-.3833.05762-.16308.10547-.32861.15332-.49463.032-.11035.0669-.21972.09424-.33056.04273-.17237.07569-.34619.10816-.52051.02075-.11133.04419-.22266.06079-.335.02441-.16406.03906-.33008.05444-.49561.01148-.12646.02515-.25341.03125-.38037.00732-.14648.0061-.29394.0061-.4414S114.01575,42.85535,114.00843,42.70838Z"/><path class="cls-2" d="M16.28211,37.86024a9.00334,9.00334,0,0,0-14.48095-.11231l-.04444.06153c-.04614.062-.085.12841-.12915.19189-.13428.19238-.2644.38623-.38159.585-.05542.09424-.10327.1919-.155.28809-.08618.15967-.17285.31884-.24878.48144-.06274.13574-.1167.27442-.17285.41309-.05176.12744-.106.2539-.15137.38281-.05762.16309-.10547.3291-.15332.49512-.032.10986-.06689.21972-.09424.33056-.04272.17188-.07568.3462-.10815.52-.02075.11182-.04419.22315-.06079.335C.077,41.997.06239,42.16248.047,42.3285c-.01147.12646-.02514.25293-.03125.37988-.00732.147-.0061.29444-.0061.4419s-.00122.29492.0061.4414c.00611.127.01978.25391.03125.38037.01539.16553.03.33155.05445.49561.0166.1123.04.22363.06079.335.03247.17432.06543.34814.10815.52051.02735.11084.06226.22021.09424.33056.04785.166.0957.33155.15332.49463.04541.1294.09961.25586.15137.3833.05615.13819.11011.27735.17285.41309.07593.1626.1626.32178.24878.48145.05176.0957.09961.19335.155.28759.11719.19922.24731.39307.38159.58545.04419.06348.083.1294.12915.1919l.04444.06152a9.0001,9.0001,0,0,0,14.481-.1123l3.84326-5.29Z"/><path class="cls-2" d="M50.68446,38.36121a8.14869,8.14869,0,0,0-13.106-.10156l-.04077.05615c-.041.05567-.07544.11475-.115.17139-.12232.1748-.24048.35156-.34717.53223-.04956.084-.092.17138-.13843.25683-.07861.14551-.15747.29053-.22656.439-.05689.12256-.10571.24853-.1565.37353-.04687.11524-.09594.23-.1372.34668-.05176.14746-.095.29688-.13819.44629-.02929.10059-.06079.20069-.08593.30176-.03858.15478-.06787.31152-.09717.46826-.019.10156-.04053.20313-.05542.30567-.02222.14892-.0354.29882-.04932.44873-.0105.11425-.0227.22851-.02832.34277-.00659.1333-.00537.2666-.00561.40039.00024.1333-.001.26709.00561.40039.00562.11426.01782.22852.02832.34277.01392.14991.0271.29981.04932.44873.01489.10205.03638.20362.05542.30567.0293.15674.05859.313.09717.46826.02514.10107.05664.20117.08593.30176.04322.14941.08643.29883.13819.4458.04126.1167.09033.23193.1372.34717.05079.125.09961.251.1565.37353.06909.148.148.29346.22656.43848.04639.08594.08887.17285.13843.25732.10669.18067.22485.35742.34717.53223.03955.05664.074.11572.115.17139l.04077.05615a8.14573,8.14573,0,0,0,13.106-.10156l3.479-4.78809Z"/><circle class="cls-2" cx="73.99956" cy="43.16362" r="8.11608"/></g></svg>