<svg xmlns="http://www.w3.org/2000/svg" width="188.991" height="47.534" viewBox="0 0 188.991 47.534"><defs><style>.a{fill:#657172;}.b{fill:#06589e;}</style></defs><g transform="translate(-391 -28)"><g transform="translate(443 34)"><path class="a" d="M28.08,18.2a.813.813,0,0,1,.92.88v2.64C29,26.44,27.36,28,22.44,28H6.72C2.08,28,0,26.08,0,21.6V6.4C0,1.92,2.08,0,6.72,0H22.44C27.36,0,29,1.56,29,6.28V8.92a.813.813,0,0,1-.92.88h-6a.813.813,0,0,1-.92-.88V7.68c0-.84-.4-1.24-1.32-1.24H11.16c-2.6,0-3.08.4-3.08,2.56V19c0,2.16.48,2.56,3.08,2.56h8.68c.92,0,1.32-.4,1.32-1.24V19.08a.813.813,0,0,1,.92-.88Z"/><path class="a" d="M41.76,11.88a.789.789,0,0,1,.88-.84h12.8c1.44,0,1.88-.44,1.88-1.56V7.56c0-1.12-.44-1.56-1.88-1.56H43.64c-1.08,0-1.52.44-1.52,1.44v.52c0,1.16-1.64.84-2.68.84H35.8a.789.789,0,0,1-.88-.84V6.36C34.92,1.64,36.64,0,41.56,0H58.12c4.72,0,6.68,1.92,6.68,6.4V7.68c0,3.56-1.24,5.48-4.08,6.16,3.16.56,4.52,2.48,4.52,6.2V21.6c0,4.48-2,6.4-6.68,6.4h-18c-4.88,0-6.6-1.64-6.6-6.36v-1.6a.789.789,0,0,1,.88-.84h5.44a.789.789,0,0,1,.88.84v.52c0,1,.44,1.44,1.52,1.44h13.2c1.4,0,1.88-.44,1.88-1.56V18.28c0-1.12-.48-1.56-1.88-1.56H42.64a.789.789,0,0,1-.88-.84Z"/><path class="a" d="M77.16,19.2a.831.831,0,0,1,.92.88v.24c0,.84.36,1.24,1.28,1.24H90.24c1.32,0,1.72-.4,1.72-1.4v-1.8c0-1-.4-1.4-1.72-1.4H77.28c-4.72,0-6.68-1.92-6.68-6.4V6.4c0-4.48,1.96-6.4,6.68-6.4H92.96c4.88,0,6.52,1.56,6.52,6.28V7.92a.813.813,0,0,1-.92.88h-6a.813.813,0,0,1-.92-.88V7.68c0-.84-.36-1.24-1.32-1.24H80.4c-1.32,0-1.72.4-1.72,1.4V9.4c0,1,.4,1.4,1.72,1.4H93.36c4.72,0,6.68,1.92,6.68,6.4v4.4c0,4.48-1.96,6.4-6.68,6.4H76.76c-4.92,0-6.52-1.56-6.52-6.28V20.08a.813.813,0,0,1,.92-.88h6Z"/><path class="a" d="M126.64,23.24H113.16l-1.52,3.92a1.2,1.2,0,0,1-1.28.84h-6.6c-.52,0-.76-.4-.56-.92L114.2.84A1.223,1.223,0,0,1,115.52,0h9.12a1.233,1.233,0,0,1,1.28.84l11,26.24c.2.52-.04.92-.52.92h-6.96a1.175,1.175,0,0,1-1.28-.84ZM115.6,16.96h8.56L119.88,5.92Z"/></g><g transform="translate(391.009 27.999)"><path class="b" d="M20.113.47A2.958,2.958,0,0,1,22.23.1a23.983,23.983,0,0,1,2.743,1.54c1.183.8,2.626,1.3,3.54,2.46A9.169,9.169,0,0,1,25.932,5.6a138.375,138.375,0,0,0-13.555,7.653c-1.178.714-2.205,1.853-3.623,2.049-2.293-.015-4.274-1.335-6.42-1.941a11.232,11.232,0,0,0,.861.738,123.628,123.628,0,0,0,17.34,10.3c.685.381,1.707.748,1.716,1.7a49.214,49.214,0,0,1,0,6.3.947.947,0,0,1-.748,1.042,15.7,15.7,0,0,1-2.567-1.159,131.156,131.156,0,0,1-16.968-10.4c-.88-.611-1.966-1.34-1.946-2.567-.049-2-.039-4,0-5.99a2.791,2.791,0,0,1,1.2-1.971A101.18,101.18,0,0,1,20.113.47Z" transform="translate(0 0)"/><path class="b" d="M46.854,8.856c1.208-.587,2.665-1.477,4-.763,1.594,1.247,3.423,2.122,5.105,3.227,1.076.822.8,2.367.968,3.57a89.236,89.236,0,0,1,.3,10.606,84.885,84.885,0,0,1-.67,9.838c-.122.719-.029,1.628-.709,2.088-.958.68-2.039,1.144-3.027,1.77a17.6,17.6,0,0,1-3.433,1.78c-.274-2.342.205-4.685.23-7.027.064-4.259.049-8.523,0-12.782.02-1.12-.333-2.308.112-3.379,1.125-1.922,3.139-2.973,4.65-4.513A15.011,15.011,0,0,0,51.2,14.665a128.165,128.165,0,0,0-15.613,9.359,1.944,1.944,0,0,1-2.122.2,23.075,23.075,0,0,1-5.76-3.7,6.664,6.664,0,0,1,2.416-2.049A126.078,126.078,0,0,1,46.854,8.856Z" transform="translate(-14.159 -4)"/><path class="b" d="M30.69,38.959A24.38,24.38,0,0,1,35.082,36.6c.318-.127.895-.024.919.4a140.935,140.935,0,0,1,.318,17.892c-.068,1.731-.328,3.447-.411,5.178-.093.861-.015,1.927-.768,2.518A33.324,33.324,0,0,1,31.292,64.9a10.606,10.606,0,0,1-2.621,1.31,10.453,10.453,0,0,1-2.479-.919A100.36,100.36,0,0,1,8.128,54.107a2.664,2.664,0,0,1-.89-2.494c.171-1.819-.01-3.648.132-5.467.039-.274.112-.851.518-.7a6.164,6.164,0,0,1,1.291.768,134.185,134.185,0,0,0,15.33,9.4c1.007.538,2.259.929,2.738,2.1.8,1.878.65,4,1.266,5.931a7.184,7.184,0,0,0,.328-1.7c.235-4.43.513-8.875.323-13.31,0-2.548-.3-5.086-.372-7.628C28.842,39.946,29.918,39.448,30.69,38.959Z" transform="translate(-3.688 -18.675)"/></g></g></svg>