<?xml version="1.0" encoding="utf-8"?>
<!-- Generator: Adobe Illustrator 29.1.0, SVG Export Plug-In . SVG Version: 9.03 Build 55587)  -->
<svg version="1.1" id="レイヤー_1" xmlns="http://www.w3.org/2000/svg" xmlns:xlink="http://www.w3.org/1999/xlink" x="0px"
	 y="0px" viewBox="0 0 1000 200" style="enable-background:new 0 0 1000 200;" xml:space="preserve">
<style type="text/css">
	.st0{fill:#595757;}
	.st1{fill:#FFFFFF;}
	.st2{fill:#EF8205;}
	.st3{fill:url(#SVGID_1_);}
</style>
<g>
	<path class="st0" d="M405.34,41.13c7.59,0,13.07,2.63,18.18,6.99c0.6,0.6,0.68,1.5,0.08,2.1l-2.03,2.03
		c-0.6,0.75-1.2,0.68-1.95-0.07c-3.91-3.38-9.24-5.64-14.35-5.64c-11.87,0-20.96,9.99-20.96,21.64c0,11.57,9.09,21.57,20.96,21.57
		c6.54,0,10.37-2.63,14.35-5.64c0.75-0.6,1.35-0.53,1.8-0.23l2.25,2.03c0.6,0.45,0.45,1.5-0.08,2.03
		c-5.11,4.96-11.57,7.29-18.26,7.29c-15.03,0-27.13-11.95-27.13-26.97S390.31,41.13,405.34,41.13z M457.7,41.13
		c15.03,0,27.05,12.1,27.05,27.13s-12.02,26.97-27.05,26.97c-15.03,0-26.98-11.95-26.98-26.97S442.67,41.13,457.7,41.13z
		 M457.7,89.97c11.95,0,21.79-9.77,21.79-21.72c0-11.95-9.84-21.87-21.79-21.87c-11.95,0-21.72,9.92-21.72,21.87
		C435.99,80.2,445.76,89.97,457.7,89.97z M494.82,42.48c0-0.75,0.68-1.35,1.43-1.35h1.88l33.89,42.23c0.08,0,0.08,0,0.15,0V43.31
		c0-0.75,0.6-1.43,1.43-1.43h2.63c0.75,0,1.43,0.68,1.43,1.43v50.57c0,0.75-0.68,1.35-1.43,1.35h-1.35l-34.49-43.05h-0.07v40.88
		c0,0.75-0.6,1.43-1.43,1.43h-2.63c-0.75,0-1.43-0.68-1.43-1.43V42.48z M549.82,86.59c0.38-0.45,0.75-0.98,1.13-1.43
		c0.75-0.98,1.58-1.58,2.63-0.68c0.53,0.45,6.01,5.71,12.7,5.71c6.09,0,10.07-3.83,10.07-8.27c0-5.18-4.51-8.26-13.15-11.87
		c-8.27-3.61-13.23-6.99-13.23-15.55c0-5.11,4.06-13.37,16.01-13.37c7.36,0,12.85,3.83,12.85,3.83c0.45,0.23,1.35,1.13,0.45,2.55
		c-0.3,0.45-0.6,0.98-0.9,1.43c-0.68,1.05-1.43,1.35-2.63,0.68c-0.53-0.3-5.26-3.46-9.84-3.46c-7.97,0-10.37,5.11-10.37,8.27
		c0,5.03,3.83,7.96,10.14,10.59c10.14,4.13,16.68,7.97,16.68,16.68c0,7.82-7.44,13.53-16.23,13.53c-8.87,0-14.88-5.18-15.85-6.09
		C549.67,88.62,548.92,88.01,549.82,86.59z M601.74,46.91h-13.07c-0.83,0-1.43-0.68-1.43-1.43v-2.18c0-0.75,0.6-1.43,1.43-1.43
		h31.86c0.83,0,1.43,0.68,1.43,1.43v2.18c0,0.75-0.6,1.43-1.43,1.43h-13.07v46.14c0,0.75-0.68,1.43-1.43,1.43h-2.85
		c-0.75,0-1.43-0.68-1.43-1.43V46.91z M629.84,43.31c0-0.75,0.6-1.43,1.43-1.43h29.6c0.83,0,1.43,0.68,1.43,1.43v2.18
		c0,0.75-0.6,1.43-1.43,1.43h-25.25v18.33h21.57c0.75,0,1.43,0.68,1.43,1.43v2.18c0,0.83-0.68,1.43-1.43,1.43h-21.57v19.16h25.25
		c0.83,0,1.43,0.68,1.43,1.43v2.18c0,0.75-0.6,1.43-1.43,1.43h-29.6c-0.83,0-1.43-0.68-1.43-1.43V43.31z M674.17,43.31
		c0-0.75,0.6-1.43,1.43-1.43h2.93c0.75,0,1.43,0.68,1.43,1.43v46.14h21.64c0.83,0,1.43,0.68,1.43,1.43v2.18
		c0,0.75-0.6,1.43-1.43,1.43h-26c-0.83,0-1.43-0.68-1.43-1.43V43.31z M710.92,43.31c0-0.75,0.6-1.43,1.43-1.43h2.93
		c0.75,0,1.43,0.68,1.43,1.43v46.14h21.64c0.83,0,1.43,0.68,1.43,1.43v2.18c0,0.75-0.6,1.43-1.43,1.43h-26
		c-0.83,0-1.43-0.68-1.43-1.43V43.31z M744.05,92.52l22.84-50.57c0.23-0.45,0.6-0.83,1.28-0.83h0.75c0.68,0,1.05,0.37,1.28,0.83
		l22.69,50.57c0.45,0.98-0.15,1.95-1.28,1.95h-3c-0.68,0-1.13-0.45-1.28-0.83l-5.56-12.4H755.1l-5.48,12.4
		c-0.15,0.38-0.6,0.83-1.28,0.83h-3C744.2,94.48,743.6,93.5,744.05,92.52z M779.74,76.59c-3.68-8.19-7.29-16.46-10.97-24.65h-0.6
		L757.2,76.59H779.74z M392.9,136.22c-4.92-2.05-6.93-4.13-6.93-7.17c0-1.91,1.46-5.51,6.99-5.51c1.3,0,3.51,0.4,6.59,2.28l0.16,0.1
		c0.92,0.52,1.62,0.34,2.2-0.56c0.1-0.16,0.21-0.32,0.31-0.49c0.11-0.17,0.21-0.35,0.32-0.51c0.36-0.57,0.34-1.04,0.26-1.32
		c-0.12-0.43-0.44-0.73-0.65-0.83c-0.16-0.11-3.97-2.73-9.15-2.73c-8.41,0-11.47,5.76-11.47,9.63c0,5.93,3.17,8.4,9.42,11.13
		c5.72,2.39,9.04,4.47,9.04,8.06c0,3.14-2.91,5.52-6.78,5.52c-3.76,0-7.01-2.41-8.61-3.85l-0.1-0.08c-0.33-0.28-0.66-0.4-0.99-0.37
		c-0.54,0.06-0.94,0.5-1.23,0.88c-0.13,0.16-0.26,0.33-0.39,0.5c-0.13,0.17-0.26,0.34-0.4,0.5c-0.01,0.01-0.01,0.02-0.02,0.03
		c-0.74,1.17-0.09,1.73,0.36,2.13c0.78,0.72,5.01,4.33,11.28,4.33c6.52,0,11.63-4.27,11.63-9.73
		C404.74,141.58,399.38,138.86,392.9,136.22z M433.97,120.01h-20.71c-0.7,0-1.27,0.57-1.27,1.27v34.8c0,0.7,0.57,1.27,1.27,1.27
		h20.71c0.7,0,1.27-0.57,1.27-1.27v-1.53c0-0.7-0.57-1.27-1.27-1.27h-17.4v-12.87h14.82c0.7,0,1.27-0.57,1.27-1.27v-1.52
		c0-0.67-0.59-1.27-1.27-1.27h-14.82v-12.29h17.4c0.7,0,1.27-0.57,1.27-1.27v-1.52C435.24,120.58,434.67,120.01,433.97,120.01z
		 M470.5,149.44c-0.34-0.23-0.89-0.38-1.57,0.17c-2.92,2.2-5.5,3.89-9.88,3.89c-7.94,0-14.4-6.65-14.4-14.82
		c0-8.2,6.46-14.87,14.4-14.87c3.37,0,7.06,1.45,9.85,3.87c0.36,0.36,0.66,0.51,0.99,0.5c0.28-0.02,0.53-0.17,0.75-0.45l1.42-1.42
		c0.24-0.24,0.37-0.55,0.37-0.88c0-0.36-0.15-0.7-0.44-0.99c-4.01-3.43-7.99-4.95-12.9-4.95c-10.61,0-19.25,8.63-19.25,19.25
		c0,10.55,8.63,19.14,19.25,19.14c4.99,0,9.47-1.79,12.97-5.18c0.27-0.27,0.43-0.7,0.4-1.09c-0.02-0.31-0.16-0.57-0.36-0.72
		L470.5,149.44z M506.01,120.01h-2c-0.7,0-1.27,0.57-1.27,1.27v22.03c0,6.16-3.91,10.3-9.72,10.3c-5.66,0-9.61-4.28-9.61-10.4
		v-21.92c0-0.7-0.57-1.27-1.27-1.27h-2c-0.67,0-1.27,0.59-1.27,1.27v22.24c0,8.32,5.95,14.36,14.15,14.36
		c8.26,0,14.25-6.04,14.25-14.36v-22.24C507.27,120.6,506.68,120.01,506.01,120.01z M542.87,131.48c0-3.09-1.22-5.98-3.45-8.14
		c-2.21-2.15-5.15-3.33-8.28-3.33h-13.62c-0.7,0-1.27,0.57-1.27,1.27v34.8c0,0.7,0.57,1.27,1.27,1.27h2.05
		c0.67,0,1.27-0.59,1.27-1.27v-13.14h9.61l6.92,13.78c0.07,0.15,0.37,0.62,1.08,0.62h2.68c0.49,0,0.9-0.22,1.13-0.6
		c0.23-0.39,0.23-0.89,0-1.32l-7.06-13.09C539.94,140.32,542.87,136.18,542.87,131.48z M538.18,131.53c0,4.09-3.28,7.41-7.3,7.41
		h-9.93v-14.55h9.93C534.77,124.38,538.18,127.72,538.18,131.53z M555.44,120.01h-2.1c-0.67,0-1.27,0.59-1.27,1.27v34.8
		c0,0.67,0.59,1.27,1.27,1.27h2.1c0.67,0,1.27-0.59,1.27-1.27v-34.8C556.71,120.6,556.11,120.01,555.44,120.01z M587.2,120.01H564.9
		c-0.7,0-1.27,0.57-1.27,1.27v1.52c0,0.7,0.57,1.27,1.27,1.27h8.88v32.01c0,0.67,0.59,1.27,1.27,1.27h2c0.68,0,1.27-0.59,1.27-1.27
		v-32.01h8.88c0.7,0,1.27-0.57,1.27-1.27v-1.52C588.46,120.58,587.89,120.01,587.2,120.01z M620.74,120.01h-2.47
		c-0.46,0-0.85,0.3-1.06,0.58l-10.4,14.37l-10.41-14.37c-0.21-0.28-0.6-0.58-1.06-0.58h-2.47c-0.48,0-0.9,0.23-1.12,0.63
		c-0.22,0.4-0.21,0.89,0.06,1.32l12.62,17.49v16.63c0,0.7,0.57,1.27,1.27,1.27h2.05c0.67,0,1.27-0.59,1.27-1.27V139.4l12.79-17.45
		c0.26-0.42,0.27-0.9,0.05-1.31C621.64,120.24,621.22,120.01,620.74,120.01z M651.82,120.01h-2.05c-0.7,0-1.27,0.57-1.27,1.27v24.67
		c0,5.62-3.31,7.62-6.15,7.62c-2.16,0-4-1.69-4.9-2.7c-0.32-0.36-0.65-0.68-1.09-0.7c-0.35-0.04-0.68,0.15-1.1,0.54l-1.1,1.26
		c0,0,0,0,0,0c-0.4,0.46-0.45,1.12-0.11,1.66c2.11,2.61,4.95,3.99,8.2,3.99c6.58,0,10.84-4.63,10.84-11.78v-24.56
		C653.09,120.58,652.52,120.01,651.82,120.01z M676.25,120.21c-0.3-0.6-0.78-0.73-1.13-0.73h-0.53c-0.35,0-0.83,0.13-1.14,0.74
		l-15.98,35.38c-0.19,0.41-0.17,0.85,0.05,1.2c0.22,0.35,0.62,0.55,1.09,0.55h2.1c0.58,0,1-0.39,1.14-0.74l3.77-8.51h18.31
		l3.82,8.51c0.14,0.36,0.56,0.75,1.14,0.75h2.1c0.47,0,0.86-0.2,1.09-0.55c0.22-0.35,0.24-0.78,0.05-1.19L676.25,120.21z
		 M667.33,144.3l7.44-16.71h0.07c1.27,2.83,2.53,5.67,3.79,8.51c1.21,2.74,2.42,5.47,3.65,8.2H667.33z M710.97,120.01h-11.62
		c-0.7,0-1.27,0.57-1.27,1.27v34.8c0,0.7,0.57,1.27,1.27,1.27h2c0.68,0,1.27-0.59,1.27-1.27v-12.09h8.4
		c6.61,0,11.99-5.43,11.99-12.1C723.02,125.34,717.61,120.01,710.97,120.01z M718.43,131.79c0,4.29-3.46,7.78-7.72,7.78h-8.09
		v-15.03h8.09C714.97,124.54,718.43,127.79,718.43,131.79z M740.76,120.21c-0.3-0.6-0.78-0.73-1.13-0.73h-0.53
		c-0.51,0-0.9,0.25-1.14,0.74l-15.98,35.38c-0.19,0.41-0.17,0.85,0.05,1.2c0.22,0.35,0.62,0.55,1.09,0.55h2.1
		c0.58,0,0.99-0.38,1.14-0.74l3.77-8.51h18.31l3.82,8.51c0.15,0.37,0.56,0.75,1.14,0.75h2.1c0.47,0,0.86-0.2,1.09-0.55
		c0.22-0.35,0.24-0.78,0.05-1.19L740.76,120.21z M746.79,144.3h-14.94l7.44-16.71h0.07c1.27,2.83,2.53,5.67,3.79,8.51
		C744.35,138.83,745.56,141.57,746.79,144.3z M790.74,120.01h-1.84c-0.7,0-1.27,0.57-1.27,1.27v27.39l-23.34-29.08
		c-0.05-0.06-0.13-0.1-0.21-0.1h-1.32c-0.69,0-1.27,0.56-1.27,1.21v35.38c0,0.67,0.59,1.27,1.27,1.27h1.84
		c0.7,0,1.27-0.57,1.27-1.27v-27.9l23.7,29.59c0.05,0.06,0.13,0.1,0.21,0.1h0.95c0.69,0,1.27-0.56,1.27-1.21v-35.38
		C792,120.6,791.41,120.01,790.74,120.01z"/>
	<g>
		<polygon class="st1" points="267.52,110.36 272.63,138.06 256.66,114.86 240.68,138.06 245.8,110.36 218.09,115.47 241.3,99.5 
			218.09,83.53 245.8,88.64 240.68,60.94 256.66,84.14 272.63,60.94 267.52,88.64 295.22,83.53 272.02,99.5 295.22,115.47 		"/>
		<g>
			<polyline class="st2" points="232.48,41.13 229.76,45.07 240.68,60.94 237.19,42 232.48,41.13 			"/>
			<polyline class="st2" points="272.63,138.06 276.13,157 280.84,157.87 283.55,153.93 272.63,138.06 			"/>
			<polyline class="st2" points="202.23,72.61 198.28,75.32 199.15,80.03 218.09,83.53 202.23,72.61 			"/>
			<polyline class="st2" points="295.22,115.47 311.09,126.39 315.03,123.68 314.16,118.97 295.22,115.47 			"/>
			<polyline class="st2" points="240.68,138.06 229.76,153.93 232.48,157.87 237.19,157 240.68,138.06 			"/>
			<polyline class="st2" points="218.09,115.47 199.15,118.97 198.28,123.68 202.23,126.39 218.09,115.47 			"/>
			
				<radialGradient id="SVGID_1_" cx="-1934.621" cy="-701.0084" r="233.752" gradientTransform="matrix(0.4 0 0 0.4 1030.4987 379.9007)" gradientUnits="userSpaceOnUse">
				<stop  offset="9.507276e-04" style="stop-color:#FFF000"/>
				<stop  offset="0.2195" style="stop-color:#FEEB00"/>
				<stop  offset="0.4784" style="stop-color:#FCDD00"/>
				<stop  offset="0.7567" style="stop-color:#F9C500"/>
				<stop  offset="0.9993" style="stop-color:#F5AA00"/>
			</radialGradient>
			<path class="st3" d="M256.66,6l24.18,35.13L276.13,42l-3.5,18.94l-15.97,23.21l-15.97-23.21L237.19,42l-4.71-0.87L256.66,6
				 M256.66,114.86l-15.97,23.21l-3.5,18.94l-4.71,0.87L256.66,193l24.18-35.13l-4.71-0.87l-3.5-18.94L256.66,114.86 M190.54,33.39
				l7.74,41.94l3.94-2.71l15.86,10.92l27.7,5.11l-5.11-27.7l-10.92-15.86l2.71-3.94L190.54,33.39 M267.52,110.36l5.11,27.7
				l10.92,15.86l-2.71,3.94l41.94,7.74l-7.74-41.94l-3.94,2.71l-15.86-10.92L267.52,110.36 M198.28,75.32L163.16,99.5l35.13,24.18
				l0.87-4.71l18.94-3.5L241.3,99.5l-23.21-15.97l-18.94-3.5L198.28,75.32 M315.03,75.32l-0.87,4.71l-18.94,3.5L272.02,99.5
				l23.21,15.97l18.94,3.5l0.87,4.71l35.13-24.18L315.03,75.32 M245.8,110.36l-27.7,5.11l-15.86,10.92l-3.94-2.71l-7.74,41.94
				l41.94-7.74l-2.71-3.94l10.92-15.86L245.8,110.36 M322.77,33.39l-41.94,7.74l2.71,3.94l-10.92,15.86l-5.11,27.7l27.7-5.11
				l15.86-10.92l3.94,2.71L322.77,33.39"/>
			<polyline class="st2" points="280.84,41.13 276.13,42 272.63,60.94 283.55,45.07 280.84,41.13 			"/>
			<polyline class="st2" points="311.09,72.61 295.22,83.53 314.16,80.03 315.03,75.32 311.09,72.61 			"/>
		</g>
	</g>
</g>
<g>
</g>
<g>
</g>
<g>
</g>
<g>
</g>
<g>
</g>
<g>
</g>
<g>
</g>
<g>
</g>
<g>
</g>
<g>
</g>
<g>
</g>
<g>
</g>
<g>
</g>
<g>
</g>
<g>
</g>
</svg>
