<svg xmlns="http://www.w3.org/2000/svg" id="Layer_1" width="154" height="32" data-name="Layer 1" version="1.1" viewBox="0 0 154 32"><defs><style>.cls-1{fill:#003cd6;stroke-width:0}</style></defs><g id="logo"><g id="text"><path d="m46.749 25.722 1.185-3.611c.768.368 1.603.663 2.493.896.89.233 1.689.344 2.389.344 1.259 0 2.247-.326 2.96-.983.614-.559.921-1.228.921-2.008 0-.59-.233-1.13-.694-1.633a4.046 4.046 0 0 0-.332-.313 3.45 3.45 0 0 0-.442-.301 22.416 22.416 0 0 0-.424-.246 15.867 15.867 0 0 0-.485-.252 10.4 10.4 0 0 1-.411-.215l-1.099-.589a10.86 10.86 0 0 1-1.554-1.081c-.497-.411-.854-.811-1.075-1.185-.393-.528-.59-1.29-.59-2.284 0-2.125.86-3.813 2.573-5.054 1.523-1.087 3.42-1.633 5.705-1.633 1.762 0 3.482.295 5.152.878l-1.124 3.322c-1.504-.675-2.941-1.013-4.317-1.013-1.191 0-2.069.246-2.628.737-.675.54-1.013 1.222-1.013 2.051 0 .51.215.983.651 1.412.442.442 1.234.958 2.37 1.547l.854.436c1.167.614 2.014 1.308 2.542 2.082.522.767.78 1.725.78 2.861 0 1.547-.571 2.948-1.719 4.2-1.529 1.768-3.93 2.659-7.191 2.659-1.744 0-3.568-.344-5.471-1.026h-.006ZM78.293 20.072H67.854c-.08.387-.117.669-.117.854 0 .915.344 1.633 1.025 2.149.7.522 1.67.78 2.905.78.798 0 1.664-.111 2.597-.332.97-.24 1.769-.485 2.395-.737l-.62 3.015c-1.75.626-3.506.94-5.256.94-1.001 0-1.983-.135-2.941-.399-.958-.264-1.744-.669-2.358-1.222-1.283-1.191-1.922-2.782-1.922-4.765 0-2.573.86-4.753 2.573-6.54a9.88 9.88 0 0 1 3.033-2.088c1.154-.516 2.413-.774 3.77-.774 1.904 0 3.402.62 4.489 1.861.915 1.068 1.369 2.376 1.369 3.93 0 .645-.098 1.443-.301 2.395l-.203.921v.012Zm-9.874-2.757h6.294c.055-.258.086-.59.086-.983 0-.743-.166-1.326-.504-1.762-.454-.559-1.124-.835-2.008-.835s-1.768.387-2.542 1.155c-.632.632-1.081 1.443-1.326 2.425ZM93.84 11.365l-.835 2.905c-.731-.276-1.4-.418-2.008-.418-1.848 0-3.334.583-4.464 1.75a6.338 6.338 0 0 0-1.363 2.131 6.75 6.75 0 0 0-.497 2.518c0 1.105.325 1.983.97 2.628s1.547.983 2.671.983 2.18-.209 3.218-.62l-.479 2.917c-1.203.393-2.425.59-3.666.59-2.352 0-4.12-.657-5.312-1.977-.436-.436-.811-1.032-1.124-1.799-.319-.768-.479-1.682-.479-2.751 0-2.53.915-4.691 2.745-6.484 1.934-1.848 4.378-2.769 7.338-2.769 1.05 0 2.149.135 3.291.405l-.006-.006ZM106.785 11.193h4.016l-3.107 15.321h-3.869l.479-2.395h-.086c-1.547 1.75-3.402 2.628-5.557 2.628-1.173 0-2.131-.295-2.874-.878-.946-.7-1.412-1.768-1.412-3.193 0-.577.055-1.099.172-1.572l2.008-9.905h4.028l-1.861 9.254c-.104.663-.16 1.068-.16 1.216 0 .528.129.946.387 1.24.301.375.835.565 1.603.565 1.136 0 2.149-.411 3.046-1.24.81-.749 1.326-1.725 1.56-2.929l1.633-8.099-.006-.012ZM115.167 14.153h-3.015l.589-2.96h3.015l.62-3.046 4.286-1.271-.896 4.317h3.549l-.589 2.96h-3.537l-1.431 6.945c-.135.522-.203.964-.203 1.326 0 .522.123.866.375 1.038.276.221.675.332 1.185.332s1.099-.092 1.719-.276l-.589 2.843c-1.124.252-2.113.375-2.96.375-1.308 0-2.29-.283-2.947-.854-.633-.559-.952-1.369-.952-2.426 0-.442.055-.921.172-1.443l1.602-7.872.007.012ZM137.714 20.072h-10.438c-.08.387-.117.669-.117.854 0 .915.344 1.633 1.025 2.149.7.522 1.671.78 2.905.78.798 0 1.664-.111 2.597-.332.97-.24 1.769-.485 2.395-.737l-.62 3.015c-1.75.626-3.506.94-5.256.94-1.001 0-1.984-.135-2.942-.399-.958-.264-1.744-.669-2.358-1.222-1.283-1.191-1.922-2.782-1.922-4.765 0-2.573.86-4.753 2.573-6.54a9.872 9.872 0 0 1 3.034-2.088c1.154-.516 2.413-.774 3.77-.774 1.904 0 3.402.62 4.489 1.861.915 1.068 1.369 2.376 1.369 3.93 0 .645-.098 1.443-.301 2.395l-.203.921v.012Zm-9.873-2.757h6.294c.055-.258.086-.59.086-.983 0-.743-.166-1.326-.504-1.762-.454-.559-1.124-.835-2.008-.835s-1.768.387-2.542 1.155c-.633.632-1.081 1.443-1.326 2.425ZM153.262 11.365l-.835 2.905c-.731-.276-1.4-.418-2.008-.418-1.848 0-3.334.583-4.464 1.75a6.338 6.338 0 0 0-1.363 2.131 6.751 6.751 0 0 0-.498 2.518c0 1.105.326 1.983.971 2.628.644.645 1.547.983 2.671.983s2.18-.209 3.217-.62l-.479 2.917c-1.203.393-2.425.59-3.665.59-2.352 0-4.121-.657-5.312-1.977-.436-.436-.811-1.032-1.124-1.799-.319-.768-.479-1.682-.479-2.751 0-2.53.915-4.691 2.745-6.484 1.934-1.848 4.378-2.769 7.338-2.769 1.05 0 2.149.135 3.291.405l-.006-.006Z" class="cls-1"/></g><path id="mark" d="M16.697 11.869a19.05 19.05 0 0 0 13.847.368 15.94 15.94 0 0 0-2.272-5.238 13.377 13.377 0 0 1-9.389-.381A13.401 13.401 0 0 1 12.018.207 15.945 15.945 0 0 0 6.706 2.27a19.152 19.152 0 0 0 9.984 9.598h.006Zm-5.956 4.537A19.054 19.054 0 0 0 4.134 4.229 15.845 15.845 0 0 0 .732 8.822a13.382 13.382 0 0 1 4.366 8.308 13.395 13.395 0 0 1-2.125 9.155 15.803 15.803 0 0 0 4.44 3.574 19.116 19.116 0 0 0 3.322-13.454h.006Zm6.908 2.886a19.087 19.087 0 0 0-7.246 11.814 15.88 15.88 0 0 0 5.668.651 13.35 13.35 0 0 1 5.023-7.94 13.412 13.412 0 0 1 8.984-2.733c.645-1.861.927-3.764.878-5.637a19.096 19.096 0 0 0-13.306 3.85v-.006Z" class="cls-1"/></g></svg>