<svg width="496" height="109" viewBox="0 0 496 109" fill="none" xmlns="http://www.w3.org/2000/svg">
<path fill-rule="evenodd" clip-rule="evenodd" d="M88.5569 17.3809L91.3469 14.5854C82.1033 5.98915 69.8892 0.596438 56.3966 0.100891V15.1276C62.5998 22.3568 80.2191 19.5846 88.5569 17.3809Z" fill="#D83751"/>
<path fill-rule="evenodd" clip-rule="evenodd" d="M24.2022 87.4899L17.4195 94.2818C26.6631 102.875 38.8772 108.271 52.3698 108.766V102.826C37.9336 88.1603 27.6969 87.2538 24.2022 87.4899Z" fill="#D83751"/>
<path fill-rule="evenodd" clip-rule="evenodd" d="M90.6217 92.3663C68.8408 84.2598 58.5197 98.8609 56.3966 102.385V108.766C70.4658 108.25 83.175 102.435 92.5438 93.1913L92.2701 92.9785L90.6217 92.3663Z" fill="#D83751"/>
<path fill-rule="evenodd" clip-rule="evenodd" d="M90.0897 65.5491C86.9444 73.2884 90.0285 83.0623 91.7846 87.5047L95.291 90.2215C103.244 81.1238 108.192 69.3707 108.667 56.4485H100.12C95.1949 58.3404 91.7875 61.369 90.0897 65.5491Z" fill="#D83751"/>
<path fill-rule="evenodd" clip-rule="evenodd" d="M52.3695 14.486V0.100586C38.8769 0.596132 26.6628 5.99176 17.4193 14.588L19.42 16.5906C33.2941 20.281 48.0361 15.9727 52.3695 14.486Z" fill="#D83751"/>
<path fill-rule="evenodd" clip-rule="evenodd" d="M16.0968 18.9608L14.5737 17.4362C5.98535 26.6884 0.597627 38.9138 0.102539 52.4189H13.2719C23.1387 39.0042 16.6822 20.5348 16.0968 18.9608Z" fill="#D83751"/>
<path fill-rule="evenodd" clip-rule="evenodd" d="M13.1219 56.4485H0.101074C0.596162 69.9536 5.98679 82.1791 14.5722 91.4312L20.5686 85.4293C20.7229 72.9444 14.9566 60.1768 13.1219 56.4485Z" fill="#D83751"/>
<path fill-rule="evenodd" clip-rule="evenodd" d="M33.7125 36.5943L21.2014 24.0716C22.7216 31.1463 23.5691 42.5526 17.529 52.4198H25.0951C34.4173 47.5867 34.3561 40.0049 33.7125 36.5943Z" fill="#D83751"/>
<path fill-rule="evenodd" clip-rule="evenodd" d="M23.9576 21.1301L35.5485 32.7347C45.4881 35.466 50.4186 31.7028 52.3698 29.4116V18.2414C47.3752 19.8621 35.9969 22.7975 23.9576 21.1301Z" fill="#D83751"/>
<path fill-rule="evenodd" clip-rule="evenodd" d="M84.0804 40.2568C82.8194 36.1233 83.032 31.7042 84.5668 27.0723L75.0058 36.6422C74.831 37.1407 74.633 37.6246 74.5835 38.2017C74.1728 43.1951 78.352 49.5381 80.4867 52.4181H93.2861C89.7739 49.8529 85.7987 45.9002 84.0804 40.2568Z" fill="#D83751"/>
<path fill-rule="evenodd" clip-rule="evenodd" d="M24.1908 56.4485H17.0703C19.2895 61.2262 23.3288 71.3266 24.0045 81.9925L34.6285 71.3587C34.5819 60.9289 25.9499 57.0957 24.1908 56.4485Z" fill="#D83751"/>
<path fill-rule="evenodd" clip-rule="evenodd" d="M81.1341 56.5124C72.4322 60.5847 71.9866 69.5861 72.0449 72.1979L86.7228 83.578C85.2026 78.1153 84.16 70.723 86.7956 64.2226C88.0624 61.1035 90.069 58.5179 92.7483 56.4483H81.2739L81.1341 56.5124Z" fill="#D83751"/>
<path fill-rule="evenodd" clip-rule="evenodd" d="M92.3053 19.6155C87.3486 26.8388 85.7206 33.4238 87.4709 39.2013C89.8298 46.9959 97.6988 51.2547 100.154 52.4178H108.666C108.171 38.9156 102.784 26.6873 94.1924 17.4351L92.9431 18.6886L92.3053 19.6155Z" fill="#D83751"/>
<path fill-rule="evenodd" clip-rule="evenodd" d="M56.5218 88.3909L56.3966 89.312V96.5995C60.9776 91.3991 70.2183 84.4732 84.8379 87.2161L68.9922 74.9295C58.4556 75.7632 56.5917 87.8458 56.5218 88.3909Z" fill="#D83751"/>
<path fill-rule="evenodd" clip-rule="evenodd" d="M62.2838 34.4436C66.9405 35.8982 72.4302 32.8725 74.1164 31.8318L83.8725 22.0666C75.9453 23.5679 63.6933 24.7134 56.3981 19.8513V27.9753L56.4214 28.0453C57.729 31.4849 59.6977 33.6391 62.2838 34.4436Z" fill="#D83751"/>
<path fill-rule="evenodd" clip-rule="evenodd" d="M36.79 74.8934L27.6309 84.0611C32.8934 84.6878 41.4904 87.6669 52.3707 97.9014V85.8363C48.2935 74.5874 38.3248 74.7768 36.79 74.8934Z" fill="#D83751"/>
<mask id="mask0_5224_1087" style="mask-type:luminance" maskUnits="userSpaceOnUse" x="0" y="0" width="109" height="109">
<path d="M0 0H108.767V108.867H0V0Z" fill="white"/>
</mask>
<g mask="url(#mask0_5224_1087)">
<path fill-rule="evenodd" clip-rule="evenodd" d="M80.4857 52.4191C78.3539 49.5391 74.1719 43.1961 74.5854 38.2027C74.632 37.6227 74.833 37.1417 75.0048 36.6403L84.5658 27.0704C83.0311 31.7053 82.8214 36.1244 84.0795 40.2578C85.7977 45.9012 89.773 49.851 93.2881 52.4191H80.4857ZM86.7966 64.2219C84.161 70.7223 85.2036 78.1147 86.7238 83.5773L72.0459 72.1972C71.9877 69.5854 72.4304 60.584 81.1352 56.5117L81.275 56.4476H92.7493C90.07 58.5172 88.0635 61.1028 86.7966 64.2219ZM56.3982 96.6015V89.314L56.5206 88.39C56.5934 87.8478 58.4572 75.7652 68.9939 74.9286L84.8367 87.2152C70.2199 84.4722 60.9793 91.4011 56.3982 96.6015ZM56.3982 19.85C63.6935 24.7151 75.9455 23.5696 83.8727 22.0683L74.1166 31.8335C72.4304 32.8713 66.9407 35.897 62.284 34.4424C59.6979 33.6408 57.7292 31.4866 56.4215 28.044L56.3982 27.9741V19.85ZM52.3706 29.4112C50.4193 31.7053 45.4859 35.4685 35.5492 32.7342L23.9584 21.1297C35.9977 22.7971 47.376 19.8617 52.3706 18.241V29.4112ZM52.3706 97.9015C41.4903 87.667 32.8932 84.6879 27.6337 84.0583L36.7899 74.8936C38.3246 74.777 48.2934 74.5875 52.3706 85.8364V97.9015ZM24.002 81.9916C23.3293 71.3257 19.29 61.2253 17.0708 56.4476H24.1913C25.9504 57.0947 34.5824 60.9279 34.629 71.3577L24.002 81.9916ZM21.2033 24.0709L33.7116 36.5937C34.3552 40.0042 34.4193 47.589 25.0941 52.4191H17.531C23.5681 42.5548 22.7206 31.1485 21.2033 24.0709ZM108.668 52.4191H100.155C97.6973 51.2531 89.8312 46.9943 87.4694 39.1997C85.722 33.4251 87.3471 26.8372 92.3067 19.6168L92.9415 18.687L94.1938 17.4364C93.2823 16.4512 92.3329 15.5009 91.3456 14.5856L88.5557 17.381C80.2178 19.5848 62.5985 22.3569 56.3982 15.1278V0.101048C55.7226 0.0748129 55.0644 -0.000976562 54.383 -0.000976562C53.7044 -0.000976562 53.0433 0.0748129 52.3706 0.101048V14.4865C48.0342 15.9731 33.2951 20.2815 19.4181 16.5882L17.4203 14.5856C16.4359 15.5009 15.4894 16.4512 14.5721 17.4364L16.0981 18.961C16.6835 20.5351 23.14 39.0044 13.2732 52.4191H0.100953C0.077655 53.0925 -0.000976562 53.7542 -0.000976562 54.4334C-0.000976562 55.1125 0.077655 55.7742 0.100953 56.4476H13.1218C14.9565 60.1788 20.7228 72.9464 20.5685 85.4313L14.5721 91.4332C15.4894 92.4185 16.4359 93.3658 17.4203 94.2811L24.203 87.4892C27.6977 87.256 37.9344 88.1597 52.3706 102.825V108.766C53.0433 108.792 53.7044 108.868 54.383 108.868C55.0644 108.868 55.7226 108.792 56.3982 108.766V102.385C58.5184 98.8606 68.8424 84.2594 90.6205 92.366L92.2717 92.9781L92.5455 93.1909C93.5065 92.2436 94.4035 91.2379 95.2918 90.2235L91.7854 87.5067C90.0293 83.0614 86.9452 73.2904 90.0904 65.5482C91.7883 61.371 95.1957 58.3394 100.12 56.4476H108.668C108.691 55.7742 108.767 55.1125 108.767 54.4334C108.767 53.7542 108.691 53.0925 108.668 52.4191Z" fill="#FEFEFE"/>
</g>
<path fill-rule="evenodd" clip-rule="evenodd" d="M37.7085 54.4332L54.3842 37.742L71.0599 54.4332L54.3842 71.1273L37.7085 54.4332Z" fill="#D83751"/>
<path fill-rule="evenodd" clip-rule="evenodd" d="M54.3831 37.7418V71.127L71.0617 54.4329L54.3831 37.7418Z" fill="#762E3B"/>
<path fill-rule="evenodd" clip-rule="evenodd" d="M413.18 88.7425C411.572 88.7425 410.221 88.1799 409.126 87.0518C408.031 85.9266 407.486 84.5887 407.486 83.0437V32.8624C407.486 32.4105 407.23 32.1861 406.714 32.1861H390.889C389.602 32.1861 388.489 31.7197 387.56 30.7869C386.628 29.8512 386.162 28.7085 386.162 27.356C386.162 26.0034 386.628 24.8607 387.56 23.9279C388.489 22.9951 389.602 22.5287 390.889 22.5287H435.566C436.918 22.5287 438.059 22.9951 438.994 23.9279C439.926 24.8607 440.395 26.0034 440.395 27.356C440.395 28.7085 439.926 29.8512 438.994 30.7869C438.059 31.7197 436.918 32.1861 435.566 32.1861H419.648C419.193 32.1861 418.969 32.4105 418.969 32.8624V83.0437C418.969 84.5887 418.407 85.9266 417.28 87.0518C416.153 88.1799 414.819 88.7425 413.276 88.7425H413.18Z" fill="#D83751"/>
<mask id="mask1_5224_1087" style="mask-type:luminance" maskUnits="userSpaceOnUse" x="440" y="22" width="56" height="67">
<path d="M440.394 22.504H495.318V88.7789H440.394V22.504Z" fill="white"/>
</mask>
<g mask="url(#mask1_5224_1087)">
<path fill-rule="evenodd" clip-rule="evenodd" d="M487.622 51.1524C483.952 48.0538 479.249 46.0978 474.12 46.0745C474.088 46.0745 454.707 46.0687 454.707 46.0687L454.704 32.2546C454.704 32.2546 483.754 32.2546 483.877 32.2546C486.568 32.2546 488.734 30.0713 488.734 27.3807C488.734 24.6873 486.553 22.504 483.862 22.504H444.98L444.954 55.9534C444.954 55.9534 474.391 55.9621 474.473 55.9679C480.059 56.2565 484.555 62.0894 484.555 67.2985C484.555 72.3705 480.289 78.5765 474.91 79.0283C474.729 79.0546 445.286 79.0196 445.184 79.0313C442.636 79.1887 440.396 81.3166 440.396 83.9051C440.396 83.9896 440.39 84.0304 440.396 84.115C440.551 86.686 443.009 88.7789 445.612 88.7789C445.9 88.7789 474.021 88.744 474.021 88.744C478.999 88.744 483.571 87.1174 487.2 84.4356C492.136 80.789 495.319 73.5453 495.319 67.2985C495.319 61.2295 492.319 55.1226 487.622 51.1524Z" fill="#D83751"/>
</g>
<path fill-rule="evenodd" clip-rule="evenodd" d="M240.743 29.1163C241.862 29.1163 242.773 28.201 242.773 27.0845C242.773 25.9652 241.862 25.0528 240.743 25.0528H197.816C197.537 25.0528 197.269 25.1082 197.027 25.2131C196.299 25.5221 195.784 26.245 195.784 27.0845V86.7105C195.784 86.9903 195.842 87.2556 195.947 87.4975C196.255 88.2262 196.981 88.7422 197.816 88.7422H240.743C241.862 88.7422 242.773 87.8269 242.773 86.7105C242.773 85.594 241.862 84.6787 240.743 84.6787H199.846V56.4588H238.251C239.27 56.4588 240.106 55.6222 240.106 54.6019V54.2521C240.106 53.2319 239.27 52.3953 238.251 52.3953H199.846V29.1163H240.743Z" fill="#4C433F"/>
<path fill-rule="evenodd" clip-rule="evenodd" d="M184.204 25.0528H127.537C126.422 25.0528 125.507 25.9652 125.507 27.0845C125.507 28.201 126.422 29.1163 127.537 29.1163H153.841V86.7105C153.841 87.8269 154.755 88.7422 155.871 88.7422C156.986 88.7422 157.901 87.8269 157.901 86.7105V29.1163H184.204C185.32 29.1163 186.234 28.201 186.234 27.0845C186.234 25.9652 185.32 25.0528 184.204 25.0528Z" fill="#4C433F"/>
<path fill-rule="evenodd" clip-rule="evenodd" d="M267.449 63.7602L282.898 30.5994L298.345 63.7602H267.449ZM284.963 25.4137C284.587 24.6062 283.74 24.1864 282.898 24.2797C282.057 24.1864 281.209 24.6062 280.834 25.4137L252.707 85.7858C252.232 86.8002 252.678 88.0128 253.688 88.4851C254.699 88.9602 255.913 88.5171 256.385 87.5056L265.556 67.8237H300.241L309.409 87.5056C309.881 88.5171 311.092 88.9602 312.106 88.4851C313.119 88.0128 313.559 86.8002 313.087 85.7858L284.963 25.4137Z" fill="#4C433F"/>
<path fill-rule="evenodd" clip-rule="evenodd" d="M373.659 23.4942H373.639C373.004 23.4942 372.462 23.809 372.089 24.2696C371.979 24.3861 371.853 24.4882 371.769 24.6339L349.245 63.6772L326.882 24.9021C326.634 24.0655 325.889 23.4388 324.974 23.4388H324.954C323.844 23.4388 322.936 24.3483 322.936 25.4589V86.6647C322.936 87.7782 323.844 88.6877 324.954 88.6877H324.974C326.087 88.6877 326.996 87.7782 326.996 86.6647V33.2244L347.483 68.7434C347.51 68.7988 347.565 68.8279 347.6 68.8746C347.649 68.9504 347.716 69.0116 347.778 69.0786C347.897 69.2069 348.016 69.3264 348.162 69.4168C348.191 69.4372 348.209 69.4692 348.238 69.4867C348.305 69.5246 348.375 69.5275 348.444 69.5567C348.584 69.6179 348.721 69.6704 348.87 69.6995C348.998 69.7228 349.12 69.7257 349.245 69.7257C349.373 69.7257 349.496 69.7228 349.624 69.6995C349.772 69.6704 349.909 69.6179 350.052 69.5567C350.116 69.5275 350.189 69.5246 350.256 69.4867C350.288 69.4692 350.302 69.4372 350.332 69.4168C350.477 69.3264 350.597 69.2069 350.716 69.0786C350.78 69.0116 350.844 68.9504 350.897 68.8746C350.929 68.8279 350.981 68.7988 351.013 68.7434L371.62 33.0203V86.7201C371.62 87.8336 372.526 88.7431 373.639 88.7431H373.659C374.771 88.7431 375.677 87.8336 375.677 86.7201V25.5142C375.677 24.4036 374.771 23.4942 373.659 23.4942Z" fill="#4C433F"/>
</svg>
