<?xml version="1.0" standalone="no"?>
<!DOCTYPE svg PUBLIC "-//W3C//DTD SVG 20010904//EN"
 "http://www.w3.org/TR/2001/REC-SVG-20010904/DTD/svg10.dtd">
<svg version="1.0" xmlns="http://www.w3.org/2000/svg"
 width="700.000000pt" height="700.000000pt" viewBox="0 0 700.000000 700.000000"
 preserveAspectRatio="xMidYMid meet">
<metadata>
Created by potrace 1.14, written by Peter Selinger 2001-2017
</metadata>
<g transform="translate(0.000000,700.000000) scale(0.100000,-0.100000)"
fill="#000000" stroke="none">
<path d="M3278 6996 c-1 -2 -39 -6 -83 -10 -471 -36 -971 -191 -1410 -434 -74
-42 -316 -197 -353 -227 -10 -8 -53 -42 -97 -76 -425 -331 -812 -824 -1020
-1299 -25 -58 -52 -118 -59 -135 -51 -115 -148 -423 -171 -546 -3 -13 -11 -58
-20 -99 -29 -147 -35 -193 -52 -370 -15 -163 -8 -592 12 -711 2 -13 6 -46 9
-74 12 -105 35 -222 72 -370 26 -104 82 -289 94 -315 5 -8 25 -60 45 -115 62
-165 249 -531 312 -610 4 -6 34 -49 65 -95 52 -78 214 -286 263 -336 271 -285
429 -422 665 -578 177 -117 208 -135 360 -213 343 -175 732 -299 1099 -349 25
-3 57 -8 71 -10 163 -25 682 -25 842 1 13 2 46 7 73 10 72 10 86 12 120 19 17
3 44 8 60 11 194 37 411 101 622 184 130 52 418 192 473 231 15 11 33 20 39
20 6 0 11 5 11 10 0 6 5 10 10 10 15 0 220 141 330 227 152 118 324 280 450
422 36 41 70 79 76 85 29 30 185 242 240 326 120 184 241 412 315 597 66 163
147 422 175 558 16 75 54 300 60 350 4 33 9 76 11 95 8 71 10 517 3 595 -17
172 -22 220 -25 225 -2 3 -6 30 -10 60 -3 30 -10 71 -15 90 -5 19 -12 51 -15
70 -13 75 -67 275 -106 392 -324 964 -1053 1742 -1999 2130 -223 92 -557 186
-760 213 -19 3 -46 7 -60 10 -13 2 -54 7 -90 11 -36 3 -76 8 -90 11 -27 5
-536 14 -542 9z m8 -3497 l0 -3062 -76 7 c-121 11 -158 16 -295 42 -152 30
-278 63 -286 75 -3 5 -5 1330 -5 2945 l1 2936 40 14 c22 7 51 16 65 19 14 2
66 14 115 25 90 19 124 26 200 37 22 3 63 9 90 13 28 4 73 8 100 9 l51 1 0
-3061z m619 3046 c22 -2 52 -7 67 -10 14 -4 41 -8 58 -10 40 -5 221 -44 230
-50 4 -2 21 -7 38 -10 54 -9 293 -92 407 -140 231 -98 521 -271 690 -410 l30
-24 -855 2 -855 2 0 333 -1 334 76 -6 c41 -4 93 -9 115 -11z m-1711 -3037 c-1
-1525 -2 -2777 -3 -2781 -1 -10 -189 89 -314 167 -54 34 -154 103 -222 154
l-124 92 0 2360 0 2359 97 74 c119 90 220 158 332 223 83 48 220 121 230 123
3 1 4 -1247 4 -2771z m3692 1926 c42 -49 159 -213 223 -315 54 -86 171 -301
171 -314 0 -3 -577 -4 -1282 -3 l-1283 3 -1 320 c0 176 1 325 3 330 2 7 368
10 1073 9 l1070 -1 26 -29z m-4782 -1939 c1 -1048 -2 -1904 -6 -1903 -13 5
-141 183 -206 288 -206 330 -359 731 -418 1098 -2 15 -6 36 -9 47 -2 11 -7 49
-10 85 -4 36 -9 76 -12 90 -9 45 -11 493 -3 570 5 41 12 98 15 125 5 45 27
178 40 245 5 25 38 152 69 262 45 164 164 437 271 624 90 156 252 387 264 377
3 -2 5 -860 5 -1908z m5379 728 c30 -128 41 -184 62 -323 3 -14 7 -56 10 -95
4 -38 7 -74 8 -80 1 -7 -480 -11 -1423 -13 l-1425 -2 -1 330 0 330 1367 0
1367 0 35 -147z m73 -1017 c-14 -174 -74 -479 -115 -589 l-11 -27 -1010 0
-1010 0 0 -32 c-1 -18 -1 -473 -1 -1011 l0 -978 -26 -10 c-25 -9 -161 -46
-199 -53 -10 -2 -53 -11 -94 -19 -113 -24 -156 -29 -300 -42 l-76 -7 0 1421 1
1421 1423 0 1424 0 -6 -74z m-300 -1049 c6 -5 -57 -127 -117 -224 -21 -36 -39
-67 -39 -69 0 -5 -115 -169 -168 -239 -159 -210 -414 -456 -641 -618 -159
-114 -432 -274 -450 -263 -5 3 -7 530 -2 583 1 8 55 11 194 11 105 0 201 1
212 1 20 1 20 7 19 209 -1 114 -2 210 -3 213 0 3 -96 5 -211 5 -116 -1 -210 1
-211 4 -4 20 -3 374 1 380 3 4 14 9 24 11 29 6 1387 2 1392 -4z"/>
</g>
</svg>
