<?xml version="1.0" encoding="UTF-8"?>
<svg xmlns="http://www.w3.org/2000/svg" width="1382" height="1436" viewBox="0 0 1382 1436" fill="none">
  <path d="M690.85 269.613C835.307 269.613 952.953 387.144 952.953 531.717C952.953 676.29 835.423 793.821 690.85 793.821C546.276 793.821 428.746 676.29 428.746 531.717C428.746 387.144 546.276 269.613 690.85 269.613ZM690.85 154.047C482.253 154.047 313.18 323.12 313.18 531.717C313.18 740.314 482.253 909.387 690.85 909.387C899.446 909.387 1068.52 740.314 1068.52 531.717C1068.52 323.12 899.446 154.047 690.85 154.047Z" fill="#0FBCFF"></path>
  <path d="M1135.55 718.59L690.854 1254.7L246.04 718.59H1135.55ZM1381.59 603.023H0L690.854 1435.68L1381.59 603.023Z" fill="#0FBCFF"></path>
  <path fill-rule="evenodd" clip-rule="evenodd" d="M633.068 522.128V0H748.634V522.128H633.068Z" fill="#0FBCFF"></path>
</svg>
