<?xml version="1.0" encoding="UTF-8"?>
<svg xmlns="http://www.w3.org/2000/svg" width="1306" height="1306" viewBox="0 0 1306 1306" fill="none">
  <path d="M440.897 1305.21C728.888 1017.33 1016.88 729.342 1304.75 441.352C1304.98 443.778 1305.56 448.401 1305.56 452.908C1305.56 701.26 1305.56 949.727 1305.56 1198.08C1305.56 1229.63 1305.56 1261.06 1305.56 1292.61C1305.56 1305.67 1305.56 1305.67 1292.39 1305.79C1072.58 1305.79 852.659 1305.79 632.852 1305.79C572.18 1305.79 511.508 1305.79 450.72 1305.79C446.906 1305.79 443.208 1305.32 440.781 1305.21H440.897ZM1196.81 702.878C1032.02 867.675 867.567 1032.24 703.116 1196.81H712.362C869.185 1196.81 1026.12 1196.81 1182.95 1196.81C1192.11 1196.81 1196.7 1192.11 1196.7 1182.71C1196.7 1026.12 1196.7 869.64 1196.7 713.048C1196.7 709.465 1196.7 705.882 1196.7 702.878H1196.81Z" fill="#0FBCFF"></path>
  <path d="M543.864 273.088C542.939 423.786 420.902 544.553 270.319 543.744C119.737 542.935 -1.2613 420.319 0.00992573 269.968C1.39672 118.807 122.741 -0.91921 273.902 0.00531842C423.907 0.929847 544.789 123.199 543.864 273.088ZM108.758 271.817C108.758 361.149 181.796 434.534 271.36 435.112C360.692 435.689 435.117 361.496 435.117 271.817C435.117 182.484 361.963 108.984 272.399 108.637C182.72 108.175 108.758 182.022 108.642 271.817H108.758Z" fill="#0FBCFF"></path>
  <path d="M1170.23 401.485C1167.45 404.605 1165.26 407.032 1163.06 409.228C1099.39 473.02 1035.59 536.812 971.802 600.605C785.162 787.244 598.523 973.883 411.884 1160.52C404.95 1167.46 397.939 1167.38 390.851 1160.29C371.551 1140.99 352.598 1121.46 332.836 1102.74C325.44 1095.81 325.902 1091.88 332.836 1084.94C479.258 938.983 625.334 792.792 771.525 646.601C875.881 542.244 980.353 437.773 1084.71 333.416C1090.8 327.33 1096.84 327.33 1102.85 333.416C1123.08 353.64 1143.19 373.749 1163.29 393.973C1165.49 396.169 1167.45 398.711 1170 401.6L1170.23 401.485Z" fill="#0FBCFF"></path>
  <path d="M325.096 938.98C322.9 937.362 320.936 936.322 319.318 934.704C297.244 912.746 275.403 890.557 253.098 868.831C246.742 862.59 251.018 859.47 255.063 855.425C304.987 805.617 354.796 755.692 404.605 705.883C554.148 556.34 703.691 406.798 853.233 257.255C859.782 250.707 866.331 250.707 872.879 257.255C892.757 277.248 912.518 297.357 932.743 317.003C938.405 322.55 939.214 325.786 933.205 331.911C732.697 532.187 532.306 732.578 331.915 932.97C329.834 935.05 327.638 936.784 325.096 938.98Z" fill="#0FBCFF"></path>
</svg>
