<?xml version="1.0" encoding="UTF-8"?>
<svg xmlns="http://www.w3.org/2000/svg" width="1503" height="1160" viewBox="0 0 1503 1160" fill="none">
  <path fill-rule="evenodd" clip-rule="evenodd" d="M580.011 115.783C323.624 115.783 115.783 323.625 115.783 580.012C115.783 836.398 323.624 1044.24 580.011 1044.24C836.398 1044.24 1044.24 836.398 1044.24 580.012C1044.24 323.625 836.398 115.783 580.011 115.783ZM0.216797 580.012C0.216797 259.8 259.799 0.216797 580.011 0.216797C900.223 0.216797 1159.81 259.8 1159.81 580.012C1159.81 900.224 900.223 1159.81 580.011 1159.81C259.799 1159.81 0.216797 900.224 0.216797 580.012Z" fill="#0FBCFF"></path>
  <path fill-rule="evenodd" clip-rule="evenodd" d="M1366.35 181.34L580.494 914.316L195.66 501.716L274.34 428.33L585.789 762.25L1292.97 102.659L1366.35 181.34Z" fill="#0FBCFF"></path>
</svg>
