<svg version="1.2" xmlns="http://www.w3.org/2000/svg" viewBox="0 0 1550 215" width="1550" height="215">
	<title>CRWV</title>
	<style>
		.s0 { fill: #2741e7 } 
		.s1 { fill: #000000 } 
	</style>
	<path fill-rule="evenodd" class="s0" d="m142.8 162.2h-51.8c-3.1 0-6.3-2-8.2-5.3l-24-44.8c-1.2-3.3-1.2-6.6 0-9.2l24-44.8c1.9-3.3 5.1-5.3 8.2-5.3h29.7c3.2 0 6.3-2 8.3-5.3l21.4-40.1c1.9-3.3-0.6-7.3-3.7-7.3h-79.7c-6.9 0-12.6 4-16.4 9.9l-47.4 88.3q-1.1 2.2-1.7 4.6-0.6 2.4-0.6 4.9 0 2.5 0.6 4.9 0.6 2.4 1.7 4.6l47.4 87.7q1.2 2.2 3 4 1.7 1.8 3.9 3.2 2.1 1.3 4.6 1.9 2.4 0.7 4.9 0.7h101.8c3.8 0 5.7-3.9 3.8-7.2l-22.2-40.8c-0.6-3.3-3.7-4.7-7.5-4.7z"/>
	<path class="s1" d="m283.1 39l-20.2-35.6c-1.9-3.3-6.3-3.3-8.2 0l-85.3 158.1c-1.3 3.3-1.3 6.6 0 9.2l22.1 41.5c1.9 3.3 6.3 3.3 8.2 0l83.4-154.1q1.2-2.2 1.8-4.7 0.6-2.4 0.6-4.9 0-2.5-0.6-4.9-0.6-2.4-1.8-4.6z"/>
	<path fill-rule="evenodd" class="s1" d="m180.1 111.4l25.3-46.7c1.3-2.7 1.3-6.6 0-9.9l-29.1-52c-1.9-3.3-6.3-3.3-8.2 0l-24.6 45.4c-1.3 2.6-1.3 6.6 0 9.2l28.4 53.4c1.9 3.9 6.9 3.9 8.2 0.6z"/>
	<path class="s1" d="m357.6 39l-20.2-35.6c-1.9-3.3-6.3-3.3-8.2 0l-85.3 158.1c-1.2 3.3-1.2 6.6 0 9.2l22.8 41.5c1.9 3.3 6.3 3.3 8.2 0l83.4-154.1c3.1-6 3.1-13.2-0.7-19.1zm712.9-9h12c3.1 0 5 2.7 4.4 6l-32.9 154.7c-0.6 3.3-3.1 5.3-6.3 5.3h-15.8c-3.1 0-5.7-2-6.3-5.3l-28.4-113.9c-0.7-3.3-5.7-3.3-6.3 0l-29.1 113.9c-0.6 3.3-3.2 5.3-6.3 5.3h-15.8c-3.2 0-5.7-2-6.3-5.3l-32.9-154.7c-0.6-2.7 1.3-6 4.4-6h13.3c3.1 0 5.7 2.7 6.3 6l21.5 111.3c0.6 3.9 5.7 3.9 6.3 0l29.1-112c0.6-3.3 3.1-5.3 6.3-5.3h12c3.2 0 5.7 2 6.3 5.3l29.1 112c0.6 3.3 5.7 3.3 6.3 0l21.5-111.3q2.8-5.9 7.6-6zm-601.5 90.9c0 11.2 0.7 19.8 1.9 27 1.3 6.6 3.2 12.5 6.4 16.5 3.1 3.9 7.5 6.6 12.6 7.9q8.5 2 20.9 2c4.4 0 22.7 0 31.6-0.7 2.5 0 5 2 6.3 4.7l3.8 11.2c1.2 3.2-1.3 5.9-4.5 5.9-11.3 0-35.3 0.6-37.9 0.6q-18.9 0-32.2-3.9c-8.2-2.6-15.2-7.2-20.2-13.2-5-5.9-8.8-13.8-10.7-23-1.9-9.2-3.2-21.1-3.2-34.9v-17.2q0-21.7 3.8-35.5c2.5-9.2 6.3-17.2 11.4-23.1 5-5.9 12-9.9 20.2-12.5 8.2-2.6 18.9-3.9 31-3.9 3.7 0 26.5 0 37.9 0.6 3.1 0 5 3.3 4.4 6.6l-3.8 11.2c-1.3 2.6-3.8 4.6-6.3 4.6-9.5 0-30.3-0.6-32.2-0.6q-13.3 0-20.9 2c-5.7 1.3-9.5 3.9-12.6 7.2-3.2 3.9-5.1 9.2-6.4 15.8-1.2 6.6-1.2 15.8-1.2 27v17.8zm151.6-49.4c9.5 0 17.7 0.6 24.6 2.6 7 2 12.7 4.6 16.5 9.2q6.6 7 9.4 17.8c2 7.3 3.2 16.5 3.2 27.7v12.5c0 11.2-1.2 20.4-3.2 27.6q-2.8 10.9-9.4 17.8c-4.4 4.6-10.1 7.3-16.5 9.2-6.9 2-15.1 2.7-24.6 2.7-9.5 0-17.7-0.7-24.6-2.7-7-1.9-12.7-4.6-16.5-9.2q-6.6-6.9-9.4-17.8c-1.9-7.2-3.2-16.4-3.2-27.6v-12.5c0-11.2 1.3-20.4 3.2-27.7q2.8-10.8 9.4-17.8c4.4-4.6 10.1-7.2 16.5-9.2 6.9-2 15.1-2.6 24.6-2.6zm30.3 57.3c0-7.9-0.6-14.5-1.2-19.8-0.7-4.6-2.6-8.6-4.5-11.2-1.9-2.6-5-4.6-8.8-5.3-3.8-0.6-8.9-1.3-15.2-1.3-6.3 0-11.4 0.7-15.1 1.3-3.8 0.7-7 2.7-8.9 5.3-1.9 2.6-3.8 6.6-4.4 11.2-0.6 4.6-1.3 11.2-1.3 19.8v12.5c0 7.9 0.7 14.5 1.3 19.8 0.6 4.6 2.5 8.5 4.4 11.2 1.9 2.6 5 4.6 8.9 5.2 3.8 0.7 8.8 1.3 15.1 1.3 6.3 0 11.4-0.6 15.2-1.3 3.8-0.6 6.9-2.6 8.8-5.2 2-2.7 3.8-6.6 4.5-11.2 0.6-4.7 1.2-11.3 1.2-19.8zm51.2 66.5c-2.5 0-4.4-2-4.4-4.6v-77.7c0-7.3 1.2-13.2 3.1-17.8 1.9-4.6 5.1-8.6 8.9-11.9 3.8-3.3 8.2-5.3 13.9-6.6 5-1.3 11.4-1.9 17.7-1.9h23.3c3.2 0 5.1 3.2 4.4 6.5l-3.8 9.3c-1.2 2.6-3.7 4.6-6.3 4.6h-15.1c-5.1 0-9.5 0.6-12.1 1.3-3.1 0.6-5 2.6-6.9 4.6-1.2 2-2.5 4.6-2.5 7.2-0.7 2.7-0.7 6-0.7 9.9v72.4c0 2.7-1.9 4.7-4.4 4.7h-15.1zm102.3-50.7c-2.5 0-4.4 1.9-4.4 4.6 0 4.6 0.6 7.9 0.6 11.2 0.7 3.9 1.9 7.2 3.8 9.2 1.9 2.6 5.1 3.9 8.2 4.6 3.8 0.7 8.3 1.3 14.6 1.3 3.1 0 27.8 0 38.5-0.6 2.5 0 5.7 2 6.3 4.6l3.2 9.2c1.2 3.3-1.3 5.9-4.4 6.6-12.7 0-41.1 0.6-43.6 0.6-10.8 0-19-1.3-25.9-3.9-7-2.6-12-5.9-15.8-11.2-3.8-4.6-6.3-10.5-7.6-17.1-1.2-6.6-1.9-14.5-1.9-22.4v-13.2q0-12.8 1.9-23.7 1.9-10.9 7.6-17.8c3.8-4.6 8.8-8.6 15.8-11.2q10.4-3.9 26.5-3.9c10.1 0 18.3 1.3 24.6 3.3q9.5 3.9 15.2 9.8c3.8 4 6.3 8.6 7.6 14.5 1.2 5.3 1.9 11.2 1.9 16.5v3.9c0 5.3-0.6 9.9-0.6 13.2-0.7 3.3-1.3 5.9-3.2 7.2-1.2 2-3.1 3.3-5.1 3.3-1.9 0.7-4.4 0.7-7.5 0.7l-56.3 0.6zm23.4-54c-5.7 0-10.7 0.7-14.5 1.3-3.8 0.7-6.3 2.7-8.2 5.3-1.9 2.6-3.2 5.9-3.8 10.6-0.6 3.3-0.6 7.9-0.6 12.5 0 2.6 1.9 4.6 4.4 4.6h46.7c2.6 0 4.4-2 4.4-4.6v-3.3c0-5.3-0.6-9.2-1.2-13.2-0.6-3.3-2.6-5.9-4.4-7.9-1.9-2-5.1-3.3-8.9-3.9-3.8-0.7-8.2-1.3-13.9-1.3zm296.3 54c-2.5 0-4.4 1.9-4.4 4.6 0 4.6 0.6 7.9 1.3 11.2 0.6 3.9 1.9 7.2 3.7 9.2 1.9 2.6 5.1 3.9 8.3 4.6 3.7 0.7 8.2 1.3 14.5 1.3 3.1 0 27.8 0 38.5-0.6 2.5 0 5.1 2 6.3 4.6l3.2 9.2c1.2 3.3-1.3 5.9-4.4 6.6-12.7 0-41.1 0.6-43.6 0.6-10.8 0-19-1.3-25.9-3.9-6.3-2.6-12-5.9-15.8-11.2-3.8-4.6-6.3-10.5-7.6-17.1-1.2-6.6-1.9-14.5-1.9-22.4v-13.2q0-12.8 1.9-23.7 1.9-10.9 7.6-17.8c3.8-4.6 8.8-8.6 15.8-11.2q10.4-3.9 26.5-3.9c10.1 0 18.3 1.3 24.7 3.3q9.4 3.9 15.1 9.8c3.8 4 6.3 8.6 7.6 14.5 1.2 5.9 1.9 11.2 1.9 16.5v3.9c0 5.3 0 9.9-0.6 13.2-0.7 3.3-1.3 5.9-3.2 7.2-1.2 2-3.1 3.3-5.1 3.3-1.9 0.7-4.4 0.7-6.9 0.7 0 0-57.5 0.6-57.5 0.7zm22.8-54c-5.7 0-10.8 0.6-14.6 1.3-3.8 0.6-6.3 2.6-8.2 5.2-1.9 2.7-3.2 6-3.8 10.6-0.6 3.3-0.6 7.9-1.3 12.5 0 2.6 2 4.6 4.5 4.6h46.7c2.6 0 4.4-2 4.4-4.6v-3.3c0-5.3-0.6-9.2-1.2-13.2-0.6-3.2-2.6-5.9-4.4-7.9-1.9-2-5.1-3.3-8.9-3.9-3.1-0.7-7.6-1.3-13.2-1.3zm329.7 54c-2.5 0-4.4 2-4.4 4.6 0 4.6 0.6 7.9 0.6 11.2 0.7 3.9 2 7.2 3.8 9.2 1.9 2.7 5.1 4 8.3 4.6 3.7 0.7 8.2 1.4 14.5 1.4 3.1 0 27.8 0 38.5-0.7 2.5 0 5.7 2 6.3 4.6l3.2 9.2c1.2 3.3-1.3 6-4.4 6.6-12.7 0-41.1 0.7-43.6 0.7-10.8 0-19-1.3-25.9-4-7-2.6-12-5.9-15.8-11.2-3.8-4.6-6.3-10.5-7.6-17.1-1.2-6.6-1.9-14.5-1.9-22.4v-13.2q0-12.8 1.9-23.7 1.9-10.8 7.6-17.8c3.8-4.6 8.8-8.5 15.8-11.2q10.4-3.9 26.5-3.9c10.1 0 18.3 1.3 24.6 3.3q9.5 3.9 15.2 9.9c3.8 3.9 6.3 8.5 7.6 14.4 1.2 5.3 1.9 11.2 1.9 16.5v4c0 5.2-0.6 9.8-0.6 13.1-0.7 3.3-1.3 6-3.2 7.3-1.2 1.9-3.1 3.3-5.1 3.3-1.9 0.6-4.4 0.6-7.5 0.6l-56.2 0.7zm23.3-54c-5.7 0-10.7 0.6-14.5 1.3-3.8 0.6-6.3 2.6-8.2 5.2-1.9 2.7-3.2 6-3.8 10.6-0.7 3.3-0.7 7.9-0.7 12.5 0 2.6 2 4.6 4.5 4.6h46.7c2.6 0 4.4-2 4.4-4.6v-3.3c0-5.3-0.6-9.2-1.2-13.2-0.6-3.2-2.6-5.9-4.4-7.9-1.9-2-5.1-3.3-8.9-3.9-4.4-0.7-8.8-1.3-13.9-1.3zm-184.4 85c0 7.2-1.9 12.5-5.1 15.7-3.2 3.3-9.5 4.7-17.7 4.7h-33.4c-15.8 0-26.6-3.3-33.5-9.2-7-6-10.1-15.2-10.1-27v-5.3c0-13.2 3.7-22.4 11.3-27.7 7.6-5.2 19-8.5 34.8-8.5q13.3 0 20.8 1.9c2.6 0.7 5.1 1.4 6.4 2.7 1.9 0.6 4.4-0.7 4.4-3.3v-1.3c0-4 0-7.2-0.6-9.9-0.7-2.6-2-5.3-3.8-7.2-1.9-2-5.1-3.3-8.9-4.6-3.8-0.7-8.8-1.3-15.8-1.3-5 0-27.1 0-37.3 0.6-2.5 0-5-2-6.3-4.6l-3.1-9.2c-1.3-3.3 1.2-6 3.7-6 12.1 0 38-0.6 42.4-0.6 18.3 0 30.9 3.3 39.1 9.9 8.3 6.5 12 16.4 12 28.9l0.7 61.3zm-78.4-15.8c0 5.3 1.3 9.2 4.4 12.5q4.8 3.9 17.1 3.9h29.7c2.5 0 4.4-2 4.4-4.6v-16.5c0-2.6-0.7-5.2-0.7-7.9-0.6-2-1.9-3.9-3.7-5.3-1.9-1.3-4.4-2.6-7.6-2.6-3.2-0.6-8.2-0.6-13.9-0.6h-5.1c-5 0-8.8 0-12 0.6-3.1 0.7-5.7 1.3-7.5 2.6-2 1.4-3.2 3.3-3.8 5.3-0.7 2-1.3 4.6-1.3 7.9v4.7zm115-79.7l26.5 79.7c1.3 3.2 5.1 3.2 6.3 0l27.8-79.7c0.7-2.7 3.8-4.7 6.4-4.7h13.2c3.2 0 5.1 3.3 4.4 6.6l-40.4 109.3c-1.3 2.7-3.8 4.7-6.3 4.7h-15.8c-2.5 0-5.1-2-6.3-4.7l-40.5-109.3c-1.2-3.3 1.3-6.6 4.4-6.6h14.6c2.5 0 5 2 5.6 4.7z"/>
</svg>