<svg width="112" height="28" viewBox="0 0 112 28" fill="none" xmlns="http://www.w3.org/2000/svg">
<path d="M14.0982 22.0081H7.84347L6.14039 27.6445H0L8.2786 4.37012H15.7962L21.1271 24.6178L14.5131 24.6391L14.0982 22.0081ZM11.6433 9.32757L8.98999 17.4149H12.9497L11.6433 9.32757Z" fill="white"/>
<path d="M59.7677 8.85254H57.3745V12.6867H59.6008C61.2047 12.6867 62.0749 12.1696 62.0749 10.756C62.08 9.44654 61.318 8.85254 59.7677 8.85254Z" fill="white"/>
<path d="M94.9615 0.0052138H24.9197C24.9197 0.0052138 18.7631 -0.457239 20.1343 7.32856C21.1907 13.3273 24.8468 25.7457 24.8468 25.7457C24.8468 25.7457 25.282 27.4862 27.5295 27.6309C28.6426 27.7028 44.3275 27.7038 59.9396 27.6856C75.5516 27.7028 91.2406 27.7018 92.3497 27.6309C94.5972 27.4862 95.0323 25.7457 95.0323 25.7457C95.0323 25.7457 98.4789 13.2868 99.7449 7.32856C101.337 -0.153659 94.9615 0.0052138 94.9615 0.0052138ZM36.1511 23.9951C31.9637 23.9951 28.9988 22.4772 26.9051 20.4331L30.4135 17.0613C32.1267 18.5296 33.8409 19.3766 36.2867 19.3766C37.9999 19.3766 39.0058 18.8868 39.0058 18.0439C39.0058 17.1736 38.4077 16.8478 35.0896 16.1678C30.1402 15.1619 27.8563 13.6663 27.8563 9.77743C27.8563 6.10614 31.1198 3.90823 35.9598 3.90823C39.8214 3.90823 42.6224 5.21362 44.5805 7.27998L40.9638 10.4068C39.6585 9.14801 38.2175 8.46799 36.0671 8.46799C34.4632 8.46799 33.7559 8.93044 33.7559 9.69141C33.7559 10.5617 34.4359 10.9422 37.5627 11.4866C42.593 12.3568 44.9316 13.9607 44.9316 17.6047C44.9336 21.9823 41.0994 23.9951 36.1511 23.9951ZM62.3773 23.4506L58.7607 16.9247H57.3743V23.4506H51.6063V4.41521H59.5743C65.5021 4.41521 68.0036 6.86307 68.0036 10.6973C68.0036 13.2271 66.6709 14.8846 64.3324 15.9188L69.2584 23.4506H62.3773ZM92.0198 23.4506H87.0684V21.873C85.763 23.2331 84.0498 23.9981 81.7932 23.9981C77.3336 23.9981 73.1189 21.1151 73.1189 14.0731C73.1189 7.2476 77.5239 3.90317 82.8537 3.90317C87.0411 3.90317 90.1143 5.5344 91.8822 9.09741L86.6636 10.8055C85.848 9.11967 84.7602 8.41233 82.965 8.41233C80.4352 8.41233 79.0489 10.3431 79.0489 13.8768C79.0489 17.548 80.2996 19.4788 82.965 19.4788C84.9504 19.4788 86.2558 18.3657 86.2558 16.7051V16.3519H82.9114V12.5187H92.0188L92.0198 23.4506Z" fill="white"/>
</svg>
