<svg width="496" height="104" viewBox="0 0 496 104" fill="none" xmlns="http://www.w3.org/2000/svg">
<g clip-path="url(#clip0_590_2006)">
<path d="M167.747 82.2501C163.386 82.2501 159.345 81.4863 155.623 79.9586C151.929 78.4031 148.693 76.2504 145.915 73.5006C143.165 70.7507 141.026 67.5287 139.499 63.8344C137.971 60.1401 137.207 56.1403 137.207 51.835C137.207 47.5019 137.971 43.4882 139.499 39.7939C141.026 36.0997 143.165 32.8776 145.915 30.1278C148.693 27.3779 151.929 25.2391 155.623 23.7114C159.345 22.1837 163.386 21.4199 167.747 21.4199C172.08 21.4199 176.094 22.1976 179.788 23.7531C183.482 25.3086 186.718 27.4751 189.496 30.2528C192.274 33.0304 194.426 36.2663 195.954 39.9606C197.51 43.6271 198.287 47.5852 198.287 51.835C198.287 56.1403 197.51 60.1401 195.954 63.8344C194.426 67.5287 192.274 70.7507 189.496 73.5006C186.718 76.2504 183.482 78.4031 179.788 79.9586C176.094 81.4863 172.08 82.2501 167.747 82.2501ZM167.747 74.7922C170.886 74.7922 173.802 74.2505 176.497 73.1673C179.219 72.084 181.594 70.5424 183.621 68.5425C185.649 66.5148 187.232 64.0844 188.371 61.2512C189.538 58.418 190.121 55.2793 190.121 51.835C190.121 47.1963 189.121 43.1549 187.121 39.7106C185.149 36.2663 182.469 33.5998 179.08 31.711C175.691 29.7945 171.914 28.8362 167.747 28.8362C164.608 28.8362 161.678 29.3917 158.956 30.5028C156.262 31.586 153.887 33.1415 151.831 35.1692C149.804 37.1691 148.22 39.5856 147.082 42.4188C145.943 45.2242 145.373 48.363 145.373 51.835C145.373 56.4459 146.359 60.4735 148.331 63.9177C150.331 67.362 153.026 70.0424 156.414 71.959C159.803 73.8478 163.581 74.7922 167.747 74.7922Z" fill="white"/>
<path d="M203.286 98.4992V40.1688H210.327V46.2935C212.021 44.127 214.146 42.3632 216.702 41.0021C219.285 39.6133 222.535 38.9189 226.451 38.9189C230.507 38.9189 234.076 39.8772 237.159 41.7937C240.242 43.6825 242.645 46.2657 244.367 49.5434C246.117 52.821 246.992 56.5013 246.992 60.5845C246.992 63.5565 246.492 66.3619 245.492 69.0007C244.52 71.6117 243.117 73.9171 241.284 75.917C239.451 77.8891 237.27 79.4446 234.742 80.5834C232.243 81.6945 229.451 82.25 226.368 82.25C222.924 82.25 219.91 81.6112 217.327 80.3335C214.771 79.028 212.632 77.3197 210.91 75.2087V98.4992H203.286ZM225.076 75.3337C227.826 75.3337 230.257 74.7365 232.368 73.5421C234.506 72.32 236.173 70.6117 237.367 68.4174C238.589 66.1953 239.201 63.5843 239.201 60.5845C239.201 57.5568 238.589 54.9459 237.367 52.7515C236.173 50.5294 234.506 48.8212 232.368 47.6268C230.257 46.4324 227.826 45.8352 225.076 45.8352C222.326 45.8352 219.882 46.4324 217.743 47.6268C215.632 48.8212 213.966 50.5294 212.744 52.7515C211.521 54.9459 210.91 57.5568 210.91 60.5845C210.91 63.5843 211.521 66.1953 212.744 68.4174C213.966 70.6117 215.632 72.32 217.743 73.5421C219.882 74.7365 222.326 75.3337 225.076 75.3337Z" fill="white"/>
<path d="M269.535 82.25C265.202 82.25 261.383 81.3473 258.077 79.5418C254.772 77.7364 252.189 75.2226 250.328 72.0006C248.467 68.7507 247.536 64.9731 247.536 60.6678C247.536 57.5568 248.064 54.6681 249.119 52.0016C250.203 49.335 251.703 47.0296 253.619 45.0852C255.563 43.1409 257.827 41.6271 260.41 40.5438C263.021 39.4605 265.855 38.9189 268.91 38.9189C272.215 38.9189 275.16 39.5022 277.743 40.6688C280.354 41.8354 282.507 43.4742 284.201 45.5852C285.923 47.6684 287.159 50.1267 287.909 52.9598C288.659 55.7653 288.812 58.8207 288.367 62.126H255.119C255.036 64.8481 255.591 67.2369 256.786 69.2924C257.98 71.32 259.702 72.9033 261.952 74.0421C264.23 75.1809 266.924 75.7504 270.035 75.7504C272.313 75.7504 274.535 75.3893 276.701 74.6671C278.868 73.9449 280.784 72.8755 282.451 71.4589L285.701 77.167C284.368 78.2502 282.784 79.1807 280.951 79.9585C279.146 80.7084 277.257 81.2779 275.285 81.6667C273.313 82.0556 271.396 82.25 269.535 82.25ZM255.536 56.168H280.701C280.59 52.7237 279.521 50.0433 277.493 48.1268C275.465 46.1824 272.563 45.2102 268.785 45.2102C265.119 45.2102 262.091 46.1824 259.702 48.1268C257.313 50.0433 255.925 52.7237 255.536 56.168Z" fill="white"/>
<path d="M292.445 81.0001V40.1688H300.111V45.6685C301.861 43.2798 303.902 41.5576 306.236 40.5021C308.569 39.4466 310.958 38.9189 313.402 38.9189C317.096 38.9189 320.152 39.6689 322.568 41.1688C325.012 42.6409 326.832 44.5297 328.026 46.8352C329.248 49.1406 329.859 51.5016 329.859 53.9181V81.0001H322.193V56.293C322.193 53.2098 321.235 50.7377 319.318 48.8767C317.402 46.9879 314.791 46.0435 311.485 46.0435C309.319 46.0435 307.374 46.5296 305.652 47.5018C303.958 48.4462 302.611 49.7933 301.611 51.5433C300.611 53.2932 300.111 55.3069 300.111 57.5846V81.0001H292.445Z" fill="white"/>
<path fill-rule="evenodd" clip-rule="evenodd" d="M51.847 0.757324L102.936 51.8465L51.847 102.936L0.757812 51.8465L51.847 0.757324ZM51.847 9.24261L9.24309 51.8465L51.847 94.4505L94.451 51.8465L51.847 9.24261Z" fill="#0FBCFF"/>
<path fill-rule="evenodd" clip-rule="evenodd" d="M23.9414 51.8477L51.8536 23.9355L79.7657 51.8476L51.8536 79.7598L23.9414 51.8477ZM32.4267 51.8477L51.8536 71.2745L71.2805 51.8476L51.8536 32.4208L32.4267 51.8477Z" fill="#0FBCFF"/>
<path d="M56.1731 51.587L51.586 47L46.999 51.587L51.586 56.1741L56.1731 51.587Z" fill="#0FBCFF"/>
<path d="M368.52 82.245C363.872 82.245 359.584 81.5395 355.655 80.1285C351.726 78.6898 348.296 76.6563 345.363 74.028C342.458 71.372 340.203 68.1903 338.599 64.483C336.994 60.7757 336.192 56.6395 336.192 52.0745C336.192 47.4818 336.966 43.3318 338.516 39.6245C340.065 35.8895 342.237 32.6802 345.031 29.9965C347.853 27.3128 351.173 25.2517 354.991 23.813C358.809 22.3743 363.001 21.655 367.566 21.655C369.668 21.655 371.785 21.8348 373.915 22.1945C376.045 22.5265 378.12 23.066 380.14 23.813C382.16 24.56 384.041 25.556 385.784 26.801L382.298 32.9845C380.14 31.6012 377.802 30.5775 375.285 29.9135C372.767 29.2218 370.194 28.876 367.566 28.876C364.052 28.876 360.856 29.4155 357.979 30.4945C355.102 31.5735 352.639 33.1228 350.592 35.1425C348.545 37.1345 346.968 39.5553 345.861 42.405C344.782 45.2547 344.243 48.4502 344.243 51.9915C344.243 56.9162 345.28 61.1215 347.355 64.6075C349.43 68.0658 352.307 70.708 355.987 72.534C359.694 74.36 363.983 75.273 368.852 75.273C371.37 75.273 373.611 75.0378 375.575 74.5675C377.539 74.0695 379.089 73.5023 380.223 72.866V57.594H366.611V50.954H387.32V77.265C385.881 78.2887 384.041 79.174 381.8 79.921C379.559 80.668 377.235 81.2352 374.828 81.6225C372.449 82.0375 370.346 82.245 368.52 82.245ZM397.153 81V22.9H418.567C422.496 22.9 425.885 23.5917 428.735 24.975C431.612 26.3583 433.825 28.3365 435.375 30.9095C436.952 33.4548 437.74 36.4567 437.74 39.915C437.74 42.82 437.104 45.393 435.831 47.634C434.558 49.8473 432.76 51.6595 430.436 53.0705C428.112 54.4815 425.401 55.4222 422.302 55.8925L440.438 81H430.893L413.795 56.8885H404.955V81H397.153ZM404.955 50.207H417.073C421.112 50.207 424.253 49.3355 426.494 47.5925C428.762 45.8495 429.897 43.3872 429.897 40.2055C429.897 36.9408 428.901 34.3678 426.909 32.4865C424.917 30.6052 421.901 29.6645 417.862 29.6645H404.955V50.207ZM472.223 82.245C466.22 82.245 460.963 81 456.453 78.51C451.971 75.9923 448.485 72.4648 445.995 67.9275C443.533 63.3625 442.302 58.0367 442.302 51.95C442.302 47.551 443.035 43.5117 444.501 39.832C445.968 36.1247 448.043 32.9153 450.726 30.204C453.41 27.4927 456.578 25.39 460.23 23.896C463.909 22.402 467.921 21.655 472.265 21.655C476.553 21.655 480.302 22.1945 483.511 23.2735C486.721 24.3248 489.487 25.8327 491.811 27.797L487.661 34.188C485.78 32.5003 483.594 31.2415 481.104 30.4115C478.614 29.5815 475.861 29.1665 472.846 29.1665C469.443 29.1665 466.358 29.6922 463.591 30.7435C460.825 31.7948 458.459 33.3165 456.495 35.3085C454.558 37.2728 453.064 39.6522 452.013 42.4465C450.961 45.2408 450.436 48.381 450.436 51.867C450.436 56.681 451.363 60.7895 453.216 64.1925C455.098 67.5955 457.754 70.1962 461.184 71.9945C464.615 73.7652 468.668 74.6505 473.344 74.6505C476.359 74.6505 479.251 74.2078 482.017 73.3225C484.812 72.4095 487.426 70.9293 489.861 68.882L493.513 75.522C490.663 77.763 487.468 79.4507 483.926 80.585C480.413 81.6917 476.512 82.245 472.223 82.245Z" fill="white"/>
</g>
<defs>
<clipPath id="clip0_590_2006">
<rect width="496" height="104" fill="white"/>
</clipPath>
</defs>
</svg>