<svg width="205" height="40" viewBox="0 0 205 40" fill="none" xmlns="http://www.w3.org/2000/svg">
<g clip-path="url(#clip0_5039_16400)">
<mask id="mask0_5039_16400" style="mask-type:luminance" maskUnits="userSpaceOnUse" x="0" y="0" width="40" height="40">
<path d="M39.5745 0H0V39.5745H39.5745V0Z" fill="white"/>
</mask>
<g mask="url(#mask0_5039_16400)">
<path fill-rule="evenodd" clip-rule="evenodd" d="M18.5107 39.5745V0H21.0639V39.5745H18.5107Z" fill="#0FBCFF"/>
<path fill-rule="evenodd" clip-rule="evenodd" d="M4.31183e-07 18.5093H39.5745V21.0625H0L4.31183e-07 18.5093Z" fill="#0FBCFF"/>
<path fill-rule="evenodd" clip-rule="evenodd" d="M12.1982 19.7827H14.7514V24.8228H19.8575V27.376H12.1982V19.7827Z" fill="#0FBCFF"/>
<path fill-rule="evenodd" clip-rule="evenodd" d="M5.87989 19.7827L8.43308 19.7831L8.43146 31.1414H19.7256V33.6946H5.87793L5.87989 19.7827Z" fill="#0FBCFF"/>
<path fill-rule="evenodd" clip-rule="evenodd" d="M19.7031 5.99268H33.5508L33.5488 19.9028L30.9956 19.9024L30.9972 8.54587H19.7031V5.99268Z" fill="#0FBCFF"/>
<path fill-rule="evenodd" clip-rule="evenodd" d="M19.605 12.3413L27.2653 12.3456L27.2635 19.9367L24.7103 19.9359L24.7117 14.8974L19.6035 14.8945L19.605 12.3413Z" fill="#0FBCFF"/>
</g>
<path d="M68.8287 32.8066C66.973 32.8066 65.2534 32.4816 63.6696 31.8315C62.0977 31.1696 60.7207 30.2535 59.5385 29.0834C58.3683 27.9132 57.4581 26.5421 56.8083 24.9701C56.1581 23.3981 55.833 21.696 55.833 19.864C55.833 18.0201 56.1581 16.3122 56.8083 14.7401C57.4581 13.1681 58.3683 11.797 59.5385 10.6269C60.7207 9.45671 62.0977 8.54658 63.6696 7.89649C65.2534 7.24641 66.973 6.92139 68.8287 6.92139C70.6726 6.92139 72.3807 7.25232 73.9526 7.91424C75.5249 8.57615 76.9019 9.49807 78.0836 10.6801C79.2658 11.862 80.1819 13.239 80.8317 14.811C81.4939 16.3713 81.8245 18.0556 81.8245 19.864C81.8245 21.696 81.4939 23.3981 80.8317 24.9701C80.1819 26.5421 79.2658 27.9132 78.0836 29.0834C76.9019 30.2535 75.5249 31.1696 73.9526 31.8315C72.3807 32.4816 70.6726 32.8066 68.8287 32.8066ZM68.8287 29.633C70.1645 29.633 71.4058 29.4025 72.5522 28.9415C73.7105 28.4806 74.7211 27.8246 75.5841 26.9736C76.4466 26.1107 77.1202 25.0765 77.6049 23.8709C78.1015 22.6653 78.3496 21.3296 78.3496 19.864C78.3496 17.8901 77.9241 16.1703 77.073 14.7047C76.2339 13.239 75.0934 12.1043 73.6513 11.3006C72.2092 10.485 70.6019 10.0773 68.8287 10.0773C67.4934 10.0773 66.2462 10.3136 65.0879 10.7864C63.9415 11.2474 62.9309 11.9093 62.056 12.7722C61.1934 13.6232 60.5198 14.6515 60.0351 15.8571C59.5505 17.0509 59.3079 18.3865 59.3079 19.864C59.3079 21.8261 59.7279 23.5399 60.5671 25.0056C61.4181 26.4712 62.5645 27.6118 64.0066 28.4274C65.4483 29.2311 67.056 29.633 68.8287 29.633Z" fill="white"/>
<path d="M83.9521 39.721V14.8995H86.9483V17.5058C87.6696 16.5839 88.5734 15.8333 89.6611 15.2541C90.7602 14.6632 92.1432 14.3677 93.8096 14.3677C95.5356 14.3677 97.0543 14.7755 98.3662 15.591C99.6781 16.3947 100.701 17.494 101.433 18.8887C102.178 20.2835 102.55 21.8495 102.55 23.5871C102.55 24.8518 102.338 26.0456 101.912 27.1684C101.499 28.2795 100.902 29.2605 100.122 30.1115C99.3415 30.9507 98.4134 31.6127 97.3381 32.0972C96.2743 32.5701 95.0862 32.8064 93.7743 32.8064C92.3087 32.8064 91.0262 32.5346 89.927 31.9909C88.8394 31.4354 87.9296 30.7084 87.1968 29.8101V39.721H83.9521ZM93.2245 29.8633C94.3947 29.8633 95.4292 29.6092 96.3275 29.101C97.2377 28.5809 97.9466 27.854 98.4551 26.9202C98.9751 25.9747 99.2351 24.8636 99.2351 23.5871C99.2351 22.2987 98.9751 21.1876 98.4551 20.2539C97.9466 19.3083 97.2377 18.5814 96.3275 18.0732C95.4292 17.5649 94.3947 17.3108 93.2245 17.3108C92.0547 17.3108 91.0143 17.5649 90.1045 18.0732C89.2058 18.5814 88.4968 19.3083 87.9768 20.2539C87.4568 21.1876 87.1968 22.2987 87.1968 23.5871C87.1968 24.8636 87.4568 25.9747 87.9768 26.9202C88.4968 27.854 89.2058 28.5809 90.1045 29.101C91.0143 29.6092 92.0547 29.8633 93.2245 29.8633Z" fill="white"/>
<path d="M112.143 32.8064C110.299 32.8064 108.674 32.4223 107.267 31.654C105.86 30.8858 104.761 29.8161 103.969 28.445C103.177 27.0621 102.781 25.4546 102.781 23.6225C102.781 22.2987 103.006 21.0695 103.455 19.9348C103.916 18.8001 104.554 17.819 105.37 16.9916C106.197 16.1643 107.16 15.5201 108.26 15.0591C109.371 14.5981 110.577 14.3677 111.877 14.3677C113.283 14.3677 114.536 14.6159 115.635 15.1123C116.746 15.6087 117.663 16.3061 118.383 17.2044C119.116 18.0909 119.642 19.1369 119.961 20.3425C120.28 21.5364 120.345 22.8365 120.157 24.243H106.008C105.973 25.4014 106.209 26.4179 106.717 27.2925C107.226 28.1554 107.958 28.8291 108.916 29.3137C109.885 29.7983 111.031 30.0407 112.355 30.0407C113.325 30.0407 114.27 29.887 115.192 29.5797C116.114 29.2724 116.93 28.8173 117.639 28.2145L119.022 30.6434C118.454 31.1044 117.78 31.5004 117 31.8313C116.232 32.1504 115.428 32.3927 114.589 32.5582C113.75 32.7237 112.934 32.8064 112.143 32.8064ZM106.186 21.7077H116.894C116.847 20.2421 116.392 19.1015 115.529 18.2859C114.666 17.4585 113.431 17.0448 111.823 17.0448C110.263 17.0448 108.975 17.4585 107.958 18.2859C106.942 19.1015 106.351 20.2421 106.186 21.7077Z" fill="white"/>
<path d="M121.892 32.2746V14.8995H125.154V17.2398C125.898 16.2234 126.767 15.4905 127.76 15.0414C128.753 14.5922 129.769 14.3677 130.809 14.3677C132.381 14.3677 133.682 14.6868 134.71 15.3251C135.75 15.9515 136.524 16.7552 137.032 17.7363C137.552 18.7173 137.813 19.722 137.813 20.7503V32.2746H134.55V21.7609C134.55 20.4489 134.143 19.397 133.327 18.605C132.512 17.8013 131.401 17.3994 129.994 17.3994C129.072 17.3994 128.245 17.6063 127.512 18.02C126.791 18.4218 126.218 18.9951 125.792 19.7397C125.366 20.4844 125.154 21.3413 125.154 22.3105V32.2746H121.892Z" fill="white"/>
<path d="M139.124 32.2741L148.893 7.45264H152.35L162.421 32.2741H158.662L156.198 26.051H145.134L142.776 32.2741H139.124ZM146.074 23.1433H155.222L150.542 11.5836L146.074 23.1433Z" fill="white"/>
<path d="M165.003 32.2552V7.23389H180.695V10.2364H168.363V17.6892H179.104V20.5667H168.363V29.2347H180.802V32.2552H165.003Z" fill="white"/>
<path d="M191.783 32.2552L182.024 7.23389H185.813L193.552 27.6441L200.969 7.23389H204.651L195.214 32.2552H191.783Z" fill="white"/>
</g>
<defs>
<clipPath id="clip0_5039_16400">
<rect width="204.681" height="40" fill="white"/>
</clipPath>
</defs>
</svg>
