<svg width="150" height="40" viewBox="0 0 150 40" fill="none" xmlns="http://www.w3.org/2000/svg">
<path fill-rule="evenodd" clip-rule="evenodd" d="M4.71689 11.7712C2.91308 14.0247 1.8344 16.8863 1.8344 19.9998C1.8344 23.1139 2.91308 25.9754 4.71689 28.2288V11.7712ZM6.5513 9.89548V30.1046C7.40906 30.823 8.3597 31.4337 9.38298 31.9159V8.08411C8.3597 8.56645 7.40906 9.17715 6.5513 9.89548ZM11.2174 7.38262V32.6174C12.1237 32.8876 13.0716 33.0623 14.0487 33.1296V6.87039C13.0716 6.93781 12.1237 7.11251 11.2174 7.38262ZM15.883 6.87039V9.75105H23.205C21.1744 8.10939 18.6463 7.06118 15.883 6.87039ZM25.0669 11.5896H15.883V14.4293H26.8665C26.3875 13.4037 25.7809 12.4505 25.0669 11.5896ZM27.5618 16.2679H15.883V19.106H28.0676C28.0017 18.1268 27.8294 17.177 27.5618 16.2679ZM28.064 20.9447H15.883V33.1296C16.9075 33.0588 17.8999 32.8703 18.8466 32.5773V23.897H27.5122C27.8035 22.9537 27.9918 21.9652 28.064 20.9447ZM26.7882 25.7355H20.6811V27.4311H22.5154V29.2698H20.6811V31.8528C23.3399 30.5624 25.4993 28.3998 26.7882 25.7355ZM0 19.9998C0 11.7157 6.70038 5 14.9657 5C23.2313 5 29.9317 11.7157 29.9317 19.9998C29.9317 28.2843 23.2313 35 14.9657 35C6.70038 35 0 28.2843 0 19.9998Z" fill="#0FBCFF"/>
<path d="M41.793 29L47.786 19.653L42.131 10.8H45.043L49.554 17.885L54.403 10.8H57.211L51.218 19.731L57.406 29H54.481L49.45 21.447L44.627 29H41.793ZM62.8948 29V13.049H57.6818V10.8H70.5518V13.049H65.3388V29H62.8948ZM72.4553 29V10.8H74.8343L82.4263 23.085H81.4903L88.8223 10.8H91.1363V29H88.7443L88.7703 14.128L89.2513 14.284L82.7513 24.905H80.8663L74.2883 14.284L74.6653 14.128L74.6913 29H72.4553ZM98.6432 29V10.8H101.087V18.197H110.447V10.8H112.891V29H110.447V20.446H101.087V29H98.6432ZM120.479 29.39C119.343 29.39 118.403 29.1603 117.658 28.701C116.921 28.2417 116.371 27.6437 116.007 26.907C115.643 26.1703 115.461 25.3817 115.461 24.541V16.26H117.853V24.034C117.853 24.97 118.134 25.7283 118.698 26.309C119.27 26.881 120.054 27.167 121.051 27.167C121.692 27.167 122.273 27.0197 122.793 26.725C123.313 26.4303 123.724 26.0187 124.028 25.49C124.34 24.9527 124.496 24.333 124.496 23.631V16.26H126.888V29H124.691V27.44C124.162 28.0813 123.542 28.5667 122.832 28.896C122.13 29.2253 121.345 29.39 120.479 29.39ZM136.436 29.39C135.578 29.39 134.803 29.26 134.109 29C133.416 28.7487 132.814 28.3977 132.302 27.947C131.8 27.4963 131.384 26.9807 131.054 26.4L131.405 25.88V29H129.208V10.28H131.587V19.211L131.119 18.678C131.683 17.846 132.398 17.17 133.264 16.65C134.14 16.13 135.188 15.87 136.41 15.87C137.684 15.87 138.802 16.1733 139.764 16.78C140.735 17.3867 141.489 18.2013 142.026 19.224C142.572 20.2467 142.845 21.382 142.845 22.63C142.845 23.5833 142.689 24.4717 142.377 25.295C142.065 26.1097 141.623 26.8247 141.051 27.44C140.488 28.0553 139.816 28.5363 139.036 28.883C138.256 29.221 137.39 29.39 136.436 29.39ZM136.007 27.232C136.865 27.232 137.624 27.0457 138.282 26.673C138.95 26.2917 139.47 25.7587 139.842 25.074C140.224 24.3807 140.414 23.566 140.414 22.63C140.414 21.6853 140.224 20.8707 139.842 20.186C139.47 19.4927 138.95 18.9597 138.282 18.587C137.624 18.2143 136.865 18.028 136.007 18.028C135.149 18.028 134.387 18.2143 133.719 18.587C133.061 18.9597 132.541 19.4927 132.159 20.186C131.778 20.8707 131.587 21.6853 131.587 22.63C131.587 23.566 131.778 24.3807 132.159 25.074C132.541 25.7587 133.061 26.2917 133.719 26.673C134.387 27.0457 135.149 27.232 136.007 27.232Z" fill="white"/>
</svg>
