<svg width="921" height="275" viewBox="0 0 921 275" fill="none" xmlns="http://www.w3.org/2000/svg">
<path fill-rule="evenodd" clip-rule="evenodd" d="M30.8806 76.378C19.0714 91.0977 12.0095 109.789 12.0095 130.126C12.0095 150.467 19.0714 169.158 30.8806 183.877V76.378ZM42.8901 64.1258V196.13C48.5057 200.822 54.7294 204.811 61.4286 207.961V52.2941C54.7294 55.4447 48.5057 59.4337 42.8901 64.1258ZM73.4381 47.712V212.543C79.3715 214.308 85.5776 215.449 91.974 215.889V44.3662C85.5776 44.8066 79.3715 45.9477 73.4381 47.712ZM103.983 44.3662V63.1824H151.919C138.625 52.4592 122.074 45.6124 103.983 44.3662ZM164.108 75.1918H103.983V93.7403H175.89C172.754 87.0411 168.783 80.8149 164.108 75.1918ZM180.442 105.75H103.983V124.288H183.753C183.322 117.892 182.194 111.688 180.442 105.75ZM183.73 136.298H103.983V215.889C110.69 215.426 117.187 214.195 123.385 212.281V155.582H180.117C182.024 149.421 183.257 142.964 183.73 136.298ZM175.377 167.591H135.395V178.667H147.404V190.677H135.395V207.549C152.802 199.12 166.939 184.994 175.377 167.591ZM0 130.126C0 76.0151 43.8661 32.149 97.9774 32.149C152.091 32.149 195.957 76.0151 195.957 130.126C195.957 184.24 152.091 228.106 97.9774 228.106C43.8661 228.106 0 184.24 0 130.126Z" fill="#0FBCFF"/>
<path d="M272.889 188.128L311.282 128.248L275.054 71.5331H293.709L322.608 116.922L353.672 71.5331H371.661L333.268 128.748L372.91 188.128H354.172L321.942 139.741L291.044 188.128H272.889ZM406.408 188.128V85.9408H373.012V71.5331H455.461V85.9408H422.065V188.128H406.408ZM465.99 188.128V71.5331H481.23L529.867 150.234H523.871L570.842 71.5331H585.666V188.128H570.342L570.508 92.8532L573.59 93.8526L531.949 161.894H519.873L477.732 93.8526L480.148 92.8532L480.314 188.128H465.99ZM627.095 188.128V71.5331H642.752V118.92H702.715V71.5331H718.372V188.128H702.715V133.328H642.752V188.128H627.095ZM768.645 190.626C761.372 190.626 755.348 189.155 750.573 186.212C745.854 183.27 742.328 179.439 739.996 174.719C737.664 170 736.498 164.948 736.498 159.562V106.511H751.822V156.314C751.822 162.31 753.627 167.168 757.236 170.888C760.9 174.553 765.925 176.385 772.31 176.385C776.418 176.385 780.138 175.441 783.469 173.553C786.801 171.666 789.438 169.028 791.381 165.642C793.38 162.199 794.379 158.23 794.379 153.732V106.511H809.703V188.128H795.629V178.134C792.242 182.242 788.272 185.352 783.719 187.461C779.222 189.571 774.197 190.626 768.645 190.626ZM872.539 190.626C867.043 190.626 862.074 189.793 857.632 188.128C853.19 186.518 849.331 184.269 846.056 181.382C842.835 178.495 840.17 175.191 838.061 171.471L840.309 168.14V188.128H826.235V68.2018H841.475V125.416L838.477 122.002C842.086 116.672 846.666 112.341 852.219 109.01C857.826 105.679 864.544 104.013 872.373 104.013C880.534 104.013 887.697 105.956 893.86 109.843C900.078 113.729 904.908 118.948 908.351 125.5C911.848 132.051 913.597 139.325 913.597 147.32C913.597 153.427 912.598 159.118 910.599 164.392C908.6 169.611 905.769 174.192 902.104 178.134C898.496 182.076 894.193 185.157 889.196 187.378C884.199 189.544 878.647 190.626 872.539 190.626ZM869.791 176.801C875.288 176.801 880.146 175.608 884.365 173.22C888.641 170.777 891.972 167.363 894.359 162.977C896.802 158.535 898.024 153.316 898.024 147.32C898.024 141.268 896.802 136.049 894.359 131.663C891.972 127.221 888.641 123.806 884.365 121.419C880.146 119.032 875.288 117.838 869.791 117.838C864.294 117.838 859.409 119.032 855.133 121.419C850.914 123.806 847.583 127.221 845.14 131.663C842.697 136.049 841.475 141.268 841.475 147.32C841.475 153.316 842.697 158.535 845.14 162.977C847.583 167.363 850.914 170.777 855.133 173.22C859.409 175.608 864.294 176.801 869.791 176.801Z" fill="white"/>
<path d="M651.669 240.455V204.305H663.005C666.327 204.305 669.03 205.08 671.113 206.629C673.196 208.161 674.237 210.416 674.237 213.394C674.237 214.582 673.936 215.718 673.333 216.803C672.731 217.887 671.973 218.834 671.061 219.643C670.149 220.452 669.219 221.012 668.272 221.322C670.269 221.89 671.956 222.974 673.333 224.575C674.728 226.159 675.425 228.164 675.425 230.591C675.425 232.468 674.951 234.155 674.005 235.652C673.058 237.133 671.706 238.303 669.951 239.164C668.212 240.025 666.146 240.455 663.753 240.455H651.669ZM655.594 237.073H662.927C665.819 237.073 667.962 236.522 669.357 235.42C670.751 234.318 671.448 232.623 671.448 230.333C671.448 228.078 670.725 226.374 669.279 225.221C667.85 224.05 665.621 223.465 662.592 223.465H655.594V237.073ZM655.594 220.16H662.282C663.917 220.16 665.337 219.901 666.542 219.385C667.747 218.869 668.685 218.128 669.357 217.164C670.028 216.183 670.364 215.013 670.364 213.653C670.364 211.725 669.658 210.253 668.246 209.237C666.835 208.204 664.829 207.688 662.23 207.688H655.594V220.16ZM680.262 252.049C679.522 252.049 678.781 251.954 678.041 251.765C677.318 251.593 676.561 251.266 675.769 250.784L676.724 247.401C677.241 247.763 677.8 248.03 678.403 248.202C679.022 248.374 679.556 248.46 680.004 248.46C681.381 248.46 682.422 248.124 683.128 247.453C683.834 246.782 684.428 245.757 684.91 244.38L686.046 241.075L676.079 215.408H680.339L688.241 236.401L695.935 215.408H700.015L688.886 244.845C688.146 246.773 687.354 248.253 686.511 249.286C685.667 250.336 684.729 251.059 683.696 251.455C682.663 251.851 681.519 252.049 680.262 252.049Z" fill="white"/>
<path d="M716.043 252.58H722.314V231.926H733.922V226.278H722.314V211.573H744.263V205.791H716.043V252.58Z" fill="white"/>
<path d="M754.974 219.828H748.837V252.58H754.974V219.828Z" fill="white"/>
<path d="M754.92 206.542C754.086 205.773 753.08 205.389 751.901 205.389C750.722 205.389 749.744 205.773 748.899 206.542C748.053 207.311 747.631 208.297 747.631 209.5C747.631 210.703 748.053 211.694 748.899 212.474C749.744 213.254 750.745 213.644 751.901 213.644C753.057 213.644 754.086 213.254 754.92 212.474C755.754 211.694 756.171 210.703 756.171 209.5C756.171 208.297 755.754 207.311 754.92 206.542Z" fill="white"/>
<path d="M767.05 204.455H760.912V252.581H767.05V204.455Z" fill="white"/>
<path d="M779.121 219.828H772.984V252.581H779.121V219.828Z" fill="white"/>
<path d="M779.068 206.542C778.234 205.773 777.229 205.389 776.049 205.389C774.87 205.389 773.893 205.773 773.047 206.542C772.202 207.311 771.78 208.297 771.78 209.5C771.78 210.703 772.202 211.694 773.047 212.474C773.893 213.254 774.894 213.644 776.049 213.644C777.205 213.644 778.234 213.254 779.068 212.474C779.902 211.694 780.319 210.703 780.319 209.5C780.319 208.297 779.902 207.311 779.068 206.542Z" fill="white"/>
<path d="M811.174 224.771C810.073 223.226 808.683 221.922 807.004 220.863C804.846 219.504 802.134 218.824 798.865 218.824C796.352 218.824 794.073 219.258 792.027 220.127C789.981 220.996 788.219 222.216 786.74 223.787C785.261 225.358 784.122 227.179 783.321 229.251C782.52 231.323 782.12 233.551 782.12 235.935C782.12 239.144 782.821 242.04 784.222 244.625C785.623 247.21 787.579 249.265 790.092 250.791C792.604 252.317 795.529 253.08 798.865 253.08C802.201 253.08 804.847 252.395 807.004 251.025C808.683 249.957 810.073 248.649 811.174 247.101V251.543C811.174 254.706 810.134 257.258 808.055 259.196C805.975 261.135 802.968 262.104 799.032 262.104C797.297 262.104 795.529 261.903 793.728 261.502C791.927 261.101 790.147 260.488 788.391 259.664L786.757 264.911C788.691 265.869 790.726 266.56 792.861 266.983C794.996 267.406 797.119 267.618 799.232 267.618C805.103 267.618 809.522 266.064 812.491 262.956C815.46 259.848 816.944 255.532 816.944 250.006V219.793H811.174V224.771ZM809.406 242.118C808.45 243.856 807.121 245.205 805.42 246.162C803.718 247.12 801.777 247.599 799.599 247.599C797.421 247.599 795.451 247.12 793.761 246.162C792.072 245.205 790.743 243.856 789.775 242.118C788.808 240.38 788.324 238.32 788.324 235.935C788.324 233.551 788.808 231.519 789.775 229.769C790.743 228.02 792.072 226.666 793.761 225.709C795.451 224.751 797.397 224.272 799.599 224.272C801.8 224.272 803.718 224.751 805.42 225.709C807.121 226.666 808.448 228.02 809.406 229.769C810.361 231.519 810.84 233.574 810.84 235.935C810.84 238.297 810.361 240.38 809.406 242.118Z" fill="white"/>
<path d="M843.13 219.161C842.551 219.049 841.962 218.96 841.362 218.893C840.761 218.826 840.139 218.793 839.494 218.793C837.447 218.793 835.519 219.222 833.706 220.08C831.894 220.937 830.332 222.436 829.02 224.575V219.829H822.882V252.581H829.02V234.367C829.02 231.515 829.904 229.237 831.672 227.533C833.44 225.828 835.691 224.976 838.426 224.976C839.049 224.976 839.682 225.026 840.328 225.126C840.973 225.227 841.607 225.365 842.229 225.544L843.13 219.161Z" fill="white"/>
<path d="M870.55 224.79C869.436 223.266 868.035 221.966 866.347 220.896C864.168 219.514 861.432 218.824 858.142 218.824C855.673 218.824 853.41 219.264 851.354 220.144C849.297 221.025 847.523 222.25 846.033 223.82C844.544 225.391 843.386 227.234 842.564 229.352C841.74 231.469 841.33 233.751 841.33 236.203C841.33 239.478 842.042 242.424 843.465 245.043C844.888 247.661 846.867 249.738 849.402 251.276C851.937 252.813 854.851 253.582 858.142 253.582C861.432 253.582 864.168 252.885 866.347 251.493C868.035 250.415 869.436 249.11 870.55 247.583V252.579H876.154V219.827H870.55V224.79ZM868.599 242.469C867.632 244.24 866.302 245.611 864.613 246.58C862.923 247.549 860.989 248.034 858.809 248.034C856.629 248.034 854.694 247.549 853.005 246.58C851.315 245.611 849.981 244.24 849.002 242.469C848.023 240.698 847.534 238.609 847.534 236.203C847.534 233.797 848.023 231.674 849.002 229.903C849.981 228.132 851.315 226.766 853.005 225.809C854.694 224.851 856.629 224.372 858.809 224.372C860.989 224.372 862.922 224.851 864.613 225.809C866.302 226.766 867.632 228.132 868.599 229.903C869.566 231.674 870.05 233.775 870.05 236.203C870.05 238.631 869.566 240.698 868.599 242.469Z" fill="white"/>
<path d="M910.593 225.174C909.626 223.324 908.17 221.803 906.224 220.612C904.277 219.421 901.826 218.824 898.869 218.824C896.912 218.824 894.999 219.247 893.131 220.094C891.263 220.941 889.629 222.322 888.228 224.238V219.827H882.09V252.579H888.228V233.797C888.228 231.97 888.628 230.354 889.429 228.951C890.229 227.547 891.313 226.461 892.681 225.692C894.049 224.923 895.6 224.539 897.334 224.539C899.981 224.539 902.071 225.291 903.605 226.795C905.14 228.299 905.907 230.287 905.907 232.76V252.579H912.044V230.855C912.044 228.917 911.561 227.024 910.593 225.174Z" fill="white"/>
</svg>
